  0
SECTION
  2
HEADER
  9
$ACADVER
  1
AC1009
  9
$INSBASE
 10
0.0
 20
0.0
 30
0.0
  9
$EXTMIN
 10
1.0
 20
1.0
 30
0.0
  9
$EXTMAX
 10
3.0
 20
3.0
 30
0.0
  9
$LIMMIN
 10
0.0
 20
0.0
  9
$LIMMAX
 10
420.0
 20
297.0
  9
$ORTHOMODE
 70
     0
  9
$REGENMODE
 70
     1
  9
$FILLMODE
 70
     1
  9
$QTEXTMODE
 70
     0
  9
$MIRRTEXT
 70
     0
  9
$DRAGMODE
 70
     2
  9
$LTSCALE
 40
1.0
  9
$OSMODE
 70
    37
  9
$ATTMODE
 70
     1
  9
$TEXTSIZE
 40
2.5
  9
$TRACEWID
 40
1.0
  9
$TEXTSTYLE
  7
STANDARD
  9
$CLAYER
  8
0
  9
$CELTYPE
  6
BYLAYER
  9
$CECOLOR
 62
   256
  9
$DIMSCALE
 40
1.0
  9
$DIMASZ
 40
2.5
  9
$DIMEXO
 40
0.625
  9
$DIMDLI
 40
3.75
  9
$DIMRND
 40
0.0
  9
$DIMDLE
 40
0.0
  9
$DIMEXE
 40
1.25
  9
$DIMTP
 40
0.0
  9
$DIMTM
 40
0.0
  9
$DIMTXT
 40
2.5
  9
$DIMCEN
 40
2.5
  9
$DIMTSZ
 40
0.0
  9
$DIMTOL
 70
     0
  9
$DIMLIM
 70
     0
  9
$DIMTIH
 70
     0
  9
$DIMTOH
 70
     0
  9
$DIMSE1
 70
     0
  9
$DIMSE2
 70
     0
  9
$DIMTAD
 70
     1
  9
$DIMZIN
 70
     8
  9
$DIMBLK
  1

  9
$DIMASO
 70
     1
  9
$DIMSHO
 70
     1
  9
$DIMPOST
  1

  9
$DIMAPOST
  1

  9
$DIMALT
 70
     0
  9
$DIMALTD
 70
     3
  9
$DIMALTF
 40
0.03937007874016
  9
$DIMLFAC
 40
1.0
  9
$DIMTOFL
 70
     1
  9
$DIMTVP
 40
0.0
  9
$DIMTIX
 70
     0
  9
$DIMSOXD
 70
     0
  9
$DIMSAH
 70
     0
  9
$DIMBLK1
  1

  9
$DIMBLK2
  1

  9
$DIMSTYLE
  2
ISO-25
  9
$DIMCLRD
 70
     0
  9
$DIMCLRE
 70
     0
  9
$DIMCLRT
 70
     0
  9
$DIMTFAC
 40
1.0
  9
$DIMGAP
 40
0.625
  9
$LUNITS
 70
     2
  9
$LUPREC
 70
     4
  9
$SKETCHINC
 40
1.0
  9
$FILLETRAD
 40
0.0
  9
$AUNITS
 70
     0
  9
$AUPREC
 70
     0
  9
$MENU
  1
.
  9
$ELEVATION
 40
0.0
  9
$PELEVATION
 40
0.0
  9
$THICKNESS
 40
0.0
  9
$LIMCHECK
 70
     0
  9
$BLIPMODE
 70
     0
  9
$CHAMFERA
 40
0.0
  9
$CHAMFERB
 40
0.0
  9
$SKPOLY
 70
     0
  9
$TDCREATE
 40
2454485.694817882
  9
$TDUPDATE
 40
2454485.6966635878
  9
$TDINDWG
 40
0.0018473264
  9
$TDUSRTIMER
 40
0.0018471528
  9
$USRTIMER
 70
     1
  9
$ANGBASE
 50
0.0
  9
$ANGDIR
 70
     0
  9
$PDMODE
 70
     0
  9
$PDSIZE
 40
0.0
  9
$PLINEWID
 40
0.0
  9
$COORDS
 70
     1
  9
$SPLFRAME
 70
     0
  9
$SPLINETYPE
 70
     6
  9
$SPLINESEGS
 70
     8
  9
$ATTDIA
 70
     0
  9
$ATTREQ
 70
     1
  9
$HANDLING
 70
     1
  9
$HANDSEED
  5
96
  9
$SURFTAB1
 70
     6
  9
$SURFTAB2
 70
     6
  9
$SURFTYPE
 70
     6
  9
$SURFU
 70
     6
  9
$SURFV
 70
     6
  9
$UCSNAME
  2

  9
$UCSORG
 10
0.0
 20
0.0
 30
0.0
  9
$UCSXDIR
 10
1.0
 20
0.0
 30
0.0
  9
$UCSYDIR
 10
0.0
 20
1.0
 30
0.0
  9
$PUCSNAME
  2

  9
$PUCSORG
 10
0.0
 20
0.0
 30
0.0
  9
$PUCSXDIR
 10
1.0
 20
0.0
 30
0.0
  9
$PUCSYDIR
 10
0.0
 20
1.0
 30
0.0
  9
$USERI1
 70
     0
  9
$USERI2
 70
     0
  9
$USERI3
 70
     0
  9
$USERI4
 70
     0
  9
$USERI5
 70
     0
  9
$USERR1
 40
0.0
  9
$USERR2
 40
0.0
  9
$USERR3
 40
0.0
  9
$USERR4
 40
0.0
  9
$USERR5
 40
0.0
  9
$WORLDVIEW
 70
     1
  9
$SHADEDGE
 70
     3
  9
$SHADEDIF
 70
    70
  9
$TILEMODE
 70
     1
  9
$MAXACTVP
 70
    64
  9
$PLIMCHECK
 70
     0
  9
$PEXTMIN
 10
0.0
 20
0.0
 30
0.0
  9
$PEXTMAX
 10
0.0
 20
0.0
 30
0.0
  9
$PLIMMIN
 10
0.0
 20
0.0
  9
$PLIMMAX
 10
12.0
 20
9.0
  9
$UNITMODE
 70
     0
  9
$VISRETAIN
 70
     1
  9
$PLINEGEN
 70
     0
  9
$PSLTSCALE
 70
     1
  0
ENDSEC
  0
SECTION
  2
TABLES
  0
TABLE
  2
VPORT
 70
     2
  0
VPORT
  2
*ACTIVE
 70
     0
 10
0.0
 20
0.0
 11
1.0
 21
1.0
 12
20.032850739476999
 22
12.30443880503212
 13
0.0
 23
0.0
 14
10.0
 24
10.0
 15
10.0
 25
10.0
 16
0.0
 26
0.0
 36
1.0
 17
0.0
 27
0.0
 37
0.0
 40
53.54964874631797
 41
1.88508064516129
 42
50.0
 43
0.0
 44
0.0
 50
0.0
 51
0.0
 71
     0
 72
  1000
 73
     1
 74
     3
 75
     0
 76
     0
 77
     0
 78
     0
  0
ENDTAB
  0
TABLE
  2
LTYPE
 70
     1
  0
LTYPE
  2
CONTINUOUS
 70
     0
  3
Solid line
 72
    65
 73
     0
 40
0.0
  0
ENDTAB
  0
TABLE
  2
LAYER
 70
     1
  0
LAYER
  2
0
 70
     0
 62
     7
  6
CONTINUOUS
  0
ENDTAB
  0
TABLE
  2
STYLE
 70
     1
  0
STYLE
  2
STANDARD
 70
     0
 40
0.0
 41
1.0
 50
0.0
 71
     0
 42
2.5
  3
txt
  4

  0
ENDTAB
  0
TABLE
  2
VIEW
 70
     0
  0
ENDTAB
  0
TABLE
  2
UCS
 70
     0
  0
ENDTAB
  0
TABLE
  2
APPID
 70
     1
  0
APPID
  2
ACAD
 70
     0
  0
ENDTAB
  0
TABLE
  2
DIMSTYLE
 70
     1
  0
DIMSTYLE
  2
ISO-25
 70
     0
  3

  4

  5

  6

  7

 40
1.0
 41
2.5
 42
0.625
 43
3.75
 44
1.25
 45
0.0
 46
0.0
 47
0.0
 48
0.0
140
2.5
141
2.5
142
0.0
143
0.03937007874016
144
1.0
145
0.0
146
1.0
147
0.625
 71
     0
 72
     0
 73
     0
 74
     0
 75
     0
 76
     0
 77
     1
 78
     8
170
     0
171
     3
172
     1
173
     0
174
     0
175
     0
176
     0
177
     0
178
     0
  0
ENDTAB
  0
ENDSEC
  0
SECTION
  2
BLOCKS
  0
BLOCK
  8
0
  2
$MODEL_SPACE
 70
     0
 10
0.0
 20
0.0
 30
0.0
  3
$MODEL_SPACE
  1

  0
ENDBLK
  5
21
  8
0
  0
BLOCK
 67
     1
  8
0
  2
$PAPER_SPACE
 70
     0
 10
0.0
 20
0.0
 30
0.0
  3
$PAPER_SPACE
  1

  0
ENDBLK
  5
53
 67
     1
  8
0
  0
ENDSEC
  0
SECTION
  2
ENTITIES
  0
CIRCLE
  5
4331
  8
0
 10
24
 20
0
 30
0.0
 40
0.5
  0
CIRCLE
  5
4339
  8
0
 10
24
 20
1
 30
0.0
 40
0.5
  0
CIRCLE
  5
4347
  8
0
 10
24
 20
2
 30
0.0
 40
0.5
  0
CIRCLE
  5
4355
  8
0
 10
24
 20
3
 30
0.0
 40
0.5
  0
CIRCLE
  5
4363
  8
0
 10
24
 20
4
 30
0.0
 40
0.5
  0
CIRCLE
  5
4371
  8
0
 10
24
 20
5
 30
0.0
 40
0.5
  0
CIRCLE
  5
4379
  8
0
 10
24
 20
6
 30
0.0
 40
0.5
  0
CIRCLE
  5
4387
  8
0
 10
24
 20
7
 30
0.0
 40
0.5
  0
CIRCLE
  5
4395
  8
0
 10
24
 20
8
 30
0.0
 40
0.5
  0
CIRCLE
  5
4403
  8
0
 10
24
 20
9
 30
0.0
 40
0.5
  0
CIRCLE
  5
4411
  8
0
 10
24
 20
10
 30
0.0
 40
0.5
  0
CIRCLE
  5
4419
  8
0
 10
24
 20
11
 30
0.0
 40
0.5
  0
CIRCLE
  5
4427
  8
0
 10
24
 20
12
 30
0.0
 40
0.5
  0
CIRCLE
  5
4435
  8
0
 10
24
 20
13
 30
0.0
 40
0.5
  0
CIRCLE
  5
4443
  8
0
 10
24
 20
14
 30
0.0
 40
0.5
  0
CIRCLE
  5
4451
  8
0
 10
24
 20
15
 30
0.0
 40
0.5
  0
CIRCLE
  5
4459
  8
0
 10
24
 20
16
 30
0.0
 40
0.5
  0
CIRCLE
  5
4467
  8
0
 10
24
 20
17
 30
0.0
 40
0.5
  0
CIRCLE
  5
4475
  8
0
 10
24
 20
18
 30
0.0
 40
0.5
  0
CIRCLE
  5
4483
  8
0
 10
24
 20
19
 30
0.0
 40
0.5
  0
CIRCLE
  5
4491
  8
0
 10
24
 20
20
 30
0.0
 40
0.5
  0
CIRCLE
  5
4499
  8
0
 10
24
 20
21
 30
0.0
 40
0.5
  0
CIRCLE
  5
4507
  8
0
 10
24
 20
22
 30
0.0
 40
0.5
  0
CIRCLE
  5
4515
  8
0
 10
24
 20
23
 30
0.0
 40
0.5
  0
CIRCLE
  5
4523
  8
0
 10
24
 20
24
 30
0.0
 40
0.5
  0
CIRCLE
  5
4531
  8
0
 10
24
 20
25
 30
0.0
 40
0.5
  0
CIRCLE
  5
4539
  8
0
 10
24
 20
26
 30
0.0
 40
0.5
  0
CIRCLE
  5
4547
  8
0
 10
24
 20
27
 30
0.0
 40
0.5
  0
CIRCLE
  5
4555
  8
0
 10
24
 20
28
 30
0.0
 40
0.5
  0
CIRCLE
  5
4563
  8
0
 10
24
 20
29
 30
0.0
 40
0.5
  0
CIRCLE
  5
4571
  8
0
 10
24
 20
30
 30
0.0
 40
0.5
  0
CIRCLE
  5
4579
  8
0
 10
24
 20
31
 30
0.0
 40
0.5
  0
CIRCLE
  5
4587
  8
0
 10
24
 20
32
 30
0.0
 40
0.5
  0
CIRCLE
  5
4595
  8
0
 10
24
 20
33
 30
0.0
 40
0.5
  0
CIRCLE
  5
4603
  8
0
 10
24
 20
34
 30
0.0
 40
0.5
  0
CIRCLE
  5
4611
  8
0
 10
24
 20
35
 30
0.0
 40
0.5
  0
CIRCLE
  5
4619
  8
0
 10
24
 20
36
 30
0.0
 40
0.5
  0
CIRCLE
  5
4627
  8
0
 10
24
 20
37
 30
0.0
 40
0.5
  0
CIRCLE
  5
4635
  8
0
 10
24
 20
38
 30
0.0
 40
0.5
  0
CIRCLE
  5
4643
  8
0
 10
24
 20
39
 30
0.0
 40
0.5
  0
CIRCLE
  5
4651
  8
0
 10
24
 20
40
 30
0.0
 40
0.5
  0
CIRCLE
  5
4659
  8
0
 10
24
 20
41
 30
0.0
 40
0.5
  0
CIRCLE
  5
4667
  8
0
 10
24
 20
42
 30
0.0
 40
0.5
  0
CIRCLE
  5
4675
  8
0
 10
24
 20
43
 30
0.0
 40
0.5
  0
CIRCLE
  5
4683
  8
0
 10
24
 20
44
 30
0.0
 40
0.5
  0
CIRCLE
  5
4691
  8
0
 10
23
 20
0
 30
0.0
 40
0.5
  0
CIRCLE
  5
4699
  8
0
 10
22
 20
0
 30
0.0
 40
0.5
  0
CIRCLE
  5
4707
  8
0
 10
22
 20
1
 30
0.0
 40
0.5
  0
CIRCLE
  5
4715
  8
0
 10
22
 20
2
 30
0.0
 40
0.5
  0
CIRCLE
  5
4723
  8
0
 10
22
 20
3
 30
0.0
 40
0.5
  0
CIRCLE
  5
4731
  8
0
 10
22
 20
4
 30
0.0
 40
0.5
  0
CIRCLE
  5
4739
  8
0
 10
22
 20
5
 30
0.0
 40
0.5
  0
CIRCLE
  5
4747
  8
0
 10
22
 20
6
 30
0.0
 40
0.5
  0
CIRCLE
  5
4755
  8
0
 10
22
 20
7
 30
0.0
 40
0.5
  0
CIRCLE
  5
4763
  8
0
 10
22
 20
8
 30
0.0
 40
0.5
  0
CIRCLE
  5
4771
  8
0
 10
22
 20
9
 30
0.0
 40
0.5
  0
CIRCLE
  5
4779
  8
0
 10
22
 20
10
 30
0.0
 40
0.5
  0
CIRCLE
  5
4787
  8
0
 10
22
 20
11
 30
0.0
 40
0.5
  0
CIRCLE
  5
4795
  8
0
 10
22
 20
12
 30
0.0
 40
0.5
  0
CIRCLE
  5
4803
  8
0
 10
22
 20
13
 30
0.0
 40
0.5
  0
CIRCLE
  5
4811
  8
0
 10
22
 20
14
 30
0.0
 40
0.5
  0
CIRCLE
  5
4819
  8
0
 10
22
 20
15
 30
0.0
 40
0.5
  0
CIRCLE
  5
4827
  8
0
 10
22
 20
16
 30
0.0
 40
0.5
  0
CIRCLE
  5
4835
  8
0
 10
22
 20
17
 30
0.0
 40
0.5
  0
CIRCLE
  5
4843
  8
0
 10
22
 20
18
 30
0.0
 40
0.5
  0
CIRCLE
  5
4851
  8
0
 10
22
 20
19
 30
0.0
 40
0.5
  0
CIRCLE
  5
4859
  8
0
 10
22
 20
20
 30
0.0
 40
0.5
  0
CIRCLE
  5
4867
  8
0
 10
22
 20
21
 30
0.0
 40
0.5
  0
CIRCLE
  5
4875
  8
0
 10
22
 20
22
 30
0.0
 40
0.5
  0
CIRCLE
  5
4883
  8
0
 10
22
 20
23
 30
0.0
 40
0.5
  0
CIRCLE
  5
4891
  8
0
 10
22
 20
24
 30
0.0
 40
0.5
  0
CIRCLE
  5
4899
  8
0
 10
22
 20
25
 30
0.0
 40
0.5
  0
CIRCLE
  5
4907
  8
0
 10
22
 20
26
 30
0.0
 40
0.5
  0
CIRCLE
  5
4915
  8
0
 10
22
 20
27
 30
0.0
 40
0.5
  0
CIRCLE
  5
4923
  8
0
 10
22
 20
28
 30
0.0
 40
0.5
  0
CIRCLE
  5
4931
  8
0
 10
22
 20
29
 30
0.0
 40
0.5
  0
CIRCLE
  5
4939
  8
0
 10
22
 20
30
 30
0.0
 40
0.5
  0
CIRCLE
  5
4947
  8
0
 10
22
 20
31
 30
0.0
 40
0.5
  0
CIRCLE
  5
4955
  8
0
 10
22
 20
32
 30
0.0
 40
0.5
  0
CIRCLE
  5
4963
  8
0
 10
22
 20
33
 30
0.0
 40
0.5
  0
CIRCLE
  5
4971
  8
0
 10
22
 20
34
 30
0.0
 40
0.5
  0
CIRCLE
  5
4979
  8
0
 10
22
 20
35
 30
0.0
 40
0.5
  0
CIRCLE
  5
4987
  8
0
 10
22
 20
36
 30
0.0
 40
0.5
  0
CIRCLE
  5
4995
  8
0
 10
22
 20
37
 30
0.0
 40
0.5
  0
CIRCLE
  5
5003
  8
0
 10
22
 20
38
 30
0.0
 40
0.5
  0
CIRCLE
  5
5011
  8
0
 10
22
 20
39
 30
0.0
 40
0.5
  0
CIRCLE
  5
5019
  8
0
 10
22
 20
40
 30
0.0
 40
0.5
  0
CIRCLE
  5
5027
  8
0
 10
22
 20
41
 30
0.0
 40
0.5
  0
CIRCLE
  5
5035
  8
0
 10
22
 20
42
 30
0.0
 40
0.5
  0
CIRCLE
  5
5043
  8
0
 10
22
 20
43
 30
0.0
 40
0.5
  0
CIRCLE
  5
5051
  8
0
 10
22
 20
44
 30
0.0
 40
0.5
  0
CIRCLE
  5
5059
  8
0
 10
21
 20
0
 30
0.0
 40
0.5
  0
CIRCLE
  5
5067
  8
0
 10
20
 20
0
 30
0.0
 40
0.5
  0
CIRCLE
  5
5075
  8
0
 10
20
 20
1
 30
0.0
 40
0.5
  0
CIRCLE
  5
5083
  8
0
 10
20
 20
2
 30
0.0
 40
0.5
  0
CIRCLE
  5
5091
  8
0
 10
20
 20
3
 30
0.0
 40
0.5
  0
CIRCLE
  5
5099
  8
0
 10
20
 20
4
 30
0.0
 40
0.5
  0
CIRCLE
  5
5107
  8
0
 10
20
 20
5
 30
0.0
 40
0.5
  0
CIRCLE
  5
5115
  8
0
 10
20
 20
6
 30
0.0
 40
0.5
  0
CIRCLE
  5
5123
  8
0
 10
20
 20
7
 30
0.0
 40
0.5
  0
CIRCLE
  5
5131
  8
0
 10
20
 20
8
 30
0.0
 40
0.5
  0
CIRCLE
  5
5139
  8
0
 10
20
 20
9
 30
0.0
 40
0.5
  0
CIRCLE
  5
5147
  8
0
 10
20
 20
10
 30
0.0
 40
0.5
  0
CIRCLE
  5
5155
  8
0
 10
20
 20
11
 30
0.0
 40
0.5
  0
CIRCLE
  5
5163
  8
0
 10
20
 20
12
 30
0.0
 40
0.5
  0
CIRCLE
  5
5171
  8
0
 10
20
 20
13
 30
0.0
 40
0.5
  0
CIRCLE
  5
5179
  8
0
 10
20
 20
14
 30
0.0
 40
0.5
  0
CIRCLE
  5
5187
  8
0
 10
20
 20
15
 30
0.0
 40
0.5
  0
CIRCLE
  5
5195
  8
0
 10
20
 20
16
 30
0.0
 40
0.5
  0
CIRCLE
  5
5203
  8
0
 10
20
 20
17
 30
0.0
 40
0.5
  0
CIRCLE
  5
5211
  8
0
 10
20
 20
18
 30
0.0
 40
0.5
  0
CIRCLE
  5
5219
  8
0
 10
20
 20
19
 30
0.0
 40
0.5
  0
CIRCLE
  5
5227
  8
0
 10
20
 20
20
 30
0.0
 40
0.5
  0
CIRCLE
  5
5235
  8
0
 10
20
 20
21
 30
0.0
 40
0.5
  0
CIRCLE
  5
5243
  8
0
 10
20
 20
22
 30
0.0
 40
0.5
  0
CIRCLE
  5
5251
  8
0
 10
20
 20
23
 30
0.0
 40
0.5
  0
CIRCLE
  5
5259
  8
0
 10
20
 20
24
 30
0.0
 40
0.5
  0
CIRCLE
  5
5267
  8
0
 10
20
 20
25
 30
0.0
 40
0.5
  0
CIRCLE
  5
5275
  8
0
 10
20
 20
26
 30
0.0
 40
0.5
  0
CIRCLE
  5
5283
  8
0
 10
20
 20
27
 30
0.0
 40
0.5
  0
CIRCLE
  5
5291
  8
0
 10
20
 20
28
 30
0.0
 40
0.5
  0
CIRCLE
  5
5299
  8
0
 10
20
 20
29
 30
0.0
 40
0.5
  0
CIRCLE
  5
5307
  8
0
 10
20
 20
30
 30
0.0
 40
0.5
  0
CIRCLE
  5
5315
  8
0
 10
20
 20
31
 30
0.0
 40
0.5
  0
CIRCLE
  5
5323
  8
0
 10
20
 20
32
 30
0.0
 40
0.5
  0
CIRCLE
  5
5331
  8
0
 10
20
 20
33
 30
0.0
 40
0.5
  0
CIRCLE
  5
5339
  8
0
 10
20
 20
34
 30
0.0
 40
0.5
  0
CIRCLE
  5
5347
  8
0
 10
20
 20
35
 30
0.0
 40
0.5
  0
CIRCLE
  5
5355
  8
0
 10
20
 20
36
 30
0.0
 40
0.5
  0
CIRCLE
  5
5363
  8
0
 10
20
 20
37
 30
0.0
 40
0.5
  0
CIRCLE
  5
5371
  8
0
 10
20
 20
38
 30
0.0
 40
0.5
  0
CIRCLE
  5
5379
  8
0
 10
20
 20
39
 30
0.0
 40
0.5
  0
CIRCLE
  5
5387
  8
0
 10
20
 20
40
 30
0.0
 40
0.5
  0
CIRCLE
  5
5395
  8
0
 10
20
 20
41
 30
0.0
 40
0.5
  0
CIRCLE
  5
5403
  8
0
 10
20
 20
42
 30
0.0
 40
0.5
  0
CIRCLE
  5
5411
  8
0
 10
20
 20
43
 30
0.0
 40
0.5
  0
CIRCLE
  5
5419
  8
0
 10
20
 20
44
 30
0.0
 40
0.5
  0
CIRCLE
  5
5427
  8
0
 10
19
 20
0
 30
0.0
 40
0.5
  0
CIRCLE
  5
5435
  8
0
 10
18
 20
0
 30
0.0
 40
0.5
  0
CIRCLE
  5
5443
  8
0
 10
18
 20
1
 30
0.0
 40
0.5
  0
CIRCLE
  5
5451
  8
0
 10
18
 20
2
 30
0.0
 40
0.5
  0
CIRCLE
  5
5459
  8
0
 10
18
 20
3
 30
0.0
 40
0.5
  0
CIRCLE
  5
5467
  8
0
 10
18
 20
4
 30
0.0
 40
0.5
  0
CIRCLE
  5
5475
  8
0
 10
18
 20
5
 30
0.0
 40
0.5
  0
CIRCLE
  5
5483
  8
0
 10
18
 20
6
 30
0.0
 40
0.5
  0
CIRCLE
  5
5491
  8
0
 10
18
 20
7
 30
0.0
 40
0.5
  0
CIRCLE
  5
5499
  8
0
 10
18
 20
8
 30
0.0
 40
0.5
  0
CIRCLE
  5
5507
  8
0
 10
18
 20
9
 30
0.0
 40
0.5
  0
CIRCLE
  5
5515
  8
0
 10
18
 20
10
 30
0.0
 40
0.5
  0
CIRCLE
  5
5523
  8
0
 10
18
 20
11
 30
0.0
 40
0.5
  0
CIRCLE
  5
5531
  8
0
 10
18
 20
12
 30
0.0
 40
0.5
  0
CIRCLE
  5
5539
  8
0
 10
18
 20
13
 30
0.0
 40
0.5
  0
CIRCLE
  5
5547
  8
0
 10
18
 20
14
 30
0.0
 40
0.5
  0
CIRCLE
  5
5555
  8
0
 10
18
 20
15
 30
0.0
 40
0.5
  0
CIRCLE
  5
5563
  8
0
 10
18
 20
16
 30
0.0
 40
0.5
  0
CIRCLE
  5
5571
  8
0
 10
18
 20
17
 30
0.0
 40
0.5
  0
CIRCLE
  5
5579
  8
0
 10
18
 20
18
 30
0.0
 40
0.5
  0
CIRCLE
  5
5587
  8
0
 10
18
 20
19
 30
0.0
 40
0.5
  0
CIRCLE
  5
5595
  8
0
 10
18
 20
20
 30
0.0
 40
0.5
  0
CIRCLE
  5
5603
  8
0
 10
18
 20
21
 30
0.0
 40
0.5
  0
CIRCLE
  5
5611
  8
0
 10
18
 20
22
 30
0.0
 40
0.5
  0
CIRCLE
  5
5619
  8
0
 10
18
 20
23
 30
0.0
 40
0.5
  0
CIRCLE
  5
5627
  8
0
 10
18
 20
24
 30
0.0
 40
0.5
  0
CIRCLE
  5
5635
  8
0
 10
18
 20
25
 30
0.0
 40
0.5
  0
CIRCLE
  5
5643
  8
0
 10
18
 20
26
 30
0.0
 40
0.5
  0
CIRCLE
  5
5651
  8
0
 10
18
 20
27
 30
0.0
 40
0.5
  0
CIRCLE
  5
5659
  8
0
 10
18
 20
28
 30
0.0
 40
0.5
  0
CIRCLE
  5
5667
  8
0
 10
18
 20
29
 30
0.0
 40
0.5
  0
CIRCLE
  5
5675
  8
0
 10
18
 20
30
 30
0.0
 40
0.5
  0
CIRCLE
  5
5683
  8
0
 10
18
 20
31
 30
0.0
 40
0.5
  0
CIRCLE
  5
5691
  8
0
 10
18
 20
32
 30
0.0
 40
0.5
  0
CIRCLE
  5
5699
  8
0
 10
18
 20
33
 30
0.0
 40
0.5
  0
CIRCLE
  5
5707
  8
0
 10
18
 20
34
 30
0.0
 40
0.5
  0
CIRCLE
  5
5715
  8
0
 10
18
 20
35
 30
0.0
 40
0.5
  0
CIRCLE
  5
5723
  8
0
 10
18
 20
36
 30
0.0
 40
0.5
  0
CIRCLE
  5
5731
  8
0
 10
18
 20
37
 30
0.0
 40
0.5
  0
CIRCLE
  5
5739
  8
0
 10
18
 20
38
 30
0.0
 40
0.5
  0
CIRCLE
  5
5747
  8
0
 10
18
 20
39
 30
0.0
 40
0.5
  0
CIRCLE
  5
5755
  8
0
 10
18
 20
40
 30
0.0
 40
0.5
  0
CIRCLE
  5
5763
  8
0
 10
18
 20
41
 30
0.0
 40
0.5
  0
CIRCLE
  5
5771
  8
0
 10
18
 20
42
 30
0.0
 40
0.5
  0
CIRCLE
  5
5779
  8
0
 10
18
 20
43
 30
0.0
 40
0.5
  0
CIRCLE
  5
5787
  8
0
 10
18
 20
44
 30
0.0
 40
0.5
  0
CIRCLE
  5
5795
  8
0
 10
17
 20
0
 30
0.0
 40
0.5
  0
CIRCLE
  5
5803
  8
0
 10
16
 20
0
 30
0.0
 40
0.5
  0
CIRCLE
  5
5811
  8
0
 10
16
 20
1
 30
0.0
 40
0.5
  0
CIRCLE
  5
5819
  8
0
 10
16
 20
2
 30
0.0
 40
0.5
  0
CIRCLE
  5
5827
  8
0
 10
16
 20
3
 30
0.0
 40
0.5
  0
CIRCLE
  5
5835
  8
0
 10
16
 20
4
 30
0.0
 40
0.5
  0
CIRCLE
  5
5843
  8
0
 10
16
 20
5
 30
0.0
 40
0.5
  0
CIRCLE
  5
5851
  8
0
 10
16
 20
6
 30
0.0
 40
0.5
  0
CIRCLE
  5
5859
  8
0
 10
16
 20
7
 30
0.0
 40
0.5
  0
CIRCLE
  5
5867
  8
0
 10
16
 20
8
 30
0.0
 40
0.5
  0
CIRCLE
  5
5875
  8
0
 10
16
 20
9
 30
0.0
 40
0.5
  0
CIRCLE
  5
5883
  8
0
 10
16
 20
10
 30
0.0
 40
0.5
  0
CIRCLE
  5
5891
  8
0
 10
16
 20
11
 30
0.0
 40
0.5
  0
CIRCLE
  5
5899
  8
0
 10
16
 20
12
 30
0.0
 40
0.5
  0
CIRCLE
  5
5907
  8
0
 10
16
 20
13
 30
0.0
 40
0.5
  0
CIRCLE
  5
5915
  8
0
 10
16
 20
14
 30
0.0
 40
0.5
  0
CIRCLE
  5
5923
  8
0
 10
16
 20
15
 30
0.0
 40
0.5
  0
CIRCLE
  5
5931
  8
0
 10
16
 20
16
 30
0.0
 40
0.5
  0
CIRCLE
  5
5939
  8
0
 10
16
 20
17
 30
0.0
 40
0.5
  0
CIRCLE
  5
5947
  8
0
 10
16
 20
18
 30
0.0
 40
0.5
  0
CIRCLE
  5
5955
  8
0
 10
16
 20
19
 30
0.0
 40
0.5
  0
CIRCLE
  5
5963
  8
0
 10
16
 20
20
 30
0.0
 40
0.5
  0
CIRCLE
  5
5971
  8
0
 10
16
 20
21
 30
0.0
 40
0.5
  0
CIRCLE
  5
5979
  8
0
 10
16
 20
22
 30
0.0
 40
0.5
  0
CIRCLE
  5
5987
  8
0
 10
16
 20
23
 30
0.0
 40
0.5
  0
CIRCLE
  5
5995
  8
0
 10
16
 20
24
 30
0.0
 40
0.5
  0
CIRCLE
  5
6003
  8
0
 10
16
 20
25
 30
0.0
 40
0.5
  0
CIRCLE
  5
6011
  8
0
 10
16
 20
26
 30
0.0
 40
0.5
  0
CIRCLE
  5
6019
  8
0
 10
16
 20
27
 30
0.0
 40
0.5
  0
CIRCLE
  5
6027
  8
0
 10
16
 20
28
 30
0.0
 40
0.5
  0
CIRCLE
  5
6035
  8
0
 10
16
 20
29
 30
0.0
 40
0.5
  0
CIRCLE
  5
6043
  8
0
 10
16
 20
30
 30
0.0
 40
0.5
  0
CIRCLE
  5
6051
  8
0
 10
16
 20
31
 30
0.0
 40
0.5
  0
CIRCLE
  5
6059
  8
0
 10
16
 20
32
 30
0.0
 40
0.5
  0
CIRCLE
  5
6067
  8
0
 10
16
 20
33
 30
0.0
 40
0.5
  0
CIRCLE
  5
6075
  8
0
 10
16
 20
34
 30
0.0
 40
0.5
  0
CIRCLE
  5
6083
  8
0
 10
16
 20
35
 30
0.0
 40
0.5
  0
CIRCLE
  5
6091
  8
0
 10
16
 20
36
 30
0.0
 40
0.5
  0
CIRCLE
  5
6099
  8
0
 10
16
 20
37
 30
0.0
 40
0.5
  0
CIRCLE
  5
6107
  8
0
 10
16
 20
38
 30
0.0
 40
0.5
  0
CIRCLE
  5
6115
  8
0
 10
16
 20
39
 30
0.0
 40
0.5
  0
CIRCLE
  5
6123
  8
0
 10
16
 20
40
 30
0.0
 40
0.5
  0
CIRCLE
  5
6131
  8
0
 10
16
 20
41
 30
0.0
 40
0.5
  0
CIRCLE
  5
6139
  8
0
 10
16
 20
42
 30
0.0
 40
0.5
  0
CIRCLE
  5
6147
  8
0
 10
16
 20
43
 30
0.0
 40
0.5
  0
CIRCLE
  5
6155
  8
0
 10
16
 20
44
 30
0.0
 40
0.5
  0
CIRCLE
  5
6163
  8
0
 10
15
 20
0
 30
0.0
 40
0.5
  0
CIRCLE
  5
6171
  8
0
 10
14
 20
0
 30
0.0
 40
0.5
  0
CIRCLE
  5
6179
  8
0
 10
14
 20
1
 30
0.0
 40
0.5
  0
CIRCLE
  5
6187
  8
0
 10
14
 20
2
 30
0.0
 40
0.5
  0
CIRCLE
  5
6195
  8
0
 10
14
 20
3
 30
0.0
 40
0.5
  0
CIRCLE
  5
6203
  8
0
 10
14
 20
4
 30
0.0
 40
0.5
  0
CIRCLE
  5
6211
  8
0
 10
14
 20
5
 30
0.0
 40
0.5
  0
CIRCLE
  5
6219
  8
0
 10
14
 20
6
 30
0.0
 40
0.5
  0
CIRCLE
  5
6227
  8
0
 10
14
 20
7
 30
0.0
 40
0.5
  0
CIRCLE
  5
6235
  8
0
 10
14
 20
8
 30
0.0
 40
0.5
  0
CIRCLE
  5
6243
  8
0
 10
14
 20
9
 30
0.0
 40
0.5
  0
CIRCLE
  5
6251
  8
0
 10
14
 20
10
 30
0.0
 40
0.5
  0
CIRCLE
  5
6259
  8
0
 10
14
 20
11
 30
0.0
 40
0.5
  0
CIRCLE
  5
6267
  8
0
 10
14
 20
12
 30
0.0
 40
0.5
  0
CIRCLE
  5
6275
  8
0
 10
14
 20
13
 30
0.0
 40
0.5
  0
CIRCLE
  5
6283
  8
0
 10
14
 20
14
 30
0.0
 40
0.5
  0
CIRCLE
  5
6291
  8
0
 10
14
 20
15
 30
0.0
 40
0.5
  0
CIRCLE
  5
6299
  8
0
 10
14
 20
16
 30
0.0
 40
0.5
  0
CIRCLE
  5
6307
  8
0
 10
14
 20
17
 30
0.0
 40
0.5
  0
CIRCLE
  5
6315
  8
0
 10
14
 20
18
 30
0.0
 40
0.5
  0
CIRCLE
  5
6323
  8
0
 10
14
 20
19
 30
0.0
 40
0.5
  0
CIRCLE
  5
6331
  8
0
 10
14
 20
20
 30
0.0
 40
0.5
  0
CIRCLE
  5
6339
  8
0
 10
14
 20
21
 30
0.0
 40
0.5
  0
CIRCLE
  5
6347
  8
0
 10
14
 20
22
 30
0.0
 40
0.5
  0
CIRCLE
  5
6355
  8
0
 10
14
 20
23
 30
0.0
 40
0.5
  0
CIRCLE
  5
6363
  8
0
 10
14
 20
24
 30
0.0
 40
0.5
  0
CIRCLE
  5
6371
  8
0
 10
14
 20
25
 30
0.0
 40
0.5
  0
CIRCLE
  5
6379
  8
0
 10
14
 20
26
 30
0.0
 40
0.5
  0
CIRCLE
  5
6387
  8
0
 10
14
 20
27
 30
0.0
 40
0.5
  0
CIRCLE
  5
6395
  8
0
 10
14
 20
28
 30
0.0
 40
0.5
  0
CIRCLE
  5
6403
  8
0
 10
14
 20
29
 30
0.0
 40
0.5
  0
CIRCLE
  5
6411
  8
0
 10
14
 20
30
 30
0.0
 40
0.5
  0
CIRCLE
  5
6419
  8
0
 10
14
 20
31
 30
0.0
 40
0.5
  0
CIRCLE
  5
6427
  8
0
 10
14
 20
32
 30
0.0
 40
0.5
  0
CIRCLE
  5
6435
  8
0
 10
14
 20
33
 30
0.0
 40
0.5
  0
CIRCLE
  5
6443
  8
0
 10
14
 20
34
 30
0.0
 40
0.5
  0
CIRCLE
  5
6451
  8
0
 10
14
 20
35
 30
0.0
 40
0.5
  0
CIRCLE
  5
6459
  8
0
 10
14
 20
36
 30
0.0
 40
0.5
  0
CIRCLE
  5
6467
  8
0
 10
14
 20
37
 30
0.0
 40
0.5
  0
CIRCLE
  5
6475
  8
0
 10
14
 20
38
 30
0.0
 40
0.5
  0
CIRCLE
  5
6483
  8
0
 10
14
 20
39
 30
0.0
 40
0.5
  0
CIRCLE
  5
6491
  8
0
 10
14
 20
40
 30
0.0
 40
0.5
  0
CIRCLE
  5
6499
  8
0
 10
14
 20
41
 30
0.0
 40
0.5
  0
CIRCLE
  5
6507
  8
0
 10
14
 20
42
 30
0.0
 40
0.5
  0
CIRCLE
  5
6515
  8
0
 10
14
 20
43
 30
0.0
 40
0.5
  0
CIRCLE
  5
6523
  8
0
 10
14
 20
44
 30
0.0
 40
0.5
  0
CIRCLE
  5
6531
  8
0
 10
13
 20
0
 30
0.0
 40
0.5
  0
CIRCLE
  5
6539
  8
0
 10
12
 20
0
 30
0.0
 40
0.5
  0
CIRCLE
  5
6547
  8
0
 10
12
 20
1
 30
0.0
 40
0.5
  0
CIRCLE
  5
6555
  8
0
 10
12
 20
2
 30
0.0
 40
0.5
  0
CIRCLE
  5
6563
  8
0
 10
12
 20
3
 30
0.0
 40
0.5
  0
CIRCLE
  5
6571
  8
0
 10
12
 20
4
 30
0.0
 40
0.5
  0
CIRCLE
  5
6579
  8
0
 10
12
 20
5
 30
0.0
 40
0.5
  0
CIRCLE
  5
6587
  8
0
 10
12
 20
6
 30
0.0
 40
0.5
  0
CIRCLE
  5
6595
  8
0
 10
12
 20
7
 30
0.0
 40
0.5
  0
CIRCLE
  5
6603
  8
0
 10
12
 20
8
 30
0.0
 40
0.5
  0
CIRCLE
  5
6611
  8
0
 10
12
 20
9
 30
0.0
 40
0.5
  0
CIRCLE
  5
6619
  8
0
 10
12
 20
10
 30
0.0
 40
0.5
  0
CIRCLE
  5
6627
  8
0
 10
12
 20
11
 30
0.0
 40
0.5
  0
CIRCLE
  5
6635
  8
0
 10
12
 20
12
 30
0.0
 40
0.5
  0
CIRCLE
  5
6643
  8
0
 10
12
 20
13
 30
0.0
 40
0.5
  0
CIRCLE
  5
6651
  8
0
 10
12
 20
14
 30
0.0
 40
0.5
  0
CIRCLE
  5
6659
  8
0
 10
12
 20
15
 30
0.0
 40
0.5
  0
CIRCLE
  5
6667
  8
0
 10
12
 20
16
 30
0.0
 40
0.5
  0
CIRCLE
  5
6675
  8
0
 10
12
 20
17
 30
0.0
 40
0.5
  0
CIRCLE
  5
6683
  8
0
 10
12
 20
18
 30
0.0
 40
0.5
  0
CIRCLE
  5
6691
  8
0
 10
12
 20
19
 30
0.0
 40
0.5
  0
CIRCLE
  5
6699
  8
0
 10
12
 20
20
 30
0.0
 40
0.5
  0
CIRCLE
  5
6707
  8
0
 10
12
 20
21
 30
0.0
 40
0.5
  0
CIRCLE
  5
6715
  8
0
 10
12
 20
22
 30
0.0
 40
0.5
  0
CIRCLE
  5
6723
  8
0
 10
12
 20
23
 30
0.0
 40
0.5
  0
CIRCLE
  5
6731
  8
0
 10
12
 20
24
 30
0.0
 40
0.5
  0
CIRCLE
  5
6739
  8
0
 10
12
 20
25
 30
0.0
 40
0.5
  0
CIRCLE
  5
6747
  8
0
 10
12
 20
26
 30
0.0
 40
0.5
  0
CIRCLE
  5
6755
  8
0
 10
12
 20
27
 30
0.0
 40
0.5
  0
CIRCLE
  5
6763
  8
0
 10
12
 20
28
 30
0.0
 40
0.5
  0
CIRCLE
  5
6771
  8
0
 10
12
 20
29
 30
0.0
 40
0.5
  0
CIRCLE
  5
6779
  8
0
 10
12
 20
30
 30
0.0
 40
0.5
  0
CIRCLE
  5
6787
  8
0
 10
12
 20
31
 30
0.0
 40
0.5
  0
CIRCLE
  5
6795
  8
0
 10
12
 20
32
 30
0.0
 40
0.5
  0
CIRCLE
  5
6803
  8
0
 10
12
 20
33
 30
0.0
 40
0.5
  0
CIRCLE
  5
6811
  8
0
 10
12
 20
34
 30
0.0
 40
0.5
  0
CIRCLE
  5
6819
  8
0
 10
12
 20
35
 30
0.0
 40
0.5
  0
CIRCLE
  5
6827
  8
0
 10
12
 20
36
 30
0.0
 40
0.5
  0
CIRCLE
  5
6835
  8
0
 10
12
 20
37
 30
0.0
 40
0.5
  0
CIRCLE
  5
6843
  8
0
 10
12
 20
38
 30
0.0
 40
0.5
  0
CIRCLE
  5
6851
  8
0
 10
12
 20
39
 30
0.0
 40
0.5
  0
CIRCLE
  5
6859
  8
0
 10
12
 20
40
 30
0.0
 40
0.5
  0
CIRCLE
  5
6867
  8
0
 10
12
 20
41
 30
0.0
 40
0.5
  0
CIRCLE
  5
6875
  8
0
 10
12
 20
42
 30
0.0
 40
0.5
  0
CIRCLE
  5
6883
  8
0
 10
12
 20
43
 30
0.0
 40
0.5
  0
CIRCLE
  5
6891
  8
0
 10
12
 20
44
 30
0.0
 40
0.5
  0
CIRCLE
  5
6899
  8
0
 10
11
 20
0
 30
0.0
 40
0.5
  0
CIRCLE
  5
6907
  8
0
 10
10
 20
0
 30
0.0
 40
0.5
  0
CIRCLE
  5
6915
  8
0
 10
10
 20
1
 30
0.0
 40
0.5
  0
CIRCLE
  5
6923
  8
0
 10
10
 20
2
 30
0.0
 40
0.5
  0
CIRCLE
  5
6931
  8
0
 10
10
 20
3
 30
0.0
 40
0.5
  0
CIRCLE
  5
6939
  8
0
 10
10
 20
4
 30
0.0
 40
0.5
  0
CIRCLE
  5
6947
  8
0
 10
10
 20
5
 30
0.0
 40
0.5
  0
CIRCLE
  5
6955
  8
0
 10
10
 20
6
 30
0.0
 40
0.5
  0
CIRCLE
  5
6963
  8
0
 10
10
 20
7
 30
0.0
 40
0.5
  0
CIRCLE
  5
6971
  8
0
 10
10
 20
8
 30
0.0
 40
0.5
  0
CIRCLE
  5
6979
  8
0
 10
10
 20
9
 30
0.0
 40
0.5
  0
CIRCLE
  5
6987
  8
0
 10
10
 20
10
 30
0.0
 40
0.5
  0
CIRCLE
  5
6995
  8
0
 10
10
 20
11
 30
0.0
 40
0.5
  0
CIRCLE
  5
7003
  8
0
 10
10
 20
12
 30
0.0
 40
0.5
  0
CIRCLE
  5
7011
  8
0
 10
10
 20
13
 30
0.0
 40
0.5
  0
CIRCLE
  5
7019
  8
0
 10
10
 20
14
 30
0.0
 40
0.5
  0
CIRCLE
  5
7027
  8
0
 10
10
 20
15
 30
0.0
 40
0.5
  0
CIRCLE
  5
7035
  8
0
 10
10
 20
16
 30
0.0
 40
0.5
  0
CIRCLE
  5
7043
  8
0
 10
10
 20
17
 30
0.0
 40
0.5
  0
CIRCLE
  5
7051
  8
0
 10
10
 20
18
 30
0.0
 40
0.5
  0
CIRCLE
  5
7059
  8
0
 10
10
 20
19
 30
0.0
 40
0.5
  0
CIRCLE
  5
7067
  8
0
 10
10
 20
20
 30
0.0
 40
0.5
  0
CIRCLE
  5
7075
  8
0
 10
10
 20
21
 30
0.0
 40
0.5
  0
CIRCLE
  5
7083
  8
0
 10
10
 20
22
 30
0.0
 40
0.5
  0
CIRCLE
  5
7091
  8
0
 10
10
 20
23
 30
0.0
 40
0.5
  0
CIRCLE
  5
7099
  8
0
 10
10
 20
24
 30
0.0
 40
0.5
  0
CIRCLE
  5
7107
  8
0
 10
10
 20
25
 30
0.0
 40
0.5
  0
CIRCLE
  5
7115
  8
0
 10
10
 20
26
 30
0.0
 40
0.5
  0
CIRCLE
  5
7123
  8
0
 10
10
 20
27
 30
0.0
 40
0.5
  0
CIRCLE
  5
7131
  8
0
 10
10
 20
28
 30
0.0
 40
0.5
  0
CIRCLE
  5
7139
  8
0
 10
10
 20
29
 30
0.0
 40
0.5
  0
CIRCLE
  5
7147
  8
0
 10
10
 20
30
 30
0.0
 40
0.5
  0
CIRCLE
  5
7155
  8
0
 10
10
 20
31
 30
0.0
 40
0.5
  0
CIRCLE
  5
7163
  8
0
 10
10
 20
32
 30
0.0
 40
0.5
  0
CIRCLE
  5
7171
  8
0
 10
10
 20
33
 30
0.0
 40
0.5
  0
CIRCLE
  5
7179
  8
0
 10
10
 20
34
 30
0.0
 40
0.5
  0
CIRCLE
  5
7187
  8
0
 10
10
 20
35
 30
0.0
 40
0.5
  0
CIRCLE
  5
7195
  8
0
 10
10
 20
36
 30
0.0
 40
0.5
  0
CIRCLE
  5
7203
  8
0
 10
10
 20
37
 30
0.0
 40
0.5
  0
CIRCLE
  5
7211
  8
0
 10
10
 20
38
 30
0.0
 40
0.5
  0
CIRCLE
  5
7219
  8
0
 10
10
 20
39
 30
0.0
 40
0.5
  0
CIRCLE
  5
7227
  8
0
 10
10
 20
40
 30
0.0
 40
0.5
  0
CIRCLE
  5
7235
  8
0
 10
10
 20
41
 30
0.0
 40
0.5
  0
CIRCLE
  5
7243
  8
0
 10
10
 20
42
 30
0.0
 40
0.5
  0
CIRCLE
  5
7251
  8
0
 10
10
 20
43
 30
0.0
 40
0.5
  0
CIRCLE
  5
7259
  8
0
 10
10
 20
44
 30
0.0
 40
0.5
  0
CIRCLE
  5
7267
  8
0
 10
9
 20
0
 30
0.0
 40
0.5
  0
CIRCLE
  5
7275
  8
0
 10
8
 20
0
 30
0.0
 40
0.5
  0
CIRCLE
  5
7283
  8
0
 10
8
 20
1
 30
0.0
 40
0.5
  0
CIRCLE
  5
7291
  8
0
 10
8
 20
2
 30
0.0
 40
0.5
  0
CIRCLE
  5
7299
  8
0
 10
8
 20
3
 30
0.0
 40
0.5
  0
CIRCLE
  5
7307
  8
0
 10
8
 20
4
 30
0.0
 40
0.5
  0
CIRCLE
  5
7315
  8
0
 10
8
 20
5
 30
0.0
 40
0.5
  0
CIRCLE
  5
7323
  8
0
 10
8
 20
6
 30
0.0
 40
0.5
  0
CIRCLE
  5
7331
  8
0
 10
8
 20
7
 30
0.0
 40
0.5
  0
CIRCLE
  5
7339
  8
0
 10
8
 20
8
 30
0.0
 40
0.5
  0
CIRCLE
  5
7347
  8
0
 10
8
 20
9
 30
0.0
 40
0.5
  0
CIRCLE
  5
7355
  8
0
 10
8
 20
10
 30
0.0
 40
0.5
  0
CIRCLE
  5
7363
  8
0
 10
8
 20
11
 30
0.0
 40
0.5
  0
CIRCLE
  5
7371
  8
0
 10
8
 20
12
 30
0.0
 40
0.5
  0
CIRCLE
  5
7379
  8
0
 10
8
 20
13
 30
0.0
 40
0.5
  0
CIRCLE
  5
7387
  8
0
 10
8
 20
14
 30
0.0
 40
0.5
  0
CIRCLE
  5
7395
  8
0
 10
8
 20
15
 30
0.0
 40
0.5
  0
CIRCLE
  5
7403
  8
0
 10
8
 20
16
 30
0.0
 40
0.5
  0
CIRCLE
  5
7411
  8
0
 10
8
 20
17
 30
0.0
 40
0.5
  0
CIRCLE
  5
7419
  8
0
 10
8
 20
18
 30
0.0
 40
0.5
  0
CIRCLE
  5
7427
  8
0
 10
8
 20
19
 30
0.0
 40
0.5
  0
CIRCLE
  5
7435
  8
0
 10
8
 20
20
 30
0.0
 40
0.5
  0
CIRCLE
  5
7443
  8
0
 10
8
 20
21
 30
0.0
 40
0.5
  0
CIRCLE
  5
7451
  8
0
 10
8
 20
22
 30
0.0
 40
0.5
  0
CIRCLE
  5
7459
  8
0
 10
8
 20
23
 30
0.0
 40
0.5
  0
CIRCLE
  5
7467
  8
0
 10
8
 20
24
 30
0.0
 40
0.5
  0
CIRCLE
  5
7475
  8
0
 10
8
 20
25
 30
0.0
 40
0.5
  0
CIRCLE
  5
7483
  8
0
 10
8
 20
26
 30
0.0
 40
0.5
  0
CIRCLE
  5
7491
  8
0
 10
8
 20
27
 30
0.0
 40
0.5
  0
CIRCLE
  5
7499
  8
0
 10
8
 20
28
 30
0.0
 40
0.5
  0
CIRCLE
  5
7507
  8
0
 10
8
 20
29
 30
0.0
 40
0.5
  0
CIRCLE
  5
7515
  8
0
 10
8
 20
30
 30
0.0
 40
0.5
  0
CIRCLE
  5
7523
  8
0
 10
8
 20
31
 30
0.0
 40
0.5
  0
CIRCLE
  5
7531
  8
0
 10
8
 20
32
 30
0.0
 40
0.5
  0
CIRCLE
  5
7539
  8
0
 10
8
 20
33
 30
0.0
 40
0.5
  0
CIRCLE
  5
7547
  8
0
 10
8
 20
34
 30
0.0
 40
0.5
  0
CIRCLE
  5
7555
  8
0
 10
7
 20
0
 30
0.0
 40
0.5
  0
CIRCLE
  5
7563
  8
0
 10
6
 20
0
 30
0.0
 40
0.5
  0
CIRCLE
  5
7571
  8
0
 10
6
 20
1
 30
0.0
 40
0.5
  0
CIRCLE
  5
7579
  8
0
 10
6
 20
2
 30
0.0
 40
0.5
  0
CIRCLE
  5
7587
  8
0
 10
6
 20
3
 30
0.0
 40
0.5
  0
CIRCLE
  5
7595
  8
0
 10
6
 20
4
 30
0.0
 40
0.5
  0
CIRCLE
  5
7603
  8
0
 10
6
 20
5
 30
0.0
 40
0.5
  0
CIRCLE
  5
7611
  8
0
 10
6
 20
6
 30
0.0
 40
0.5
  0
CIRCLE
  5
7619
  8
0
 10
6
 20
7
 30
0.0
 40
0.5
  0
CIRCLE
  5
7627
  8
0
 10
6
 20
8
 30
0.0
 40
0.5
  0
CIRCLE
  5
7635
  8
0
 10
6
 20
9
 30
0.0
 40
0.5
  0
CIRCLE
  5
7643
  8
0
 10
6
 20
10
 30
0.0
 40
0.5
  0
CIRCLE
  5
7651
  8
0
 10
6
 20
11
 30
0.0
 40
0.5
  0
CIRCLE
  5
7659
  8
0
 10
6
 20
12
 30
0.0
 40
0.5
  0
CIRCLE
  5
7667
  8
0
 10
6
 20
13
 30
0.0
 40
0.5
  0
CIRCLE
  5
7675
  8
0
 10
6
 20
14
 30
0.0
 40
0.5
  0
CIRCLE
  5
7683
  8
0
 10
6
 20
15
 30
0.0
 40
0.5
  0
CIRCLE
  5
7691
  8
0
 10
6
 20
16
 30
0.0
 40
0.5
  0
CIRCLE
  5
7699
  8
0
 10
6
 20
17
 30
0.0
 40
0.5
  0
CIRCLE
  5
7707
  8
0
 10
6
 20
18
 30
0.0
 40
0.5
  0
CIRCLE
  5
7715
  8
0
 10
6
 20
19
 30
0.0
 40
0.5
  0
CIRCLE
  5
7723
  8
0
 10
6
 20
20
 30
0.0
 40
0.5
  0
CIRCLE
  5
7731
  8
0
 10
6
 20
21
 30
0.0
 40
0.5
  0
CIRCLE
  5
7739
  8
0
 10
6
 20
22
 30
0.0
 40
0.5
  0
CIRCLE
  5
7747
  8
0
 10
6
 20
23
 30
0.0
 40
0.5
  0
CIRCLE
  5
7755
  8
0
 10
6
 20
24
 30
0.0
 40
0.5
  0
CIRCLE
  5
7763
  8
0
 10
6
 20
25
 30
0.0
 40
0.5
  0
CIRCLE
  5
7771
  8
0
 10
6
 20
26
 30
0.0
 40
0.5
  0
CIRCLE
  5
7779
  8
0
 10
6
 20
27
 30
0.0
 40
0.5
  0
CIRCLE
  5
7787
  8
0
 10
6
 20
28
 30
0.0
 40
0.5
  0
CIRCLE
  5
7795
  8
0
 10
6
 20
29
 30
0.0
 40
0.5
  0
CIRCLE
  5
7803
  8
0
 10
6
 20
30
 30
0.0
 40
0.5
  0
CIRCLE
  5
7811
  8
0
 10
6
 20
31
 30
0.0
 40
0.5
  0
CIRCLE
  5
7819
  8
0
 10
6
 20
32
 30
0.0
 40
0.5
  0
CIRCLE
  5
7827
  8
0
 10
6
 20
33
 30
0.0
 40
0.5
  0
CIRCLE
  5
7835
  8
0
 10
6
 20
34
 30
0.0
 40
0.5
  0
CIRCLE
  5
7843
  8
0
 10
5
 20
0
 30
0.0
 40
0.5
  0
CIRCLE
  5
7851
  8
0
 10
4
 20
0
 30
0.0
 40
0.5
  0
CIRCLE
  5
7859
  8
0
 10
4
 20
1
 30
0.0
 40
0.5
  0
CIRCLE
  5
7867
  8
0
 10
4
 20
2
 30
0.0
 40
0.5
  0
CIRCLE
  5
7875
  8
0
 10
4
 20
3
 30
0.0
 40
0.5
  0
CIRCLE
  5
7883
  8
0
 10
4
 20
4
 30
0.0
 40
0.5
  0
CIRCLE
  5
7891
  8
0
 10
4
 20
5
 30
0.0
 40
0.5
  0
CIRCLE
  5
7899
  8
0
 10
4
 20
6
 30
0.0
 40
0.5
  0
CIRCLE
  5
7907
  8
0
 10
4
 20
7
 30
0.0
 40
0.5
  0
CIRCLE
  5
7915
  8
0
 10
4
 20
8
 30
0.0
 40
0.5
  0
CIRCLE
  5
7923
  8
0
 10
4
 20
9
 30
0.0
 40
0.5
  0
CIRCLE
  5
7931
  8
0
 10
4
 20
10
 30
0.0
 40
0.5
  0
CIRCLE
  5
7939
  8
0
 10
4
 20
11
 30
0.0
 40
0.5
  0
CIRCLE
  5
7947
  8
0
 10
4
 20
12
 30
0.0
 40
0.5
  0
CIRCLE
  5
7955
  8
0
 10
4
 20
13
 30
0.0
 40
0.5
  0
CIRCLE
  5
7963
  8
0
 10
4
 20
14
 30
0.0
 40
0.5
  0
CIRCLE
  5
7971
  8
0
 10
4
 20
15
 30
0.0
 40
0.5
  0
CIRCLE
  5
7979
  8
0
 10
4
 20
16
 30
0.0
 40
0.5
  0
CIRCLE
  5
7987
  8
0
 10
4
 20
17
 30
0.0
 40
0.5
  0
CIRCLE
  5
7995
  8
0
 10
4
 20
18
 30
0.0
 40
0.5
  0
CIRCLE
  5
8003
  8
0
 10
4
 20
19
 30
0.0
 40
0.5
  0
CIRCLE
  5
8011
  8
0
 10
4
 20
20
 30
0.0
 40
0.5
  0
CIRCLE
  5
8019
  8
0
 10
4
 20
21
 30
0.0
 40
0.5
  0
CIRCLE
  5
8027
  8
0
 10
4
 20
22
 30
0.0
 40
0.5
  0
CIRCLE
  5
8035
  8
0
 10
4
 20
23
 30
0.0
 40
0.5
  0
CIRCLE
  5
8043
  8
0
 10
4
 20
24
 30
0.0
 40
0.5
  0
CIRCLE
  5
8051
  8
0
 10
4
 20
25
 30
0.0
 40
0.5
  0
CIRCLE
  5
8059
  8
0
 10
4
 20
26
 30
0.0
 40
0.5
  0
CIRCLE
  5
8067
  8
0
 10
4
 20
27
 30
0.0
 40
0.5
  0
CIRCLE
  5
8075
  8
0
 10
4
 20
28
 30
0.0
 40
0.5
  0
CIRCLE
  5
8083
  8
0
 10
4
 20
29
 30
0.0
 40
0.5
  0
CIRCLE
  5
8091
  8
0
 10
4
 20
30
 30
0.0
 40
0.5
  0
CIRCLE
  5
8099
  8
0
 10
4
 20
31
 30
0.0
 40
0.5
  0
CIRCLE
  5
8107
  8
0
 10
4
 20
32
 30
0.0
 40
0.5
  0
CIRCLE
  5
8115
  8
0
 10
4
 20
33
 30
0.0
 40
0.5
  0
CIRCLE
  5
8123
  8
0
 10
4
 20
34
 30
0.0
 40
0.5
  0
CIRCLE
  5
8131
  8
0
 10
3
 20
0
 30
0.0
 40
0.5
  0
CIRCLE
  5
8139
  8
0
 10
2
 20
0
 30
0.0
 40
0.5
  0
CIRCLE
  5
8147
  8
0
 10
2
 20
1
 30
0.0
 40
0.5
  0
CIRCLE
  5
8155
  8
0
 10
2
 20
2
 30
0.0
 40
0.5
  0
CIRCLE
  5
8163
  8
0
 10
2
 20
3
 30
0.0
 40
0.5
  0
CIRCLE
  5
8171
  8
0
 10
2
 20
4
 30
0.0
 40
0.5
  0
CIRCLE
  5
8179
  8
0
 10
2
 20
5
 30
0.0
 40
0.5
  0
CIRCLE
  5
8187
  8
0
 10
2
 20
6
 30
0.0
 40
0.5
  0
CIRCLE
  5
8195
  8
0
 10
2
 20
7
 30
0.0
 40
0.5
  0
CIRCLE
  5
8203
  8
0
 10
2
 20
8
 30
0.0
 40
0.5
  0
CIRCLE
  5
8211
  8
0
 10
2
 20
9
 30
0.0
 40
0.5
  0
CIRCLE
  5
8219
  8
0
 10
2
 20
10
 30
0.0
 40
0.5
  0
CIRCLE
  5
8227
  8
0
 10
2
 20
11
 30
0.0
 40
0.5
  0
CIRCLE
  5
8235
  8
0
 10
2
 20
12
 30
0.0
 40
0.5
  0
CIRCLE
  5
8243
  8
0
 10
2
 20
13
 30
0.0
 40
0.5
  0
CIRCLE
  5
8251
  8
0
 10
2
 20
14
 30
0.0
 40
0.5
  0
CIRCLE
  5
8259
  8
0
 10
2
 20
15
 30
0.0
 40
0.5
  0
CIRCLE
  5
8267
  8
0
 10
2
 20
16
 30
0.0
 40
0.5
  0
CIRCLE
  5
8275
  8
0
 10
2
 20
17
 30
0.0
 40
0.5
  0
CIRCLE
  5
8283
  8
0
 10
2
 20
18
 30
0.0
 40
0.5
  0
CIRCLE
  5
8291
  8
0
 10
2
 20
19
 30
0.0
 40
0.5
  0
CIRCLE
  5
8299
  8
0
 10
2
 20
20
 30
0.0
 40
0.5
  0
CIRCLE
  5
8307
  8
0
 10
2
 20
21
 30
0.0
 40
0.5
  0
CIRCLE
  5
8315
  8
0
 10
2
 20
22
 30
0.0
 40
0.5
  0
CIRCLE
  5
8323
  8
0
 10
2
 20
23
 30
0.0
 40
0.5
  0
CIRCLE
  5
8331
  8
0
 10
2
 20
24
 30
0.0
 40
0.5
  0
CIRCLE
  5
8339
  8
0
 10
2
 20
25
 30
0.0
 40
0.5
  0
CIRCLE
  5
8347
  8
0
 10
2
 20
26
 30
0.0
 40
0.5
  0
CIRCLE
  5
8355
  8
0
 10
2
 20
27
 30
0.0
 40
0.5
  0
CIRCLE
  5
8363
  8
0
 10
2
 20
28
 30
0.0
 40
0.5
  0
CIRCLE
  5
8371
  8
0
 10
2
 20
29
 30
0.0
 40
0.5
  0
CIRCLE
  5
8379
  8
0
 10
2
 20
30
 30
0.0
 40
0.5
  0
CIRCLE
  5
8387
  8
0
 10
2
 20
31
 30
0.0
 40
0.5
  0
CIRCLE
  5
8395
  8
0
 10
2
 20
32
 30
0.0
 40
0.5
  0
CIRCLE
  5
8403
  8
0
 10
2
 20
33
 30
0.0
 40
0.5
  0
CIRCLE
  5
8411
  8
0
 10
2
 20
34
 30
0.0
 40
0.5
  0
CIRCLE
  5
8419
  8
0
 10
1
 20
0
 30
0.0
 40
0.5
  0
LINE
  5
8420
  8
0
 10
24
 20
0
 30
0.0
 11
24
 21
1
 31
0.0
  0
LINE
  5
8421
  8
0
 10
24
 20
1
 30
0.0
 11
24
 21
2
 31
0.0
  0
LINE
  5
8422
  8
0
 10
24
 20
2
 30
0.0
 11
24
 21
3
 31
0.0
  0
LINE
  5
8423
  8
0
 10
24
 20
3
 30
0.0
 11
24
 21
4
 31
0.0
  0
LINE
  5
8424
  8
0
 10
24
 20
4
 30
0.0
 11
24
 21
5
 31
0.0
  0
LINE
  5
8425
  8
0
 10
24
 20
5
 30
0.0
 11
24
 21
6
 31
0.0
  0
LINE
  5
8426
  8
0
 10
24
 20
6
 30
0.0
 11
24
 21
7
 31
0.0
  0
LINE
  5
8427
  8
0
 10
24
 20
7
 30
0.0
 11
24
 21
8
 31
0.0
  0
LINE
  5
8428
  8
0
 10
24
 20
8
 30
0.0
 11
24
 21
9
 31
0.0
  0
LINE
  5
8429
  8
0
 10
24
 20
9
 30
0.0
 11
24
 21
10
 31
0.0
  0
LINE
  5
8430
  8
0
 10
24
 20
10
 30
0.0
 11
24
 21
11
 31
0.0
  0
LINE
  5
8431
  8
0
 10
24
 20
11
 30
0.0
 11
24
 21
12
 31
0.0
  0
LINE
  5
8432
  8
0
 10
24
 20
12
 30
0.0
 11
24
 21
13
 31
0.0
  0
LINE
  5
8433
  8
0
 10
24
 20
13
 30
0.0
 11
24
 21
14
 31
0.0
  0
LINE
  5
8434
  8
0
 10
24
 20
14
 30
0.0
 11
24
 21
15
 31
0.0
  0
LINE
  5
8435
  8
0
 10
24
 20
15
 30
0.0
 11
24
 21
16
 31
0.0
  0
LINE
  5
8436
  8
0
 10
24
 20
16
 30
0.0
 11
24
 21
17
 31
0.0
  0
LINE
  5
8437
  8
0
 10
24
 20
17
 30
0.0
 11
24
 21
18
 31
0.0
  0
LINE
  5
8438
  8
0
 10
24
 20
18
 30
0.0
 11
24
 21
19
 31
0.0
  0
LINE
  5
8439
  8
0
 10
24
 20
19
 30
0.0
 11
24
 21
20
 31
0.0
  0
LINE
  5
8440
  8
0
 10
24
 20
20
 30
0.0
 11
24
 21
21
 31
0.0
  0
LINE
  5
8441
  8
0
 10
24
 20
21
 30
0.0
 11
24
 21
22
 31
0.0
  0
LINE
  5
8442
  8
0
 10
24
 20
22
 30
0.0
 11
24
 21
23
 31
0.0
  0
LINE
  5
8443
  8
0
 10
24
 20
23
 30
0.0
 11
24
 21
24
 31
0.0
  0
LINE
  5
8444
  8
0
 10
24
 20
24
 30
0.0
 11
24
 21
25
 31
0.0
  0
LINE
  5
8445
  8
0
 10
24
 20
25
 30
0.0
 11
24
 21
26
 31
0.0
  0
LINE
  5
8446
  8
0
 10
24
 20
26
 30
0.0
 11
24
 21
27
 31
0.0
  0
LINE
  5
8447
  8
0
 10
24
 20
27
 30
0.0
 11
24
 21
28
 31
0.0
  0
LINE
  5
8448
  8
0
 10
24
 20
28
 30
0.0
 11
24
 21
29
 31
0.0
  0
LINE
  5
8449
  8
0
 10
24
 20
29
 30
0.0
 11
24
 21
30
 31
0.0
  0
LINE
  5
8450
  8
0
 10
24
 20
30
 30
0.0
 11
24
 21
31
 31
0.0
  0
LINE
  5
8451
  8
0
 10
24
 20
31
 30
0.0
 11
24
 21
32
 31
0.0
  0
LINE
  5
8452
  8
0
 10
24
 20
32
 30
0.0
 11
24
 21
33
 31
0.0
  0
LINE
  5
8453
  8
0
 10
24
 20
33
 30
0.0
 11
24
 21
34
 31
0.0
  0
LINE
  5
8454
  8
0
 10
24
 20
34
 30
0.0
 11
24
 21
35
 31
0.0
  0
LINE
  5
8455
  8
0
 10
24
 20
35
 30
0.0
 11
24
 21
36
 31
0.0
  0
LINE
  5
8456
  8
0
 10
24
 20
36
 30
0.0
 11
24
 21
37
 31
0.0
  0
LINE
  5
8457
  8
0
 10
24
 20
37
 30
0.0
 11
24
 21
38
 31
0.0
  0
LINE
  5
8458
  8
0
 10
24
 20
38
 30
0.0
 11
24
 21
39
 31
0.0
  0
LINE
  5
8459
  8
0
 10
24
 20
39
 30
0.0
 11
24
 21
40
 31
0.0
  0
LINE
  5
8460
  8
0
 10
24
 20
40
 30
0.0
 11
24
 21
41
 31
0.0
  0
LINE
  5
8461
  8
0
 10
24
 20
41
 30
0.0
 11
24
 21
42
 31
0.0
  0
LINE
  5
8462
  8
0
 10
24
 20
42
 30
0.0
 11
24
 21
43
 31
0.0
  0
LINE
  5
8463
  8
0
 10
24
 20
43
 30
0.0
 11
24
 21
44
 31
0.0
  0
LINE
  5
8464
  8
0
 10
24
 20
44
 30
0.0
 11
23
 21
0
 31
0.0
  0
LINE
  5
8465
  8
0
 10
23
 20
0
 30
0.0
 11
22
 21
0
 31
0.0
  0
LINE
  5
8466
  8
0
 10
22
 20
0
 30
0.0
 11
22
 21
1
 31
0.0
  0
LINE
  5
8467
  8
0
 10
22
 20
1
 30
0.0
 11
22
 21
2
 31
0.0
  0
LINE
  5
8468
  8
0
 10
22
 20
2
 30
0.0
 11
22
 21
3
 31
0.0
  0
LINE
  5
8469
  8
0
 10
22
 20
3
 30
0.0
 11
22
 21
4
 31
0.0
  0
LINE
  5
8470
  8
0
 10
22
 20
4
 30
0.0
 11
22
 21
5
 31
0.0
  0
LINE
  5
8471
  8
0
 10
22
 20
5
 30
0.0
 11
22
 21
6
 31
0.0
  0
LINE
  5
8472
  8
0
 10
22
 20
6
 30
0.0
 11
22
 21
7
 31
0.0
  0
LINE
  5
8473
  8
0
 10
22
 20
7
 30
0.0
 11
22
 21
8
 31
0.0
  0
LINE
  5
8474
  8
0
 10
22
 20
8
 30
0.0
 11
22
 21
9
 31
0.0
  0
LINE
  5
8475
  8
0
 10
22
 20
9
 30
0.0
 11
22
 21
10
 31
0.0
  0
LINE
  5
8476
  8
0
 10
22
 20
10
 30
0.0
 11
22
 21
11
 31
0.0
  0
LINE
  5
8477
  8
0
 10
22
 20
11
 30
0.0
 11
22
 21
12
 31
0.0
  0
LINE
  5
8478
  8
0
 10
22
 20
12
 30
0.0
 11
22
 21
13
 31
0.0
  0
LINE
  5
8479
  8
0
 10
22
 20
13
 30
0.0
 11
22
 21
14
 31
0.0
  0
LINE
  5
8480
  8
0
 10
22
 20
14
 30
0.0
 11
22
 21
15
 31
0.0
  0
LINE
  5
8481
  8
0
 10
22
 20
15
 30
0.0
 11
22
 21
16
 31
0.0
  0
LINE
  5
8482
  8
0
 10
22
 20
16
 30
0.0
 11
22
 21
17
 31
0.0
  0
LINE
  5
8483
  8
0
 10
22
 20
17
 30
0.0
 11
22
 21
18
 31
0.0
  0
LINE
  5
8484
  8
0
 10
22
 20
18
 30
0.0
 11
22
 21
19
 31
0.0
  0
LINE
  5
8485
  8
0
 10
22
 20
19
 30
0.0
 11
22
 21
20
 31
0.0
  0
LINE
  5
8486
  8
0
 10
22
 20
20
 30
0.0
 11
22
 21
21
 31
0.0
  0
LINE
  5
8487
  8
0
 10
22
 20
21
 30
0.0
 11
22
 21
22
 31
0.0
  0
LINE
  5
8488
  8
0
 10
22
 20
22
 30
0.0
 11
22
 21
23
 31
0.0
  0
LINE
  5
8489
  8
0
 10
22
 20
23
 30
0.0
 11
22
 21
24
 31
0.0
  0
LINE
  5
8490
  8
0
 10
22
 20
24
 30
0.0
 11
22
 21
25
 31
0.0
  0
LINE
  5
8491
  8
0
 10
22
 20
25
 30
0.0
 11
22
 21
26
 31
0.0
  0
LINE
  5
8492
  8
0
 10
22
 20
26
 30
0.0
 11
22
 21
27
 31
0.0
  0
LINE
  5
8493
  8
0
 10
22
 20
27
 30
0.0
 11
22
 21
28
 31
0.0
  0
LINE
  5
8494
  8
0
 10
22
 20
28
 30
0.0
 11
22
 21
29
 31
0.0
  0
LINE
  5
8495
  8
0
 10
22
 20
29
 30
0.0
 11
22
 21
30
 31
0.0
  0
LINE
  5
8496
  8
0
 10
22
 20
30
 30
0.0
 11
22
 21
31
 31
0.0
  0
LINE
  5
8497
  8
0
 10
22
 20
31
 30
0.0
 11
22
 21
32
 31
0.0
  0
LINE
  5
8498
  8
0
 10
22
 20
32
 30
0.0
 11
22
 21
33
 31
0.0
  0
LINE
  5
8499
  8
0
 10
22
 20
33
 30
0.0
 11
22
 21
34
 31
0.0
  0
LINE
  5
8500
  8
0
 10
22
 20
34
 30
0.0
 11
22
 21
35
 31
0.0
  0
LINE
  5
8501
  8
0
 10
22
 20
35
 30
0.0
 11
22
 21
36
 31
0.0
  0
LINE
  5
8502
  8
0
 10
22
 20
36
 30
0.0
 11
22
 21
37
 31
0.0
  0
LINE
  5
8503
  8
0
 10
22
 20
37
 30
0.0
 11
22
 21
38
 31
0.0
  0
LINE
  5
8504
  8
0
 10
22
 20
38
 30
0.0
 11
22
 21
39
 31
0.0
  0
LINE
  5
8505
  8
0
 10
22
 20
39
 30
0.0
 11
22
 21
40
 31
0.0
  0
LINE
  5
8506
  8
0
 10
22
 20
40
 30
0.0
 11
22
 21
41
 31
0.0
  0
LINE
  5
8507
  8
0
 10
22
 20
41
 30
0.0
 11
22
 21
42
 31
0.0
  0
LINE
  5
8508
  8
0
 10
22
 20
42
 30
0.0
 11
22
 21
43
 31
0.0
  0
LINE
  5
8509
  8
0
 10
22
 20
43
 30
0.0
 11
22
 21
44
 31
0.0
  0
LINE
  5
8510
  8
0
 10
22
 20
44
 30
0.0
 11
21
 21
0
 31
0.0
  0
LINE
  5
8511
  8
0
 10
21
 20
0
 30
0.0
 11
20
 21
0
 31
0.0
  0
LINE
  5
8512
  8
0
 10
20
 20
0
 30
0.0
 11
20
 21
1
 31
0.0
  0
LINE
  5
8513
  8
0
 10
20
 20
1
 30
0.0
 11
20
 21
2
 31
0.0
  0
LINE
  5
8514
  8
0
 10
20
 20
2
 30
0.0
 11
20
 21
3
 31
0.0
  0
LINE
  5
8515
  8
0
 10
20
 20
3
 30
0.0
 11
20
 21
4
 31
0.0
  0
LINE
  5
8516
  8
0
 10
20
 20
4
 30
0.0
 11
20
 21
5
 31
0.0
  0
LINE
  5
8517
  8
0
 10
20
 20
5
 30
0.0
 11
20
 21
6
 31
0.0
  0
LINE
  5
8518
  8
0
 10
20
 20
6
 30
0.0
 11
20
 21
7
 31
0.0
  0
LINE
  5
8519
  8
0
 10
20
 20
7
 30
0.0
 11
20
 21
8
 31
0.0
  0
LINE
  5
8520
  8
0
 10
20
 20
8
 30
0.0
 11
20
 21
9
 31
0.0
  0
LINE
  5
8521
  8
0
 10
20
 20
9
 30
0.0
 11
20
 21
10
 31
0.0
  0
LINE
  5
8522
  8
0
 10
20
 20
10
 30
0.0
 11
20
 21
11
 31
0.0
  0
LINE
  5
8523
  8
0
 10
20
 20
11
 30
0.0
 11
20
 21
12
 31
0.0
  0
LINE
  5
8524
  8
0
 10
20
 20
12
 30
0.0
 11
20
 21
13
 31
0.0
  0
LINE
  5
8525
  8
0
 10
20
 20
13
 30
0.0
 11
20
 21
14
 31
0.0
  0
LINE
  5
8526
  8
0
 10
20
 20
14
 30
0.0
 11
20
 21
15
 31
0.0
  0
LINE
  5
8527
  8
0
 10
20
 20
15
 30
0.0
 11
20
 21
16
 31
0.0
  0
LINE
  5
8528
  8
0
 10
20
 20
16
 30
0.0
 11
20
 21
17
 31
0.0
  0
LINE
  5
8529
  8
0
 10
20
 20
17
 30
0.0
 11
20
 21
18
 31
0.0
  0
LINE
  5
8530
  8
0
 10
20
 20
18
 30
0.0
 11
20
 21
19
 31
0.0
  0
LINE
  5
8531
  8
0
 10
20
 20
19
 30
0.0
 11
20
 21
20
 31
0.0
  0
LINE
  5
8532
  8
0
 10
20
 20
20
 30
0.0
 11
20
 21
21
 31
0.0
  0
LINE
  5
8533
  8
0
 10
20
 20
21
 30
0.0
 11
20
 21
22
 31
0.0
  0
LINE
  5
8534
  8
0
 10
20
 20
22
 30
0.0
 11
20
 21
23
 31
0.0
  0
LINE
  5
8535
  8
0
 10
20
 20
23
 30
0.0
 11
20
 21
24
 31
0.0
  0
LINE
  5
8536
  8
0
 10
20
 20
24
 30
0.0
 11
20
 21
25
 31
0.0
  0
LINE
  5
8537
  8
0
 10
20
 20
25
 30
0.0
 11
20
 21
26
 31
0.0
  0
LINE
  5
8538
  8
0
 10
20
 20
26
 30
0.0
 11
20
 21
27
 31
0.0
  0
LINE
  5
8539
  8
0
 10
20
 20
27
 30
0.0
 11
20
 21
28
 31
0.0
  0
LINE
  5
8540
  8
0
 10
20
 20
28
 30
0.0
 11
20
 21
29
 31
0.0
  0
LINE
  5
8541
  8
0
 10
20
 20
29
 30
0.0
 11
20
 21
30
 31
0.0
  0
LINE
  5
8542
  8
0
 10
20
 20
30
 30
0.0
 11
20
 21
31
 31
0.0
  0
LINE
  5
8543
  8
0
 10
20
 20
31
 30
0.0
 11
20
 21
32
 31
0.0
  0
LINE
  5
8544
  8
0
 10
20
 20
32
 30
0.0
 11
20
 21
33
 31
0.0
  0
LINE
  5
8545
  8
0
 10
20
 20
33
 30
0.0
 11
20
 21
34
 31
0.0
  0
LINE
  5
8546
  8
0
 10
20
 20
34
 30
0.0
 11
20
 21
35
 31
0.0
  0
LINE
  5
8547
  8
0
 10
20
 20
35
 30
0.0
 11
20
 21
36
 31
0.0
  0
LINE
  5
8548
  8
0
 10
20
 20
36
 30
0.0
 11
20
 21
37
 31
0.0
  0
LINE
  5
8549
  8
0
 10
20
 20
37
 30
0.0
 11
20
 21
38
 31
0.0
  0
LINE
  5
8550
  8
0
 10
20
 20
38
 30
0.0
 11
20
 21
39
 31
0.0
  0
LINE
  5
8551
  8
0
 10
20
 20
39
 30
0.0
 11
20
 21
40
 31
0.0
  0
LINE
  5
8552
  8
0
 10
20
 20
40
 30
0.0
 11
20
 21
41
 31
0.0
  0
LINE
  5
8553
  8
0
 10
20
 20
41
 30
0.0
 11
20
 21
42
 31
0.0
  0
LINE
  5
8554
  8
0
 10
20
 20
42
 30
0.0
 11
20
 21
43
 31
0.0
  0
LINE
  5
8555
  8
0
 10
20
 20
43
 30
0.0
 11
20
 21
44
 31
0.0
  0
LINE
  5
8556
  8
0
 10
20
 20
44
 30
0.0
 11
19
 21
0
 31
0.0
  0
LINE
  5
8557
  8
0
 10
19
 20
0
 30
0.0
 11
18
 21
0
 31
0.0
  0
LINE
  5
8558
  8
0
 10
18
 20
0
 30
0.0
 11
18
 21
1
 31
0.0
  0
LINE
  5
8559
  8
0
 10
18
 20
1
 30
0.0
 11
18
 21
2
 31
0.0
  0
LINE
  5
8560
  8
0
 10
18
 20
2
 30
0.0
 11
18
 21
3
 31
0.0
  0
LINE
  5
8561
  8
0
 10
18
 20
3
 30
0.0
 11
18
 21
4
 31
0.0
  0
LINE
  5
8562
  8
0
 10
18
 20
4
 30
0.0
 11
18
 21
5
 31
0.0
  0
LINE
  5
8563
  8
0
 10
18
 20
5
 30
0.0
 11
18
 21
6
 31
0.0
  0
LINE
  5
8564
  8
0
 10
18
 20
6
 30
0.0
 11
18
 21
7
 31
0.0
  0
LINE
  5
8565
  8
0
 10
18
 20
7
 30
0.0
 11
18
 21
8
 31
0.0
  0
LINE
  5
8566
  8
0
 10
18
 20
8
 30
0.0
 11
18
 21
9
 31
0.0
  0
LINE
  5
8567
  8
0
 10
18
 20
9
 30
0.0
 11
18
 21
10
 31
0.0
  0
LINE
  5
8568
  8
0
 10
18
 20
10
 30
0.0
 11
18
 21
11
 31
0.0
  0
LINE
  5
8569
  8
0
 10
18
 20
11
 30
0.0
 11
18
 21
12
 31
0.0
  0
LINE
  5
8570
  8
0
 10
18
 20
12
 30
0.0
 11
18
 21
13
 31
0.0
  0
LINE
  5
8571
  8
0
 10
18
 20
13
 30
0.0
 11
18
 21
14
 31
0.0
  0
LINE
  5
8572
  8
0
 10
18
 20
14
 30
0.0
 11
18
 21
15
 31
0.0
  0
LINE
  5
8573
  8
0
 10
18
 20
15
 30
0.0
 11
18
 21
16
 31
0.0
  0
LINE
  5
8574
  8
0
 10
18
 20
16
 30
0.0
 11
18
 21
17
 31
0.0
  0
LINE
  5
8575
  8
0
 10
18
 20
17
 30
0.0
 11
18
 21
18
 31
0.0
  0
LINE
  5
8576
  8
0
 10
18
 20
18
 30
0.0
 11
18
 21
19
 31
0.0
  0
LINE
  5
8577
  8
0
 10
18
 20
19
 30
0.0
 11
18
 21
20
 31
0.0
  0
LINE
  5
8578
  8
0
 10
18
 20
20
 30
0.0
 11
18
 21
21
 31
0.0
  0
LINE
  5
8579
  8
0
 10
18
 20
21
 30
0.0
 11
18
 21
22
 31
0.0
  0
LINE
  5
8580
  8
0
 10
18
 20
22
 30
0.0
 11
18
 21
23
 31
0.0
  0
LINE
  5
8581
  8
0
 10
18
 20
23
 30
0.0
 11
18
 21
24
 31
0.0
  0
LINE
  5
8582
  8
0
 10
18
 20
24
 30
0.0
 11
18
 21
25
 31
0.0
  0
LINE
  5
8583
  8
0
 10
18
 20
25
 30
0.0
 11
18
 21
26
 31
0.0
  0
LINE
  5
8584
  8
0
 10
18
 20
26
 30
0.0
 11
18
 21
27
 31
0.0
  0
LINE
  5
8585
  8
0
 10
18
 20
27
 30
0.0
 11
18
 21
28
 31
0.0
  0
LINE
  5
8586
  8
0
 10
18
 20
28
 30
0.0
 11
18
 21
29
 31
0.0
  0
LINE
  5
8587
  8
0
 10
18
 20
29
 30
0.0
 11
18
 21
30
 31
0.0
  0
LINE
  5
8588
  8
0
 10
18
 20
30
 30
0.0
 11
18
 21
31
 31
0.0
  0
LINE
  5
8589
  8
0
 10
18
 20
31
 30
0.0
 11
18
 21
32
 31
0.0
  0
LINE
  5
8590
  8
0
 10
18
 20
32
 30
0.0
 11
18
 21
33
 31
0.0
  0
LINE
  5
8591
  8
0
 10
18
 20
33
 30
0.0
 11
18
 21
34
 31
0.0
  0
LINE
  5
8592
  8
0
 10
18
 20
34
 30
0.0
 11
18
 21
35
 31
0.0
  0
LINE
  5
8593
  8
0
 10
18
 20
35
 30
0.0
 11
18
 21
36
 31
0.0
  0
LINE
  5
8594
  8
0
 10
18
 20
36
 30
0.0
 11
18
 21
37
 31
0.0
  0
LINE
  5
8595
  8
0
 10
18
 20
37
 30
0.0
 11
18
 21
38
 31
0.0
  0
LINE
  5
8596
  8
0
 10
18
 20
38
 30
0.0
 11
18
 21
39
 31
0.0
  0
LINE
  5
8597
  8
0
 10
18
 20
39
 30
0.0
 11
18
 21
40
 31
0.0
  0
LINE
  5
8598
  8
0
 10
18
 20
40
 30
0.0
 11
18
 21
41
 31
0.0
  0
LINE
  5
8599
  8
0
 10
18
 20
41
 30
0.0
 11
18
 21
42
 31
0.0
  0
LINE
  5
8600
  8
0
 10
18
 20
42
 30
0.0
 11
18
 21
43
 31
0.0
  0
LINE
  5
8601
  8
0
 10
18
 20
43
 30
0.0
 11
18
 21
44
 31
0.0
  0
LINE
  5
8602
  8
0
 10
18
 20
44
 30
0.0
 11
17
 21
0
 31
0.0
  0
LINE
  5
8603
  8
0
 10
17
 20
0
 30
0.0
 11
16
 21
0
 31
0.0
  0
LINE
  5
8604
  8
0
 10
16
 20
0
 30
0.0
 11
16
 21
1
 31
0.0
  0
LINE
  5
8605
  8
0
 10
16
 20
1
 30
0.0
 11
16
 21
2
 31
0.0
  0
LINE
  5
8606
  8
0
 10
16
 20
2
 30
0.0
 11
16
 21
3
 31
0.0
  0
LINE
  5
8607
  8
0
 10
16
 20
3
 30
0.0
 11
16
 21
4
 31
0.0
  0
LINE
  5
8608
  8
0
 10
16
 20
4
 30
0.0
 11
16
 21
5
 31
0.0
  0
LINE
  5
8609
  8
0
 10
16
 20
5
 30
0.0
 11
16
 21
6
 31
0.0
  0
LINE
  5
8610
  8
0
 10
16
 20
6
 30
0.0
 11
16
 21
7
 31
0.0
  0
LINE
  5
8611
  8
0
 10
16
 20
7
 30
0.0
 11
16
 21
8
 31
0.0
  0
LINE
  5
8612
  8
0
 10
16
 20
8
 30
0.0
 11
16
 21
9
 31
0.0
  0
LINE
  5
8613
  8
0
 10
16
 20
9
 30
0.0
 11
16
 21
10
 31
0.0
  0
LINE
  5
8614
  8
0
 10
16
 20
10
 30
0.0
 11
16
 21
11
 31
0.0
  0
LINE
  5
8615
  8
0
 10
16
 20
11
 30
0.0
 11
16
 21
12
 31
0.0
  0
LINE
  5
8616
  8
0
 10
16
 20
12
 30
0.0
 11
16
 21
13
 31
0.0
  0
LINE
  5
8617
  8
0
 10
16
 20
13
 30
0.0
 11
16
 21
14
 31
0.0
  0
LINE
  5
8618
  8
0
 10
16
 20
14
 30
0.0
 11
16
 21
15
 31
0.0
  0
LINE
  5
8619
  8
0
 10
16
 20
15
 30
0.0
 11
16
 21
16
 31
0.0
  0
LINE
  5
8620
  8
0
 10
16
 20
16
 30
0.0
 11
16
 21
17
 31
0.0
  0
LINE
  5
8621
  8
0
 10
16
 20
17
 30
0.0
 11
16
 21
18
 31
0.0
  0
LINE
  5
8622
  8
0
 10
16
 20
18
 30
0.0
 11
16
 21
19
 31
0.0
  0
LINE
  5
8623
  8
0
 10
16
 20
19
 30
0.0
 11
16
 21
20
 31
0.0
  0
LINE
  5
8624
  8
0
 10
16
 20
20
 30
0.0
 11
16
 21
21
 31
0.0
  0
LINE
  5
8625
  8
0
 10
16
 20
21
 30
0.0
 11
16
 21
22
 31
0.0
  0
LINE
  5
8626
  8
0
 10
16
 20
22
 30
0.0
 11
16
 21
23
 31
0.0
  0
LINE
  5
8627
  8
0
 10
16
 20
23
 30
0.0
 11
16
 21
24
 31
0.0
  0
LINE
  5
8628
  8
0
 10
16
 20
24
 30
0.0
 11
16
 21
25
 31
0.0
  0
LINE
  5
8629
  8
0
 10
16
 20
25
 30
0.0
 11
16
 21
26
 31
0.0
  0
LINE
  5
8630
  8
0
 10
16
 20
26
 30
0.0
 11
16
 21
27
 31
0.0
  0
LINE
  5
8631
  8
0
 10
16
 20
27
 30
0.0
 11
16
 21
28
 31
0.0
  0
LINE
  5
8632
  8
0
 10
16
 20
28
 30
0.0
 11
16
 21
29
 31
0.0
  0
LINE
  5
8633
  8
0
 10
16
 20
29
 30
0.0
 11
16
 21
30
 31
0.0
  0
LINE
  5
8634
  8
0
 10
16
 20
30
 30
0.0
 11
16
 21
31
 31
0.0
  0
LINE
  5
8635
  8
0
 10
16
 20
31
 30
0.0
 11
16
 21
32
 31
0.0
  0
LINE
  5
8636
  8
0
 10
16
 20
32
 30
0.0
 11
16
 21
33
 31
0.0
  0
LINE
  5
8637
  8
0
 10
16
 20
33
 30
0.0
 11
16
 21
34
 31
0.0
  0
LINE
  5
8638
  8
0
 10
16
 20
34
 30
0.0
 11
16
 21
35
 31
0.0
  0
LINE
  5
8639
  8
0
 10
16
 20
35
 30
0.0
 11
16
 21
36
 31
0.0
  0
LINE
  5
8640
  8
0
 10
16
 20
36
 30
0.0
 11
16
 21
37
 31
0.0
  0
LINE
  5
8641
  8
0
 10
16
 20
37
 30
0.0
 11
16
 21
38
 31
0.0
  0
LINE
  5
8642
  8
0
 10
16
 20
38
 30
0.0
 11
16
 21
39
 31
0.0
  0
LINE
  5
8643
  8
0
 10
16
 20
39
 30
0.0
 11
16
 21
40
 31
0.0
  0
LINE
  5
8644
  8
0
 10
16
 20
40
 30
0.0
 11
16
 21
41
 31
0.0
  0
LINE
  5
8645
  8
0
 10
16
 20
41
 30
0.0
 11
16
 21
42
 31
0.0
  0
LINE
  5
8646
  8
0
 10
16
 20
42
 30
0.0
 11
16
 21
43
 31
0.0
  0
LINE
  5
8647
  8
0
 10
16
 20
43
 30
0.0
 11
16
 21
44
 31
0.0
  0
LINE
  5
8648
  8
0
 10
16
 20
44
 30
0.0
 11
15
 21
0
 31
0.0
  0
LINE
  5
8649
  8
0
 10
15
 20
0
 30
0.0
 11
14
 21
0
 31
0.0
  0
LINE
  5
8650
  8
0
 10
14
 20
0
 30
0.0
 11
14
 21
1
 31
0.0
  0
LINE
  5
8651
  8
0
 10
14
 20
1
 30
0.0
 11
14
 21
2
 31
0.0
  0
LINE
  5
8652
  8
0
 10
14
 20
2
 30
0.0
 11
14
 21
3
 31
0.0
  0
LINE
  5
8653
  8
0
 10
14
 20
3
 30
0.0
 11
14
 21
4
 31
0.0
  0
LINE
  5
8654
  8
0
 10
14
 20
4
 30
0.0
 11
14
 21
5
 31
0.0
  0
LINE
  5
8655
  8
0
 10
14
 20
5
 30
0.0
 11
14
 21
6
 31
0.0
  0
LINE
  5
8656
  8
0
 10
14
 20
6
 30
0.0
 11
14
 21
7
 31
0.0
  0
LINE
  5
8657
  8
0
 10
14
 20
7
 30
0.0
 11
14
 21
8
 31
0.0
  0
LINE
  5
8658
  8
0
 10
14
 20
8
 30
0.0
 11
14
 21
9
 31
0.0
  0
LINE
  5
8659
  8
0
 10
14
 20
9
 30
0.0
 11
14
 21
10
 31
0.0
  0
LINE
  5
8660
  8
0
 10
14
 20
10
 30
0.0
 11
14
 21
11
 31
0.0
  0
LINE
  5
8661
  8
0
 10
14
 20
11
 30
0.0
 11
14
 21
12
 31
0.0
  0
LINE
  5
8662
  8
0
 10
14
 20
12
 30
0.0
 11
14
 21
13
 31
0.0
  0
LINE
  5
8663
  8
0
 10
14
 20
13
 30
0.0
 11
14
 21
14
 31
0.0
  0
LINE
  5
8664
  8
0
 10
14
 20
14
 30
0.0
 11
14
 21
15
 31
0.0
  0
LINE
  5
8665
  8
0
 10
14
 20
15
 30
0.0
 11
14
 21
16
 31
0.0
  0
LINE
  5
8666
  8
0
 10
14
 20
16
 30
0.0
 11
14
 21
17
 31
0.0
  0
LINE
  5
8667
  8
0
 10
14
 20
17
 30
0.0
 11
14
 21
18
 31
0.0
  0
LINE
  5
8668
  8
0
 10
14
 20
18
 30
0.0
 11
14
 21
19
 31
0.0
  0
LINE
  5
8669
  8
0
 10
14
 20
19
 30
0.0
 11
14
 21
20
 31
0.0
  0
LINE
  5
8670
  8
0
 10
14
 20
20
 30
0.0
 11
14
 21
21
 31
0.0
  0
LINE
  5
8671
  8
0
 10
14
 20
21
 30
0.0
 11
14
 21
22
 31
0.0
  0
LINE
  5
8672
  8
0
 10
14
 20
22
 30
0.0
 11
14
 21
23
 31
0.0
  0
LINE
  5
8673
  8
0
 10
14
 20
23
 30
0.0
 11
14
 21
24
 31
0.0
  0
LINE
  5
8674
  8
0
 10
14
 20
24
 30
0.0
 11
14
 21
25
 31
0.0
  0
LINE
  5
8675
  8
0
 10
14
 20
25
 30
0.0
 11
14
 21
26
 31
0.0
  0
LINE
  5
8676
  8
0
 10
14
 20
26
 30
0.0
 11
14
 21
27
 31
0.0
  0
LINE
  5
8677
  8
0
 10
14
 20
27
 30
0.0
 11
14
 21
28
 31
0.0
  0
LINE
  5
8678
  8
0
 10
14
 20
28
 30
0.0
 11
14
 21
29
 31
0.0
  0
LINE
  5
8679
  8
0
 10
14
 20
29
 30
0.0
 11
14
 21
30
 31
0.0
  0
LINE
  5
8680
  8
0
 10
14
 20
30
 30
0.0
 11
14
 21
31
 31
0.0
  0
LINE
  5
8681
  8
0
 10
14
 20
31
 30
0.0
 11
14
 21
32
 31
0.0
  0
LINE
  5
8682
  8
0
 10
14
 20
32
 30
0.0
 11
14
 21
33
 31
0.0
  0
LINE
  5
8683
  8
0
 10
14
 20
33
 30
0.0
 11
14
 21
34
 31
0.0
  0
LINE
  5
8684
  8
0
 10
14
 20
34
 30
0.0
 11
14
 21
35
 31
0.0
  0
LINE
  5
8685
  8
0
 10
14
 20
35
 30
0.0
 11
14
 21
36
 31
0.0
  0
LINE
  5
8686
  8
0
 10
14
 20
36
 30
0.0
 11
14
 21
37
 31
0.0
  0
LINE
  5
8687
  8
0
 10
14
 20
37
 30
0.0
 11
14
 21
38
 31
0.0
  0
LINE
  5
8688
  8
0
 10
14
 20
38
 30
0.0
 11
14
 21
39
 31
0.0
  0
LINE
  5
8689
  8
0
 10
14
 20
39
 30
0.0
 11
14
 21
40
 31
0.0
  0
LINE
  5
8690
  8
0
 10
14
 20
40
 30
0.0
 11
14
 21
41
 31
0.0
  0
LINE
  5
8691
  8
0
 10
14
 20
41
 30
0.0
 11
14
 21
42
 31
0.0
  0
LINE
  5
8692
  8
0
 10
14
 20
42
 30
0.0
 11
14
 21
43
 31
0.0
  0
LINE
  5
8693
  8
0
 10
14
 20
43
 30
0.0
 11
14
 21
44
 31
0.0
  0
LINE
  5
8694
  8
0
 10
14
 20
44
 30
0.0
 11
13
 21
0
 31
0.0
  0
LINE
  5
8695
  8
0
 10
13
 20
0
 30
0.0
 11
12
 21
0
 31
0.0
  0
LINE
  5
8696
  8
0
 10
12
 20
0
 30
0.0
 11
12
 21
1
 31
0.0
  0
LINE
  5
8697
  8
0
 10
12
 20
1
 30
0.0
 11
12
 21
2
 31
0.0
  0
LINE
  5
8698
  8
0
 10
12
 20
2
 30
0.0
 11
12
 21
3
 31
0.0
  0
LINE
  5
8699
  8
0
 10
12
 20
3
 30
0.0
 11
12
 21
4
 31
0.0
  0
LINE
  5
8700
  8
0
 10
12
 20
4
 30
0.0
 11
12
 21
5
 31
0.0
  0
LINE
  5
8701
  8
0
 10
12
 20
5
 30
0.0
 11
12
 21
6
 31
0.0
  0
LINE
  5
8702
  8
0
 10
12
 20
6
 30
0.0
 11
12
 21
7
 31
0.0
  0
LINE
  5
8703
  8
0
 10
12
 20
7
 30
0.0
 11
12
 21
8
 31
0.0
  0
LINE
  5
8704
  8
0
 10
12
 20
8
 30
0.0
 11
12
 21
9
 31
0.0
  0
LINE
  5
8705
  8
0
 10
12
 20
9
 30
0.0
 11
12
 21
10
 31
0.0
  0
LINE
  5
8706
  8
0
 10
12
 20
10
 30
0.0
 11
12
 21
11
 31
0.0
  0
LINE
  5
8707
  8
0
 10
12
 20
11
 30
0.0
 11
12
 21
12
 31
0.0
  0
LINE
  5
8708
  8
0
 10
12
 20
12
 30
0.0
 11
12
 21
13
 31
0.0
  0
LINE
  5
8709
  8
0
 10
12
 20
13
 30
0.0
 11
12
 21
14
 31
0.0
  0
LINE
  5
8710
  8
0
 10
12
 20
14
 30
0.0
 11
12
 21
15
 31
0.0
  0
LINE
  5
8711
  8
0
 10
12
 20
15
 30
0.0
 11
12
 21
16
 31
0.0
  0
LINE
  5
8712
  8
0
 10
12
 20
16
 30
0.0
 11
12
 21
17
 31
0.0
  0
LINE
  5
8713
  8
0
 10
12
 20
17
 30
0.0
 11
12
 21
18
 31
0.0
  0
LINE
  5
8714
  8
0
 10
12
 20
18
 30
0.0
 11
12
 21
19
 31
0.0
  0
LINE
  5
8715
  8
0
 10
12
 20
19
 30
0.0
 11
12
 21
20
 31
0.0
  0
LINE
  5
8716
  8
0
 10
12
 20
20
 30
0.0
 11
12
 21
21
 31
0.0
  0
LINE
  5
8717
  8
0
 10
12
 20
21
 30
0.0
 11
12
 21
22
 31
0.0
  0
LINE
  5
8718
  8
0
 10
12
 20
22
 30
0.0
 11
12
 21
23
 31
0.0
  0
LINE
  5
8719
  8
0
 10
12
 20
23
 30
0.0
 11
12
 21
24
 31
0.0
  0
LINE
  5
8720
  8
0
 10
12
 20
24
 30
0.0
 11
12
 21
25
 31
0.0
  0
LINE
  5
8721
  8
0
 10
12
 20
25
 30
0.0
 11
12
 21
26
 31
0.0
  0
LINE
  5
8722
  8
0
 10
12
 20
26
 30
0.0
 11
12
 21
27
 31
0.0
  0
LINE
  5
8723
  8
0
 10
12
 20
27
 30
0.0
 11
12
 21
28
 31
0.0
  0
LINE
  5
8724
  8
0
 10
12
 20
28
 30
0.0
 11
12
 21
29
 31
0.0
  0
LINE
  5
8725
  8
0
 10
12
 20
29
 30
0.0
 11
12
 21
30
 31
0.0
  0
LINE
  5
8726
  8
0
 10
12
 20
30
 30
0.0
 11
12
 21
31
 31
0.0
  0
LINE
  5
8727
  8
0
 10
12
 20
31
 30
0.0
 11
12
 21
32
 31
0.0
  0
LINE
  5
8728
  8
0
 10
12
 20
32
 30
0.0
 11
12
 21
33
 31
0.0
  0
LINE
  5
8729
  8
0
 10
12
 20
33
 30
0.0
 11
12
 21
34
 31
0.0
  0
LINE
  5
8730
  8
0
 10
12
 20
34
 30
0.0
 11
12
 21
35
 31
0.0
  0
LINE
  5
8731
  8
0
 10
12
 20
35
 30
0.0
 11
12
 21
36
 31
0.0
  0
LINE
  5
8732
  8
0
 10
12
 20
36
 30
0.0
 11
12
 21
37
 31
0.0
  0
LINE
  5
8733
  8
0
 10
12
 20
37
 30
0.0
 11
12
 21
38
 31
0.0
  0
LINE
  5
8734
  8
0
 10
12
 20
38
 30
0.0
 11
12
 21
39
 31
0.0
  0
LINE
  5
8735
  8
0
 10
12
 20
39
 30
0.0
 11
12
 21
40
 31
0.0
  0
LINE
  5
8736
  8
0
 10
12
 20
40
 30
0.0
 11
12
 21
41
 31
0.0
  0
LINE
  5
8737
  8
0
 10
12
 20
41
 30
0.0
 11
12
 21
42
 31
0.0
  0
LINE
  5
8738
  8
0
 10
12
 20
42
 30
0.0
 11
12
 21
43
 31
0.0
  0
LINE
  5
8739
  8
0
 10
12
 20
43
 30
0.0
 11
12
 21
44
 31
0.0
  0
LINE
  5
8740
  8
0
 10
12
 20
44
 30
0.0
 11
11
 21
0
 31
0.0
  0
LINE
  5
8741
  8
0
 10
11
 20
0
 30
0.0
 11
10
 21
0
 31
0.0
  0
LINE
  5
8742
  8
0
 10
10
 20
0
 30
0.0
 11
10
 21
1
 31
0.0
  0
LINE
  5
8743
  8
0
 10
10
 20
1
 30
0.0
 11
10
 21
2
 31
0.0
  0
LINE
  5
8744
  8
0
 10
10
 20
2
 30
0.0
 11
10
 21
3
 31
0.0
  0
LINE
  5
8745
  8
0
 10
10
 20
3
 30
0.0
 11
10
 21
4
 31
0.0
  0
LINE
  5
8746
  8
0
 10
10
 20
4
 30
0.0
 11
10
 21
5
 31
0.0
  0
LINE
  5
8747
  8
0
 10
10
 20
5
 30
0.0
 11
10
 21
6
 31
0.0
  0
LINE
  5
8748
  8
0
 10
10
 20
6
 30
0.0
 11
10
 21
7
 31
0.0
  0
LINE
  5
8749
  8
0
 10
10
 20
7
 30
0.0
 11
10
 21
8
 31
0.0
  0
LINE
  5
8750
  8
0
 10
10
 20
8
 30
0.0
 11
10
 21
9
 31
0.0
  0
LINE
  5
8751
  8
0
 10
10
 20
9
 30
0.0
 11
10
 21
10
 31
0.0
  0
LINE
  5
8752
  8
0
 10
10
 20
10
 30
0.0
 11
10
 21
11
 31
0.0
  0
LINE
  5
8753
  8
0
 10
10
 20
11
 30
0.0
 11
10
 21
12
 31
0.0
  0
LINE
  5
8754
  8
0
 10
10
 20
12
 30
0.0
 11
10
 21
13
 31
0.0
  0
LINE
  5
8755
  8
0
 10
10
 20
13
 30
0.0
 11
10
 21
14
 31
0.0
  0
LINE
  5
8756
  8
0
 10
10
 20
14
 30
0.0
 11
10
 21
15
 31
0.0
  0
LINE
  5
8757
  8
0
 10
10
 20
15
 30
0.0
 11
10
 21
16
 31
0.0
  0
LINE
  5
8758
  8
0
 10
10
 20
16
 30
0.0
 11
10
 21
17
 31
0.0
  0
LINE
  5
8759
  8
0
 10
10
 20
17
 30
0.0
 11
10
 21
18
 31
0.0
  0
LINE
  5
8760
  8
0
 10
10
 20
18
 30
0.0
 11
10
 21
19
 31
0.0
  0
LINE
  5
8761
  8
0
 10
10
 20
19
 30
0.0
 11
10
 21
20
 31
0.0
  0
LINE
  5
8762
  8
0
 10
10
 20
20
 30
0.0
 11
10
 21
21
 31
0.0
  0
LINE
  5
8763
  8
0
 10
10
 20
21
 30
0.0
 11
10
 21
22
 31
0.0
  0
LINE
  5
8764
  8
0
 10
10
 20
22
 30
0.0
 11
10
 21
23
 31
0.0
  0
LINE
  5
8765
  8
0
 10
10
 20
23
 30
0.0
 11
10
 21
24
 31
0.0
  0
LINE
  5
8766
  8
0
 10
10
 20
24
 30
0.0
 11
10
 21
25
 31
0.0
  0
LINE
  5
8767
  8
0
 10
10
 20
25
 30
0.0
 11
10
 21
26
 31
0.0
  0
LINE
  5
8768
  8
0
 10
10
 20
26
 30
0.0
 11
10
 21
27
 31
0.0
  0
LINE
  5
8769
  8
0
 10
10
 20
27
 30
0.0
 11
10
 21
28
 31
0.0
  0
LINE
  5
8770
  8
0
 10
10
 20
28
 30
0.0
 11
10
 21
29
 31
0.0
  0
LINE
  5
8771
  8
0
 10
10
 20
29
 30
0.0
 11
10
 21
30
 31
0.0
  0
LINE
  5
8772
  8
0
 10
10
 20
30
 30
0.0
 11
10
 21
31
 31
0.0
  0
LINE
  5
8773
  8
0
 10
10
 20
31
 30
0.0
 11
10
 21
32
 31
0.0
  0
LINE
  5
8774
  8
0
 10
10
 20
32
 30
0.0
 11
10
 21
33
 31
0.0
  0
LINE
  5
8775
  8
0
 10
10
 20
33
 30
0.0
 11
10
 21
34
 31
0.0
  0
LINE
  5
8776
  8
0
 10
10
 20
34
 30
0.0
 11
10
 21
35
 31
0.0
  0
LINE
  5
8777
  8
0
 10
10
 20
35
 30
0.0
 11
10
 21
36
 31
0.0
  0
LINE
  5
8778
  8
0
 10
10
 20
36
 30
0.0
 11
10
 21
37
 31
0.0
  0
LINE
  5
8779
  8
0
 10
10
 20
37
 30
0.0
 11
10
 21
38
 31
0.0
  0
LINE
  5
8780
  8
0
 10
10
 20
38
 30
0.0
 11
10
 21
39
 31
0.0
  0
LINE
  5
8781
  8
0
 10
10
 20
39
 30
0.0
 11
10
 21
40
 31
0.0
  0
LINE
  5
8782
  8
0
 10
10
 20
40
 30
0.0
 11
10
 21
41
 31
0.0
  0
LINE
  5
8783
  8
0
 10
10
 20
41
 30
0.0
 11
10
 21
42
 31
0.0
  0
LINE
  5
8784
  8
0
 10
10
 20
42
 30
0.0
 11
10
 21
43
 31
0.0
  0
LINE
  5
8785
  8
0
 10
10
 20
43
 30
0.0
 11
10
 21
44
 31
0.0
  0
LINE
  5
8786
  8
0
 10
10
 20
44
 30
0.0
 11
9
 21
0
 31
0.0
  0
LINE
  5
8787
  8
0
 10
9
 20
0
 30
0.0
 11
8
 21
0
 31
0.0
  0
LINE
  5
8788
  8
0
 10
8
 20
0
 30
0.0
 11
8
 21
1
 31
0.0
  0
LINE
  5
8789
  8
0
 10
8
 20
1
 30
0.0
 11
8
 21
2
 31
0.0
  0
LINE
  5
8790
  8
0
 10
8
 20
2
 30
0.0
 11
8
 21
3
 31
0.0
  0
LINE
  5
8791
  8
0
 10
8
 20
3
 30
0.0
 11
8
 21
4
 31
0.0
  0
LINE
  5
8792
  8
0
 10
8
 20
4
 30
0.0
 11
8
 21
5
 31
0.0
  0
LINE
  5
8793
  8
0
 10
8
 20
5
 30
0.0
 11
8
 21
6
 31
0.0
  0
LINE
  5
8794
  8
0
 10
8
 20
6
 30
0.0
 11
8
 21
7
 31
0.0
  0
LINE
  5
8795
  8
0
 10
8
 20
7
 30
0.0
 11
8
 21
8
 31
0.0
  0
LINE
  5
8796
  8
0
 10
8
 20
8
 30
0.0
 11
8
 21
9
 31
0.0
  0
LINE
  5
8797
  8
0
 10
8
 20
9
 30
0.0
 11
8
 21
10
 31
0.0
  0
LINE
  5
8798
  8
0
 10
8
 20
10
 30
0.0
 11
8
 21
11
 31
0.0
  0
LINE
  5
8799
  8
0
 10
8
 20
11
 30
0.0
 11
8
 21
12
 31
0.0
  0
LINE
  5
8800
  8
0
 10
8
 20
12
 30
0.0
 11
8
 21
13
 31
0.0
  0
LINE
  5
8801
  8
0
 10
8
 20
13
 30
0.0
 11
8
 21
14
 31
0.0
  0
LINE
  5
8802
  8
0
 10
8
 20
14
 30
0.0
 11
8
 21
15
 31
0.0
  0
LINE
  5
8803
  8
0
 10
8
 20
15
 30
0.0
 11
8
 21
16
 31
0.0
  0
LINE
  5
8804
  8
0
 10
8
 20
16
 30
0.0
 11
8
 21
17
 31
0.0
  0
LINE
  5
8805
  8
0
 10
8
 20
17
 30
0.0
 11
8
 21
18
 31
0.0
  0
LINE
  5
8806
  8
0
 10
8
 20
18
 30
0.0
 11
8
 21
19
 31
0.0
  0
LINE
  5
8807
  8
0
 10
8
 20
19
 30
0.0
 11
8
 21
20
 31
0.0
  0
LINE
  5
8808
  8
0
 10
8
 20
20
 30
0.0
 11
8
 21
21
 31
0.0
  0
LINE
  5
8809
  8
0
 10
8
 20
21
 30
0.0
 11
8
 21
22
 31
0.0
  0
LINE
  5
8810
  8
0
 10
8
 20
22
 30
0.0
 11
8
 21
23
 31
0.0
  0
LINE
  5
8811
  8
0
 10
8
 20
23
 30
0.0
 11
8
 21
24
 31
0.0
  0
LINE
  5
8812
  8
0
 10
8
 20
24
 30
0.0
 11
8
 21
25
 31
0.0
  0
LINE
  5
8813
  8
0
 10
8
 20
25
 30
0.0
 11
8
 21
26
 31
0.0
  0
LINE
  5
8814
  8
0
 10
8
 20
26
 30
0.0
 11
8
 21
27
 31
0.0
  0
LINE
  5
8815
  8
0
 10
8
 20
27
 30
0.0
 11
8
 21
28
 31
0.0
  0
LINE
  5
8816
  8
0
 10
8
 20
28
 30
0.0
 11
8
 21
29
 31
0.0
  0
LINE
  5
8817
  8
0
 10
8
 20
29
 30
0.0
 11
8
 21
30
 31
0.0
  0
LINE
  5
8818
  8
0
 10
8
 20
30
 30
0.0
 11
8
 21
31
 31
0.0
  0
LINE
  5
8819
  8
0
 10
8
 20
31
 30
0.0
 11
8
 21
32
 31
0.0
  0
LINE
  5
8820
  8
0
 10
8
 20
32
 30
0.0
 11
8
 21
33
 31
0.0
  0
LINE
  5
8821
  8
0
 10
8
 20
33
 30
0.0
 11
8
 21
34
 31
0.0
  0
LINE
  5
8822
  8
0
 10
8
 20
34
 30
0.0
 11
7
 21
0
 31
0.0
  0
LINE
  5
8823
  8
0
 10
7
 20
0
 30
0.0
 11
6
 21
0
 31
0.0
  0
LINE
  5
8824
  8
0
 10
6
 20
0
 30
0.0
 11
6
 21
1
 31
0.0
  0
LINE
  5
8825
  8
0
 10
6
 20
1
 30
0.0
 11
6
 21
2
 31
0.0
  0
LINE
  5
8826
  8
0
 10
6
 20
2
 30
0.0
 11
6
 21
3
 31
0.0
  0
LINE
  5
8827
  8
0
 10
6
 20
3
 30
0.0
 11
6
 21
4
 31
0.0
  0
LINE
  5
8828
  8
0
 10
6
 20
4
 30
0.0
 11
6
 21
5
 31
0.0
  0
LINE
  5
8829
  8
0
 10
6
 20
5
 30
0.0
 11
6
 21
6
 31
0.0
  0
LINE
  5
8830
  8
0
 10
6
 20
6
 30
0.0
 11
6
 21
7
 31
0.0
  0
LINE
  5
8831
  8
0
 10
6
 20
7
 30
0.0
 11
6
 21
8
 31
0.0
  0
LINE
  5
8832
  8
0
 10
6
 20
8
 30
0.0
 11
6
 21
9
 31
0.0
  0
LINE
  5
8833
  8
0
 10
6
 20
9
 30
0.0
 11
6
 21
10
 31
0.0
  0
LINE
  5
8834
  8
0
 10
6
 20
10
 30
0.0
 11
6
 21
11
 31
0.0
  0
LINE
  5
8835
  8
0
 10
6
 20
11
 30
0.0
 11
6
 21
12
 31
0.0
  0
LINE
  5
8836
  8
0
 10
6
 20
12
 30
0.0
 11
6
 21
13
 31
0.0
  0
LINE
  5
8837
  8
0
 10
6
 20
13
 30
0.0
 11
6
 21
14
 31
0.0
  0
LINE
  5
8838
  8
0
 10
6
 20
14
 30
0.0
 11
6
 21
15
 31
0.0
  0
LINE
  5
8839
  8
0
 10
6
 20
15
 30
0.0
 11
6
 21
16
 31
0.0
  0
LINE
  5
8840
  8
0
 10
6
 20
16
 30
0.0
 11
6
 21
17
 31
0.0
  0
LINE
  5
8841
  8
0
 10
6
 20
17
 30
0.0
 11
6
 21
18
 31
0.0
  0
LINE
  5
8842
  8
0
 10
6
 20
18
 30
0.0
 11
6
 21
19
 31
0.0
  0
LINE
  5
8843
  8
0
 10
6
 20
19
 30
0.0
 11
6
 21
20
 31
0.0
  0
LINE
  5
8844
  8
0
 10
6
 20
20
 30
0.0
 11
6
 21
21
 31
0.0
  0
LINE
  5
8845
  8
0
 10
6
 20
21
 30
0.0
 11
6
 21
22
 31
0.0
  0
LINE
  5
8846
  8
0
 10
6
 20
22
 30
0.0
 11
6
 21
23
 31
0.0
  0
LINE
  5
8847
  8
0
 10
6
 20
23
 30
0.0
 11
6
 21
24
 31
0.0
  0
LINE
  5
8848
  8
0
 10
6
 20
24
 30
0.0
 11
6
 21
25
 31
0.0
  0
LINE
  5
8849
  8
0
 10
6
 20
25
 30
0.0
 11
6
 21
26
 31
0.0
  0
LINE
  5
8850
  8
0
 10
6
 20
26
 30
0.0
 11
6
 21
27
 31
0.0
  0
LINE
  5
8851
  8
0
 10
6
 20
27
 30
0.0
 11
6
 21
28
 31
0.0
  0
LINE
  5
8852
  8
0
 10
6
 20
28
 30
0.0
 11
6
 21
29
 31
0.0
  0
LINE
  5
8853
  8
0
 10
6
 20
29
 30
0.0
 11
6
 21
30
 31
0.0
  0
LINE
  5
8854
  8
0
 10
6
 20
30
 30
0.0
 11
6
 21
31
 31
0.0
  0
LINE
  5
8855
  8
0
 10
6
 20
31
 30
0.0
 11
6
 21
32
 31
0.0
  0
LINE
  5
8856
  8
0
 10
6
 20
32
 30
0.0
 11
6
 21
33
 31
0.0
  0
LINE
  5
8857
  8
0
 10
6
 20
33
 30
0.0
 11
6
 21
34
 31
0.0
  0
LINE
  5
8858
  8
0
 10
6
 20
34
 30
0.0
 11
5
 21
0
 31
0.0
  0
LINE
  5
8859
  8
0
 10
5
 20
0
 30
0.0
 11
4
 21
0
 31
0.0
  0
LINE
  5
8860
  8
0
 10
4
 20
0
 30
0.0
 11
4
 21
1
 31
0.0
  0
LINE
  5
8861
  8
0
 10
4
 20
1
 30
0.0
 11
4
 21
2
 31
0.0
  0
LINE
  5
8862
  8
0
 10
4
 20
2
 30
0.0
 11
4
 21
3
 31
0.0
  0
LINE
  5
8863
  8
0
 10
4
 20
3
 30
0.0
 11
4
 21
4
 31
0.0
  0
LINE
  5
8864
  8
0
 10
4
 20
4
 30
0.0
 11
4
 21
5
 31
0.0
  0
LINE
  5
8865
  8
0
 10
4
 20
5
 30
0.0
 11
4
 21
6
 31
0.0
  0
LINE
  5
8866
  8
0
 10
4
 20
6
 30
0.0
 11
4
 21
7
 31
0.0
  0
LINE
  5
8867
  8
0
 10
4
 20
7
 30
0.0
 11
4
 21
8
 31
0.0
  0
LINE
  5
8868
  8
0
 10
4
 20
8
 30
0.0
 11
4
 21
9
 31
0.0
  0
LINE
  5
8869
  8
0
 10
4
 20
9
 30
0.0
 11
4
 21
10
 31
0.0
  0
LINE
  5
8870
  8
0
 10
4
 20
10
 30
0.0
 11
4
 21
11
 31
0.0
  0
LINE
  5
8871
  8
0
 10
4
 20
11
 30
0.0
 11
4
 21
12
 31
0.0
  0
LINE
  5
8872
  8
0
 10
4
 20
12
 30
0.0
 11
4
 21
13
 31
0.0
  0
LINE
  5
8873
  8
0
 10
4
 20
13
 30
0.0
 11
4
 21
14
 31
0.0
  0
LINE
  5
8874
  8
0
 10
4
 20
14
 30
0.0
 11
4
 21
15
 31
0.0
  0
LINE
  5
8875
  8
0
 10
4
 20
15
 30
0.0
 11
4
 21
16
 31
0.0
  0
LINE
  5
8876
  8
0
 10
4
 20
16
 30
0.0
 11
4
 21
17
 31
0.0
  0
LINE
  5
8877
  8
0
 10
4
 20
17
 30
0.0
 11
4
 21
18
 31
0.0
  0
LINE
  5
8878
  8
0
 10
4
 20
18
 30
0.0
 11
4
 21
19
 31
0.0
  0
LINE
  5
8879
  8
0
 10
4
 20
19
 30
0.0
 11
4
 21
20
 31
0.0
  0
LINE
  5
8880
  8
0
 10
4
 20
20
 30
0.0
 11
4
 21
21
 31
0.0
  0
LINE
  5
8881
  8
0
 10
4
 20
21
 30
0.0
 11
4
 21
22
 31
0.0
  0
LINE
  5
8882
  8
0
 10
4
 20
22
 30
0.0
 11
4
 21
23
 31
0.0
  0
LINE
  5
8883
  8
0
 10
4
 20
23
 30
0.0
 11
4
 21
24
 31
0.0
  0
LINE
  5
8884
  8
0
 10
4
 20
24
 30
0.0
 11
4
 21
25
 31
0.0
  0
LINE
  5
8885
  8
0
 10
4
 20
25
 30
0.0
 11
4
 21
26
 31
0.0
  0
LINE
  5
8886
  8
0
 10
4
 20
26
 30
0.0
 11
4
 21
27
 31
0.0
  0
LINE
  5
8887
  8
0
 10
4
 20
27
 30
0.0
 11
4
 21
28
 31
0.0
  0
LINE
  5
8888
  8
0
 10
4
 20
28
 30
0.0
 11
4
 21
29
 31
0.0
  0
LINE
  5
8889
  8
0
 10
4
 20
29
 30
0.0
 11
4
 21
30
 31
0.0
  0
LINE
  5
8890
  8
0
 10
4
 20
30
 30
0.0
 11
4
 21
31
 31
0.0
  0
LINE
  5
8891
  8
0
 10
4
 20
31
 30
0.0
 11
4
 21
32
 31
0.0
  0
LINE
  5
8892
  8
0
 10
4
 20
32
 30
0.0
 11
4
 21
33
 31
0.0
  0
LINE
  5
8893
  8
0
 10
4
 20
33
 30
0.0
 11
4
 21
34
 31
0.0
  0
LINE
  5
8894
  8
0
 10
4
 20
34
 30
0.0
 11
3
 21
0
 31
0.0
  0
LINE
  5
8895
  8
0
 10
3
 20
0
 30
0.0
 11
2
 21
0
 31
0.0
  0
LINE
  5
8896
  8
0
 10
2
 20
0
 30
0.0
 11
2
 21
1
 31
0.0
  0
LINE
  5
8897
  8
0
 10
2
 20
1
 30
0.0
 11
2
 21
2
 31
0.0
  0
LINE
  5
8898
  8
0
 10
2
 20
2
 30
0.0
 11
2
 21
3
 31
0.0
  0
LINE
  5
8899
  8
0
 10
2
 20
3
 30
0.0
 11
2
 21
4
 31
0.0
  0
LINE
  5
8900
  8
0
 10
2
 20
4
 30
0.0
 11
2
 21
5
 31
0.0
  0
LINE
  5
8901
  8
0
 10
2
 20
5
 30
0.0
 11
2
 21
6
 31
0.0
  0
LINE
  5
8902
  8
0
 10
2
 20
6
 30
0.0
 11
2
 21
7
 31
0.0
  0
LINE
  5
8903
  8
0
 10
2
 20
7
 30
0.0
 11
2
 21
8
 31
0.0
  0
LINE
  5
8904
  8
0
 10
2
 20
8
 30
0.0
 11
2
 21
9
 31
0.0
  0
LINE
  5
8905
  8
0
 10
2
 20
9
 30
0.0
 11
2
 21
10
 31
0.0
  0
LINE
  5
8906
  8
0
 10
2
 20
10
 30
0.0
 11
2
 21
11
 31
0.0
  0
LINE
  5
8907
  8
0
 10
2
 20
11
 30
0.0
 11
2
 21
12
 31
0.0
  0
LINE
  5
8908
  8
0
 10
2
 20
12
 30
0.0
 11
2
 21
13
 31
0.0
  0
LINE
  5
8909
  8
0
 10
2
 20
13
 30
0.0
 11
2
 21
14
 31
0.0
  0
LINE
  5
8910
  8
0
 10
2
 20
14
 30
0.0
 11
2
 21
15
 31
0.0
  0
LINE
  5
8911
  8
0
 10
2
 20
15
 30
0.0
 11
2
 21
16
 31
0.0
  0
LINE
  5
8912
  8
0
 10
2
 20
16
 30
0.0
 11
2
 21
17
 31
0.0
  0
LINE
  5
8913
  8
0
 10
2
 20
17
 30
0.0
 11
2
 21
18
 31
0.0
  0
LINE
  5
8914
  8
0
 10
2
 20
18
 30
0.0
 11
2
 21
19
 31
0.0
  0
LINE
  5
8915
  8
0
 10
2
 20
19
 30
0.0
 11
2
 21
20
 31
0.0
  0
LINE
  5
8916
  8
0
 10
2
 20
20
 30
0.0
 11
2
 21
21
 31
0.0
  0
LINE
  5
8917
  8
0
 10
2
 20
21
 30
0.0
 11
2
 21
22
 31
0.0
  0
LINE
  5
8918
  8
0
 10
2
 20
22
 30
0.0
 11
2
 21
23
 31
0.0
  0
LINE
  5
8919
  8
0
 10
2
 20
23
 30
0.0
 11
2
 21
24
 31
0.0
  0
LINE
  5
8920
  8
0
 10
2
 20
24
 30
0.0
 11
2
 21
25
 31
0.0
  0
LINE
  5
8921
  8
0
 10
2
 20
25
 30
0.0
 11
2
 21
26
 31
0.0
  0
LINE
  5
8922
  8
0
 10
2
 20
26
 30
0.0
 11
2
 21
27
 31
0.0
  0
LINE
  5
8923
  8
0
 10
2
 20
27
 30
0.0
 11
2
 21
28
 31
0.0
  0
LINE
  5
8924
  8
0
 10
2
 20
28
 30
0.0
 11
2
 21
29
 31
0.0
  0
LINE
  5
8925
  8
0
 10
2
 20
29
 30
0.0
 11
2
 21
30
 31
0.0
  0
LINE
  5
8926
  8
0
 10
2
 20
30
 30
0.0
 11
2
 21
31
 31
0.0
  0
LINE
  5
8927
  8
0
 10
2
 20
31
 30
0.0
 11
2
 21
32
 31
0.0
  0
LINE
  5
8928
  8
0
 10
2
 20
32
 30
0.0
 11
2
 21
33
 31
0.0
  0
LINE
  5
8929
  8
0
 10
2
 20
33
 30
0.0
 11
2
 21
34
 31
0.0
  0
LINE
  5
8930
  8
0
 10
2
 20
34
 30
0.0
 11
1
 21
0
 31
0.0
  0
TEXT
  5
8931
  8
0
 62
     1
 10
22.5
 20
0.5
 30
0.0
 40
1.0
  1
p1
  0
LINE
  5
8932
  8
0
 62
     1
 10
22.5
 20
0.5
 30
0.0
 11
24
 21
0
 31
0.0
  0
ENDSEC
  0
EOF
