  0
SECTION
  2
HEADER
  9
$ACADVER
  1
AC1009
  9
$INSBASE
 10
0.0
 20
0.0
 30
0.0
  9
$EXTMIN
 10
1.0
 20
1.0
 30
0.0
  9
$EXTMAX
 10
3.0
 20
3.0
 30
0.0
  9
$LIMMIN
 10
0.0
 20
0.0
  9
$LIMMAX
 10
420.0
 20
297.0
  9
$ORTHOMODE
 70
     0
  9
$REGENMODE
 70
     1
  9
$FILLMODE
 70
     1
  9
$QTEXTMODE
 70
     0
  9
$MIRRTEXT
 70
     0
  9
$DRAGMODE
 70
     2
  9
$LTSCALE
 40
1.0
  9
$OSMODE
 70
    37
  9
$ATTMODE
 70
     1
  9
$TEXTSIZE
 40
2.5
  9
$TRACEWID
 40
1.0
  9
$TEXTSTYLE
  7
STANDARD
  9
$CLAYER
  8
0
  9
$CELTYPE
  6
BYLAYER
  9
$CECOLOR
 62
   256
  9
$DIMSCALE
 40
1.0
  9
$DIMASZ
 40
2.5
  9
$DIMEXO
 40
0.625
  9
$DIMDLI
 40
3.75
  9
$DIMRND
 40
0.0
  9
$DIMDLE
 40
0.0
  9
$DIMEXE
 40
1.25
  9
$DIMTP
 40
0.0
  9
$DIMTM
 40
0.0
  9
$DIMTXT
 40
2.5
  9
$DIMCEN
 40
2.5
  9
$DIMTSZ
 40
0.0
  9
$DIMTOL
 70
     0
  9
$DIMLIM
 70
     0
  9
$DIMTIH
 70
     0
  9
$DIMTOH
 70
     0
  9
$DIMSE1
 70
     0
  9
$DIMSE2
 70
     0
  9
$DIMTAD
 70
     1
  9
$DIMZIN
 70
     8
  9
$DIMBLK
  1

  9
$DIMASO
 70
     1
  9
$DIMSHO
 70
     1
  9
$DIMPOST
  1

  9
$DIMAPOST
  1

  9
$DIMALT
 70
     0
  9
$DIMALTD
 70
     3
  9
$DIMALTF
 40
0.03937007874016
  9
$DIMLFAC
 40
1.0
  9
$DIMTOFL
 70
     1
  9
$DIMTVP
 40
0.0
  9
$DIMTIX
 70
     0
  9
$DIMSOXD
 70
     0
  9
$DIMSAH
 70
     0
  9
$DIMBLK1
  1

  9
$DIMBLK2
  1

  9
$DIMSTYLE
  2
ISO-25
  9
$DIMCLRD
 70
     0
  9
$DIMCLRE
 70
     0
  9
$DIMCLRT
 70
     0
  9
$DIMTFAC
 40
1.0
  9
$DIMGAP
 40
0.625
  9
$LUNITS
 70
     2
  9
$LUPREC
 70
     4
  9
$SKETCHINC
 40
1.0
  9
$FILLETRAD
 40
0.0
  9
$AUNITS
 70
     0
  9
$AUPREC
 70
     0
  9
$MENU
  1
.
  9
$ELEVATION
 40
0.0
  9
$PELEVATION
 40
0.0
  9
$THICKNESS
 40
0.0
  9
$LIMCHECK
 70
     0
  9
$BLIPMODE
 70
     0
  9
$CHAMFERA
 40
0.0
  9
$CHAMFERB
 40
0.0
  9
$SKPOLY
 70
     0
  9
$TDCREATE
 40
2454485.694817882
  9
$TDUPDATE
 40
2454485.6966635878
  9
$TDINDWG
 40
0.0018473264
  9
$TDUSRTIMER
 40
0.0018471528
  9
$USRTIMER
 70
     1
  9
$ANGBASE
 50
0.0
  9
$ANGDIR
 70
     0
  9
$PDMODE
 70
     0
  9
$PDSIZE
 40
0.0
  9
$PLINEWID
 40
0.0
  9
$COORDS
 70
     1
  9
$SPLFRAME
 70
     0
  9
$SPLINETYPE
 70
     6
  9
$SPLINESEGS
 70
     8
  9
$ATTDIA
 70
     0
  9
$ATTREQ
 70
     1
  9
$HANDLING
 70
     1
  9
$HANDSEED
  5
96
  9
$SURFTAB1
 70
     6
  9
$SURFTAB2
 70
     6
  9
$SURFTYPE
 70
     6
  9
$SURFU
 70
     6
  9
$SURFV
 70
     6
  9
$UCSNAME
  2

  9
$UCSORG
 10
0.0
 20
0.0
 30
0.0
  9
$UCSXDIR
 10
1.0
 20
0.0
 30
0.0
  9
$UCSYDIR
 10
0.0
 20
1.0
 30
0.0
  9
$PUCSNAME
  2

  9
$PUCSORG
 10
0.0
 20
0.0
 30
0.0
  9
$PUCSXDIR
 10
1.0
 20
0.0
 30
0.0
  9
$PUCSYDIR
 10
0.0
 20
1.0
 30
0.0
  9
$USERI1
 70
     0
  9
$USERI2
 70
     0
  9
$USERI3
 70
     0
  9
$USERI4
 70
     0
  9
$USERI5
 70
     0
  9
$USERR1
 40
0.0
  9
$USERR2
 40
0.0
  9
$USERR3
 40
0.0
  9
$USERR4
 40
0.0
  9
$USERR5
 40
0.0
  9
$WORLDVIEW
 70
     1
  9
$SHADEDGE
 70
     3
  9
$SHADEDIF
 70
    70
  9
$TILEMODE
 70
     1
  9
$MAXACTVP
 70
    64
  9
$PLIMCHECK
 70
     0
  9
$PEXTMIN
 10
0.0
 20
0.0
 30
0.0
  9
$PEXTMAX
 10
0.0
 20
0.0
 30
0.0
  9
$PLIMMIN
 10
0.0
 20
0.0
  9
$PLIMMAX
 10
12.0
 20
9.0
  9
$UNITMODE
 70
     0
  9
$VISRETAIN
 70
     1
  9
$PLINEGEN
 70
     0
  9
$PSLTSCALE
 70
     1
  0
ENDSEC
  0
SECTION
  2
TABLES
  0
TABLE
  2
VPORT
 70
     2
  0
VPORT
  2
*ACTIVE
 70
     0
 10
0.0
 20
0.0
 11
1.0
 21
1.0
 12
20.032850739476999
 22
12.30443880503212
 13
0.0
 23
0.0
 14
10.0
 24
10.0
 15
10.0
 25
10.0
 16
0.0
 26
0.0
 36
1.0
 17
0.0
 27
0.0
 37
0.0
 40
53.54964874631797
 41
1.88508064516129
 42
50.0
 43
0.0
 44
0.0
 50
0.0
 51
0.0
 71
     0
 72
  1000
 73
     1
 74
     3
 75
     0
 76
     0
 77
     0
 78
     0
  0
ENDTAB
  0
TABLE
  2
LTYPE
 70
     1
  0
LTYPE
  2
CONTINUOUS
 70
     0
  3
Solid line
 72
    65
 73
     0
 40
0.0
  0
ENDTAB
  0
TABLE
  2
LAYER
 70
     1
  0
LAYER
  2
0
 70
     0
 62
     7
  6
CONTINUOUS
  0
ENDTAB
  0
TABLE
  2
STYLE
 70
     1
  0
STYLE
  2
STANDARD
 70
     0
 40
0.0
 41
1.0
 50
0.0
 71
     0
 42
2.5
  3
txt
  4

  0
ENDTAB
  0
TABLE
  2
VIEW
 70
     0
  0
ENDTAB
  0
TABLE
  2
UCS
 70
     0
  0
ENDTAB
  0
TABLE
  2
APPID
 70
     1
  0
APPID
  2
ACAD
 70
     0
  0
ENDTAB
  0
TABLE
  2
DIMSTYLE
 70
     1
  0
DIMSTYLE
  2
ISO-25
 70
     0
  3

  4

  5

  6

  7

 40
1.0
 41
2.5
 42
0.625
 43
3.75
 44
1.25
 45
0.0
 46
0.0
 47
0.0
 48
0.0
140
2.5
141
2.5
142
0.0
143
0.03937007874016
144
1.0
145
0.0
146
1.0
147
0.625
 71
     0
 72
     0
 73
     0
 74
     0
 75
     0
 76
     0
 77
     1
 78
     8
170
     0
171
     3
172
     1
173
     0
174
     0
175
     0
176
     0
177
     0
178
     0
  0
ENDTAB
  0
ENDSEC
  0
SECTION
  2
BLOCKS
  0
BLOCK
  8
0
  2
$MODEL_SPACE
 70
     0
 10
0.0
 20
0.0
 30
0.0
  3
$MODEL_SPACE
  1

  0
ENDBLK
  5
21
  8
0
  0
BLOCK
 67
     1
  8
0
  2
$PAPER_SPACE
 70
     0
 10
0.0
 20
0.0
 30
0.0
  3
$PAPER_SPACE
  1

  0
ENDBLK
  5
53
 67
     1
  8
0
  0
ENDSEC
  0
SECTION
  2
ENTITIES
  0
CIRCLE
  5
208
  8
0
 10
138
 20
18
 30
0.0
 40
0.5
  0
CIRCLE
  5
216
  8
0
 10
137
 20
20
 30
0.0
 40
0.5
  0
CIRCLE
  5
224
  8
0
 10
136
 20
18
 30
0.0
 40
0.5
  0
CIRCLE
  5
232
  8
0
 10
135
 20
20
 30
0.0
 40
0.5
  0
CIRCLE
  5
240
  8
0
 10
134
 20
18
 30
0.0
 40
0.5
  0
CIRCLE
  5
248
  8
0
 10
135
 20
16
 30
0.0
 40
0.5
  0
CIRCLE
  5
256
  8
0
 10
137
 20
16
 30
0.0
 40
0.5
  0
CIRCLE
  5
264
  8
0
 10
138
 20
14
 30
0.0
 40
0.5
  0
CIRCLE
  5
272
  8
0
 10
136
 20
14
 30
0.0
 40
0.5
  0
CIRCLE
  5
280
  8
0
 10
134
 20
14
 30
0.0
 40
0.5
  0
CIRCLE
  5
288
  8
0
 10
133
 20
16
 30
0.0
 40
0.5
  0
CIRCLE
  5
296
  8
0
 10
132
 20
14
 30
0.0
 40
0.5
  0
CIRCLE
  5
304
  8
0
 10
131
 20
15
 30
0.0
 40
0.5
  0
CIRCLE
  5
312
  8
0
 10
130
 20
15
 30
0.0
 40
0.5
  0
CIRCLE
  5
320
  8
0
 10
131
 20
18
 30
0.0
 40
0.5
  0
CIRCLE
  5
328
  8
0
 10
132
 20
18
 30
0.0
 40
0.5
  0
CIRCLE
  5
336
  8
0
 10
133
 20
20
 30
0.0
 40
0.5
  0
CIRCLE
  5
344
  8
0
 10
130
 20
18
 30
0.0
 40
0.5
  0
CIRCLE
  5
352
  8
0
 10
131
 20
20
 30
0.0
 40
0.5
  0
CIRCLE
  5
360
  8
0
 10
129
 20
20
 30
0.0
 40
0.5
  0
CIRCLE
  5
368
  8
0
 10
128
 20
20
 30
0.0
 40
0.5
  0
CIRCLE
  5
376
  8
0
 10
127
 20
20
 30
0.0
 40
0.5
  0
CIRCLE
  5
384
  8
0
 10
125
 20
20
 30
0.0
 40
0.5
  0
CIRCLE
  5
392
  8
0
 10
126
 20
18
 30
0.0
 40
0.5
  0
CIRCLE
  5
400
  8
0
 10
125
 20
16
 30
0.0
 40
0.5
  0
CIRCLE
  5
408
  8
0
 10
125
 20
15
 30
0.0
 40
0.5
  0
CIRCLE
  5
416
  8
0
 10
123
 20
20
 30
0.0
 40
0.5
  0
CIRCLE
  5
424
  8
0
 10
122
 20
20
 30
0.0
 40
0.5
  0
CIRCLE
  5
432
  8
0
 10
121
 20
20
 30
0.0
 40
0.5
  0
CIRCLE
  5
440
  8
0
 10
120
 20
18
 30
0.0
 40
0.5
  0
CIRCLE
  5
448
  8
0
 10
119
 20
20
 30
0.0
 40
0.5
  0
CIRCLE
  5
456
  8
0
 10
117
 20
20
 30
0.0
 40
0.5
  0
CIRCLE
  5
464
  8
0
 10
116
 20
18
 30
0.0
 40
0.5
  0
CIRCLE
  5
472
  8
0
 10
118
 20
18
 30
0.0
 40
0.5
  0
CIRCLE
  5
480
  8
0
 10
118
 20
16
 30
0.0
 40
0.5
  0
CIRCLE
  5
488
  8
0
 10
120
 20
15
 30
0.0
 40
0.5
  0
CIRCLE
  5
496
  8
0
 10
116
 20
16
 30
0.0
 40
0.5
  0
CIRCLE
  5
504
  8
0
 10
114
 20
16
 30
0.0
 40
0.5
  0
CIRCLE
  5
512
  8
0
 10
115
 20
14
 30
0.0
 40
0.5
  0
CIRCLE
  5
520
  8
0
 10
113
 20
14
 30
0.0
 40
0.5
  0
CIRCLE
  5
528
  8
0
 10
111
 20
14
 30
0.0
 40
0.5
  0
CIRCLE
  5
536
  8
0
 10
112
 20
16
 30
0.0
 40
0.5
  0
CIRCLE
  5
544
  8
0
 10
111
 20
18
 30
0.0
 40
0.5
  0
CIRCLE
  5
552
  8
0
 10
113
 20
18
 30
0.0
 40
0.5
  0
CIRCLE
  5
560
  8
0
 10
114
 20
20
 30
0.0
 40
0.5
  0
CIRCLE
  5
568
  8
0
 10
112
 20
20
 30
0.0
 40
0.5
  0
CIRCLE
  5
576
  8
0
 10
110
 20
20
 30
0.0
 40
0.5
  0
CIRCLE
  5
584
  8
0
 10
108
 20
20
 30
0.0
 40
0.5
  0
CIRCLE
  5
592
  8
0
 10
106
 20
20
 30
0.0
 40
0.5
  0
CIRCLE
  5
600
  8
0
 10
107
 20
18
 30
0.0
 40
0.5
  0
CIRCLE
  5
608
  8
0
 10
109
 20
18
 30
0.0
 40
0.5
  0
CIRCLE
  5
616
  8
0
 10
110
 20
16
 30
0.0
 40
0.5
  0
CIRCLE
  5
624
  8
0
 10
108
 20
16
 30
0.0
 40
0.5
  0
CIRCLE
  5
632
  8
0
 10
106
 20
16
 30
0.0
 40
0.5
  0
CIRCLE
  5
640
  8
0
 10
107
 20
14
 30
0.0
 40
0.5
  0
CIRCLE
  5
648
  8
0
 10
109
 20
14
 30
0.0
 40
0.5
  0
CIRCLE
  5
656
  8
0
 10
110
 20
12
 30
0.0
 40
0.5
  0
CIRCLE
  5
664
  8
0
 10
108
 20
12
 30
0.0
 40
0.5
  0
CIRCLE
  5
672
  8
0
 10
106
 20
12
 30
0.0
 40
0.5
  0
CIRCLE
  5
680
  8
0
 10
104
 20
12
 30
0.0
 40
0.5
  0
CIRCLE
  5
688
  8
0
 10
102
 20
12
 30
0.0
 40
0.5
  0
CIRCLE
  5
696
  8
0
 10
100
 20
12
 30
0.0
 40
0.5
  0
CIRCLE
  5
704
  8
0
 10
98
 20
12
 30
0.0
 40
0.5
  0
CIRCLE
  5
712
  8
0
 10
96
 20
12
 30
0.0
 40
0.5
  0
CIRCLE
  5
720
  8
0
 10
94
 20
12
 30
0.0
 40
0.5
  0
CIRCLE
  5
728
  8
0
 10
92
 20
12
 30
0.0
 40
0.5
  0
CIRCLE
  5
736
  8
0
 10
90
 20
12
 30
0.0
 40
0.5
  0
CIRCLE
  5
744
  8
0
 10
91
 20
14
 30
0.0
 40
0.5
  0
CIRCLE
  5
752
  8
0
 10
93
 20
14
 30
0.0
 40
0.5
  0
CIRCLE
  5
760
  8
0
 10
95
 20
14
 30
0.0
 40
0.5
  0
CIRCLE
  5
768
  8
0
 10
97
 20
14
 30
0.0
 40
0.5
  0
CIRCLE
  5
776
  8
0
 10
99
 20
14
 30
0.0
 40
0.5
  0
CIRCLE
  5
784
  8
0
 10
101
 20
14
 30
0.0
 40
0.5
  0
CIRCLE
  5
792
  8
0
 10
103
 20
14
 30
0.0
 40
0.5
  0
CIRCLE
  5
800
  8
0
 10
105
 20
14
 30
0.0
 40
0.5
  0
CIRCLE
  5
808
  8
0
 10
104
 20
16
 30
0.0
 40
0.5
  0
CIRCLE
  5
816
  8
0
 10
102
 20
16
 30
0.0
 40
0.5
  0
CIRCLE
  5
824
  8
0
 10
100
 20
16
 30
0.0
 40
0.5
  0
CIRCLE
  5
832
  8
0
 10
98
 20
16
 30
0.0
 40
0.5
  0
CIRCLE
  5
840
  8
0
 10
96
 20
16
 30
0.0
 40
0.5
  0
CIRCLE
  5
848
  8
0
 10
94
 20
16
 30
0.0
 40
0.5
  0
CIRCLE
  5
856
  8
0
 10
92
 20
16
 30
0.0
 40
0.5
  0
CIRCLE
  5
864
  8
0
 10
90
 20
16
 30
0.0
 40
0.5
  0
CIRCLE
  5
872
  8
0
 10
91
 20
18
 30
0.0
 40
0.5
  0
CIRCLE
  5
880
  8
0
 10
93
 20
18
 30
0.0
 40
0.5
  0
CIRCLE
  5
888
  8
0
 10
95
 20
18
 30
0.0
 40
0.5
  0
CIRCLE
  5
896
  8
0
 10
97
 20
18
 30
0.0
 40
0.5
  0
CIRCLE
  5
904
  8
0
 10
99
 20
18
 30
0.0
 40
0.5
  0
CIRCLE
  5
912
  8
0
 10
101
 20
18
 30
0.0
 40
0.5
  0
CIRCLE
  5
920
  8
0
 10
103
 20
18
 30
0.0
 40
0.5
  0
CIRCLE
  5
928
  8
0
 10
105
 20
18
 30
0.0
 40
0.5
  0
CIRCLE
  5
936
  8
0
 10
104
 20
20
 30
0.0
 40
0.5
  0
CIRCLE
  5
944
  8
0
 10
102
 20
20
 30
0.0
 40
0.5
  0
CIRCLE
  5
952
  8
0
 10
100
 20
20
 30
0.0
 40
0.5
  0
CIRCLE
  5
960
  8
0
 10
98
 20
20
 30
0.0
 40
0.5
  0
CIRCLE
  5
968
  8
0
 10
96
 20
20
 30
0.0
 40
0.5
  0
CIRCLE
  5
976
  8
0
 10
94
 20
20
 30
0.0
 40
0.5
  0
CIRCLE
  5
984
  8
0
 10
92
 20
20
 30
0.0
 40
0.5
  0
CIRCLE
  5
992
  8
0
 10
90
 20
20
 30
0.0
 40
0.5
  0
CIRCLE
  5
1000
  8
0
 10
88
 20
20
 30
0.0
 40
0.5
  0
CIRCLE
  5
1008
  8
0
 10
86
 20
20
 30
0.0
 40
0.5
  0
CIRCLE
  5
1016
  8
0
 10
84
 20
20
 30
0.0
 40
0.5
  0
CIRCLE
  5
1024
  8
0
 10
82
 20
20
 30
0.0
 40
0.5
  0
CIRCLE
  5
1032
  8
0
 10
83
 20
18
 30
0.0
 40
0.5
  0
CIRCLE
  5
1040
  8
0
 10
85
 20
18
 30
0.0
 40
0.5
  0
CIRCLE
  5
1048
  8
0
 10
87
 20
18
 30
0.0
 40
0.5
  0
CIRCLE
  5
1056
  8
0
 10
89
 20
18
 30
0.0
 40
0.5
  0
CIRCLE
  5
1064
  8
0
 10
88
 20
16
 30
0.0
 40
0.5
  0
CIRCLE
  5
1072
  8
0
 10
86
 20
16
 30
0.0
 40
0.5
  0
CIRCLE
  5
1080
  8
0
 10
84
 20
16
 30
0.0
 40
0.5
  0
CIRCLE
  5
1088
  8
0
 10
82
 20
16
 30
0.0
 40
0.5
  0
CIRCLE
  5
1096
  8
0
 10
83
 20
14
 30
0.0
 40
0.5
  0
CIRCLE
  5
1104
  8
0
 10
85
 20
14
 30
0.0
 40
0.5
  0
CIRCLE
  5
1112
  8
0
 10
87
 20
14
 30
0.0
 40
0.5
  0
CIRCLE
  5
1120
  8
0
 10
89
 20
14
 30
0.0
 40
0.5
  0
CIRCLE
  5
1128
  8
0
 10
88
 20
12
 30
0.0
 40
0.5
  0
CIRCLE
  5
1136
  8
0
 10
86
 20
12
 30
0.0
 40
0.5
  0
CIRCLE
  5
1144
  8
0
 10
84
 20
12
 30
0.0
 40
0.5
  0
CIRCLE
  5
1152
  8
0
 10
82
 20
12
 30
0.0
 40
0.5
  0
CIRCLE
  5
1160
  8
0
 10
83
 20
10
 30
0.0
 40
0.5
  0
CIRCLE
  5
1168
  8
0
 10
85
 20
10
 30
0.0
 40
0.5
  0
CIRCLE
  5
1176
  8
0
 10
87
 20
10
 30
0.0
 40
0.5
  0
CIRCLE
  5
1184
  8
0
 10
89
 20
10
 30
0.0
 40
0.5
  0
CIRCLE
  5
1192
  8
0
 10
90
 20
8
 30
0.0
 40
0.5
  0
CIRCLE
  5
1200
  8
0
 10
88
 20
8
 30
0.0
 40
0.5
  0
CIRCLE
  5
1208
  8
0
 10
86
 20
8
 30
0.0
 40
0.5
  0
CIRCLE
  5
1216
  8
0
 10
84
 20
8
 30
0.0
 40
0.5
  0
CIRCLE
  5
1224
  8
0
 10
82
 20
8
 30
0.0
 40
0.5
  0
CIRCLE
  5
1232
  8
0
 10
83
 20
6
 30
0.0
 40
0.5
  0
CIRCLE
  5
1240
  8
0
 10
85
 20
6
 30
0.0
 40
0.5
  0
CIRCLE
  5
1248
  8
0
 10
87
 20
6
 30
0.0
 40
0.5
  0
CIRCLE
  5
1256
  8
0
 10
89
 20
6
 30
0.0
 40
0.5
  0
CIRCLE
  5
1264
  8
0
 10
90
 20
4
 30
0.0
 40
0.5
  0
CIRCLE
  5
1272
  8
0
 10
88
 20
4
 30
0.0
 40
0.5
  0
CIRCLE
  5
1280
  8
0
 10
86
 20
4
 30
0.0
 40
0.5
  0
CIRCLE
  5
1288
  8
0
 10
84
 20
4
 30
0.0
 40
0.5
  0
CIRCLE
  5
1296
  8
0
 10
82
 20
4
 30
0.0
 40
0.5
  0
CIRCLE
  5
1304
  8
0
 10
83
 20
2
 30
0.0
 40
0.5
  0
CIRCLE
  5
1312
  8
0
 10
85
 20
2
 30
0.0
 40
0.5
  0
CIRCLE
  5
1320
  8
0
 10
87
 20
2
 30
0.0
 40
0.5
  0
CIRCLE
  5
1328
  8
0
 10
89
 20
2
 30
0.0
 40
0.5
  0
CIRCLE
  5
1336
  8
0
 10
90
 20
0
 30
0.0
 40
0.5
  0
CIRCLE
  5
1344
  8
0
 10
88
 20
0
 30
0.0
 40
0.5
  0
CIRCLE
  5
1352
  8
0
 10
86
 20
0
 30
0.0
 40
0.5
  0
CIRCLE
  5
1360
  8
0
 10
84
 20
0
 30
0.0
 40
0.5
  0
CIRCLE
  5
1368
  8
0
 10
82
 20
0
 30
0.0
 40
0.5
  0
CIRCLE
  5
1376
  8
0
 10
139
 20
16
 30
0.0
 40
0.5
  0
CIRCLE
  5
1384
  8
0
 10
140
 20
18
 30
0.0
 40
0.5
  0
CIRCLE
  5
1392
  8
0
 10
142
 20
18
 30
0.0
 40
0.5
  0
CIRCLE
  5
1400
  8
0
 10
143
 20
20
 30
0.0
 40
0.5
  0
CIRCLE
  5
1408
  8
0
 10
141
 20
20
 30
0.0
 40
0.5
  0
CIRCLE
  5
1416
  8
0
 10
139
 20
20
 30
0.0
 40
0.5
  0
CIRCLE
  5
1424
  8
0
 10
141
 20
16
 30
0.0
 40
0.5
  0
CIRCLE
  5
1432
  8
0
 10
143
 20
16
 30
0.0
 40
0.5
  0
CIRCLE
  5
1440
  8
0
 10
142
 20
14
 30
0.0
 40
0.5
  0
CIRCLE
  5
1448
  8
0
 10
140
 20
14
 30
0.0
 40
0.5
  0
CIRCLE
  5
1456
  8
0
 10
139
 20
12
 30
0.0
 40
0.5
  0
CIRCLE
  5
1464
  8
0
 10
140
 20
10
 30
0.0
 40
0.5
  0
CIRCLE
  5
1472
  8
0
 10
141
 20
12
 30
0.0
 40
0.5
  0
CIRCLE
  5
1480
  8
0
 10
142
 20
10
 30
0.0
 40
0.5
  0
CIRCLE
  5
1488
  8
0
 10
143
 20
12
 30
0.0
 40
0.5
  0
CIRCLE
  5
1496
  8
0
 10
145
 20
12
 30
0.0
 40
0.5
  0
CIRCLE
  5
1504
  8
0
 10
147
 20
12
 30
0.0
 40
0.5
  0
CIRCLE
  5
1512
  8
0
 10
149
 20
12
 30
0.0
 40
0.5
  0
CIRCLE
  5
1520
  8
0
 10
151
 20
12
 30
0.0
 40
0.5
  0
CIRCLE
  5
1528
  8
0
 10
153
 20
12
 30
0.0
 40
0.5
  0
CIRCLE
  5
1536
  8
0
 10
155
 20
12
 30
0.0
 40
0.5
  0
CIRCLE
  5
1544
  8
0
 10
157
 20
12
 30
0.0
 40
0.5
  0
CIRCLE
  5
1552
  8
0
 10
159
 20
12
 30
0.0
 40
0.5
  0
CIRCLE
  5
1560
  8
0
 10
160
 20
14
 30
0.0
 40
0.5
  0
CIRCLE
  5
1568
  8
0
 10
158
 20
14
 30
0.0
 40
0.5
  0
CIRCLE
  5
1576
  8
0
 10
156
 20
14
 30
0.0
 40
0.5
  0
CIRCLE
  5
1584
  8
0
 10
154
 20
14
 30
0.0
 40
0.5
  0
CIRCLE
  5
1592
  8
0
 10
152
 20
14
 30
0.0
 40
0.5
  0
CIRCLE
  5
1600
  8
0
 10
150
 20
14
 30
0.0
 40
0.5
  0
CIRCLE
  5
1608
  8
0
 10
148
 20
14
 30
0.0
 40
0.5
  0
CIRCLE
  5
1616
  8
0
 10
146
 20
14
 30
0.0
 40
0.5
  0
CIRCLE
  5
1624
  8
0
 10
144
 20
14
 30
0.0
 40
0.5
  0
CIRCLE
  5
1632
  8
0
 10
145
 20
16
 30
0.0
 40
0.5
  0
CIRCLE
  5
1640
  8
0
 10
147
 20
16
 30
0.0
 40
0.5
  0
CIRCLE
  5
1648
  8
0
 10
149
 20
16
 30
0.0
 40
0.5
  0
CIRCLE
  5
1656
  8
0
 10
151
 20
16
 30
0.0
 40
0.5
  0
CIRCLE
  5
1664
  8
0
 10
153
 20
16
 30
0.0
 40
0.5
  0
CIRCLE
  5
1672
  8
0
 10
155
 20
16
 30
0.0
 40
0.5
  0
CIRCLE
  5
1680
  8
0
 10
157
 20
16
 30
0.0
 40
0.5
  0
CIRCLE
  5
1688
  8
0
 10
159
 20
16
 30
0.0
 40
0.5
  0
CIRCLE
  5
1696
  8
0
 10
158
 20
18
 30
0.0
 40
0.5
  0
CIRCLE
  5
1704
  8
0
 10
156
 20
18
 30
0.0
 40
0.5
  0
CIRCLE
  5
1712
  8
0
 10
154
 20
18
 30
0.0
 40
0.5
  0
CIRCLE
  5
1720
  8
0
 10
152
 20
18
 30
0.0
 40
0.5
  0
CIRCLE
  5
1728
  8
0
 10
150
 20
18
 30
0.0
 40
0.5
  0
CIRCLE
  5
1736
  8
0
 10
148
 20
18
 30
0.0
 40
0.5
  0
CIRCLE
  5
1744
  8
0
 10
146
 20
18
 30
0.0
 40
0.5
  0
CIRCLE
  5
1752
  8
0
 10
144
 20
18
 30
0.0
 40
0.5
  0
CIRCLE
  5
1760
  8
0
 10
145
 20
20
 30
0.0
 40
0.5
  0
CIRCLE
  5
1768
  8
0
 10
147
 20
20
 30
0.0
 40
0.5
  0
CIRCLE
  5
1776
  8
0
 10
149
 20
20
 30
0.0
 40
0.5
  0
CIRCLE
  5
1784
  8
0
 10
151
 20
20
 30
0.0
 40
0.5
  0
CIRCLE
  5
1792
  8
0
 10
153
 20
20
 30
0.0
 40
0.5
  0
CIRCLE
  5
1800
  8
0
 10
155
 20
20
 30
0.0
 40
0.5
  0
CIRCLE
  5
1808
  8
0
 10
157
 20
20
 30
0.0
 40
0.5
  0
CIRCLE
  5
1816
  8
0
 10
159
 20
20
 30
0.0
 40
0.5
  0
CIRCLE
  5
1824
  8
0
 10
161
 20
20
 30
0.0
 40
0.5
  0
CIRCLE
  5
1832
  8
0
 10
163
 20
20
 30
0.0
 40
0.5
  0
CIRCLE
  5
1840
  8
0
 10
165
 20
20
 30
0.0
 40
0.5
  0
CIRCLE
  5
1848
  8
0
 10
167
 20
20
 30
0.0
 40
0.5
  0
CIRCLE
  5
1856
  8
0
 10
166
 20
18
 30
0.0
 40
0.5
  0
CIRCLE
  5
1864
  8
0
 10
164
 20
18
 30
0.0
 40
0.5
  0
CIRCLE
  5
1872
  8
0
 10
162
 20
18
 30
0.0
 40
0.5
  0
CIRCLE
  5
1880
  8
0
 10
160
 20
18
 30
0.0
 40
0.5
  0
CIRCLE
  5
1888
  8
0
 10
161
 20
16
 30
0.0
 40
0.5
  0
CIRCLE
  5
1896
  8
0
 10
163
 20
16
 30
0.0
 40
0.5
  0
CIRCLE
  5
1904
  8
0
 10
165
 20
16
 30
0.0
 40
0.5
  0
CIRCLE
  5
1912
  8
0
 10
167
 20
16
 30
0.0
 40
0.5
  0
CIRCLE
  5
1920
  8
0
 10
166
 20
14
 30
0.0
 40
0.5
  0
CIRCLE
  5
1928
  8
0
 10
164
 20
14
 30
0.0
 40
0.5
  0
CIRCLE
  5
1936
  8
0
 10
162
 20
14
 30
0.0
 40
0.5
  0
CIRCLE
  5
1944
  8
0
 10
161
 20
12
 30
0.0
 40
0.5
  0
CIRCLE
  5
1952
  8
0
 10
163
 20
12
 30
0.0
 40
0.5
  0
CIRCLE
  5
1960
  8
0
 10
165
 20
12
 30
0.0
 40
0.5
  0
CIRCLE
  5
1968
  8
0
 10
167
 20
12
 30
0.0
 40
0.5
  0
CIRCLE
  5
1976
  8
0
 10
166
 20
10
 30
0.0
 40
0.5
  0
CIRCLE
  5
1984
  8
0
 10
164
 20
10
 30
0.0
 40
0.5
  0
CIRCLE
  5
1992
  8
0
 10
162
 20
10
 30
0.0
 40
0.5
  0
CIRCLE
  5
2000
  8
0
 10
160
 20
10
 30
0.0
 40
0.5
  0
CIRCLE
  5
2008
  8
0
 10
159
 20
8
 30
0.0
 40
0.5
  0
CIRCLE
  5
2016
  8
0
 10
161
 20
8
 30
0.0
 40
0.5
  0
CIRCLE
  5
2024
  8
0
 10
163
 20
8
 30
0.0
 40
0.5
  0
CIRCLE
  5
2032
  8
0
 10
165
 20
8
 30
0.0
 40
0.5
  0
CIRCLE
  5
2040
  8
0
 10
167
 20
8
 30
0.0
 40
0.5
  0
CIRCLE
  5
2048
  8
0
 10
166
 20
6
 30
0.0
 40
0.5
  0
CIRCLE
  5
2056
  8
0
 10
164
 20
6
 30
0.0
 40
0.5
  0
CIRCLE
  5
2064
  8
0
 10
162
 20
6
 30
0.0
 40
0.5
  0
CIRCLE
  5
2072
  8
0
 10
160
 20
6
 30
0.0
 40
0.5
  0
CIRCLE
  5
2080
  8
0
 10
159
 20
4
 30
0.0
 40
0.5
  0
CIRCLE
  5
2088
  8
0
 10
161
 20
4
 30
0.0
 40
0.5
  0
CIRCLE
  5
2096
  8
0
 10
163
 20
4
 30
0.0
 40
0.5
  0
CIRCLE
  5
2104
  8
0
 10
165
 20
4
 30
0.0
 40
0.5
  0
CIRCLE
  5
2112
  8
0
 10
167
 20
4
 30
0.0
 40
0.5
  0
CIRCLE
  5
2120
  8
0
 10
166
 20
2
 30
0.0
 40
0.5
  0
CIRCLE
  5
2128
  8
0
 10
164
 20
2
 30
0.0
 40
0.5
  0
CIRCLE
  5
2136
  8
0
 10
162
 20
2
 30
0.0
 40
0.5
  0
CIRCLE
  5
2144
  8
0
 10
160
 20
2
 30
0.0
 40
0.5
  0
CIRCLE
  5
2152
  8
0
 10
159
 20
0
 30
0.0
 40
0.5
  0
CIRCLE
  5
2160
  8
0
 10
161
 20
0
 30
0.0
 40
0.5
  0
CIRCLE
  5
2168
  8
0
 10
163
 20
0
 30
0.0
 40
0.5
  0
CIRCLE
  5
2176
  8
0
 10
165
 20
0
 30
0.0
 40
0.5
  0
CIRCLE
  5
2184
  8
0
 10
167
 20
0
 30
0.0
 40
0.5
  0
CIRCLE
  5
2192
  8
0
 10
66
 20
15
 30
0.0
 40
0.5
  0
CIRCLE
  5
2200
  8
0
 10
65
 20
13
 30
0.0
 40
0.5
  0
CIRCLE
  5
2208
  8
0
 10
66
 20
11
 30
0.0
 40
0.5
  0
CIRCLE
  5
2216
  8
0
 10
65
 20
9
 30
0.0
 40
0.5
  0
CIRCLE
  5
2224
  8
0
 10
63
 20
9
 30
0.0
 40
0.5
  0
CIRCLE
  5
2232
  8
0
 10
64
 20
11
 30
0.0
 40
0.5
  0
CIRCLE
  5
2240
  8
0
 10
63
 20
13
 30
0.0
 40
0.5
  0
CIRCLE
  5
2248
  8
0
 10
64
 20
15
 30
0.0
 40
0.5
  0
CIRCLE
  5
2256
  8
0
 10
62
 20
15
 30
0.0
 40
0.5
  0
CIRCLE
  5
2264
  8
0
 10
61
 20
13
 30
0.0
 40
0.5
  0
CIRCLE
  5
2272
  8
0
 10
62
 20
11
 30
0.0
 40
0.5
  0
CIRCLE
  5
2280
  8
0
 10
61
 20
9
 30
0.0
 40
0.5
  0
CIRCLE
  5
2288
  8
0
 10
59
 20
9
 30
0.0
 40
0.5
  0
CIRCLE
  5
2296
  8
0
 10
60
 20
11
 30
0.0
 40
0.5
  0
CIRCLE
  5
2304
  8
0
 10
59
 20
13
 30
0.0
 40
0.5
  0
CIRCLE
  5
2312
  8
0
 10
60
 20
15
 30
0.0
 40
0.5
  0
CIRCLE
  5
2320
  8
0
 10
58
 20
15
 30
0.0
 40
0.5
  0
CIRCLE
  5
2328
  8
0
 10
57
 20
13
 30
0.0
 40
0.5
  0
CIRCLE
  5
2336
  8
0
 10
58
 20
11
 30
0.0
 40
0.5
  0
CIRCLE
  5
2344
  8
0
 10
57
 20
9
 30
0.0
 40
0.5
  0
CIRCLE
  5
2352
  8
0
 10
55
 20
9
 30
0.0
 40
0.5
  0
CIRCLE
  5
2360
  8
0
 10
56
 20
11
 30
0.0
 40
0.5
  0
CIRCLE
  5
2368
  8
0
 10
55
 20
13
 30
0.0
 40
0.5
  0
CIRCLE
  5
2376
  8
0
 10
56
 20
15
 30
0.0
 40
0.5
  0
CIRCLE
  5
2384
  8
0
 10
54
 20
15
 30
0.0
 40
0.5
  0
CIRCLE
  5
2392
  8
0
 10
53
 20
13
 30
0.0
 40
0.5
  0
CIRCLE
  5
2400
  8
0
 10
54
 20
11
 30
0.0
 40
0.5
  0
CIRCLE
  5
2408
  8
0
 10
53
 20
9
 30
0.0
 40
0.5
  0
CIRCLE
  5
2416
  8
0
 10
51
 20
9
 30
0.0
 40
0.5
  0
CIRCLE
  5
2424
  8
0
 10
52
 20
11
 30
0.0
 40
0.5
  0
CIRCLE
  5
2432
  8
0
 10
51
 20
13
 30
0.0
 40
0.5
  0
CIRCLE
  5
2440
  8
0
 10
52
 20
15
 30
0.0
 40
0.5
  0
CIRCLE
  5
2448
  8
0
 10
50
 20
15
 30
0.0
 40
0.5
  0
CIRCLE
  5
2456
  8
0
 10
49
 20
13
 30
0.0
 40
0.5
  0
CIRCLE
  5
2464
  8
0
 10
50
 20
11
 30
0.0
 40
0.5
  0
CIRCLE
  5
2472
  8
0
 10
49
 20
9
 30
0.0
 40
0.5
  0
CIRCLE
  5
2480
  8
0
 10
47
 20
9
 30
0.0
 40
0.5
  0
CIRCLE
  5
2488
  8
0
 10
48
 20
11
 30
0.0
 40
0.5
  0
CIRCLE
  5
2496
  8
0
 10
47
 20
13
 30
0.0
 40
0.5
  0
CIRCLE
  5
2504
  8
0
 10
48
 20
15
 30
0.0
 40
0.5
  0
CIRCLE
  5
2512
  8
0
 10
46
 20
15
 30
0.0
 40
0.5
  0
CIRCLE
  5
2520
  8
0
 10
45
 20
13
 30
0.0
 40
0.5
  0
CIRCLE
  5
2528
  8
0
 10
46
 20
11
 30
0.0
 40
0.5
  0
CIRCLE
  5
2536
  8
0
 10
45
 20
9
 30
0.0
 40
0.5
  0
CIRCLE
  5
2544
  8
0
 10
43
 20
9
 30
0.0
 40
0.5
  0
CIRCLE
  5
2552
  8
0
 10
44
 20
11
 30
0.0
 40
0.5
  0
CIRCLE
  5
2560
  8
0
 10
43
 20
13
 30
0.0
 40
0.5
  0
CIRCLE
  5
2568
  8
0
 10
44
 20
15
 30
0.0
 40
0.5
  0
CIRCLE
  5
2576
  8
0
 10
42
 20
15
 30
0.0
 40
0.5
  0
CIRCLE
  5
2584
  8
0
 10
41
 20
13
 30
0.0
 40
0.5
  0
CIRCLE
  5
2592
  8
0
 10
42
 20
11
 30
0.0
 40
0.5
  0
CIRCLE
  5
2600
  8
0
 10
41
 20
9
 30
0.0
 40
0.5
  0
CIRCLE
  5
2608
  8
0
 10
39
 20
9
 30
0.0
 40
0.5
  0
CIRCLE
  5
2616
  8
0
 10
40
 20
11
 30
0.0
 40
0.5
  0
CIRCLE
  5
2624
  8
0
 10
39
 20
13
 30
0.0
 40
0.5
  0
CIRCLE
  5
2632
  8
0
 10
40
 20
15
 30
0.0
 40
0.5
  0
CIRCLE
  5
2640
  8
0
 10
38
 20
15
 30
0.0
 40
0.5
  0
CIRCLE
  5
2648
  8
0
 10
37
 20
13
 30
0.0
 40
0.5
  0
CIRCLE
  5
2656
  8
0
 10
38
 20
11
 30
0.0
 40
0.5
  0
CIRCLE
  5
2664
  8
0
 10
37
 20
9
 30
0.0
 40
0.5
  0
CIRCLE
  5
2672
  8
0
 10
35
 20
9
 30
0.0
 40
0.5
  0
CIRCLE
  5
2680
  8
0
 10
36
 20
11
 30
0.0
 40
0.5
  0
CIRCLE
  5
2688
  8
0
 10
35
 20
13
 30
0.0
 40
0.5
  0
CIRCLE
  5
2696
  8
0
 10
36
 20
15
 30
0.0
 40
0.5
  0
CIRCLE
  5
2704
  8
0
 10
34
 20
15
 30
0.0
 40
0.5
  0
CIRCLE
  5
2712
  8
0
 10
32
 20
15
 30
0.0
 40
0.5
  0
CIRCLE
  5
2720
  8
0
 10
33
 20
13
 30
0.0
 40
0.5
  0
CIRCLE
  5
2728
  8
0
 10
32
 20
11
 30
0.0
 40
0.5
  0
CIRCLE
  5
2736
  8
0
 10
34
 20
11
 30
0.0
 40
0.5
  0
CIRCLE
  5
2744
  8
0
 10
33
 20
9
 30
0.0
 40
0.5
  0
CIRCLE
  5
2752
  8
0
 10
41
 20
17
 30
0.0
 40
0.5
  0
CIRCLE
  5
2760
  8
0
 10
43
 20
17
 30
0.0
 40
0.5
  0
CIRCLE
  5
2768
  8
0
 10
45
 20
17
 30
0.0
 40
0.5
  0
CIRCLE
  5
2776
  8
0
 10
47
 20
17
 30
0.0
 40
0.5
  0
CIRCLE
  5
2784
  8
0
 10
49
 20
17
 30
0.0
 40
0.5
  0
CIRCLE
  5
2792
  8
0
 10
51
 20
17
 30
0.0
 40
0.5
  0
CIRCLE
  5
2800
  8
0
 10
53
 20
17
 30
0.0
 40
0.5
  0
CIRCLE
  5
2808
  8
0
 10
55
 20
17
 30
0.0
 40
0.5
  0
CIRCLE
  5
2816
  8
0
 10
57
 20
17
 30
0.0
 40
0.5
  0
CIRCLE
  5
2824
  8
0
 10
59
 20
17
 30
0.0
 40
0.5
  0
CIRCLE
  5
2832
  8
0
 10
60
 20
19
 30
0.0
 40
0.5
  0
CIRCLE
  5
2840
  8
0
 10
61
 20
17
 30
0.0
 40
0.5
  0
CIRCLE
  5
2848
  8
0
 10
62
 20
19
 30
0.0
 40
0.5
  0
CIRCLE
  5
2856
  8
0
 10
63
 20
17
 30
0.0
 40
0.5
  0
CIRCLE
  5
2864
  8
0
 10
64
 20
19
 30
0.0
 40
0.5
  0
CIRCLE
  5
2872
  8
0
 10
65
 20
17
 30
0.0
 40
0.5
  0
CIRCLE
  5
2880
  8
0
 10
66
 20
19
 30
0.0
 40
0.5
  0
CIRCLE
  5
2888
  8
0
 10
67
 20
17
 30
0.0
 40
0.5
  0
CIRCLE
  5
2896
  8
0
 10
68
 20
19
 30
0.0
 40
0.5
  0
CIRCLE
  5
2904
  8
0
 10
69
 20
17
 30
0.0
 40
0.5
  0
CIRCLE
  5
2912
  8
0
 10
70
 20
19
 30
0.0
 40
0.5
  0
CIRCLE
  5
2920
  8
0
 10
71
 20
17
 30
0.0
 40
0.5
  0
CIRCLE
  5
2928
  8
0
 10
72
 20
19
 30
0.0
 40
0.5
  0
CIRCLE
  5
2936
  8
0
 10
73
 20
17
 30
0.0
 40
0.5
  0
CIRCLE
  5
2944
  8
0
 10
74
 20
19
 30
0.0
 40
0.5
  0
CIRCLE
  5
2952
  8
0
 10
74
 20
17
 30
0.0
 40
0.5
  0
CIRCLE
  5
2960
  8
0
 10
68
 20
15
 30
0.0
 40
0.5
  0
CIRCLE
  5
2968
  8
0
 10
70
 20
15
 30
0.0
 40
0.5
  0
CIRCLE
  5
2976
  8
0
 10
72
 20
15
 30
0.0
 40
0.5
  0
CIRCLE
  5
2984
  8
0
 10
74
 20
15
 30
0.0
 40
0.5
  0
CIRCLE
  5
2992
  8
0
 10
74
 20
13
 30
0.0
 40
0.5
  0
CIRCLE
  5
3000
  8
0
 10
73
 20
13
 30
0.0
 40
0.5
  0
CIRCLE
  5
3008
  8
0
 10
71
 20
13
 30
0.0
 40
0.5
  0
CIRCLE
  5
3016
  8
0
 10
69
 20
13
 30
0.0
 40
0.5
  0
CIRCLE
  5
3024
  8
0
 10
67
 20
13
 30
0.0
 40
0.5
  0
CIRCLE
  5
3032
  8
0
 10
68
 20
11
 30
0.0
 40
0.5
  0
CIRCLE
  5
3040
  8
0
 10
70
 20
11
 30
0.0
 40
0.5
  0
CIRCLE
  5
3048
  8
0
 10
72
 20
11
 30
0.0
 40
0.5
  0
CIRCLE
  5
3056
  8
0
 10
74
 20
11
 30
0.0
 40
0.5
  0
CIRCLE
  5
3064
  8
0
 10
74
 20
9
 30
0.0
 40
0.5
  0
CIRCLE
  5
3072
  8
0
 10
73
 20
9
 30
0.0
 40
0.5
  0
CIRCLE
  5
3080
  8
0
 10
71
 20
9
 30
0.0
 40
0.5
  0
CIRCLE
  5
3088
  8
0
 10
69
 20
9
 30
0.0
 40
0.5
  0
CIRCLE
  5
3096
  8
0
 10
67
 20
9
 30
0.0
 40
0.5
  0
CIRCLE
  5
3104
  8
0
 10
68
 20
7
 30
0.0
 40
0.5
  0
CIRCLE
  5
3112
  8
0
 10
70
 20
7
 30
0.0
 40
0.5
  0
CIRCLE
  5
3120
  8
0
 10
72
 20
7
 30
0.0
 40
0.5
  0
CIRCLE
  5
3128
  8
0
 10
74
 20
7
 30
0.0
 40
0.5
  0
CIRCLE
  5
3136
  8
0
 10
74
 20
5
 30
0.0
 40
0.5
  0
CIRCLE
  5
3144
  8
0
 10
73
 20
5
 30
0.0
 40
0.5
  0
CIRCLE
  5
3152
  8
0
 10
71
 20
5
 30
0.0
 40
0.5
  0
CIRCLE
  5
3160
  8
0
 10
69
 20
5
 30
0.0
 40
0.5
  0
CIRCLE
  5
3168
  8
0
 10
67
 20
5
 30
0.0
 40
0.5
  0
CIRCLE
  5
3176
  8
0
 10
68
 20
3
 30
0.0
 40
0.5
  0
CIRCLE
  5
3184
  8
0
 10
70
 20
3
 30
0.0
 40
0.5
  0
CIRCLE
  5
3192
  8
0
 10
72
 20
3
 30
0.0
 40
0.5
  0
CIRCLE
  5
3200
  8
0
 10
74
 20
3
 30
0.0
 40
0.5
  0
CIRCLE
  5
3208
  8
0
 10
74
 20
1
 30
0.0
 40
0.5
  0
CIRCLE
  5
3216
  8
0
 10
73
 20
1
 30
0.0
 40
0.5
  0
CIRCLE
  5
3224
  8
0
 10
71
 20
1
 30
0.0
 40
0.5
  0
CIRCLE
  5
3232
  8
0
 10
69
 20
1
 30
0.0
 40
0.5
  0
CIRCLE
  5
3240
  8
0
 10
67
 20
1
 30
0.0
 40
0.5
  0
CIRCLE
  5
3248
  8
0
 10
66
 20
7
 30
0.0
 40
0.5
  0
CIRCLE
  5
3256
  8
0
 10
65
 20
5
 30
0.0
 40
0.5
  0
CIRCLE
  5
3264
  8
0
 10
66
 20
3
 30
0.0
 40
0.5
  0
CIRCLE
  5
3272
  8
0
 10
65
 20
1
 30
0.0
 40
0.5
  0
CIRCLE
  5
3280
  8
0
 10
63
 20
1
 30
0.0
 40
0.5
  0
CIRCLE
  5
3288
  8
0
 10
64
 20
3
 30
0.0
 40
0.5
  0
CIRCLE
  5
3296
  8
0
 10
63
 20
5
 30
0.0
 40
0.5
  0
CIRCLE
  5
3304
  8
0
 10
64
 20
7
 30
0.0
 40
0.5
  0
CIRCLE
  5
3312
  8
0
 10
62
 20
7
 30
0.0
 40
0.5
  0
CIRCLE
  5
3320
  8
0
 10
61
 20
5
 30
0.0
 40
0.5
  0
CIRCLE
  5
3328
  8
0
 10
62
 20
3
 30
0.0
 40
0.5
  0
CIRCLE
  5
3336
  8
0
 10
61
 20
1
 30
0.0
 40
0.5
  0
CIRCLE
  5
3344
  8
0
 10
59
 20
1
 30
0.0
 40
0.5
  0
CIRCLE
  5
3352
  8
0
 10
60
 20
3
 30
0.0
 40
0.5
  0
CIRCLE
  5
3360
  8
0
 10
59
 20
5
 30
0.0
 40
0.5
  0
CIRCLE
  5
3368
  8
0
 10
60
 20
7
 30
0.0
 40
0.5
  0
CIRCLE
  5
3376
  8
0
 10
58
 20
7
 30
0.0
 40
0.5
  0
CIRCLE
  5
3384
  8
0
 10
57
 20
5
 30
0.0
 40
0.5
  0
CIRCLE
  5
3392
  8
0
 10
58
 20
3
 30
0.0
 40
0.5
  0
CIRCLE
  5
3400
  8
0
 10
57
 20
1
 30
0.0
 40
0.5
  0
CIRCLE
  5
3408
  8
0
 10
55
 20
1
 30
0.0
 40
0.5
  0
CIRCLE
  5
3416
  8
0
 10
56
 20
3
 30
0.0
 40
0.5
  0
CIRCLE
  5
3424
  8
0
 10
55
 20
5
 30
0.0
 40
0.5
  0
CIRCLE
  5
3432
  8
0
 10
56
 20
7
 30
0.0
 40
0.5
  0
CIRCLE
  5
3440
  8
0
 10
54
 20
7
 30
0.0
 40
0.5
  0
CIRCLE
  5
3448
  8
0
 10
53
 20
5
 30
0.0
 40
0.5
  0
CIRCLE
  5
3456
  8
0
 10
54
 20
3
 30
0.0
 40
0.5
  0
CIRCLE
  5
3464
  8
0
 10
53
 20
1
 30
0.0
 40
0.5
  0
CIRCLE
  5
3472
  8
0
 10
51
 20
1
 30
0.0
 40
0.5
  0
CIRCLE
  5
3480
  8
0
 10
52
 20
3
 30
0.0
 40
0.5
  0
CIRCLE
  5
3488
  8
0
 10
51
 20
5
 30
0.0
 40
0.5
  0
CIRCLE
  5
3496
  8
0
 10
52
 20
7
 30
0.0
 40
0.5
  0
CIRCLE
  5
3504
  8
0
 10
50
 20
7
 30
0.0
 40
0.5
  0
CIRCLE
  5
3512
  8
0
 10
49
 20
5
 30
0.0
 40
0.5
  0
CIRCLE
  5
3520
  8
0
 10
50
 20
3
 30
0.0
 40
0.5
  0
CIRCLE
  5
3528
  8
0
 10
49
 20
1
 30
0.0
 40
0.5
  0
CIRCLE
  5
3536
  8
0
 10
47
 20
1
 30
0.0
 40
0.5
  0
CIRCLE
  5
3544
  8
0
 10
48
 20
3
 30
0.0
 40
0.5
  0
CIRCLE
  5
3552
  8
0
 10
47
 20
5
 30
0.0
 40
0.5
  0
CIRCLE
  5
3560
  8
0
 10
48
 20
7
 30
0.0
 40
0.5
  0
CIRCLE
  5
3568
  8
0
 10
46
 20
7
 30
0.0
 40
0.5
  0
CIRCLE
  5
3576
  8
0
 10
45
 20
5
 30
0.0
 40
0.5
  0
CIRCLE
  5
3584
  8
0
 10
46
 20
3
 30
0.0
 40
0.5
  0
CIRCLE
  5
3592
  8
0
 10
45
 20
1
 30
0.0
 40
0.5
  0
CIRCLE
  5
3600
  8
0
 10
43
 20
1
 30
0.0
 40
0.5
  0
CIRCLE
  5
3608
  8
0
 10
44
 20
3
 30
0.0
 40
0.5
  0
CIRCLE
  5
3616
  8
0
 10
43
 20
5
 30
0.0
 40
0.5
  0
CIRCLE
  5
3624
  8
0
 10
44
 20
7
 30
0.0
 40
0.5
  0
CIRCLE
  5
3632
  8
0
 10
42
 20
7
 30
0.0
 40
0.5
  0
CIRCLE
  5
3640
  8
0
 10
41
 20
5
 30
0.0
 40
0.5
  0
CIRCLE
  5
3648
  8
0
 10
42
 20
3
 30
0.0
 40
0.5
  0
CIRCLE
  5
3656
  8
0
 10
41
 20
1
 30
0.0
 40
0.5
  0
CIRCLE
  5
3664
  8
0
 10
39
 20
1
 30
0.0
 40
0.5
  0
CIRCLE
  5
3672
  8
0
 10
40
 20
3
 30
0.0
 40
0.5
  0
CIRCLE
  5
3680
  8
0
 10
39
 20
5
 30
0.0
 40
0.5
  0
CIRCLE
  5
3688
  8
0
 10
40
 20
7
 30
0.0
 40
0.5
  0
CIRCLE
  5
3696
  8
0
 10
38
 20
7
 30
0.0
 40
0.5
  0
CIRCLE
  5
3704
  8
0
 10
37
 20
5
 30
0.0
 40
0.5
  0
CIRCLE
  5
3712
  8
0
 10
38
 20
3
 30
0.0
 40
0.5
  0
CIRCLE
  5
3720
  8
0
 10
37
 20
1
 30
0.0
 40
0.5
  0
CIRCLE
  5
3728
  8
0
 10
35
 20
1
 30
0.0
 40
0.5
  0
CIRCLE
  5
3736
  8
0
 10
36
 20
3
 30
0.0
 40
0.5
  0
CIRCLE
  5
3744
  8
0
 10
35
 20
5
 30
0.0
 40
0.5
  0
CIRCLE
  5
3752
  8
0
 10
36
 20
7
 30
0.0
 40
0.5
  0
CIRCLE
  5
3760
  8
0
 10
34
 20
7
 30
0.0
 40
0.5
  0
CIRCLE
  5
3768
  8
0
 10
32
 20
7
 30
0.0
 40
0.5
  0
CIRCLE
  5
3776
  8
0
 10
33
 20
5
 30
0.0
 40
0.5
  0
CIRCLE
  5
3784
  8
0
 10
32
 20
3
 30
0.0
 40
0.5
  0
CIRCLE
  5
3792
  8
0
 10
34
 20
3
 30
0.0
 40
0.5
  0
CIRCLE
  5
3800
  8
0
 10
33
 20
1
 30
0.0
 40
0.5
  0
CIRCLE
  5
3808
  8
0
 10
30
 20
1
 30
0.0
 40
0.5
  0
CIRCLE
  5
3816
  8
0
 10
29
 20
1
 30
0.0
 40
0.5
  0
CIRCLE
  5
3824
  8
0
 10
28
 20
1
 30
0.0
 40
0.5
  0
CIRCLE
  5
3832
  8
0
 10
27
 20
1
 30
0.0
 40
0.5
  0
CIRCLE
  5
3840
  8
0
 10
26
 20
1
 30
0.0
 40
0.5
  0
CIRCLE
  5
3848
  8
0
 10
25
 20
1
 30
0.0
 40
0.5
  0
CIRCLE
  5
3856
  8
0
 10
24
 20
1
 30
0.0
 40
0.5
  0
CIRCLE
  5
3864
  8
0
 10
23
 20
1
 30
0.0
 40
0.5
  0
CIRCLE
  5
3872
  8
0
 10
22
 20
1
 30
0.0
 40
0.5
  0
CIRCLE
  5
3880
  8
0
 10
21
 20
1
 30
0.0
 40
0.5
  0
CIRCLE
  5
3888
  8
0
 10
20
 20
1
 30
0.0
 40
0.5
  0
CIRCLE
  5
3896
  8
0
 10
19
 20
1
 30
0.0
 40
0.5
  0
CIRCLE
  5
3904
  8
0
 10
18
 20
0
 30
0.0
 40
0.5
  0
CIRCLE
  5
3912
  8
0
 10
17
 20
0
 30
0.0
 40
0.5
  0
CIRCLE
  5
3920
  8
0
 10
16
 20
0
 30
0.0
 40
0.5
  0
CIRCLE
  5
3928
  8
0
 10
15
 20
0
 30
0.0
 40
0.5
  0
CIRCLE
  5
3936
  8
0
 10
14
 20
0
 30
0.0
 40
0.5
  0
CIRCLE
  5
3944
  8
0
 10
13
 20
0
 30
0.0
 40
0.5
  0
CIRCLE
  5
3952
  8
0
 10
12
 20
0
 30
0.0
 40
0.5
  0
CIRCLE
  5
3960
  8
0
 10
11
 20
0
 30
0.0
 40
0.5
  0
CIRCLE
  5
3968
  8
0
 10
10
 20
0
 30
0.0
 40
0.5
  0
CIRCLE
  5
3976
  8
0
 10
9
 20
0
 30
0.0
 40
0.5
  0
CIRCLE
  5
3984
  8
0
 10
8
 20
0
 30
0.0
 40
0.5
  0
CIRCLE
  5
3992
  8
0
 10
7
 20
0
 30
0.0
 40
0.5
  0
CIRCLE
  5
4000
  8
0
 10
6
 20
0
 30
0.0
 40
0.5
  0
CIRCLE
  5
4008
  8
0
 10
7
 20
3
 30
0.0
 40
0.5
  0
CIRCLE
  5
4016
  8
0
 10
8
 20
3
 30
0.0
 40
0.5
  0
CIRCLE
  5
4024
  8
0
 10
9
 20
3
 30
0.0
 40
0.5
  0
CIRCLE
  5
4032
  8
0
 10
10
 20
3
 30
0.0
 40
0.5
  0
CIRCLE
  5
4040
  8
0
 10
11
 20
3
 30
0.0
 40
0.5
  0
CIRCLE
  5
4048
  8
0
 10
12
 20
3
 30
0.0
 40
0.5
  0
CIRCLE
  5
4056
  8
0
 10
13
 20
3
 30
0.0
 40
0.5
  0
CIRCLE
  5
4064
  8
0
 10
14
 20
3
 30
0.0
 40
0.5
  0
CIRCLE
  5
4072
  8
0
 10
15
 20
3
 30
0.0
 40
0.5
  0
CIRCLE
  5
4080
  8
0
 10
16
 20
3
 30
0.0
 40
0.5
  0
CIRCLE
  5
4088
  8
0
 10
17
 20
3
 30
0.0
 40
0.5
  0
CIRCLE
  5
4096
  8
0
 10
18
 20
3
 30
0.0
 40
0.5
  0
CIRCLE
  5
4104
  8
0
 10
19
 20
3
 30
0.0
 40
0.5
  0
CIRCLE
  5
4112
  8
0
 10
20
 20
3
 30
0.0
 40
0.5
  0
CIRCLE
  5
4120
  8
0
 10
21
 20
3
 30
0.0
 40
0.5
  0
CIRCLE
  5
4128
  8
0
 10
22
 20
3
 30
0.0
 40
0.5
  0
CIRCLE
  5
4136
  8
0
 10
23
 20
3
 30
0.0
 40
0.5
  0
CIRCLE
  5
4144
  8
0
 10
24
 20
3
 30
0.0
 40
0.5
  0
CIRCLE
  5
4152
  8
0
 10
25
 20
3
 30
0.0
 40
0.5
  0
CIRCLE
  5
4160
  8
0
 10
26
 20
3
 30
0.0
 40
0.5
  0
CIRCLE
  5
4168
  8
0
 10
27
 20
3
 30
0.0
 40
0.5
  0
CIRCLE
  5
4176
  8
0
 10
28
 20
3
 30
0.0
 40
0.5
  0
CIRCLE
  5
4184
  8
0
 10
29
 20
3
 30
0.0
 40
0.5
  0
CIRCLE
  5
4192
  8
0
 10
30
 20
3
 30
0.0
 40
0.5
  0
CIRCLE
  5
4200
  8
0
 10
30
 20
5
 30
0.0
 40
0.5
  0
CIRCLE
  5
4208
  8
0
 10
29
 20
5
 30
0.0
 40
0.5
  0
CIRCLE
  5
4216
  8
0
 10
28
 20
5
 30
0.0
 40
0.5
  0
CIRCLE
  5
4224
  8
0
 10
27
 20
5
 30
0.0
 40
0.5
  0
CIRCLE
  5
4232
  8
0
 10
26
 20
5
 30
0.0
 40
0.5
  0
CIRCLE
  5
4240
  8
0
 10
25
 20
5
 30
0.0
 40
0.5
  0
CIRCLE
  5
4248
  8
0
 10
24
 20
5
 30
0.0
 40
0.5
  0
CIRCLE
  5
4256
  8
0
 10
23
 20
5
 30
0.0
 40
0.5
  0
CIRCLE
  5
4264
  8
0
 10
22
 20
5
 30
0.0
 40
0.5
  0
CIRCLE
  5
4272
  8
0
 10
21
 20
5
 30
0.0
 40
0.5
  0
CIRCLE
  5
4280
  8
0
 10
20
 20
5
 30
0.0
 40
0.5
  0
CIRCLE
  5
4288
  8
0
 10
19
 20
5
 30
0.0
 40
0.5
  0
CIRCLE
  5
4296
  8
0
 10
18
 20
5
 30
0.0
 40
0.5
  0
CIRCLE
  5
4304
  8
0
 10
17
 20
5
 30
0.0
 40
0.5
  0
CIRCLE
  5
4312
  8
0
 10
16
 20
5
 30
0.0
 40
0.5
  0
CIRCLE
  5
4320
  8
0
 10
15
 20
5
 30
0.0
 40
0.5
  0
CIRCLE
  5
4328
  8
0
 10
14
 20
5
 30
0.0
 40
0.5
  0
CIRCLE
  5
4336
  8
0
 10
13
 20
5
 30
0.0
 40
0.5
  0
CIRCLE
  5
4344
  8
0
 10
12
 20
5
 30
0.0
 40
0.5
  0
CIRCLE
  5
4352
  8
0
 10
11
 20
5
 30
0.0
 40
0.5
  0
CIRCLE
  5
4360
  8
0
 10
10
 20
5
 30
0.0
 40
0.5
  0
CIRCLE
  5
4368
  8
0
 10
9
 20
5
 30
0.0
 40
0.5
  0
CIRCLE
  5
4376
  8
0
 10
8
 20
5
 30
0.0
 40
0.5
  0
CIRCLE
  5
4384
  8
0
 10
10
 20
8
 30
0.0
 40
0.5
  0
CIRCLE
  5
4392
  8
0
 10
11
 20
8
 30
0.0
 40
0.5
  0
CIRCLE
  5
4400
  8
0
 10
12
 20
8
 30
0.0
 40
0.5
  0
CIRCLE
  5
4408
  8
0
 10
13
 20
8
 30
0.0
 40
0.5
  0
CIRCLE
  5
4416
  8
0
 10
14
 20
8
 30
0.0
 40
0.5
  0
CIRCLE
  5
4424
  8
0
 10
15
 20
7
 30
0.0
 40
0.5
  0
CIRCLE
  5
4432
  8
0
 10
16
 20
7
 30
0.0
 40
0.5
  0
CIRCLE
  5
4440
  8
0
 10
17
 20
7
 30
0.0
 40
0.5
  0
CIRCLE
  5
4448
  8
0
 10
18
 20
7
 30
0.0
 40
0.5
  0
CIRCLE
  5
4456
  8
0
 10
19
 20
7
 30
0.0
 40
0.5
  0
CIRCLE
  5
4464
  8
0
 10
20
 20
7
 30
0.0
 40
0.5
  0
CIRCLE
  5
4472
  8
0
 10
21
 20
7
 30
0.0
 40
0.5
  0
CIRCLE
  5
4480
  8
0
 10
22
 20
7
 30
0.0
 40
0.5
  0
CIRCLE
  5
4488
  8
0
 10
23
 20
7
 30
0.0
 40
0.5
  0
CIRCLE
  5
4496
  8
0
 10
24
 20
7
 30
0.0
 40
0.5
  0
CIRCLE
  5
4504
  8
0
 10
25
 20
7
 30
0.0
 40
0.5
  0
CIRCLE
  5
4512
  8
0
 10
26
 20
7
 30
0.0
 40
0.5
  0
CIRCLE
  5
4520
  8
0
 10
27
 20
7
 30
0.0
 40
0.5
  0
CIRCLE
  5
4528
  8
0
 10
28
 20
7
 30
0.0
 40
0.5
  0
CIRCLE
  5
4536
  8
0
 10
29
 20
7
 30
0.0
 40
0.5
  0
CIRCLE
  5
4544
  8
0
 10
30
 20
7
 30
0.0
 40
0.5
  0
CIRCLE
  5
4552
  8
0
 10
30
 20
9
 30
0.0
 40
0.5
  0
CIRCLE
  5
4560
  8
0
 10
29
 20
9
 30
0.0
 40
0.5
  0
CIRCLE
  5
4568
  8
0
 10
28
 20
9
 30
0.0
 40
0.5
  0
CIRCLE
  5
4576
  8
0
 10
27
 20
9
 30
0.0
 40
0.5
  0
CIRCLE
  5
4584
  8
0
 10
26
 20
9
 30
0.0
 40
0.5
  0
CIRCLE
  5
4592
  8
0
 10
25
 20
9
 30
0.0
 40
0.5
  0
CIRCLE
  5
4600
  8
0
 10
24
 20
9
 30
0.0
 40
0.5
  0
CIRCLE
  5
4608
  8
0
 10
23
 20
9
 30
0.0
 40
0.5
  0
CIRCLE
  5
4616
  8
0
 10
22
 20
10
 30
0.0
 40
0.5
  0
CIRCLE
  5
4624
  8
0
 10
21
 20
10
 30
0.0
 40
0.5
  0
CIRCLE
  5
4632
  8
0
 10
20
 20
10
 30
0.0
 40
0.5
  0
CIRCLE
  5
4640
  8
0
 10
19
 20
10
 30
0.0
 40
0.5
  0
CIRCLE
  5
4648
  8
0
 10
18
 20
10
 30
0.0
 40
0.5
  0
CIRCLE
  5
4656
  8
0
 10
17
 20
10
 30
0.0
 40
0.5
  0
CIRCLE
  5
4664
  8
0
 10
16
 20
10
 30
0.0
 40
0.5
  0
CIRCLE
  5
4672
  8
0
 10
15
 20
10
 30
0.0
 40
0.5
  0
CIRCLE
  5
4680
  8
0
 10
14
 20
11
 30
0.0
 40
0.5
  0
CIRCLE
  5
4688
  8
0
 10
13
 20
11
 30
0.0
 40
0.5
  0
CIRCLE
  5
4696
  8
0
 10
12
 20
11
 30
0.0
 40
0.5
  0
CIRCLE
  5
4704
  8
0
 10
11
 20
11
 30
0.0
 40
0.5
  0
CIRCLE
  5
4712
  8
0
 10
10
 20
11
 30
0.0
 40
0.5
  0
CIRCLE
  5
4720
  8
0
 10
9
 20
11
 30
0.0
 40
0.5
  0
CIRCLE
  5
4728
  8
0
 10
8
 20
11
 30
0.0
 40
0.5
  0
CIRCLE
  5
4736
  8
0
 10
7
 20
11
 30
0.0
 40
0.5
  0
CIRCLE
  5
4744
  8
0
 10
5
 20
14
 30
0.0
 40
0.5
  0
CIRCLE
  5
4752
  8
0
 10
6
 20
14
 30
0.0
 40
0.5
  0
CIRCLE
  5
4760
  8
0
 10
7
 20
13
 30
0.0
 40
0.5
  0
CIRCLE
  5
4768
  8
0
 10
8
 20
13
 30
0.0
 40
0.5
  0
CIRCLE
  5
4776
  8
0
 10
9
 20
13
 30
0.0
 40
0.5
  0
CIRCLE
  5
4784
  8
0
 10
10
 20
13
 30
0.0
 40
0.5
  0
CIRCLE
  5
4792
  8
0
 10
11
 20
13
 30
0.0
 40
0.5
  0
CIRCLE
  5
4800
  8
0
 10
12
 20
13
 30
0.0
 40
0.5
  0
CIRCLE
  5
4808
  8
0
 10
13
 20
13
 30
0.0
 40
0.5
  0
CIRCLE
  5
4816
  8
0
 10
14
 20
13
 30
0.0
 40
0.5
  0
CIRCLE
  5
4824
  8
0
 10
15
 20
12
 30
0.0
 40
0.5
  0
CIRCLE
  5
4832
  8
0
 10
16
 20
12
 30
0.0
 40
0.5
  0
CIRCLE
  5
4840
  8
0
 10
17
 20
12
 30
0.0
 40
0.5
  0
CIRCLE
  5
4848
  8
0
 10
18
 20
12
 30
0.0
 40
0.5
  0
CIRCLE
  5
4856
  8
0
 10
19
 20
12
 30
0.0
 40
0.5
  0
CIRCLE
  5
4864
  8
0
 10
20
 20
12
 30
0.0
 40
0.5
  0
CIRCLE
  5
4872
  8
0
 10
21
 20
12
 30
0.0
 40
0.5
  0
CIRCLE
  5
4880
  8
0
 10
22
 20
12
 30
0.0
 40
0.5
  0
CIRCLE
  5
4888
  8
0
 10
23
 20
11
 30
0.0
 40
0.5
  0
CIRCLE
  5
4896
  8
0
 10
24
 20
11
 30
0.0
 40
0.5
  0
CIRCLE
  5
4904
  8
0
 10
25
 20
11
 30
0.0
 40
0.5
  0
CIRCLE
  5
4912
  8
0
 10
26
 20
11
 30
0.0
 40
0.5
  0
CIRCLE
  5
4920
  8
0
 10
27
 20
11
 30
0.0
 40
0.5
  0
CIRCLE
  5
4928
  8
0
 10
28
 20
11
 30
0.0
 40
0.5
  0
CIRCLE
  5
4936
  8
0
 10
29
 20
11
 30
0.0
 40
0.5
  0
CIRCLE
  5
4944
  8
0
 10
30
 20
11
 30
0.0
 40
0.5
  0
CIRCLE
  5
4952
  8
0
 10
30
 20
13
 30
0.0
 40
0.5
  0
CIRCLE
  5
4960
  8
0
 10
29
 20
13
 30
0.0
 40
0.5
  0
CIRCLE
  5
4968
  8
0
 10
28
 20
13
 30
0.0
 40
0.5
  0
CIRCLE
  5
4976
  8
0
 10
27
 20
13
 30
0.0
 40
0.5
  0
CIRCLE
  5
4984
  8
0
 10
26
 20
13
 30
0.0
 40
0.5
  0
CIRCLE
  5
4992
  8
0
 10
25
 20
13
 30
0.0
 40
0.5
  0
CIRCLE
  5
5000
  8
0
 10
24
 20
13
 30
0.0
 40
0.5
  0
CIRCLE
  5
5008
  8
0
 10
23
 20
13
 30
0.0
 40
0.5
  0
CIRCLE
  5
5016
  8
0
 10
22
 20
14
 30
0.0
 40
0.5
  0
CIRCLE
  5
5024
  8
0
 10
21
 20
14
 30
0.0
 40
0.5
  0
CIRCLE
  5
5032
  8
0
 10
20
 20
14
 30
0.0
 40
0.5
  0
CIRCLE
  5
5040
  8
0
 10
19
 20
14
 30
0.0
 40
0.5
  0
CIRCLE
  5
5048
  8
0
 10
18
 20
14
 30
0.0
 40
0.5
  0
CIRCLE
  5
5056
  8
0
 10
17
 20
14
 30
0.0
 40
0.5
  0
CIRCLE
  5
5064
  8
0
 10
16
 20
14
 30
0.0
 40
0.5
  0
CIRCLE
  5
5072
  8
0
 10
15
 20
14
 30
0.0
 40
0.5
  0
CIRCLE
  5
5080
  8
0
 10
14
 20
15
 30
0.0
 40
0.5
  0
CIRCLE
  5
5088
  8
0
 10
13
 20
15
 30
0.0
 40
0.5
  0
CIRCLE
  5
5096
  8
0
 10
12
 20
15
 30
0.0
 40
0.5
  0
CIRCLE
  5
5104
  8
0
 10
11
 20
15
 30
0.0
 40
0.5
  0
CIRCLE
  5
5112
  8
0
 10
10
 20
15
 30
0.0
 40
0.5
  0
CIRCLE
  5
5120
  8
0
 10
9
 20
15
 30
0.0
 40
0.5
  0
CIRCLE
  5
5128
  8
0
 10
8
 20
15
 30
0.0
 40
0.5
  0
CIRCLE
  5
5136
  8
0
 10
7
 20
15
 30
0.0
 40
0.5
  0
CIRCLE
  5
5144
  8
0
 10
6
 20
16
 30
0.0
 40
0.5
  0
CIRCLE
  5
5152
  8
0
 10
5
 20
16
 30
0.0
 40
0.5
  0
CIRCLE
  5
5160
  8
0
 10
4
 20
16
 30
0.0
 40
0.5
  0
CIRCLE
  5
5168
  8
0
 10
3
 20
16
 30
0.0
 40
0.5
  0
CIRCLE
  5
5176
  8
0
 10
1
 20
18
 30
0.0
 40
0.5
  0
CIRCLE
  5
5184
  8
0
 10
1
 20
19
 30
0.0
 40
0.5
  0
CIRCLE
  5
5192
  8
0
 10
2
 20
19
 30
0.0
 40
0.5
  0
CIRCLE
  5
5200
  8
0
 10
3
 20
19
 30
0.0
 40
0.5
  0
CIRCLE
  5
5208
  8
0
 10
4
 20
18
 30
0.0
 40
0.5
  0
CIRCLE
  5
5216
  8
0
 10
5
 20
18
 30
0.0
 40
0.5
  0
CIRCLE
  5
5224
  8
0
 10
6
 20
18
 30
0.0
 40
0.5
  0
CIRCLE
  5
5232
  8
0
 10
7
 20
18
 30
0.0
 40
0.5
  0
CIRCLE
  5
5240
  8
0
 10
8
 20
17
 30
0.0
 40
0.5
  0
CIRCLE
  5
5248
  8
0
 10
9
 20
17
 30
0.0
 40
0.5
  0
CIRCLE
  5
5256
  8
0
 10
10
 20
17
 30
0.0
 40
0.5
  0
CIRCLE
  5
5264
  8
0
 10
11
 20
17
 30
0.0
 40
0.5
  0
CIRCLE
  5
5272
  8
0
 10
12
 20
17
 30
0.0
 40
0.5
  0
CIRCLE
  5
5280
  8
0
 10
13
 20
17
 30
0.0
 40
0.5
  0
CIRCLE
  5
5288
  8
0
 10
14
 20
17
 30
0.0
 40
0.5
  0
CIRCLE
  5
5296
  8
0
 10
15
 20
16
 30
0.0
 40
0.5
  0
CIRCLE
  5
5304
  8
0
 10
16
 20
16
 30
0.0
 40
0.5
  0
CIRCLE
  5
5312
  8
0
 10
17
 20
16
 30
0.0
 40
0.5
  0
CIRCLE
  5
5320
  8
0
 10
18
 20
16
 30
0.0
 40
0.5
  0
CIRCLE
  5
5328
  8
0
 10
19
 20
16
 30
0.0
 40
0.5
  0
CIRCLE
  5
5336
  8
0
 10
20
 20
16
 30
0.0
 40
0.5
  0
CIRCLE
  5
5344
  8
0
 10
21
 20
16
 30
0.0
 40
0.5
  0
CIRCLE
  5
5352
  8
0
 10
22
 20
16
 30
0.0
 40
0.5
  0
CIRCLE
  5
5360
  8
0
 10
23
 20
15
 30
0.0
 40
0.5
  0
CIRCLE
  5
5368
  8
0
 10
24
 20
15
 30
0.0
 40
0.5
  0
CIRCLE
  5
5376
  8
0
 10
25
 20
15
 30
0.0
 40
0.5
  0
CIRCLE
  5
5384
  8
0
 10
26
 20
15
 30
0.0
 40
0.5
  0
CIRCLE
  5
5392
  8
0
 10
27
 20
15
 30
0.0
 40
0.5
  0
CIRCLE
  5
5400
  8
0
 10
28
 20
15
 30
0.0
 40
0.5
  0
CIRCLE
  5
5408
  8
0
 10
29
 20
15
 30
0.0
 40
0.5
  0
CIRCLE
  5
5416
  8
0
 10
30
 20
15
 30
0.0
 40
0.5
  0
CIRCLE
  5
5424
  8
0
 10
183
 20
15
 30
0.0
 40
0.5
  0
CIRCLE
  5
5432
  8
0
 10
184
 20
13
 30
0.0
 40
0.5
  0
CIRCLE
  5
5440
  8
0
 10
183
 20
11
 30
0.0
 40
0.5
  0
CIRCLE
  5
5448
  8
0
 10
184
 20
9
 30
0.0
 40
0.5
  0
CIRCLE
  5
5456
  8
0
 10
186
 20
9
 30
0.0
 40
0.5
  0
CIRCLE
  5
5464
  8
0
 10
185
 20
11
 30
0.0
 40
0.5
  0
CIRCLE
  5
5472
  8
0
 10
186
 20
13
 30
0.0
 40
0.5
  0
CIRCLE
  5
5480
  8
0
 10
185
 20
15
 30
0.0
 40
0.5
  0
CIRCLE
  5
5488
  8
0
 10
187
 20
15
 30
0.0
 40
0.5
  0
CIRCLE
  5
5496
  8
0
 10
188
 20
13
 30
0.0
 40
0.5
  0
CIRCLE
  5
5504
  8
0
 10
187
 20
11
 30
0.0
 40
0.5
  0
CIRCLE
  5
5512
  8
0
 10
188
 20
9
 30
0.0
 40
0.5
  0
CIRCLE
  5
5520
  8
0
 10
190
 20
9
 30
0.0
 40
0.5
  0
CIRCLE
  5
5528
  8
0
 10
189
 20
11
 30
0.0
 40
0.5
  0
CIRCLE
  5
5536
  8
0
 10
190
 20
13
 30
0.0
 40
0.5
  0
CIRCLE
  5
5544
  8
0
 10
189
 20
15
 30
0.0
 40
0.5
  0
CIRCLE
  5
5552
  8
0
 10
191
 20
15
 30
0.0
 40
0.5
  0
CIRCLE
  5
5560
  8
0
 10
192
 20
13
 30
0.0
 40
0.5
  0
CIRCLE
  5
5568
  8
0
 10
191
 20
11
 30
0.0
 40
0.5
  0
CIRCLE
  5
5576
  8
0
 10
192
 20
9
 30
0.0
 40
0.5
  0
CIRCLE
  5
5584
  8
0
 10
194
 20
9
 30
0.0
 40
0.5
  0
CIRCLE
  5
5592
  8
0
 10
193
 20
11
 30
0.0
 40
0.5
  0
CIRCLE
  5
5600
  8
0
 10
194
 20
13
 30
0.0
 40
0.5
  0
CIRCLE
  5
5608
  8
0
 10
193
 20
15
 30
0.0
 40
0.5
  0
CIRCLE
  5
5616
  8
0
 10
195
 20
15
 30
0.0
 40
0.5
  0
CIRCLE
  5
5624
  8
0
 10
196
 20
13
 30
0.0
 40
0.5
  0
CIRCLE
  5
5632
  8
0
 10
195
 20
11
 30
0.0
 40
0.5
  0
CIRCLE
  5
5640
  8
0
 10
196
 20
9
 30
0.0
 40
0.5
  0
CIRCLE
  5
5648
  8
0
 10
198
 20
9
 30
0.0
 40
0.5
  0
CIRCLE
  5
5656
  8
0
 10
197
 20
11
 30
0.0
 40
0.5
  0
CIRCLE
  5
5664
  8
0
 10
198
 20
13
 30
0.0
 40
0.5
  0
CIRCLE
  5
5672
  8
0
 10
197
 20
15
 30
0.0
 40
0.5
  0
CIRCLE
  5
5680
  8
0
 10
199
 20
15
 30
0.0
 40
0.5
  0
CIRCLE
  5
5688
  8
0
 10
200
 20
13
 30
0.0
 40
0.5
  0
CIRCLE
  5
5696
  8
0
 10
199
 20
11
 30
0.0
 40
0.5
  0
CIRCLE
  5
5704
  8
0
 10
200
 20
9
 30
0.0
 40
0.5
  0
CIRCLE
  5
5712
  8
0
 10
202
 20
9
 30
0.0
 40
0.5
  0
CIRCLE
  5
5720
  8
0
 10
201
 20
11
 30
0.0
 40
0.5
  0
CIRCLE
  5
5728
  8
0
 10
202
 20
13
 30
0.0
 40
0.5
  0
CIRCLE
  5
5736
  8
0
 10
201
 20
15
 30
0.0
 40
0.5
  0
CIRCLE
  5
5744
  8
0
 10
203
 20
15
 30
0.0
 40
0.5
  0
CIRCLE
  5
5752
  8
0
 10
204
 20
13
 30
0.0
 40
0.5
  0
CIRCLE
  5
5760
  8
0
 10
203
 20
11
 30
0.0
 40
0.5
  0
CIRCLE
  5
5768
  8
0
 10
204
 20
9
 30
0.0
 40
0.5
  0
CIRCLE
  5
5776
  8
0
 10
206
 20
9
 30
0.0
 40
0.5
  0
CIRCLE
  5
5784
  8
0
 10
205
 20
11
 30
0.0
 40
0.5
  0
CIRCLE
  5
5792
  8
0
 10
206
 20
13
 30
0.0
 40
0.5
  0
CIRCLE
  5
5800
  8
0
 10
205
 20
15
 30
0.0
 40
0.5
  0
CIRCLE
  5
5808
  8
0
 10
207
 20
15
 30
0.0
 40
0.5
  0
CIRCLE
  5
5816
  8
0
 10
208
 20
13
 30
0.0
 40
0.5
  0
CIRCLE
  5
5824
  8
0
 10
207
 20
11
 30
0.0
 40
0.5
  0
CIRCLE
  5
5832
  8
0
 10
208
 20
9
 30
0.0
 40
0.5
  0
CIRCLE
  5
5840
  8
0
 10
210
 20
9
 30
0.0
 40
0.5
  0
CIRCLE
  5
5848
  8
0
 10
209
 20
11
 30
0.0
 40
0.5
  0
CIRCLE
  5
5856
  8
0
 10
210
 20
13
 30
0.0
 40
0.5
  0
CIRCLE
  5
5864
  8
0
 10
209
 20
15
 30
0.0
 40
0.5
  0
CIRCLE
  5
5872
  8
0
 10
211
 20
15
 30
0.0
 40
0.5
  0
CIRCLE
  5
5880
  8
0
 10
212
 20
13
 30
0.0
 40
0.5
  0
CIRCLE
  5
5888
  8
0
 10
211
 20
11
 30
0.0
 40
0.5
  0
CIRCLE
  5
5896
  8
0
 10
212
 20
9
 30
0.0
 40
0.5
  0
CIRCLE
  5
5904
  8
0
 10
214
 20
9
 30
0.0
 40
0.5
  0
CIRCLE
  5
5912
  8
0
 10
213
 20
11
 30
0.0
 40
0.5
  0
CIRCLE
  5
5920
  8
0
 10
214
 20
13
 30
0.0
 40
0.5
  0
CIRCLE
  5
5928
  8
0
 10
213
 20
15
 30
0.0
 40
0.5
  0
CIRCLE
  5
5936
  8
0
 10
215
 20
15
 30
0.0
 40
0.5
  0
CIRCLE
  5
5944
  8
0
 10
217
 20
15
 30
0.0
 40
0.5
  0
CIRCLE
  5
5952
  8
0
 10
216
 20
13
 30
0.0
 40
0.5
  0
CIRCLE
  5
5960
  8
0
 10
215
 20
11
 30
0.0
 40
0.5
  0
CIRCLE
  5
5968
  8
0
 10
217
 20
11
 30
0.0
 40
0.5
  0
CIRCLE
  5
5976
  8
0
 10
216
 20
9
 30
0.0
 40
0.5
  0
CIRCLE
  5
5984
  8
0
 10
208
 20
17
 30
0.0
 40
0.5
  0
CIRCLE
  5
5992
  8
0
 10
206
 20
17
 30
0.0
 40
0.5
  0
CIRCLE
  5
6000
  8
0
 10
204
 20
17
 30
0.0
 40
0.5
  0
CIRCLE
  5
6008
  8
0
 10
202
 20
17
 30
0.0
 40
0.5
  0
CIRCLE
  5
6016
  8
0
 10
200
 20
17
 30
0.0
 40
0.5
  0
CIRCLE
  5
6024
  8
0
 10
198
 20
17
 30
0.0
 40
0.5
  0
CIRCLE
  5
6032
  8
0
 10
196
 20
17
 30
0.0
 40
0.5
  0
CIRCLE
  5
6040
  8
0
 10
194
 20
17
 30
0.0
 40
0.5
  0
CIRCLE
  5
6048
  8
0
 10
192
 20
17
 30
0.0
 40
0.5
  0
CIRCLE
  5
6056
  8
0
 10
190
 20
17
 30
0.0
 40
0.5
  0
CIRCLE
  5
6064
  8
0
 10
189
 20
19
 30
0.0
 40
0.5
  0
CIRCLE
  5
6072
  8
0
 10
188
 20
17
 30
0.0
 40
0.5
  0
CIRCLE
  5
6080
  8
0
 10
187
 20
19
 30
0.0
 40
0.5
  0
CIRCLE
  5
6088
  8
0
 10
186
 20
17
 30
0.0
 40
0.5
  0
CIRCLE
  5
6096
  8
0
 10
185
 20
19
 30
0.0
 40
0.5
  0
CIRCLE
  5
6104
  8
0
 10
184
 20
17
 30
0.0
 40
0.5
  0
CIRCLE
  5
6112
  8
0
 10
183
 20
19
 30
0.0
 40
0.5
  0
CIRCLE
  5
6120
  8
0
 10
182
 20
17
 30
0.0
 40
0.5
  0
CIRCLE
  5
6128
  8
0
 10
181
 20
19
 30
0.0
 40
0.5
  0
CIRCLE
  5
6136
  8
0
 10
180
 20
17
 30
0.0
 40
0.5
  0
CIRCLE
  5
6144
  8
0
 10
179
 20
19
 30
0.0
 40
0.5
  0
CIRCLE
  5
6152
  8
0
 10
178
 20
17
 30
0.0
 40
0.5
  0
CIRCLE
  5
6160
  8
0
 10
177
 20
19
 30
0.0
 40
0.5
  0
CIRCLE
  5
6168
  8
0
 10
176
 20
17
 30
0.0
 40
0.5
  0
CIRCLE
  5
6176
  8
0
 10
175
 20
19
 30
0.0
 40
0.5
  0
CIRCLE
  5
6184
  8
0
 10
175
 20
17
 30
0.0
 40
0.5
  0
CIRCLE
  5
6192
  8
0
 10
181
 20
15
 30
0.0
 40
0.5
  0
CIRCLE
  5
6200
  8
0
 10
179
 20
15
 30
0.0
 40
0.5
  0
CIRCLE
  5
6208
  8
0
 10
177
 20
15
 30
0.0
 40
0.5
  0
CIRCLE
  5
6216
  8
0
 10
175
 20
15
 30
0.0
 40
0.5
  0
CIRCLE
  5
6224
  8
0
 10
175
 20
13
 30
0.0
 40
0.5
  0
CIRCLE
  5
6232
  8
0
 10
176
 20
13
 30
0.0
 40
0.5
  0
CIRCLE
  5
6240
  8
0
 10
178
 20
13
 30
0.0
 40
0.5
  0
CIRCLE
  5
6248
  8
0
 10
180
 20
13
 30
0.0
 40
0.5
  0
CIRCLE
  5
6256
  8
0
 10
182
 20
13
 30
0.0
 40
0.5
  0
CIRCLE
  5
6264
  8
0
 10
181
 20
11
 30
0.0
 40
0.5
  0
CIRCLE
  5
6272
  8
0
 10
179
 20
11
 30
0.0
 40
0.5
  0
CIRCLE
  5
6280
  8
0
 10
177
 20
11
 30
0.0
 40
0.5
  0
CIRCLE
  5
6288
  8
0
 10
175
 20
11
 30
0.0
 40
0.5
  0
CIRCLE
  5
6296
  8
0
 10
175
 20
9
 30
0.0
 40
0.5
  0
CIRCLE
  5
6304
  8
0
 10
176
 20
9
 30
0.0
 40
0.5
  0
CIRCLE
  5
6312
  8
0
 10
178
 20
9
 30
0.0
 40
0.5
  0
CIRCLE
  5
6320
  8
0
 10
180
 20
9
 30
0.0
 40
0.5
  0
CIRCLE
  5
6328
  8
0
 10
182
 20
9
 30
0.0
 40
0.5
  0
CIRCLE
  5
6336
  8
0
 10
181
 20
7
 30
0.0
 40
0.5
  0
CIRCLE
  5
6344
  8
0
 10
179
 20
7
 30
0.0
 40
0.5
  0
CIRCLE
  5
6352
  8
0
 10
177
 20
7
 30
0.0
 40
0.5
  0
CIRCLE
  5
6360
  8
0
 10
175
 20
7
 30
0.0
 40
0.5
  0
CIRCLE
  5
6368
  8
0
 10
175
 20
5
 30
0.0
 40
0.5
  0
CIRCLE
  5
6376
  8
0
 10
176
 20
5
 30
0.0
 40
0.5
  0
CIRCLE
  5
6384
  8
0
 10
178
 20
5
 30
0.0
 40
0.5
  0
CIRCLE
  5
6392
  8
0
 10
180
 20
5
 30
0.0
 40
0.5
  0
CIRCLE
  5
6400
  8
0
 10
182
 20
5
 30
0.0
 40
0.5
  0
CIRCLE
  5
6408
  8
0
 10
181
 20
3
 30
0.0
 40
0.5
  0
CIRCLE
  5
6416
  8
0
 10
179
 20
3
 30
0.0
 40
0.5
  0
CIRCLE
  5
6424
  8
0
 10
177
 20
3
 30
0.0
 40
0.5
  0
CIRCLE
  5
6432
  8
0
 10
175
 20
3
 30
0.0
 40
0.5
  0
CIRCLE
  5
6440
  8
0
 10
175
 20
1
 30
0.0
 40
0.5
  0
CIRCLE
  5
6448
  8
0
 10
176
 20
1
 30
0.0
 40
0.5
  0
CIRCLE
  5
6456
  8
0
 10
178
 20
1
 30
0.0
 40
0.5
  0
CIRCLE
  5
6464
  8
0
 10
180
 20
1
 30
0.0
 40
0.5
  0
CIRCLE
  5
6472
  8
0
 10
182
 20
1
 30
0.0
 40
0.5
  0
CIRCLE
  5
6480
  8
0
 10
183
 20
7
 30
0.0
 40
0.5
  0
CIRCLE
  5
6488
  8
0
 10
184
 20
5
 30
0.0
 40
0.5
  0
CIRCLE
  5
6496
  8
0
 10
183
 20
3
 30
0.0
 40
0.5
  0
CIRCLE
  5
6504
  8
0
 10
184
 20
1
 30
0.0
 40
0.5
  0
CIRCLE
  5
6512
  8
0
 10
186
 20
1
 30
0.0
 40
0.5
  0
CIRCLE
  5
6520
  8
0
 10
185
 20
3
 30
0.0
 40
0.5
  0
CIRCLE
  5
6528
  8
0
 10
186
 20
5
 30
0.0
 40
0.5
  0
CIRCLE
  5
6536
  8
0
 10
185
 20
7
 30
0.0
 40
0.5
  0
CIRCLE
  5
6544
  8
0
 10
187
 20
7
 30
0.0
 40
0.5
  0
CIRCLE
  5
6552
  8
0
 10
188
 20
5
 30
0.0
 40
0.5
  0
CIRCLE
  5
6560
  8
0
 10
187
 20
3
 30
0.0
 40
0.5
  0
CIRCLE
  5
6568
  8
0
 10
188
 20
1
 30
0.0
 40
0.5
  0
CIRCLE
  5
6576
  8
0
 10
190
 20
1
 30
0.0
 40
0.5
  0
CIRCLE
  5
6584
  8
0
 10
189
 20
3
 30
0.0
 40
0.5
  0
CIRCLE
  5
6592
  8
0
 10
190
 20
5
 30
0.0
 40
0.5
  0
CIRCLE
  5
6600
  8
0
 10
189
 20
7
 30
0.0
 40
0.5
  0
CIRCLE
  5
6608
  8
0
 10
191
 20
7
 30
0.0
 40
0.5
  0
CIRCLE
  5
6616
  8
0
 10
192
 20
5
 30
0.0
 40
0.5
  0
CIRCLE
  5
6624
  8
0
 10
191
 20
3
 30
0.0
 40
0.5
  0
CIRCLE
  5
6632
  8
0
 10
192
 20
1
 30
0.0
 40
0.5
  0
CIRCLE
  5
6640
  8
0
 10
194
 20
1
 30
0.0
 40
0.5
  0
CIRCLE
  5
6648
  8
0
 10
193
 20
3
 30
0.0
 40
0.5
  0
CIRCLE
  5
6656
  8
0
 10
194
 20
5
 30
0.0
 40
0.5
  0
CIRCLE
  5
6664
  8
0
 10
193
 20
7
 30
0.0
 40
0.5
  0
CIRCLE
  5
6672
  8
0
 10
195
 20
7
 30
0.0
 40
0.5
  0
CIRCLE
  5
6680
  8
0
 10
196
 20
5
 30
0.0
 40
0.5
  0
CIRCLE
  5
6688
  8
0
 10
195
 20
3
 30
0.0
 40
0.5
  0
CIRCLE
  5
6696
  8
0
 10
196
 20
1
 30
0.0
 40
0.5
  0
CIRCLE
  5
6704
  8
0
 10
198
 20
1
 30
0.0
 40
0.5
  0
CIRCLE
  5
6712
  8
0
 10
197
 20
3
 30
0.0
 40
0.5
  0
CIRCLE
  5
6720
  8
0
 10
198
 20
5
 30
0.0
 40
0.5
  0
CIRCLE
  5
6728
  8
0
 10
197
 20
7
 30
0.0
 40
0.5
  0
CIRCLE
  5
6736
  8
0
 10
199
 20
7
 30
0.0
 40
0.5
  0
CIRCLE
  5
6744
  8
0
 10
201
 20
7
 30
0.0
 40
0.5
  0
CIRCLE
  5
6752
  8
0
 10
200
 20
5
 30
0.0
 40
0.5
  0
CIRCLE
  5
6760
  8
0
 10
201
 20
3
 30
0.0
 40
0.5
  0
CIRCLE
  5
6768
  8
0
 10
199
 20
3
 30
0.0
 40
0.5
  0
CIRCLE
  5
6776
  8
0
 10
200
 20
1
 30
0.0
 40
0.5
  0
CIRCLE
  5
6784
  8
0
 10
202
 20
1
 30
0.0
 40
0.5
  0
CIRCLE
  5
6792
  8
0
 10
203
 20
3
 30
0.0
 40
0.5
  0
CIRCLE
  5
6800
  8
0
 10
202
 20
5
 30
0.0
 40
0.5
  0
CIRCLE
  5
6808
  8
0
 10
203
 20
7
 30
0.0
 40
0.5
  0
CIRCLE
  5
6816
  8
0
 10
205
 20
7
 30
0.0
 40
0.5
  0
CIRCLE
  5
6824
  8
0
 10
204
 20
5
 30
0.0
 40
0.5
  0
CIRCLE
  5
6832
  8
0
 10
205
 20
3
 30
0.0
 40
0.5
  0
CIRCLE
  5
6840
  8
0
 10
204
 20
1
 30
0.0
 40
0.5
  0
CIRCLE
  5
6848
  8
0
 10
206
 20
1
 30
0.0
 40
0.5
  0
CIRCLE
  5
6856
  8
0
 10
207
 20
3
 30
0.0
 40
0.5
  0
CIRCLE
  5
6864
  8
0
 10
206
 20
5
 30
0.0
 40
0.5
  0
CIRCLE
  5
6872
  8
0
 10
207
 20
7
 30
0.0
 40
0.5
  0
CIRCLE
  5
6880
  8
0
 10
209
 20
7
 30
0.0
 40
0.5
  0
CIRCLE
  5
6888
  8
0
 10
208
 20
5
 30
0.0
 40
0.5
  0
CIRCLE
  5
6896
  8
0
 10
209
 20
3
 30
0.0
 40
0.5
  0
CIRCLE
  5
6904
  8
0
 10
208
 20
1
 30
0.0
 40
0.5
  0
CIRCLE
  5
6912
  8
0
 10
210
 20
1
 30
0.0
 40
0.5
  0
CIRCLE
  5
6920
  8
0
 10
211
 20
3
 30
0.0
 40
0.5
  0
CIRCLE
  5
6928
  8
0
 10
210
 20
5
 30
0.0
 40
0.5
  0
CIRCLE
  5
6936
  8
0
 10
211
 20
7
 30
0.0
 40
0.5
  0
CIRCLE
  5
6944
  8
0
 10
213
 20
7
 30
0.0
 40
0.5
  0
CIRCLE
  5
6952
  8
0
 10
212
 20
5
 30
0.0
 40
0.5
  0
CIRCLE
  5
6960
  8
0
 10
213
 20
3
 30
0.0
 40
0.5
  0
CIRCLE
  5
6968
  8
0
 10
212
 20
1
 30
0.0
 40
0.5
  0
CIRCLE
  5
6976
  8
0
 10
214
 20
1
 30
0.0
 40
0.5
  0
CIRCLE
  5
6984
  8
0
 10
215
 20
3
 30
0.0
 40
0.5
  0
CIRCLE
  5
6992
  8
0
 10
214
 20
5
 30
0.0
 40
0.5
  0
CIRCLE
  5
7000
  8
0
 10
215
 20
7
 30
0.0
 40
0.5
  0
CIRCLE
  5
7008
  8
0
 10
217
 20
7
 30
0.0
 40
0.5
  0
CIRCLE
  5
7016
  8
0
 10
216
 20
5
 30
0.0
 40
0.5
  0
CIRCLE
  5
7024
  8
0
 10
217
 20
3
 30
0.0
 40
0.5
  0
CIRCLE
  5
7032
  8
0
 10
216
 20
1
 30
0.0
 40
0.5
  0
CIRCLE
  5
7040
  8
0
 10
219
 20
1
 30
0.0
 40
0.5
  0
CIRCLE
  5
7048
  8
0
 10
220
 20
1
 30
0.0
 40
0.5
  0
CIRCLE
  5
7056
  8
0
 10
221
 20
1
 30
0.0
 40
0.5
  0
CIRCLE
  5
7064
  8
0
 10
222
 20
1
 30
0.0
 40
0.5
  0
CIRCLE
  5
7072
  8
0
 10
223
 20
1
 30
0.0
 40
0.5
  0
CIRCLE
  5
7080
  8
0
 10
224
 20
1
 30
0.0
 40
0.5
  0
CIRCLE
  5
7088
  8
0
 10
225
 20
1
 30
0.0
 40
0.5
  0
CIRCLE
  5
7096
  8
0
 10
226
 20
1
 30
0.0
 40
0.5
  0
CIRCLE
  5
7104
  8
0
 10
227
 20
1
 30
0.0
 40
0.5
  0
CIRCLE
  5
7112
  8
0
 10
228
 20
1
 30
0.0
 40
0.5
  0
CIRCLE
  5
7120
  8
0
 10
229
 20
1
 30
0.0
 40
0.5
  0
CIRCLE
  5
7128
  8
0
 10
230
 20
1
 30
0.0
 40
0.5
  0
CIRCLE
  5
7136
  8
0
 10
231
 20
0
 30
0.0
 40
0.5
  0
CIRCLE
  5
7144
  8
0
 10
232
 20
0
 30
0.0
 40
0.5
  0
CIRCLE
  5
7152
  8
0
 10
233
 20
0
 30
0.0
 40
0.5
  0
CIRCLE
  5
7160
  8
0
 10
234
 20
0
 30
0.0
 40
0.5
  0
CIRCLE
  5
7168
  8
0
 10
235
 20
0
 30
0.0
 40
0.5
  0
CIRCLE
  5
7176
  8
0
 10
236
 20
0
 30
0.0
 40
0.5
  0
CIRCLE
  5
7184
  8
0
 10
237
 20
0
 30
0.0
 40
0.5
  0
CIRCLE
  5
7192
  8
0
 10
238
 20
0
 30
0.0
 40
0.5
  0
CIRCLE
  5
7200
  8
0
 10
239
 20
0
 30
0.0
 40
0.5
  0
CIRCLE
  5
7208
  8
0
 10
240
 20
0
 30
0.0
 40
0.5
  0
CIRCLE
  5
7216
  8
0
 10
241
 20
0
 30
0.0
 40
0.5
  0
CIRCLE
  5
7224
  8
0
 10
242
 20
0
 30
0.0
 40
0.5
  0
CIRCLE
  5
7232
  8
0
 10
243
 20
0
 30
0.0
 40
0.5
  0
CIRCLE
  5
7240
  8
0
 10
242
 20
3
 30
0.0
 40
0.5
  0
CIRCLE
  5
7248
  8
0
 10
241
 20
3
 30
0.0
 40
0.5
  0
CIRCLE
  5
7256
  8
0
 10
240
 20
3
 30
0.0
 40
0.5
  0
CIRCLE
  5
7264
  8
0
 10
239
 20
3
 30
0.0
 40
0.5
  0
CIRCLE
  5
7272
  8
0
 10
238
 20
3
 30
0.0
 40
0.5
  0
CIRCLE
  5
7280
  8
0
 10
237
 20
3
 30
0.0
 40
0.5
  0
CIRCLE
  5
7288
  8
0
 10
236
 20
3
 30
0.0
 40
0.5
  0
CIRCLE
  5
7296
  8
0
 10
235
 20
3
 30
0.0
 40
0.5
  0
CIRCLE
  5
7304
  8
0
 10
234
 20
3
 30
0.0
 40
0.5
  0
CIRCLE
  5
7312
  8
0
 10
233
 20
3
 30
0.0
 40
0.5
  0
CIRCLE
  5
7320
  8
0
 10
232
 20
3
 30
0.0
 40
0.5
  0
CIRCLE
  5
7328
  8
0
 10
231
 20
3
 30
0.0
 40
0.5
  0
CIRCLE
  5
7336
  8
0
 10
230
 20
3
 30
0.0
 40
0.5
  0
CIRCLE
  5
7344
  8
0
 10
229
 20
3
 30
0.0
 40
0.5
  0
CIRCLE
  5
7352
  8
0
 10
228
 20
3
 30
0.0
 40
0.5
  0
CIRCLE
  5
7360
  8
0
 10
227
 20
3
 30
0.0
 40
0.5
  0
CIRCLE
  5
7368
  8
0
 10
226
 20
3
 30
0.0
 40
0.5
  0
CIRCLE
  5
7376
  8
0
 10
225
 20
3
 30
0.0
 40
0.5
  0
CIRCLE
  5
7384
  8
0
 10
224
 20
3
 30
0.0
 40
0.5
  0
CIRCLE
  5
7392
  8
0
 10
223
 20
3
 30
0.0
 40
0.5
  0
CIRCLE
  5
7400
  8
0
 10
222
 20
3
 30
0.0
 40
0.5
  0
CIRCLE
  5
7408
  8
0
 10
221
 20
3
 30
0.0
 40
0.5
  0
CIRCLE
  5
7416
  8
0
 10
220
 20
3
 30
0.0
 40
0.5
  0
CIRCLE
  5
7424
  8
0
 10
219
 20
3
 30
0.0
 40
0.5
  0
CIRCLE
  5
7432
  8
0
 10
219
 20
5
 30
0.0
 40
0.5
  0
CIRCLE
  5
7440
  8
0
 10
220
 20
5
 30
0.0
 40
0.5
  0
CIRCLE
  5
7448
  8
0
 10
221
 20
5
 30
0.0
 40
0.5
  0
CIRCLE
  5
7456
  8
0
 10
222
 20
5
 30
0.0
 40
0.5
  0
CIRCLE
  5
7464
  8
0
 10
223
 20
5
 30
0.0
 40
0.5
  0
CIRCLE
  5
7472
  8
0
 10
224
 20
5
 30
0.0
 40
0.5
  0
CIRCLE
  5
7480
  8
0
 10
225
 20
5
 30
0.0
 40
0.5
  0
CIRCLE
  5
7488
  8
0
 10
226
 20
5
 30
0.0
 40
0.5
  0
CIRCLE
  5
7496
  8
0
 10
227
 20
5
 30
0.0
 40
0.5
  0
CIRCLE
  5
7504
  8
0
 10
228
 20
5
 30
0.0
 40
0.5
  0
CIRCLE
  5
7512
  8
0
 10
229
 20
5
 30
0.0
 40
0.5
  0
CIRCLE
  5
7520
  8
0
 10
230
 20
5
 30
0.0
 40
0.5
  0
CIRCLE
  5
7528
  8
0
 10
231
 20
5
 30
0.0
 40
0.5
  0
CIRCLE
  5
7536
  8
0
 10
232
 20
5
 30
0.0
 40
0.5
  0
CIRCLE
  5
7544
  8
0
 10
233
 20
5
 30
0.0
 40
0.5
  0
CIRCLE
  5
7552
  8
0
 10
234
 20
5
 30
0.0
 40
0.5
  0
CIRCLE
  5
7560
  8
0
 10
235
 20
5
 30
0.0
 40
0.5
  0
CIRCLE
  5
7568
  8
0
 10
236
 20
5
 30
0.0
 40
0.5
  0
CIRCLE
  5
7576
  8
0
 10
237
 20
5
 30
0.0
 40
0.5
  0
CIRCLE
  5
7584
  8
0
 10
238
 20
5
 30
0.0
 40
0.5
  0
CIRCLE
  5
7592
  8
0
 10
239
 20
5
 30
0.0
 40
0.5
  0
CIRCLE
  5
7600
  8
0
 10
240
 20
5
 30
0.0
 40
0.5
  0
CIRCLE
  5
7608
  8
0
 10
241
 20
5
 30
0.0
 40
0.5
  0
CIRCLE
  5
7616
  8
0
 10
239
 20
8
 30
0.0
 40
0.5
  0
CIRCLE
  5
7624
  8
0
 10
238
 20
8
 30
0.0
 40
0.5
  0
CIRCLE
  5
7632
  8
0
 10
237
 20
8
 30
0.0
 40
0.5
  0
CIRCLE
  5
7640
  8
0
 10
236
 20
8
 30
0.0
 40
0.5
  0
CIRCLE
  5
7648
  8
0
 10
235
 20
8
 30
0.0
 40
0.5
  0
CIRCLE
  5
7656
  8
0
 10
234
 20
7
 30
0.0
 40
0.5
  0
CIRCLE
  5
7664
  8
0
 10
233
 20
7
 30
0.0
 40
0.5
  0
CIRCLE
  5
7672
  8
0
 10
232
 20
7
 30
0.0
 40
0.5
  0
CIRCLE
  5
7680
  8
0
 10
231
 20
7
 30
0.0
 40
0.5
  0
CIRCLE
  5
7688
  8
0
 10
230
 20
7
 30
0.0
 40
0.5
  0
CIRCLE
  5
7696
  8
0
 10
229
 20
7
 30
0.0
 40
0.5
  0
CIRCLE
  5
7704
  8
0
 10
228
 20
7
 30
0.0
 40
0.5
  0
CIRCLE
  5
7712
  8
0
 10
227
 20
7
 30
0.0
 40
0.5
  0
CIRCLE
  5
7720
  8
0
 10
226
 20
7
 30
0.0
 40
0.5
  0
CIRCLE
  5
7728
  8
0
 10
225
 20
7
 30
0.0
 40
0.5
  0
CIRCLE
  5
7736
  8
0
 10
224
 20
7
 30
0.0
 40
0.5
  0
CIRCLE
  5
7744
  8
0
 10
223
 20
7
 30
0.0
 40
0.5
  0
CIRCLE
  5
7752
  8
0
 10
222
 20
7
 30
0.0
 40
0.5
  0
CIRCLE
  5
7760
  8
0
 10
221
 20
7
 30
0.0
 40
0.5
  0
CIRCLE
  5
7768
  8
0
 10
220
 20
7
 30
0.0
 40
0.5
  0
CIRCLE
  5
7776
  8
0
 10
219
 20
7
 30
0.0
 40
0.5
  0
CIRCLE
  5
7784
  8
0
 10
219
 20
9
 30
0.0
 40
0.5
  0
CIRCLE
  5
7792
  8
0
 10
220
 20
9
 30
0.0
 40
0.5
  0
CIRCLE
  5
7800
  8
0
 10
221
 20
9
 30
0.0
 40
0.5
  0
CIRCLE
  5
7808
  8
0
 10
222
 20
9
 30
0.0
 40
0.5
  0
CIRCLE
  5
7816
  8
0
 10
223
 20
9
 30
0.0
 40
0.5
  0
CIRCLE
  5
7824
  8
0
 10
224
 20
9
 30
0.0
 40
0.5
  0
CIRCLE
  5
7832
  8
0
 10
225
 20
9
 30
0.0
 40
0.5
  0
CIRCLE
  5
7840
  8
0
 10
226
 20
9
 30
0.0
 40
0.5
  0
CIRCLE
  5
7848
  8
0
 10
227
 20
10
 30
0.0
 40
0.5
  0
CIRCLE
  5
7856
  8
0
 10
228
 20
10
 30
0.0
 40
0.5
  0
CIRCLE
  5
7864
  8
0
 10
229
 20
10
 30
0.0
 40
0.5
  0
CIRCLE
  5
7872
  8
0
 10
230
 20
10
 30
0.0
 40
0.5
  0
CIRCLE
  5
7880
  8
0
 10
231
 20
10
 30
0.0
 40
0.5
  0
CIRCLE
  5
7888
  8
0
 10
232
 20
10
 30
0.0
 40
0.5
  0
CIRCLE
  5
7896
  8
0
 10
233
 20
10
 30
0.0
 40
0.5
  0
CIRCLE
  5
7904
  8
0
 10
234
 20
10
 30
0.0
 40
0.5
  0
CIRCLE
  5
7912
  8
0
 10
235
 20
11
 30
0.0
 40
0.5
  0
CIRCLE
  5
7920
  8
0
 10
236
 20
11
 30
0.0
 40
0.5
  0
CIRCLE
  5
7928
  8
0
 10
237
 20
11
 30
0.0
 40
0.5
  0
CIRCLE
  5
7936
  8
0
 10
238
 20
11
 30
0.0
 40
0.5
  0
CIRCLE
  5
7944
  8
0
 10
239
 20
11
 30
0.0
 40
0.5
  0
CIRCLE
  5
7952
  8
0
 10
240
 20
11
 30
0.0
 40
0.5
  0
CIRCLE
  5
7960
  8
0
 10
241
 20
11
 30
0.0
 40
0.5
  0
CIRCLE
  5
7968
  8
0
 10
242
 20
11
 30
0.0
 40
0.5
  0
CIRCLE
  5
7976
  8
0
 10
244
 20
14
 30
0.0
 40
0.5
  0
CIRCLE
  5
7984
  8
0
 10
243
 20
14
 30
0.0
 40
0.5
  0
CIRCLE
  5
7992
  8
0
 10
242
 20
13
 30
0.0
 40
0.5
  0
CIRCLE
  5
8000
  8
0
 10
241
 20
13
 30
0.0
 40
0.5
  0
CIRCLE
  5
8008
  8
0
 10
240
 20
13
 30
0.0
 40
0.5
  0
CIRCLE
  5
8016
  8
0
 10
239
 20
13
 30
0.0
 40
0.5
  0
CIRCLE
  5
8024
  8
0
 10
238
 20
13
 30
0.0
 40
0.5
  0
CIRCLE
  5
8032
  8
0
 10
237
 20
13
 30
0.0
 40
0.5
  0
CIRCLE
  5
8040
  8
0
 10
236
 20
13
 30
0.0
 40
0.5
  0
CIRCLE
  5
8048
  8
0
 10
235
 20
13
 30
0.0
 40
0.5
  0
CIRCLE
  5
8056
  8
0
 10
234
 20
12
 30
0.0
 40
0.5
  0
CIRCLE
  5
8064
  8
0
 10
233
 20
12
 30
0.0
 40
0.5
  0
CIRCLE
  5
8072
  8
0
 10
232
 20
12
 30
0.0
 40
0.5
  0
CIRCLE
  5
8080
  8
0
 10
231
 20
12
 30
0.0
 40
0.5
  0
CIRCLE
  5
8088
  8
0
 10
230
 20
12
 30
0.0
 40
0.5
  0
CIRCLE
  5
8096
  8
0
 10
229
 20
12
 30
0.0
 40
0.5
  0
CIRCLE
  5
8104
  8
0
 10
228
 20
12
 30
0.0
 40
0.5
  0
CIRCLE
  5
8112
  8
0
 10
227
 20
12
 30
0.0
 40
0.5
  0
CIRCLE
  5
8120
  8
0
 10
226
 20
11
 30
0.0
 40
0.5
  0
CIRCLE
  5
8128
  8
0
 10
225
 20
11
 30
0.0
 40
0.5
  0
CIRCLE
  5
8136
  8
0
 10
224
 20
11
 30
0.0
 40
0.5
  0
CIRCLE
  5
8144
  8
0
 10
223
 20
11
 30
0.0
 40
0.5
  0
CIRCLE
  5
8152
  8
0
 10
222
 20
11
 30
0.0
 40
0.5
  0
CIRCLE
  5
8160
  8
0
 10
221
 20
11
 30
0.0
 40
0.5
  0
CIRCLE
  5
8168
  8
0
 10
220
 20
11
 30
0.0
 40
0.5
  0
CIRCLE
  5
8176
  8
0
 10
219
 20
11
 30
0.0
 40
0.5
  0
CIRCLE
  5
8184
  8
0
 10
219
 20
13
 30
0.0
 40
0.5
  0
CIRCLE
  5
8192
  8
0
 10
220
 20
13
 30
0.0
 40
0.5
  0
CIRCLE
  5
8200
  8
0
 10
221
 20
13
 30
0.0
 40
0.5
  0
CIRCLE
  5
8208
  8
0
 10
222
 20
13
 30
0.0
 40
0.5
  0
CIRCLE
  5
8216
  8
0
 10
223
 20
13
 30
0.0
 40
0.5
  0
CIRCLE
  5
8224
  8
0
 10
224
 20
13
 30
0.0
 40
0.5
  0
CIRCLE
  5
8232
  8
0
 10
225
 20
13
 30
0.0
 40
0.5
  0
CIRCLE
  5
8240
  8
0
 10
226
 20
13
 30
0.0
 40
0.5
  0
CIRCLE
  5
8248
  8
0
 10
227
 20
14
 30
0.0
 40
0.5
  0
CIRCLE
  5
8256
  8
0
 10
228
 20
14
 30
0.0
 40
0.5
  0
CIRCLE
  5
8264
  8
0
 10
229
 20
14
 30
0.0
 40
0.5
  0
CIRCLE
  5
8272
  8
0
 10
230
 20
14
 30
0.0
 40
0.5
  0
CIRCLE
  5
8280
  8
0
 10
231
 20
14
 30
0.0
 40
0.5
  0
CIRCLE
  5
8288
  8
0
 10
232
 20
14
 30
0.0
 40
0.5
  0
CIRCLE
  5
8296
  8
0
 10
233
 20
14
 30
0.0
 40
0.5
  0
CIRCLE
  5
8304
  8
0
 10
234
 20
14
 30
0.0
 40
0.5
  0
CIRCLE
  5
8312
  8
0
 10
235
 20
15
 30
0.0
 40
0.5
  0
CIRCLE
  5
8320
  8
0
 10
236
 20
15
 30
0.0
 40
0.5
  0
CIRCLE
  5
8328
  8
0
 10
237
 20
15
 30
0.0
 40
0.5
  0
CIRCLE
  5
8336
  8
0
 10
238
 20
15
 30
0.0
 40
0.5
  0
CIRCLE
  5
8344
  8
0
 10
239
 20
15
 30
0.0
 40
0.5
  0
CIRCLE
  5
8352
  8
0
 10
240
 20
15
 30
0.0
 40
0.5
  0
CIRCLE
  5
8360
  8
0
 10
241
 20
15
 30
0.0
 40
0.5
  0
CIRCLE
  5
8368
  8
0
 10
242
 20
15
 30
0.0
 40
0.5
  0
CIRCLE
  5
8376
  8
0
 10
243
 20
16
 30
0.0
 40
0.5
  0
CIRCLE
  5
8384
  8
0
 10
244
 20
16
 30
0.0
 40
0.5
  0
CIRCLE
  5
8392
  8
0
 10
245
 20
16
 30
0.0
 40
0.5
  0
CIRCLE
  5
8400
  8
0
 10
246
 20
16
 30
0.0
 40
0.5
  0
CIRCLE
  5
8408
  8
0
 10
248
 20
18
 30
0.0
 40
0.5
  0
CIRCLE
  5
8416
  8
0
 10
248
 20
19
 30
0.0
 40
0.5
  0
CIRCLE
  5
8424
  8
0
 10
247
 20
19
 30
0.0
 40
0.5
  0
CIRCLE
  5
8432
  8
0
 10
246
 20
19
 30
0.0
 40
0.5
  0
CIRCLE
  5
8440
  8
0
 10
245
 20
18
 30
0.0
 40
0.5
  0
CIRCLE
  5
8448
  8
0
 10
244
 20
18
 30
0.0
 40
0.5
  0
CIRCLE
  5
8456
  8
0
 10
243
 20
18
 30
0.0
 40
0.5
  0
CIRCLE
  5
8464
  8
0
 10
242
 20
18
 30
0.0
 40
0.5
  0
CIRCLE
  5
8472
  8
0
 10
241
 20
17
 30
0.0
 40
0.5
  0
CIRCLE
  5
8480
  8
0
 10
240
 20
17
 30
0.0
 40
0.5
  0
CIRCLE
  5
8488
  8
0
 10
239
 20
17
 30
0.0
 40
0.5
  0
CIRCLE
  5
8496
  8
0
 10
238
 20
17
 30
0.0
 40
0.5
  0
CIRCLE
  5
8504
  8
0
 10
237
 20
17
 30
0.0
 40
0.5
  0
CIRCLE
  5
8512
  8
0
 10
236
 20
17
 30
0.0
 40
0.5
  0
CIRCLE
  5
8520
  8
0
 10
235
 20
17
 30
0.0
 40
0.5
  0
CIRCLE
  5
8528
  8
0
 10
234
 20
16
 30
0.0
 40
0.5
  0
CIRCLE
  5
8536
  8
0
 10
233
 20
16
 30
0.0
 40
0.5
  0
CIRCLE
  5
8544
  8
0
 10
232
 20
16
 30
0.0
 40
0.5
  0
CIRCLE
  5
8552
  8
0
 10
231
 20
16
 30
0.0
 40
0.5
  0
CIRCLE
  5
8560
  8
0
 10
230
 20
16
 30
0.0
 40
0.5
  0
CIRCLE
  5
8568
  8
0
 10
229
 20
16
 30
0.0
 40
0.5
  0
CIRCLE
  5
8576
  8
0
 10
228
 20
16
 30
0.0
 40
0.5
  0
CIRCLE
  5
8584
  8
0
 10
227
 20
16
 30
0.0
 40
0.5
  0
CIRCLE
  5
8592
  8
0
 10
226
 20
15
 30
0.0
 40
0.5
  0
CIRCLE
  5
8600
  8
0
 10
225
 20
15
 30
0.0
 40
0.5
  0
CIRCLE
  5
8608
  8
0
 10
224
 20
15
 30
0.0
 40
0.5
  0
CIRCLE
  5
8616
  8
0
 10
223
 20
15
 30
0.0
 40
0.5
  0
CIRCLE
  5
8624
  8
0
 10
222
 20
15
 30
0.0
 40
0.5
  0
CIRCLE
  5
8632
  8
0
 10
221
 20
15
 30
0.0
 40
0.5
  0
CIRCLE
  5
8640
  8
0
 10
220
 20
15
 30
0.0
 40
0.5
  0
CIRCLE
  5
8648
  8
0
 10
219
 20
15
 30
0.0
 40
0.5
  0
LINE
  5
8649
  8
0
 10
138
 20
18
 30
0.0
 11
137
 21
20
 31
0.0
  0
LINE
  5
8650
  8
0
 10
137
 20
20
 30
0.0
 11
136
 21
18
 31
0.0
  0
LINE
  5
8651
  8
0
 10
136
 20
18
 30
0.0
 11
135
 21
20
 31
0.0
  0
LINE
  5
8652
  8
0
 10
135
 20
20
 30
0.0
 11
134
 21
18
 31
0.0
  0
LINE
  5
8653
  8
0
 10
134
 20
18
 30
0.0
 11
135
 21
16
 31
0.0
  0
LINE
  5
8654
  8
0
 10
135
 20
16
 30
0.0
 11
137
 21
16
 31
0.0
  0
LINE
  5
8655
  8
0
 10
137
 20
16
 30
0.0
 11
138
 21
14
 31
0.0
  0
LINE
  5
8656
  8
0
 10
138
 20
14
 30
0.0
 11
136
 21
14
 31
0.0
  0
LINE
  5
8657
  8
0
 10
136
 20
14
 30
0.0
 11
134
 21
14
 31
0.0
  0
LINE
  5
8658
  8
0
 10
134
 20
14
 30
0.0
 11
133
 21
16
 31
0.0
  0
LINE
  5
8659
  8
0
 10
133
 20
16
 30
0.0
 11
132
 21
14
 31
0.0
  0
LINE
  5
8660
  8
0
 10
132
 20
14
 30
0.0
 11
131
 21
15
 31
0.0
  0
LINE
  5
8661
  8
0
 10
131
 20
15
 30
0.0
 11
130
 21
15
 31
0.0
  0
LINE
  5
8662
  8
0
 10
130
 20
15
 30
0.0
 11
131
 21
18
 31
0.0
  0
LINE
  5
8663
  8
0
 10
131
 20
18
 30
0.0
 11
132
 21
18
 31
0.0
  0
LINE
  5
8664
  8
0
 10
132
 20
18
 30
0.0
 11
133
 21
20
 31
0.0
  0
LINE
  5
8665
  8
0
 10
133
 20
20
 30
0.0
 11
130
 21
18
 31
0.0
  0
LINE
  5
8666
  8
0
 10
130
 20
18
 30
0.0
 11
131
 21
20
 31
0.0
  0
LINE
  5
8667
  8
0
 10
131
 20
20
 30
0.0
 11
129
 21
20
 31
0.0
  0
LINE
  5
8668
  8
0
 10
129
 20
20
 30
0.0
 11
128
 21
20
 31
0.0
  0
LINE
  5
8669
  8
0
 10
128
 20
20
 30
0.0
 11
127
 21
20
 31
0.0
  0
LINE
  5
8670
  8
0
 10
127
 20
20
 30
0.0
 11
125
 21
20
 31
0.0
  0
LINE
  5
8671
  8
0
 10
125
 20
20
 30
0.0
 11
126
 21
18
 31
0.0
  0
LINE
  5
8672
  8
0
 10
126
 20
18
 30
0.0
 11
125
 21
16
 31
0.0
  0
LINE
  5
8673
  8
0
 10
125
 20
16
 30
0.0
 11
125
 21
15
 31
0.0
  0
LINE
  5
8674
  8
0
 10
125
 20
15
 30
0.0
 11
123
 21
20
 31
0.0
  0
LINE
  5
8675
  8
0
 10
123
 20
20
 30
0.0
 11
122
 21
20
 31
0.0
  0
LINE
  5
8676
  8
0
 10
122
 20
20
 30
0.0
 11
121
 21
20
 31
0.0
  0
LINE
  5
8677
  8
0
 10
121
 20
20
 30
0.0
 11
120
 21
18
 31
0.0
  0
LINE
  5
8678
  8
0
 10
120
 20
18
 30
0.0
 11
119
 21
20
 31
0.0
  0
LINE
  5
8679
  8
0
 10
119
 20
20
 30
0.0
 11
117
 21
20
 31
0.0
  0
LINE
  5
8680
  8
0
 10
117
 20
20
 30
0.0
 11
116
 21
18
 31
0.0
  0
LINE
  5
8681
  8
0
 10
116
 20
18
 30
0.0
 11
118
 21
18
 31
0.0
  0
LINE
  5
8682
  8
0
 10
118
 20
18
 30
0.0
 11
118
 21
16
 31
0.0
  0
LINE
  5
8683
  8
0
 10
118
 20
16
 30
0.0
 11
120
 21
15
 31
0.0
  0
LINE
  5
8684
  8
0
 10
120
 20
15
 30
0.0
 11
116
 21
16
 31
0.0
  0
LINE
  5
8685
  8
0
 10
116
 20
16
 30
0.0
 11
114
 21
16
 31
0.0
  0
LINE
  5
8686
  8
0
 10
114
 20
16
 30
0.0
 11
115
 21
14
 31
0.0
  0
LINE
  5
8687
  8
0
 10
115
 20
14
 30
0.0
 11
113
 21
14
 31
0.0
  0
LINE
  5
8688
  8
0
 10
113
 20
14
 30
0.0
 11
111
 21
14
 31
0.0
  0
LINE
  5
8689
  8
0
 10
111
 20
14
 30
0.0
 11
112
 21
16
 31
0.0
  0
LINE
  5
8690
  8
0
 10
112
 20
16
 30
0.0
 11
111
 21
18
 31
0.0
  0
LINE
  5
8691
  8
0
 10
111
 20
18
 30
0.0
 11
113
 21
18
 31
0.0
  0
LINE
  5
8692
  8
0
 10
113
 20
18
 30
0.0
 11
114
 21
20
 31
0.0
  0
LINE
  5
8693
  8
0
 10
114
 20
20
 30
0.0
 11
112
 21
20
 31
0.0
  0
LINE
  5
8694
  8
0
 10
112
 20
20
 30
0.0
 11
110
 21
20
 31
0.0
  0
LINE
  5
8695
  8
0
 10
110
 20
20
 30
0.0
 11
108
 21
20
 31
0.0
  0
LINE
  5
8696
  8
0
 10
108
 20
20
 30
0.0
 11
106
 21
20
 31
0.0
  0
LINE
  5
8697
  8
0
 10
106
 20
20
 30
0.0
 11
107
 21
18
 31
0.0
  0
LINE
  5
8698
  8
0
 10
107
 20
18
 30
0.0
 11
109
 21
18
 31
0.0
  0
LINE
  5
8699
  8
0
 10
109
 20
18
 30
0.0
 11
110
 21
16
 31
0.0
  0
LINE
  5
8700
  8
0
 10
110
 20
16
 30
0.0
 11
108
 21
16
 31
0.0
  0
LINE
  5
8701
  8
0
 10
108
 20
16
 30
0.0
 11
106
 21
16
 31
0.0
  0
LINE
  5
8702
  8
0
 10
106
 20
16
 30
0.0
 11
107
 21
14
 31
0.0
  0
LINE
  5
8703
  8
0
 10
107
 20
14
 30
0.0
 11
109
 21
14
 31
0.0
  0
LINE
  5
8704
  8
0
 10
109
 20
14
 30
0.0
 11
110
 21
12
 31
0.0
  0
LINE
  5
8705
  8
0
 10
110
 20
12
 30
0.0
 11
108
 21
12
 31
0.0
  0
LINE
  5
8706
  8
0
 10
108
 20
12
 30
0.0
 11
106
 21
12
 31
0.0
  0
LINE
  5
8707
  8
0
 10
106
 20
12
 30
0.0
 11
104
 21
12
 31
0.0
  0
LINE
  5
8708
  8
0
 10
104
 20
12
 30
0.0
 11
102
 21
12
 31
0.0
  0
LINE
  5
8709
  8
0
 10
102
 20
12
 30
0.0
 11
100
 21
12
 31
0.0
  0
LINE
  5
8710
  8
0
 10
100
 20
12
 30
0.0
 11
98
 21
12
 31
0.0
  0
LINE
  5
8711
  8
0
 10
98
 20
12
 30
0.0
 11
96
 21
12
 31
0.0
  0
LINE
  5
8712
  8
0
 10
96
 20
12
 30
0.0
 11
94
 21
12
 31
0.0
  0
LINE
  5
8713
  8
0
 10
94
 20
12
 30
0.0
 11
92
 21
12
 31
0.0
  0
LINE
  5
8714
  8
0
 10
92
 20
12
 30
0.0
 11
90
 21
12
 31
0.0
  0
LINE
  5
8715
  8
0
 10
90
 20
12
 30
0.0
 11
91
 21
14
 31
0.0
  0
LINE
  5
8716
  8
0
 10
91
 20
14
 30
0.0
 11
93
 21
14
 31
0.0
  0
LINE
  5
8717
  8
0
 10
93
 20
14
 30
0.0
 11
95
 21
14
 31
0.0
  0
LINE
  5
8718
  8
0
 10
95
 20
14
 30
0.0
 11
97
 21
14
 31
0.0
  0
LINE
  5
8719
  8
0
 10
97
 20
14
 30
0.0
 11
99
 21
14
 31
0.0
  0
LINE
  5
8720
  8
0
 10
99
 20
14
 30
0.0
 11
101
 21
14
 31
0.0
  0
LINE
  5
8721
  8
0
 10
101
 20
14
 30
0.0
 11
103
 21
14
 31
0.0
  0
LINE
  5
8722
  8
0
 10
103
 20
14
 30
0.0
 11
105
 21
14
 31
0.0
  0
LINE
  5
8723
  8
0
 10
105
 20
14
 30
0.0
 11
104
 21
16
 31
0.0
  0
LINE
  5
8724
  8
0
 10
104
 20
16
 30
0.0
 11
102
 21
16
 31
0.0
  0
LINE
  5
8725
  8
0
 10
102
 20
16
 30
0.0
 11
100
 21
16
 31
0.0
  0
LINE
  5
8726
  8
0
 10
100
 20
16
 30
0.0
 11
98
 21
16
 31
0.0
  0
LINE
  5
8727
  8
0
 10
98
 20
16
 30
0.0
 11
96
 21
16
 31
0.0
  0
LINE
  5
8728
  8
0
 10
96
 20
16
 30
0.0
 11
94
 21
16
 31
0.0
  0
LINE
  5
8729
  8
0
 10
94
 20
16
 30
0.0
 11
92
 21
16
 31
0.0
  0
LINE
  5
8730
  8
0
 10
92
 20
16
 30
0.0
 11
90
 21
16
 31
0.0
  0
LINE
  5
8731
  8
0
 10
90
 20
16
 30
0.0
 11
91
 21
18
 31
0.0
  0
LINE
  5
8732
  8
0
 10
91
 20
18
 30
0.0
 11
93
 21
18
 31
0.0
  0
LINE
  5
8733
  8
0
 10
93
 20
18
 30
0.0
 11
95
 21
18
 31
0.0
  0
LINE
  5
8734
  8
0
 10
95
 20
18
 30
0.0
 11
97
 21
18
 31
0.0
  0
LINE
  5
8735
  8
0
 10
97
 20
18
 30
0.0
 11
99
 21
18
 31
0.0
  0
LINE
  5
8736
  8
0
 10
99
 20
18
 30
0.0
 11
101
 21
18
 31
0.0
  0
LINE
  5
8737
  8
0
 10
101
 20
18
 30
0.0
 11
103
 21
18
 31
0.0
  0
LINE
  5
8738
  8
0
 10
103
 20
18
 30
0.0
 11
105
 21
18
 31
0.0
  0
LINE
  5
8739
  8
0
 10
105
 20
18
 30
0.0
 11
104
 21
20
 31
0.0
  0
LINE
  5
8740
  8
0
 10
104
 20
20
 30
0.0
 11
102
 21
20
 31
0.0
  0
LINE
  5
8741
  8
0
 10
102
 20
20
 30
0.0
 11
100
 21
20
 31
0.0
  0
LINE
  5
8742
  8
0
 10
100
 20
20
 30
0.0
 11
98
 21
20
 31
0.0
  0
LINE
  5
8743
  8
0
 10
98
 20
20
 30
0.0
 11
96
 21
20
 31
0.0
  0
LINE
  5
8744
  8
0
 10
96
 20
20
 30
0.0
 11
94
 21
20
 31
0.0
  0
LINE
  5
8745
  8
0
 10
94
 20
20
 30
0.0
 11
92
 21
20
 31
0.0
  0
LINE
  5
8746
  8
0
 10
92
 20
20
 30
0.0
 11
90
 21
20
 31
0.0
  0
LINE
  5
8747
  8
0
 10
90
 20
20
 30
0.0
 11
88
 21
20
 31
0.0
  0
LINE
  5
8748
  8
0
 10
88
 20
20
 30
0.0
 11
86
 21
20
 31
0.0
  0
LINE
  5
8749
  8
0
 10
86
 20
20
 30
0.0
 11
84
 21
20
 31
0.0
  0
LINE
  5
8750
  8
0
 10
84
 20
20
 30
0.0
 11
82
 21
20
 31
0.0
  0
LINE
  5
8751
  8
0
 10
82
 20
20
 30
0.0
 11
83
 21
18
 31
0.0
  0
LINE
  5
8752
  8
0
 10
83
 20
18
 30
0.0
 11
85
 21
18
 31
0.0
  0
LINE
  5
8753
  8
0
 10
85
 20
18
 30
0.0
 11
87
 21
18
 31
0.0
  0
LINE
  5
8754
  8
0
 10
87
 20
18
 30
0.0
 11
89
 21
18
 31
0.0
  0
LINE
  5
8755
  8
0
 10
89
 20
18
 30
0.0
 11
88
 21
16
 31
0.0
  0
LINE
  5
8756
  8
0
 10
88
 20
16
 30
0.0
 11
86
 21
16
 31
0.0
  0
LINE
  5
8757
  8
0
 10
86
 20
16
 30
0.0
 11
84
 21
16
 31
0.0
  0
LINE
  5
8758
  8
0
 10
84
 20
16
 30
0.0
 11
82
 21
16
 31
0.0
  0
LINE
  5
8759
  8
0
 10
82
 20
16
 30
0.0
 11
83
 21
14
 31
0.0
  0
LINE
  5
8760
  8
0
 10
83
 20
14
 30
0.0
 11
85
 21
14
 31
0.0
  0
LINE
  5
8761
  8
0
 10
85
 20
14
 30
0.0
 11
87
 21
14
 31
0.0
  0
LINE
  5
8762
  8
0
 10
87
 20
14
 30
0.0
 11
89
 21
14
 31
0.0
  0
LINE
  5
8763
  8
0
 10
89
 20
14
 30
0.0
 11
88
 21
12
 31
0.0
  0
LINE
  5
8764
  8
0
 10
88
 20
12
 30
0.0
 11
86
 21
12
 31
0.0
  0
LINE
  5
8765
  8
0
 10
86
 20
12
 30
0.0
 11
84
 21
12
 31
0.0
  0
LINE
  5
8766
  8
0
 10
84
 20
12
 30
0.0
 11
82
 21
12
 31
0.0
  0
LINE
  5
8767
  8
0
 10
82
 20
12
 30
0.0
 11
83
 21
10
 31
0.0
  0
LINE
  5
8768
  8
0
 10
83
 20
10
 30
0.0
 11
85
 21
10
 31
0.0
  0
LINE
  5
8769
  8
0
 10
85
 20
10
 30
0.0
 11
87
 21
10
 31
0.0
  0
LINE
  5
8770
  8
0
 10
87
 20
10
 30
0.0
 11
89
 21
10
 31
0.0
  0
LINE
  5
8771
  8
0
 10
89
 20
10
 30
0.0
 11
90
 21
8
 31
0.0
  0
LINE
  5
8772
  8
0
 10
90
 20
8
 30
0.0
 11
88
 21
8
 31
0.0
  0
LINE
  5
8773
  8
0
 10
88
 20
8
 30
0.0
 11
86
 21
8
 31
0.0
  0
LINE
  5
8774
  8
0
 10
86
 20
8
 30
0.0
 11
84
 21
8
 31
0.0
  0
LINE
  5
8775
  8
0
 10
84
 20
8
 30
0.0
 11
82
 21
8
 31
0.0
  0
LINE
  5
8776
  8
0
 10
82
 20
8
 30
0.0
 11
83
 21
6
 31
0.0
  0
LINE
  5
8777
  8
0
 10
83
 20
6
 30
0.0
 11
85
 21
6
 31
0.0
  0
LINE
  5
8778
  8
0
 10
85
 20
6
 30
0.0
 11
87
 21
6
 31
0.0
  0
LINE
  5
8779
  8
0
 10
87
 20
6
 30
0.0
 11
89
 21
6
 31
0.0
  0
LINE
  5
8780
  8
0
 10
89
 20
6
 30
0.0
 11
90
 21
4
 31
0.0
  0
LINE
  5
8781
  8
0
 10
90
 20
4
 30
0.0
 11
88
 21
4
 31
0.0
  0
LINE
  5
8782
  8
0
 10
88
 20
4
 30
0.0
 11
86
 21
4
 31
0.0
  0
LINE
  5
8783
  8
0
 10
86
 20
4
 30
0.0
 11
84
 21
4
 31
0.0
  0
LINE
  5
8784
  8
0
 10
84
 20
4
 30
0.0
 11
82
 21
4
 31
0.0
  0
LINE
  5
8785
  8
0
 10
82
 20
4
 30
0.0
 11
83
 21
2
 31
0.0
  0
LINE
  5
8786
  8
0
 10
83
 20
2
 30
0.0
 11
85
 21
2
 31
0.0
  0
LINE
  5
8787
  8
0
 10
85
 20
2
 30
0.0
 11
87
 21
2
 31
0.0
  0
LINE
  5
8788
  8
0
 10
87
 20
2
 30
0.0
 11
89
 21
2
 31
0.0
  0
LINE
  5
8789
  8
0
 10
89
 20
2
 30
0.0
 11
90
 21
0
 31
0.0
  0
LINE
  5
8790
  8
0
 10
90
 20
0
 30
0.0
 11
88
 21
0
 31
0.0
  0
LINE
  5
8791
  8
0
 10
88
 20
0
 30
0.0
 11
86
 21
0
 31
0.0
  0
LINE
  5
8792
  8
0
 10
86
 20
0
 30
0.0
 11
84
 21
0
 31
0.0
  0
LINE
  5
8793
  8
0
 10
84
 20
0
 30
0.0
 11
82
 21
0
 31
0.0
  0
LINE
  5
8794
  8
0
 10
139
 20
16
 30
0.0
 11
140
 21
18
 31
0.0
  0
LINE
  5
8795
  8
0
 10
140
 20
18
 30
0.0
 11
142
 21
18
 31
0.0
  0
LINE
  5
8796
  8
0
 10
142
 20
18
 30
0.0
 11
143
 21
20
 31
0.0
  0
LINE
  5
8797
  8
0
 10
143
 20
20
 30
0.0
 11
141
 21
20
 31
0.0
  0
LINE
  5
8798
  8
0
 10
141
 20
20
 30
0.0
 11
139
 21
20
 31
0.0
  0
LINE
  5
8799
  8
0
 10
139
 20
20
 30
0.0
 11
141
 21
16
 31
0.0
  0
LINE
  5
8800
  8
0
 10
141
 20
16
 30
0.0
 11
143
 21
16
 31
0.0
  0
LINE
  5
8801
  8
0
 10
143
 20
16
 30
0.0
 11
142
 21
14
 31
0.0
  0
LINE
  5
8802
  8
0
 10
142
 20
14
 30
0.0
 11
140
 21
14
 31
0.0
  0
LINE
  5
8803
  8
0
 10
140
 20
14
 30
0.0
 11
139
 21
12
 31
0.0
  0
LINE
  5
8804
  8
0
 10
139
 20
12
 30
0.0
 11
140
 21
10
 31
0.0
  0
LINE
  5
8805
  8
0
 10
140
 20
10
 30
0.0
 11
141
 21
12
 31
0.0
  0
LINE
  5
8806
  8
0
 10
141
 20
12
 30
0.0
 11
142
 21
10
 31
0.0
  0
LINE
  5
8807
  8
0
 10
142
 20
10
 30
0.0
 11
143
 21
12
 31
0.0
  0
LINE
  5
8808
  8
0
 10
143
 20
12
 30
0.0
 11
145
 21
12
 31
0.0
  0
LINE
  5
8809
  8
0
 10
145
 20
12
 30
0.0
 11
147
 21
12
 31
0.0
  0
LINE
  5
8810
  8
0
 10
147
 20
12
 30
0.0
 11
149
 21
12
 31
0.0
  0
LINE
  5
8811
  8
0
 10
149
 20
12
 30
0.0
 11
151
 21
12
 31
0.0
  0
LINE
  5
8812
  8
0
 10
151
 20
12
 30
0.0
 11
153
 21
12
 31
0.0
  0
LINE
  5
8813
  8
0
 10
153
 20
12
 30
0.0
 11
155
 21
12
 31
0.0
  0
LINE
  5
8814
  8
0
 10
155
 20
12
 30
0.0
 11
157
 21
12
 31
0.0
  0
LINE
  5
8815
  8
0
 10
157
 20
12
 30
0.0
 11
159
 21
12
 31
0.0
  0
LINE
  5
8816
  8
0
 10
159
 20
12
 30
0.0
 11
160
 21
14
 31
0.0
  0
LINE
  5
8817
  8
0
 10
160
 20
14
 30
0.0
 11
158
 21
14
 31
0.0
  0
LINE
  5
8818
  8
0
 10
158
 20
14
 30
0.0
 11
156
 21
14
 31
0.0
  0
LINE
  5
8819
  8
0
 10
156
 20
14
 30
0.0
 11
154
 21
14
 31
0.0
  0
LINE
  5
8820
  8
0
 10
154
 20
14
 30
0.0
 11
152
 21
14
 31
0.0
  0
LINE
  5
8821
  8
0
 10
152
 20
14
 30
0.0
 11
150
 21
14
 31
0.0
  0
LINE
  5
8822
  8
0
 10
150
 20
14
 30
0.0
 11
148
 21
14
 31
0.0
  0
LINE
  5
8823
  8
0
 10
148
 20
14
 30
0.0
 11
146
 21
14
 31
0.0
  0
LINE
  5
8824
  8
0
 10
146
 20
14
 30
0.0
 11
144
 21
14
 31
0.0
  0
LINE
  5
8825
  8
0
 10
144
 20
14
 30
0.0
 11
145
 21
16
 31
0.0
  0
LINE
  5
8826
  8
0
 10
145
 20
16
 30
0.0
 11
147
 21
16
 31
0.0
  0
LINE
  5
8827
  8
0
 10
147
 20
16
 30
0.0
 11
149
 21
16
 31
0.0
  0
LINE
  5
8828
  8
0
 10
149
 20
16
 30
0.0
 11
151
 21
16
 31
0.0
  0
LINE
  5
8829
  8
0
 10
151
 20
16
 30
0.0
 11
153
 21
16
 31
0.0
  0
LINE
  5
8830
  8
0
 10
153
 20
16
 30
0.0
 11
155
 21
16
 31
0.0
  0
LINE
  5
8831
  8
0
 10
155
 20
16
 30
0.0
 11
157
 21
16
 31
0.0
  0
LINE
  5
8832
  8
0
 10
157
 20
16
 30
0.0
 11
159
 21
16
 31
0.0
  0
LINE
  5
8833
  8
0
 10
159
 20
16
 30
0.0
 11
158
 21
18
 31
0.0
  0
LINE
  5
8834
  8
0
 10
158
 20
18
 30
0.0
 11
156
 21
18
 31
0.0
  0
LINE
  5
8835
  8
0
 10
156
 20
18
 30
0.0
 11
154
 21
18
 31
0.0
  0
LINE
  5
8836
  8
0
 10
154
 20
18
 30
0.0
 11
152
 21
18
 31
0.0
  0
LINE
  5
8837
  8
0
 10
152
 20
18
 30
0.0
 11
150
 21
18
 31
0.0
  0
LINE
  5
8838
  8
0
 10
150
 20
18
 30
0.0
 11
148
 21
18
 31
0.0
  0
LINE
  5
8839
  8
0
 10
148
 20
18
 30
0.0
 11
146
 21
18
 31
0.0
  0
LINE
  5
8840
  8
0
 10
146
 20
18
 30
0.0
 11
144
 21
18
 31
0.0
  0
LINE
  5
8841
  8
0
 10
144
 20
18
 30
0.0
 11
145
 21
20
 31
0.0
  0
LINE
  5
8842
  8
0
 10
145
 20
20
 30
0.0
 11
147
 21
20
 31
0.0
  0
LINE
  5
8843
  8
0
 10
147
 20
20
 30
0.0
 11
149
 21
20
 31
0.0
  0
LINE
  5
8844
  8
0
 10
149
 20
20
 30
0.0
 11
151
 21
20
 31
0.0
  0
LINE
  5
8845
  8
0
 10
151
 20
20
 30
0.0
 11
153
 21
20
 31
0.0
  0
LINE
  5
8846
  8
0
 10
153
 20
20
 30
0.0
 11
155
 21
20
 31
0.0
  0
LINE
  5
8847
  8
0
 10
155
 20
20
 30
0.0
 11
157
 21
20
 31
0.0
  0
LINE
  5
8848
  8
0
 10
157
 20
20
 30
0.0
 11
159
 21
20
 31
0.0
  0
LINE
  5
8849
  8
0
 10
159
 20
20
 30
0.0
 11
161
 21
20
 31
0.0
  0
LINE
  5
8850
  8
0
 10
161
 20
20
 30
0.0
 11
163
 21
20
 31
0.0
  0
LINE
  5
8851
  8
0
 10
163
 20
20
 30
0.0
 11
165
 21
20
 31
0.0
  0
LINE
  5
8852
  8
0
 10
165
 20
20
 30
0.0
 11
167
 21
20
 31
0.0
  0
LINE
  5
8853
  8
0
 10
167
 20
20
 30
0.0
 11
166
 21
18
 31
0.0
  0
LINE
  5
8854
  8
0
 10
166
 20
18
 30
0.0
 11
164
 21
18
 31
0.0
  0
LINE
  5
8855
  8
0
 10
164
 20
18
 30
0.0
 11
162
 21
18
 31
0.0
  0
LINE
  5
8856
  8
0
 10
162
 20
18
 30
0.0
 11
160
 21
18
 31
0.0
  0
LINE
  5
8857
  8
0
 10
160
 20
18
 30
0.0
 11
161
 21
16
 31
0.0
  0
LINE
  5
8858
  8
0
 10
161
 20
16
 30
0.0
 11
163
 21
16
 31
0.0
  0
LINE
  5
8859
  8
0
 10
163
 20
16
 30
0.0
 11
165
 21
16
 31
0.0
  0
LINE
  5
8860
  8
0
 10
165
 20
16
 30
0.0
 11
167
 21
16
 31
0.0
  0
LINE
  5
8861
  8
0
 10
167
 20
16
 30
0.0
 11
166
 21
14
 31
0.0
  0
LINE
  5
8862
  8
0
 10
166
 20
14
 30
0.0
 11
164
 21
14
 31
0.0
  0
LINE
  5
8863
  8
0
 10
164
 20
14
 30
0.0
 11
162
 21
14
 31
0.0
  0
LINE
  5
8864
  8
0
 10
162
 20
14
 30
0.0
 11
161
 21
12
 31
0.0
  0
LINE
  5
8865
  8
0
 10
161
 20
12
 30
0.0
 11
163
 21
12
 31
0.0
  0
LINE
  5
8866
  8
0
 10
163
 20
12
 30
0.0
 11
165
 21
12
 31
0.0
  0
LINE
  5
8867
  8
0
 10
165
 20
12
 30
0.0
 11
167
 21
12
 31
0.0
  0
LINE
  5
8868
  8
0
 10
167
 20
12
 30
0.0
 11
166
 21
10
 31
0.0
  0
LINE
  5
8869
  8
0
 10
166
 20
10
 30
0.0
 11
164
 21
10
 31
0.0
  0
LINE
  5
8870
  8
0
 10
164
 20
10
 30
0.0
 11
162
 21
10
 31
0.0
  0
LINE
  5
8871
  8
0
 10
162
 20
10
 30
0.0
 11
160
 21
10
 31
0.0
  0
LINE
  5
8872
  8
0
 10
160
 20
10
 30
0.0
 11
159
 21
8
 31
0.0
  0
LINE
  5
8873
  8
0
 10
159
 20
8
 30
0.0
 11
161
 21
8
 31
0.0
  0
LINE
  5
8874
  8
0
 10
161
 20
8
 30
0.0
 11
163
 21
8
 31
0.0
  0
LINE
  5
8875
  8
0
 10
163
 20
8
 30
0.0
 11
165
 21
8
 31
0.0
  0
LINE
  5
8876
  8
0
 10
165
 20
8
 30
0.0
 11
167
 21
8
 31
0.0
  0
LINE
  5
8877
  8
0
 10
167
 20
8
 30
0.0
 11
166
 21
6
 31
0.0
  0
LINE
  5
8878
  8
0
 10
166
 20
6
 30
0.0
 11
164
 21
6
 31
0.0
  0
LINE
  5
8879
  8
0
 10
164
 20
6
 30
0.0
 11
162
 21
6
 31
0.0
  0
LINE
  5
8880
  8
0
 10
162
 20
6
 30
0.0
 11
160
 21
6
 31
0.0
  0
LINE
  5
8881
  8
0
 10
160
 20
6
 30
0.0
 11
159
 21
4
 31
0.0
  0
LINE
  5
8882
  8
0
 10
159
 20
4
 30
0.0
 11
161
 21
4
 31
0.0
  0
LINE
  5
8883
  8
0
 10
161
 20
4
 30
0.0
 11
163
 21
4
 31
0.0
  0
LINE
  5
8884
  8
0
 10
163
 20
4
 30
0.0
 11
165
 21
4
 31
0.0
  0
LINE
  5
8885
  8
0
 10
165
 20
4
 30
0.0
 11
167
 21
4
 31
0.0
  0
LINE
  5
8886
  8
0
 10
167
 20
4
 30
0.0
 11
166
 21
2
 31
0.0
  0
LINE
  5
8887
  8
0
 10
166
 20
2
 30
0.0
 11
164
 21
2
 31
0.0
  0
LINE
  5
8888
  8
0
 10
164
 20
2
 30
0.0
 11
162
 21
2
 31
0.0
  0
LINE
  5
8889
  8
0
 10
162
 20
2
 30
0.0
 11
160
 21
2
 31
0.0
  0
LINE
  5
8890
  8
0
 10
160
 20
2
 30
0.0
 11
159
 21
0
 31
0.0
  0
LINE
  5
8891
  8
0
 10
159
 20
0
 30
0.0
 11
161
 21
0
 31
0.0
  0
LINE
  5
8892
  8
0
 10
161
 20
0
 30
0.0
 11
163
 21
0
 31
0.0
  0
LINE
  5
8893
  8
0
 10
163
 20
0
 30
0.0
 11
165
 21
0
 31
0.0
  0
LINE
  5
8894
  8
0
 10
165
 20
0
 30
0.0
 11
167
 21
0
 31
0.0
  0
LINE
  5
8895
  8
0
 10
66
 20
15
 30
0.0
 11
65
 21
13
 31
0.0
  0
LINE
  5
8896
  8
0
 10
65
 20
13
 30
0.0
 11
66
 21
11
 31
0.0
  0
LINE
  5
8897
  8
0
 10
66
 20
11
 30
0.0
 11
65
 21
9
 31
0.0
  0
LINE
  5
8898
  8
0
 10
65
 20
9
 30
0.0
 11
63
 21
9
 31
0.0
  0
LINE
  5
8899
  8
0
 10
63
 20
9
 30
0.0
 11
64
 21
11
 31
0.0
  0
LINE
  5
8900
  8
0
 10
64
 20
11
 30
0.0
 11
63
 21
13
 31
0.0
  0
LINE
  5
8901
  8
0
 10
63
 20
13
 30
0.0
 11
64
 21
15
 31
0.0
  0
LINE
  5
8902
  8
0
 10
64
 20
15
 30
0.0
 11
62
 21
15
 31
0.0
  0
LINE
  5
8903
  8
0
 10
62
 20
15
 30
0.0
 11
61
 21
13
 31
0.0
  0
LINE
  5
8904
  8
0
 10
61
 20
13
 30
0.0
 11
62
 21
11
 31
0.0
  0
LINE
  5
8905
  8
0
 10
62
 20
11
 30
0.0
 11
61
 21
9
 31
0.0
  0
LINE
  5
8906
  8
0
 10
61
 20
9
 30
0.0
 11
59
 21
9
 31
0.0
  0
LINE
  5
8907
  8
0
 10
59
 20
9
 30
0.0
 11
60
 21
11
 31
0.0
  0
LINE
  5
8908
  8
0
 10
60
 20
11
 30
0.0
 11
59
 21
13
 31
0.0
  0
LINE
  5
8909
  8
0
 10
59
 20
13
 30
0.0
 11
60
 21
15
 31
0.0
  0
LINE
  5
8910
  8
0
 10
60
 20
15
 30
0.0
 11
58
 21
15
 31
0.0
  0
LINE
  5
8911
  8
0
 10
58
 20
15
 30
0.0
 11
57
 21
13
 31
0.0
  0
LINE
  5
8912
  8
0
 10
57
 20
13
 30
0.0
 11
58
 21
11
 31
0.0
  0
LINE
  5
8913
  8
0
 10
58
 20
11
 30
0.0
 11
57
 21
9
 31
0.0
  0
LINE
  5
8914
  8
0
 10
57
 20
9
 30
0.0
 11
55
 21
9
 31
0.0
  0
LINE
  5
8915
  8
0
 10
55
 20
9
 30
0.0
 11
56
 21
11
 31
0.0
  0
LINE
  5
8916
  8
0
 10
56
 20
11
 30
0.0
 11
55
 21
13
 31
0.0
  0
LINE
  5
8917
  8
0
 10
55
 20
13
 30
0.0
 11
56
 21
15
 31
0.0
  0
LINE
  5
8918
  8
0
 10
56
 20
15
 30
0.0
 11
54
 21
15
 31
0.0
  0
LINE
  5
8919
  8
0
 10
54
 20
15
 30
0.0
 11
53
 21
13
 31
0.0
  0
LINE
  5
8920
  8
0
 10
53
 20
13
 30
0.0
 11
54
 21
11
 31
0.0
  0
LINE
  5
8921
  8
0
 10
54
 20
11
 30
0.0
 11
53
 21
9
 31
0.0
  0
LINE
  5
8922
  8
0
 10
53
 20
9
 30
0.0
 11
51
 21
9
 31
0.0
  0
LINE
  5
8923
  8
0
 10
51
 20
9
 30
0.0
 11
52
 21
11
 31
0.0
  0
LINE
  5
8924
  8
0
 10
52
 20
11
 30
0.0
 11
51
 21
13
 31
0.0
  0
LINE
  5
8925
  8
0
 10
51
 20
13
 30
0.0
 11
52
 21
15
 31
0.0
  0
LINE
  5
8926
  8
0
 10
52
 20
15
 30
0.0
 11
50
 21
15
 31
0.0
  0
LINE
  5
8927
  8
0
 10
50
 20
15
 30
0.0
 11
49
 21
13
 31
0.0
  0
LINE
  5
8928
  8
0
 10
49
 20
13
 30
0.0
 11
50
 21
11
 31
0.0
  0
LINE
  5
8929
  8
0
 10
50
 20
11
 30
0.0
 11
49
 21
9
 31
0.0
  0
LINE
  5
8930
  8
0
 10
49
 20
9
 30
0.0
 11
47
 21
9
 31
0.0
  0
LINE
  5
8931
  8
0
 10
47
 20
9
 30
0.0
 11
48
 21
11
 31
0.0
  0
LINE
  5
8932
  8
0
 10
48
 20
11
 30
0.0
 11
47
 21
13
 31
0.0
  0
LINE
  5
8933
  8
0
 10
47
 20
13
 30
0.0
 11
48
 21
15
 31
0.0
  0
LINE
  5
8934
  8
0
 10
48
 20
15
 30
0.0
 11
46
 21
15
 31
0.0
  0
LINE
  5
8935
  8
0
 10
46
 20
15
 30
0.0
 11
45
 21
13
 31
0.0
  0
LINE
  5
8936
  8
0
 10
45
 20
13
 30
0.0
 11
46
 21
11
 31
0.0
  0
LINE
  5
8937
  8
0
 10
46
 20
11
 30
0.0
 11
45
 21
9
 31
0.0
  0
LINE
  5
8938
  8
0
 10
45
 20
9
 30
0.0
 11
43
 21
9
 31
0.0
  0
LINE
  5
8939
  8
0
 10
43
 20
9
 30
0.0
 11
44
 21
11
 31
0.0
  0
LINE
  5
8940
  8
0
 10
44
 20
11
 30
0.0
 11
43
 21
13
 31
0.0
  0
LINE
  5
8941
  8
0
 10
43
 20
13
 30
0.0
 11
44
 21
15
 31
0.0
  0
LINE
  5
8942
  8
0
 10
44
 20
15
 30
0.0
 11
42
 21
15
 31
0.0
  0
LINE
  5
8943
  8
0
 10
42
 20
15
 30
0.0
 11
41
 21
13
 31
0.0
  0
LINE
  5
8944
  8
0
 10
41
 20
13
 30
0.0
 11
42
 21
11
 31
0.0
  0
LINE
  5
8945
  8
0
 10
42
 20
11
 30
0.0
 11
41
 21
9
 31
0.0
  0
LINE
  5
8946
  8
0
 10
41
 20
9
 30
0.0
 11
39
 21
9
 31
0.0
  0
LINE
  5
8947
  8
0
 10
39
 20
9
 30
0.0
 11
40
 21
11
 31
0.0
  0
LINE
  5
8948
  8
0
 10
40
 20
11
 30
0.0
 11
39
 21
13
 31
0.0
  0
LINE
  5
8949
  8
0
 10
39
 20
13
 30
0.0
 11
40
 21
15
 31
0.0
  0
LINE
  5
8950
  8
0
 10
40
 20
15
 30
0.0
 11
38
 21
15
 31
0.0
  0
LINE
  5
8951
  8
0
 10
38
 20
15
 30
0.0
 11
37
 21
13
 31
0.0
  0
LINE
  5
8952
  8
0
 10
37
 20
13
 30
0.0
 11
38
 21
11
 31
0.0
  0
LINE
  5
8953
  8
0
 10
38
 20
11
 30
0.0
 11
37
 21
9
 31
0.0
  0
LINE
  5
8954
  8
0
 10
37
 20
9
 30
0.0
 11
35
 21
9
 31
0.0
  0
LINE
  5
8955
  8
0
 10
35
 20
9
 30
0.0
 11
36
 21
11
 31
0.0
  0
LINE
  5
8956
  8
0
 10
36
 20
11
 30
0.0
 11
35
 21
13
 31
0.0
  0
LINE
  5
8957
  8
0
 10
35
 20
13
 30
0.0
 11
36
 21
15
 31
0.0
  0
LINE
  5
8958
  8
0
 10
36
 20
15
 30
0.0
 11
34
 21
15
 31
0.0
  0
LINE
  5
8959
  8
0
 10
34
 20
15
 30
0.0
 11
32
 21
15
 31
0.0
  0
LINE
  5
8960
  8
0
 10
32
 20
15
 30
0.0
 11
33
 21
13
 31
0.0
  0
LINE
  5
8961
  8
0
 10
33
 20
13
 30
0.0
 11
32
 21
11
 31
0.0
  0
LINE
  5
8962
  8
0
 10
32
 20
11
 30
0.0
 11
34
 21
11
 31
0.0
  0
LINE
  5
8963
  8
0
 10
34
 20
11
 30
0.0
 11
33
 21
9
 31
0.0
  0
LINE
  5
8964
  8
0
 10
33
 20
9
 30
0.0
 11
41
 21
17
 31
0.0
  0
LINE
  5
8965
  8
0
 10
41
 20
17
 30
0.0
 11
43
 21
17
 31
0.0
  0
LINE
  5
8966
  8
0
 10
43
 20
17
 30
0.0
 11
45
 21
17
 31
0.0
  0
LINE
  5
8967
  8
0
 10
45
 20
17
 30
0.0
 11
47
 21
17
 31
0.0
  0
LINE
  5
8968
  8
0
 10
47
 20
17
 30
0.0
 11
49
 21
17
 31
0.0
  0
LINE
  5
8969
  8
0
 10
49
 20
17
 30
0.0
 11
51
 21
17
 31
0.0
  0
LINE
  5
8970
  8
0
 10
51
 20
17
 30
0.0
 11
53
 21
17
 31
0.0
  0
LINE
  5
8971
  8
0
 10
53
 20
17
 30
0.0
 11
55
 21
17
 31
0.0
  0
LINE
  5
8972
  8
0
 10
55
 20
17
 30
0.0
 11
57
 21
17
 31
0.0
  0
LINE
  5
8973
  8
0
 10
57
 20
17
 30
0.0
 11
59
 21
17
 31
0.0
  0
LINE
  5
8974
  8
0
 10
59
 20
17
 30
0.0
 11
60
 21
19
 31
0.0
  0
LINE
  5
8975
  8
0
 10
60
 20
19
 30
0.0
 11
61
 21
17
 31
0.0
  0
LINE
  5
8976
  8
0
 10
61
 20
17
 30
0.0
 11
62
 21
19
 31
0.0
  0
LINE
  5
8977
  8
0
 10
62
 20
19
 30
0.0
 11
63
 21
17
 31
0.0
  0
LINE
  5
8978
  8
0
 10
63
 20
17
 30
0.0
 11
64
 21
19
 31
0.0
  0
LINE
  5
8979
  8
0
 10
64
 20
19
 30
0.0
 11
65
 21
17
 31
0.0
  0
LINE
  5
8980
  8
0
 10
65
 20
17
 30
0.0
 11
66
 21
19
 31
0.0
  0
LINE
  5
8981
  8
0
 10
66
 20
19
 30
0.0
 11
67
 21
17
 31
0.0
  0
LINE
  5
8982
  8
0
 10
67
 20
17
 30
0.0
 11
68
 21
19
 31
0.0
  0
LINE
  5
8983
  8
0
 10
68
 20
19
 30
0.0
 11
69
 21
17
 31
0.0
  0
LINE
  5
8984
  8
0
 10
69
 20
17
 30
0.0
 11
70
 21
19
 31
0.0
  0
LINE
  5
8985
  8
0
 10
70
 20
19
 30
0.0
 11
71
 21
17
 31
0.0
  0
LINE
  5
8986
  8
0
 10
71
 20
17
 30
0.0
 11
72
 21
19
 31
0.0
  0
LINE
  5
8987
  8
0
 10
72
 20
19
 30
0.0
 11
73
 21
17
 31
0.0
  0
LINE
  5
8988
  8
0
 10
73
 20
17
 30
0.0
 11
74
 21
19
 31
0.0
  0
LINE
  5
8989
  8
0
 10
74
 20
19
 30
0.0
 11
74
 21
17
 31
0.0
  0
LINE
  5
8990
  8
0
 10
74
 20
17
 30
0.0
 11
68
 21
15
 31
0.0
  0
LINE
  5
8991
  8
0
 10
68
 20
15
 30
0.0
 11
70
 21
15
 31
0.0
  0
LINE
  5
8992
  8
0
 10
70
 20
15
 30
0.0
 11
72
 21
15
 31
0.0
  0
LINE
  5
8993
  8
0
 10
72
 20
15
 30
0.0
 11
74
 21
15
 31
0.0
  0
LINE
  5
8994
  8
0
 10
74
 20
15
 30
0.0
 11
74
 21
13
 31
0.0
  0
LINE
  5
8995
  8
0
 10
74
 20
13
 30
0.0
 11
73
 21
13
 31
0.0
  0
LINE
  5
8996
  8
0
 10
73
 20
13
 30
0.0
 11
71
 21
13
 31
0.0
  0
LINE
  5
8997
  8
0
 10
71
 20
13
 30
0.0
 11
69
 21
13
 31
0.0
  0
LINE
  5
8998
  8
0
 10
69
 20
13
 30
0.0
 11
67
 21
13
 31
0.0
  0
LINE
  5
8999
  8
0
 10
67
 20
13
 30
0.0
 11
68
 21
11
 31
0.0
  0
LINE
  5
9000
  8
0
 10
68
 20
11
 30
0.0
 11
70
 21
11
 31
0.0
  0
LINE
  5
9001
  8
0
 10
70
 20
11
 30
0.0
 11
72
 21
11
 31
0.0
  0
LINE
  5
9002
  8
0
 10
72
 20
11
 30
0.0
 11
74
 21
11
 31
0.0
  0
LINE
  5
9003
  8
0
 10
74
 20
11
 30
0.0
 11
74
 21
9
 31
0.0
  0
LINE
  5
9004
  8
0
 10
74
 20
9
 30
0.0
 11
73
 21
9
 31
0.0
  0
LINE
  5
9005
  8
0
 10
73
 20
9
 30
0.0
 11
71
 21
9
 31
0.0
  0
LINE
  5
9006
  8
0
 10
71
 20
9
 30
0.0
 11
69
 21
9
 31
0.0
  0
LINE
  5
9007
  8
0
 10
69
 20
9
 30
0.0
 11
67
 21
9
 31
0.0
  0
LINE
  5
9008
  8
0
 10
67
 20
9
 30
0.0
 11
68
 21
7
 31
0.0
  0
LINE
  5
9009
  8
0
 10
68
 20
7
 30
0.0
 11
70
 21
7
 31
0.0
  0
LINE
  5
9010
  8
0
 10
70
 20
7
 30
0.0
 11
72
 21
7
 31
0.0
  0
LINE
  5
9011
  8
0
 10
72
 20
7
 30
0.0
 11
74
 21
7
 31
0.0
  0
LINE
  5
9012
  8
0
 10
74
 20
7
 30
0.0
 11
74
 21
5
 31
0.0
  0
LINE
  5
9013
  8
0
 10
74
 20
5
 30
0.0
 11
73
 21
5
 31
0.0
  0
LINE
  5
9014
  8
0
 10
73
 20
5
 30
0.0
 11
71
 21
5
 31
0.0
  0
LINE
  5
9015
  8
0
 10
71
 20
5
 30
0.0
 11
69
 21
5
 31
0.0
  0
LINE
  5
9016
  8
0
 10
69
 20
5
 30
0.0
 11
67
 21
5
 31
0.0
  0
LINE
  5
9017
  8
0
 10
67
 20
5
 30
0.0
 11
68
 21
3
 31
0.0
  0
LINE
  5
9018
  8
0
 10
68
 20
3
 30
0.0
 11
70
 21
3
 31
0.0
  0
LINE
  5
9019
  8
0
 10
70
 20
3
 30
0.0
 11
72
 21
3
 31
0.0
  0
LINE
  5
9020
  8
0
 10
72
 20
3
 30
0.0
 11
74
 21
3
 31
0.0
  0
LINE
  5
9021
  8
0
 10
74
 20
3
 30
0.0
 11
74
 21
1
 31
0.0
  0
LINE
  5
9022
  8
0
 10
74
 20
1
 30
0.0
 11
73
 21
1
 31
0.0
  0
LINE
  5
9023
  8
0
 10
73
 20
1
 30
0.0
 11
71
 21
1
 31
0.0
  0
LINE
  5
9024
  8
0
 10
71
 20
1
 30
0.0
 11
69
 21
1
 31
0.0
  0
LINE
  5
9025
  8
0
 10
69
 20
1
 30
0.0
 11
67
 21
1
 31
0.0
  0
LINE
  5
9026
  8
0
 10
67
 20
1
 30
0.0
 11
66
 21
7
 31
0.0
  0
LINE
  5
9027
  8
0
 10
66
 20
7
 30
0.0
 11
65
 21
5
 31
0.0
  0
LINE
  5
9028
  8
0
 10
65
 20
5
 30
0.0
 11
66
 21
3
 31
0.0
  0
LINE
  5
9029
  8
0
 10
66
 20
3
 30
0.0
 11
65
 21
1
 31
0.0
  0
LINE
  5
9030
  8
0
 10
65
 20
1
 30
0.0
 11
63
 21
1
 31
0.0
  0
LINE
  5
9031
  8
0
 10
63
 20
1
 30
0.0
 11
64
 21
3
 31
0.0
  0
LINE
  5
9032
  8
0
 10
64
 20
3
 30
0.0
 11
63
 21
5
 31
0.0
  0
LINE
  5
9033
  8
0
 10
63
 20
5
 30
0.0
 11
64
 21
7
 31
0.0
  0
LINE
  5
9034
  8
0
 10
64
 20
7
 30
0.0
 11
62
 21
7
 31
0.0
  0
LINE
  5
9035
  8
0
 10
62
 20
7
 30
0.0
 11
61
 21
5
 31
0.0
  0
LINE
  5
9036
  8
0
 10
61
 20
5
 30
0.0
 11
62
 21
3
 31
0.0
  0
LINE
  5
9037
  8
0
 10
62
 20
3
 30
0.0
 11
61
 21
1
 31
0.0
  0
LINE
  5
9038
  8
0
 10
61
 20
1
 30
0.0
 11
59
 21
1
 31
0.0
  0
LINE
  5
9039
  8
0
 10
59
 20
1
 30
0.0
 11
60
 21
3
 31
0.0
  0
LINE
  5
9040
  8
0
 10
60
 20
3
 30
0.0
 11
59
 21
5
 31
0.0
  0
LINE
  5
9041
  8
0
 10
59
 20
5
 30
0.0
 11
60
 21
7
 31
0.0
  0
LINE
  5
9042
  8
0
 10
60
 20
7
 30
0.0
 11
58
 21
7
 31
0.0
  0
LINE
  5
9043
  8
0
 10
58
 20
7
 30
0.0
 11
57
 21
5
 31
0.0
  0
LINE
  5
9044
  8
0
 10
57
 20
5
 30
0.0
 11
58
 21
3
 31
0.0
  0
LINE
  5
9045
  8
0
 10
58
 20
3
 30
0.0
 11
57
 21
1
 31
0.0
  0
LINE
  5
9046
  8
0
 10
57
 20
1
 30
0.0
 11
55
 21
1
 31
0.0
  0
LINE
  5
9047
  8
0
 10
55
 20
1
 30
0.0
 11
56
 21
3
 31
0.0
  0
LINE
  5
9048
  8
0
 10
56
 20
3
 30
0.0
 11
55
 21
5
 31
0.0
  0
LINE
  5
9049
  8
0
 10
55
 20
5
 30
0.0
 11
56
 21
7
 31
0.0
  0
LINE
  5
9050
  8
0
 10
56
 20
7
 30
0.0
 11
54
 21
7
 31
0.0
  0
LINE
  5
9051
  8
0
 10
54
 20
7
 30
0.0
 11
53
 21
5
 31
0.0
  0
LINE
  5
9052
  8
0
 10
53
 20
5
 30
0.0
 11
54
 21
3
 31
0.0
  0
LINE
  5
9053
  8
0
 10
54
 20
3
 30
0.0
 11
53
 21
1
 31
0.0
  0
LINE
  5
9054
  8
0
 10
53
 20
1
 30
0.0
 11
51
 21
1
 31
0.0
  0
LINE
  5
9055
  8
0
 10
51
 20
1
 30
0.0
 11
52
 21
3
 31
0.0
  0
LINE
  5
9056
  8
0
 10
52
 20
3
 30
0.0
 11
51
 21
5
 31
0.0
  0
LINE
  5
9057
  8
0
 10
51
 20
5
 30
0.0
 11
52
 21
7
 31
0.0
  0
LINE
  5
9058
  8
0
 10
52
 20
7
 30
0.0
 11
50
 21
7
 31
0.0
  0
LINE
  5
9059
  8
0
 10
50
 20
7
 30
0.0
 11
49
 21
5
 31
0.0
  0
LINE
  5
9060
  8
0
 10
49
 20
5
 30
0.0
 11
50
 21
3
 31
0.0
  0
LINE
  5
9061
  8
0
 10
50
 20
3
 30
0.0
 11
49
 21
1
 31
0.0
  0
LINE
  5
9062
  8
0
 10
49
 20
1
 30
0.0
 11
47
 21
1
 31
0.0
  0
LINE
  5
9063
  8
0
 10
47
 20
1
 30
0.0
 11
48
 21
3
 31
0.0
  0
LINE
  5
9064
  8
0
 10
48
 20
3
 30
0.0
 11
47
 21
5
 31
0.0
  0
LINE
  5
9065
  8
0
 10
47
 20
5
 30
0.0
 11
48
 21
7
 31
0.0
  0
LINE
  5
9066
  8
0
 10
48
 20
7
 30
0.0
 11
46
 21
7
 31
0.0
  0
LINE
  5
9067
  8
0
 10
46
 20
7
 30
0.0
 11
45
 21
5
 31
0.0
  0
LINE
  5
9068
  8
0
 10
45
 20
5
 30
0.0
 11
46
 21
3
 31
0.0
  0
LINE
  5
9069
  8
0
 10
46
 20
3
 30
0.0
 11
45
 21
1
 31
0.0
  0
LINE
  5
9070
  8
0
 10
45
 20
1
 30
0.0
 11
43
 21
1
 31
0.0
  0
LINE
  5
9071
  8
0
 10
43
 20
1
 30
0.0
 11
44
 21
3
 31
0.0
  0
LINE
  5
9072
  8
0
 10
44
 20
3
 30
0.0
 11
43
 21
5
 31
0.0
  0
LINE
  5
9073
  8
0
 10
43
 20
5
 30
0.0
 11
44
 21
7
 31
0.0
  0
LINE
  5
9074
  8
0
 10
44
 20
7
 30
0.0
 11
42
 21
7
 31
0.0
  0
LINE
  5
9075
  8
0
 10
42
 20
7
 30
0.0
 11
41
 21
5
 31
0.0
  0
LINE
  5
9076
  8
0
 10
41
 20
5
 30
0.0
 11
42
 21
3
 31
0.0
  0
LINE
  5
9077
  8
0
 10
42
 20
3
 30
0.0
 11
41
 21
1
 31
0.0
  0
LINE
  5
9078
  8
0
 10
41
 20
1
 30
0.0
 11
39
 21
1
 31
0.0
  0
LINE
  5
9079
  8
0
 10
39
 20
1
 30
0.0
 11
40
 21
3
 31
0.0
  0
LINE
  5
9080
  8
0
 10
40
 20
3
 30
0.0
 11
39
 21
5
 31
0.0
  0
LINE
  5
9081
  8
0
 10
39
 20
5
 30
0.0
 11
40
 21
7
 31
0.0
  0
LINE
  5
9082
  8
0
 10
40
 20
7
 30
0.0
 11
38
 21
7
 31
0.0
  0
LINE
  5
9083
  8
0
 10
38
 20
7
 30
0.0
 11
37
 21
5
 31
0.0
  0
LINE
  5
9084
  8
0
 10
37
 20
5
 30
0.0
 11
38
 21
3
 31
0.0
  0
LINE
  5
9085
  8
0
 10
38
 20
3
 30
0.0
 11
37
 21
1
 31
0.0
  0
LINE
  5
9086
  8
0
 10
37
 20
1
 30
0.0
 11
35
 21
1
 31
0.0
  0
LINE
  5
9087
  8
0
 10
35
 20
1
 30
0.0
 11
36
 21
3
 31
0.0
  0
LINE
  5
9088
  8
0
 10
36
 20
3
 30
0.0
 11
35
 21
5
 31
0.0
  0
LINE
  5
9089
  8
0
 10
35
 20
5
 30
0.0
 11
36
 21
7
 31
0.0
  0
LINE
  5
9090
  8
0
 10
36
 20
7
 30
0.0
 11
34
 21
7
 31
0.0
  0
LINE
  5
9091
  8
0
 10
34
 20
7
 30
0.0
 11
32
 21
7
 31
0.0
  0
LINE
  5
9092
  8
0
 10
32
 20
7
 30
0.0
 11
33
 21
5
 31
0.0
  0
LINE
  5
9093
  8
0
 10
33
 20
5
 30
0.0
 11
32
 21
3
 31
0.0
  0
LINE
  5
9094
  8
0
 10
32
 20
3
 30
0.0
 11
34
 21
3
 31
0.0
  0
LINE
  5
9095
  8
0
 10
34
 20
3
 30
0.0
 11
33
 21
1
 31
0.0
  0
LINE
  5
9096
  8
0
 10
33
 20
1
 30
0.0
 11
30
 21
1
 31
0.0
  0
LINE
  5
9097
  8
0
 10
30
 20
1
 30
0.0
 11
29
 21
1
 31
0.0
  0
LINE
  5
9098
  8
0
 10
29
 20
1
 30
0.0
 11
28
 21
1
 31
0.0
  0
LINE
  5
9099
  8
0
 10
28
 20
1
 30
0.0
 11
27
 21
1
 31
0.0
  0
LINE
  5
9100
  8
0
 10
27
 20
1
 30
0.0
 11
26
 21
1
 31
0.0
  0
LINE
  5
9101
  8
0
 10
26
 20
1
 30
0.0
 11
25
 21
1
 31
0.0
  0
LINE
  5
9102
  8
0
 10
25
 20
1
 30
0.0
 11
24
 21
1
 31
0.0
  0
LINE
  5
9103
  8
0
 10
24
 20
1
 30
0.0
 11
23
 21
1
 31
0.0
  0
LINE
  5
9104
  8
0
 10
23
 20
1
 30
0.0
 11
22
 21
1
 31
0.0
  0
LINE
  5
9105
  8
0
 10
22
 20
1
 30
0.0
 11
21
 21
1
 31
0.0
  0
LINE
  5
9106
  8
0
 10
21
 20
1
 30
0.0
 11
20
 21
1
 31
0.0
  0
LINE
  5
9107
  8
0
 10
20
 20
1
 30
0.0
 11
19
 21
1
 31
0.0
  0
LINE
  5
9108
  8
0
 10
19
 20
1
 30
0.0
 11
18
 21
0
 31
0.0
  0
LINE
  5
9109
  8
0
 10
18
 20
0
 30
0.0
 11
17
 21
0
 31
0.0
  0
LINE
  5
9110
  8
0
 10
17
 20
0
 30
0.0
 11
16
 21
0
 31
0.0
  0
LINE
  5
9111
  8
0
 10
16
 20
0
 30
0.0
 11
15
 21
0
 31
0.0
  0
LINE
  5
9112
  8
0
 10
15
 20
0
 30
0.0
 11
14
 21
0
 31
0.0
  0
LINE
  5
9113
  8
0
 10
14
 20
0
 30
0.0
 11
13
 21
0
 31
0.0
  0
LINE
  5
9114
  8
0
 10
13
 20
0
 30
0.0
 11
12
 21
0
 31
0.0
  0
LINE
  5
9115
  8
0
 10
12
 20
0
 30
0.0
 11
11
 21
0
 31
0.0
  0
LINE
  5
9116
  8
0
 10
11
 20
0
 30
0.0
 11
10
 21
0
 31
0.0
  0
LINE
  5
9117
  8
0
 10
10
 20
0
 30
0.0
 11
9
 21
0
 31
0.0
  0
LINE
  5
9118
  8
0
 10
9
 20
0
 30
0.0
 11
8
 21
0
 31
0.0
  0
LINE
  5
9119
  8
0
 10
8
 20
0
 30
0.0
 11
7
 21
0
 31
0.0
  0
LINE
  5
9120
  8
0
 10
7
 20
0
 30
0.0
 11
6
 21
0
 31
0.0
  0
LINE
  5
9121
  8
0
 10
6
 20
0
 30
0.0
 11
7
 21
3
 31
0.0
  0
LINE
  5
9122
  8
0
 10
7
 20
3
 30
0.0
 11
8
 21
3
 31
0.0
  0
LINE
  5
9123
  8
0
 10
8
 20
3
 30
0.0
 11
9
 21
3
 31
0.0
  0
LINE
  5
9124
  8
0
 10
9
 20
3
 30
0.0
 11
10
 21
3
 31
0.0
  0
LINE
  5
9125
  8
0
 10
10
 20
3
 30
0.0
 11
11
 21
3
 31
0.0
  0
LINE
  5
9126
  8
0
 10
11
 20
3
 30
0.0
 11
12
 21
3
 31
0.0
  0
LINE
  5
9127
  8
0
 10
12
 20
3
 30
0.0
 11
13
 21
3
 31
0.0
  0
LINE
  5
9128
  8
0
 10
13
 20
3
 30
0.0
 11
14
 21
3
 31
0.0
  0
LINE
  5
9129
  8
0
 10
14
 20
3
 30
0.0
 11
15
 21
3
 31
0.0
  0
LINE
  5
9130
  8
0
 10
15
 20
3
 30
0.0
 11
16
 21
3
 31
0.0
  0
LINE
  5
9131
  8
0
 10
16
 20
3
 30
0.0
 11
17
 21
3
 31
0.0
  0
LINE
  5
9132
  8
0
 10
17
 20
3
 30
0.0
 11
18
 21
3
 31
0.0
  0
LINE
  5
9133
  8
0
 10
18
 20
3
 30
0.0
 11
19
 21
3
 31
0.0
  0
LINE
  5
9134
  8
0
 10
19
 20
3
 30
0.0
 11
20
 21
3
 31
0.0
  0
LINE
  5
9135
  8
0
 10
20
 20
3
 30
0.0
 11
21
 21
3
 31
0.0
  0
LINE
  5
9136
  8
0
 10
21
 20
3
 30
0.0
 11
22
 21
3
 31
0.0
  0
LINE
  5
9137
  8
0
 10
22
 20
3
 30
0.0
 11
23
 21
3
 31
0.0
  0
LINE
  5
9138
  8
0
 10
23
 20
3
 30
0.0
 11
24
 21
3
 31
0.0
  0
LINE
  5
9139
  8
0
 10
24
 20
3
 30
0.0
 11
25
 21
3
 31
0.0
  0
LINE
  5
9140
  8
0
 10
25
 20
3
 30
0.0
 11
26
 21
3
 31
0.0
  0
LINE
  5
9141
  8
0
 10
26
 20
3
 30
0.0
 11
27
 21
3
 31
0.0
  0
LINE
  5
9142
  8
0
 10
27
 20
3
 30
0.0
 11
28
 21
3
 31
0.0
  0
LINE
  5
9143
  8
0
 10
28
 20
3
 30
0.0
 11
29
 21
3
 31
0.0
  0
LINE
  5
9144
  8
0
 10
29
 20
3
 30
0.0
 11
30
 21
3
 31
0.0
  0
LINE
  5
9145
  8
0
 10
30
 20
3
 30
0.0
 11
30
 21
5
 31
0.0
  0
LINE
  5
9146
  8
0
 10
30
 20
5
 30
0.0
 11
29
 21
5
 31
0.0
  0
LINE
  5
9147
  8
0
 10
29
 20
5
 30
0.0
 11
28
 21
5
 31
0.0
  0
LINE
  5
9148
  8
0
 10
28
 20
5
 30
0.0
 11
27
 21
5
 31
0.0
  0
LINE
  5
9149
  8
0
 10
27
 20
5
 30
0.0
 11
26
 21
5
 31
0.0
  0
LINE
  5
9150
  8
0
 10
26
 20
5
 30
0.0
 11
25
 21
5
 31
0.0
  0
LINE
  5
9151
  8
0
 10
25
 20
5
 30
0.0
 11
24
 21
5
 31
0.0
  0
LINE
  5
9152
  8
0
 10
24
 20
5
 30
0.0
 11
23
 21
5
 31
0.0
  0
LINE
  5
9153
  8
0
 10
23
 20
5
 30
0.0
 11
22
 21
5
 31
0.0
  0
LINE
  5
9154
  8
0
 10
22
 20
5
 30
0.0
 11
21
 21
5
 31
0.0
  0
LINE
  5
9155
  8
0
 10
21
 20
5
 30
0.0
 11
20
 21
5
 31
0.0
  0
LINE
  5
9156
  8
0
 10
20
 20
5
 30
0.0
 11
19
 21
5
 31
0.0
  0
LINE
  5
9157
  8
0
 10
19
 20
5
 30
0.0
 11
18
 21
5
 31
0.0
  0
LINE
  5
9158
  8
0
 10
18
 20
5
 30
0.0
 11
17
 21
5
 31
0.0
  0
LINE
  5
9159
  8
0
 10
17
 20
5
 30
0.0
 11
16
 21
5
 31
0.0
  0
LINE
  5
9160
  8
0
 10
16
 20
5
 30
0.0
 11
15
 21
5
 31
0.0
  0
LINE
  5
9161
  8
0
 10
15
 20
5
 30
0.0
 11
14
 21
5
 31
0.0
  0
LINE
  5
9162
  8
0
 10
14
 20
5
 30
0.0
 11
13
 21
5
 31
0.0
  0
LINE
  5
9163
  8
0
 10
13
 20
5
 30
0.0
 11
12
 21
5
 31
0.0
  0
LINE
  5
9164
  8
0
 10
12
 20
5
 30
0.0
 11
11
 21
5
 31
0.0
  0
LINE
  5
9165
  8
0
 10
11
 20
5
 30
0.0
 11
10
 21
5
 31
0.0
  0
LINE
  5
9166
  8
0
 10
10
 20
5
 30
0.0
 11
9
 21
5
 31
0.0
  0
LINE
  5
9167
  8
0
 10
9
 20
5
 30
0.0
 11
8
 21
5
 31
0.0
  0
LINE
  5
9168
  8
0
 10
8
 20
5
 30
0.0
 11
10
 21
8
 31
0.0
  0
LINE
  5
9169
  8
0
 10
10
 20
8
 30
0.0
 11
11
 21
8
 31
0.0
  0
LINE
  5
9170
  8
0
 10
11
 20
8
 30
0.0
 11
12
 21
8
 31
0.0
  0
LINE
  5
9171
  8
0
 10
12
 20
8
 30
0.0
 11
13
 21
8
 31
0.0
  0
LINE
  5
9172
  8
0
 10
13
 20
8
 30
0.0
 11
14
 21
8
 31
0.0
  0
LINE
  5
9173
  8
0
 10
14
 20
8
 30
0.0
 11
15
 21
7
 31
0.0
  0
LINE
  5
9174
  8
0
 10
15
 20
7
 30
0.0
 11
16
 21
7
 31
0.0
  0
LINE
  5
9175
  8
0
 10
16
 20
7
 30
0.0
 11
17
 21
7
 31
0.0
  0
LINE
  5
9176
  8
0
 10
17
 20
7
 30
0.0
 11
18
 21
7
 31
0.0
  0
LINE
  5
9177
  8
0
 10
18
 20
7
 30
0.0
 11
19
 21
7
 31
0.0
  0
LINE
  5
9178
  8
0
 10
19
 20
7
 30
0.0
 11
20
 21
7
 31
0.0
  0
LINE
  5
9179
  8
0
 10
20
 20
7
 30
0.0
 11
21
 21
7
 31
0.0
  0
LINE
  5
9180
  8
0
 10
21
 20
7
 30
0.0
 11
22
 21
7
 31
0.0
  0
LINE
  5
9181
  8
0
 10
22
 20
7
 30
0.0
 11
23
 21
7
 31
0.0
  0
LINE
  5
9182
  8
0
 10
23
 20
7
 30
0.0
 11
24
 21
7
 31
0.0
  0
LINE
  5
9183
  8
0
 10
24
 20
7
 30
0.0
 11
25
 21
7
 31
0.0
  0
LINE
  5
9184
  8
0
 10
25
 20
7
 30
0.0
 11
26
 21
7
 31
0.0
  0
LINE
  5
9185
  8
0
 10
26
 20
7
 30
0.0
 11
27
 21
7
 31
0.0
  0
LINE
  5
9186
  8
0
 10
27
 20
7
 30
0.0
 11
28
 21
7
 31
0.0
  0
LINE
  5
9187
  8
0
 10
28
 20
7
 30
0.0
 11
29
 21
7
 31
0.0
  0
LINE
  5
9188
  8
0
 10
29
 20
7
 30
0.0
 11
30
 21
7
 31
0.0
  0
LINE
  5
9189
  8
0
 10
30
 20
7
 30
0.0
 11
30
 21
9
 31
0.0
  0
LINE
  5
9190
  8
0
 10
30
 20
9
 30
0.0
 11
29
 21
9
 31
0.0
  0
LINE
  5
9191
  8
0
 10
29
 20
9
 30
0.0
 11
28
 21
9
 31
0.0
  0
LINE
  5
9192
  8
0
 10
28
 20
9
 30
0.0
 11
27
 21
9
 31
0.0
  0
LINE
  5
9193
  8
0
 10
27
 20
9
 30
0.0
 11
26
 21
9
 31
0.0
  0
LINE
  5
9194
  8
0
 10
26
 20
9
 30
0.0
 11
25
 21
9
 31
0.0
  0
LINE
  5
9195
  8
0
 10
25
 20
9
 30
0.0
 11
24
 21
9
 31
0.0
  0
LINE
  5
9196
  8
0
 10
24
 20
9
 30
0.0
 11
23
 21
9
 31
0.0
  0
LINE
  5
9197
  8
0
 10
23
 20
9
 30
0.0
 11
22
 21
10
 31
0.0
  0
LINE
  5
9198
  8
0
 10
22
 20
10
 30
0.0
 11
21
 21
10
 31
0.0
  0
LINE
  5
9199
  8
0
 10
21
 20
10
 30
0.0
 11
20
 21
10
 31
0.0
  0
LINE
  5
9200
  8
0
 10
20
 20
10
 30
0.0
 11
19
 21
10
 31
0.0
  0
LINE
  5
9201
  8
0
 10
19
 20
10
 30
0.0
 11
18
 21
10
 31
0.0
  0
LINE
  5
9202
  8
0
 10
18
 20
10
 30
0.0
 11
17
 21
10
 31
0.0
  0
LINE
  5
9203
  8
0
 10
17
 20
10
 30
0.0
 11
16
 21
10
 31
0.0
  0
LINE
  5
9204
  8
0
 10
16
 20
10
 30
0.0
 11
15
 21
10
 31
0.0
  0
LINE
  5
9205
  8
0
 10
15
 20
10
 30
0.0
 11
14
 21
11
 31
0.0
  0
LINE
  5
9206
  8
0
 10
14
 20
11
 30
0.0
 11
13
 21
11
 31
0.0
  0
LINE
  5
9207
  8
0
 10
13
 20
11
 30
0.0
 11
12
 21
11
 31
0.0
  0
LINE
  5
9208
  8
0
 10
12
 20
11
 30
0.0
 11
11
 21
11
 31
0.0
  0
LINE
  5
9209
  8
0
 10
11
 20
11
 30
0.0
 11
10
 21
11
 31
0.0
  0
LINE
  5
9210
  8
0
 10
10
 20
11
 30
0.0
 11
9
 21
11
 31
0.0
  0
LINE
  5
9211
  8
0
 10
9
 20
11
 30
0.0
 11
8
 21
11
 31
0.0
  0
LINE
  5
9212
  8
0
 10
8
 20
11
 30
0.0
 11
7
 21
11
 31
0.0
  0
LINE
  5
9213
  8
0
 10
7
 20
11
 30
0.0
 11
5
 21
14
 31
0.0
  0
LINE
  5
9214
  8
0
 10
5
 20
14
 30
0.0
 11
6
 21
14
 31
0.0
  0
LINE
  5
9215
  8
0
 10
6
 20
14
 30
0.0
 11
7
 21
13
 31
0.0
  0
LINE
  5
9216
  8
0
 10
7
 20
13
 30
0.0
 11
8
 21
13
 31
0.0
  0
LINE
  5
9217
  8
0
 10
8
 20
13
 30
0.0
 11
9
 21
13
 31
0.0
  0
LINE
  5
9218
  8
0
 10
9
 20
13
 30
0.0
 11
10
 21
13
 31
0.0
  0
LINE
  5
9219
  8
0
 10
10
 20
13
 30
0.0
 11
11
 21
13
 31
0.0
  0
LINE
  5
9220
  8
0
 10
11
 20
13
 30
0.0
 11
12
 21
13
 31
0.0
  0
LINE
  5
9221
  8
0
 10
12
 20
13
 30
0.0
 11
13
 21
13
 31
0.0
  0
LINE
  5
9222
  8
0
 10
13
 20
13
 30
0.0
 11
14
 21
13
 31
0.0
  0
LINE
  5
9223
  8
0
 10
14
 20
13
 30
0.0
 11
15
 21
12
 31
0.0
  0
LINE
  5
9224
  8
0
 10
15
 20
12
 30
0.0
 11
16
 21
12
 31
0.0
  0
LINE
  5
9225
  8
0
 10
16
 20
12
 30
0.0
 11
17
 21
12
 31
0.0
  0
LINE
  5
9226
  8
0
 10
17
 20
12
 30
0.0
 11
18
 21
12
 31
0.0
  0
LINE
  5
9227
  8
0
 10
18
 20
12
 30
0.0
 11
19
 21
12
 31
0.0
  0
LINE
  5
9228
  8
0
 10
19
 20
12
 30
0.0
 11
20
 21
12
 31
0.0
  0
LINE
  5
9229
  8
0
 10
20
 20
12
 30
0.0
 11
21
 21
12
 31
0.0
  0
LINE
  5
9230
  8
0
 10
21
 20
12
 30
0.0
 11
22
 21
12
 31
0.0
  0
LINE
  5
9231
  8
0
 10
22
 20
12
 30
0.0
 11
23
 21
11
 31
0.0
  0
LINE
  5
9232
  8
0
 10
23
 20
11
 30
0.0
 11
24
 21
11
 31
0.0
  0
LINE
  5
9233
  8
0
 10
24
 20
11
 30
0.0
 11
25
 21
11
 31
0.0
  0
LINE
  5
9234
  8
0
 10
25
 20
11
 30
0.0
 11
26
 21
11
 31
0.0
  0
LINE
  5
9235
  8
0
 10
26
 20
11
 30
0.0
 11
27
 21
11
 31
0.0
  0
LINE
  5
9236
  8
0
 10
27
 20
11
 30
0.0
 11
28
 21
11
 31
0.0
  0
LINE
  5
9237
  8
0
 10
28
 20
11
 30
0.0
 11
29
 21
11
 31
0.0
  0
LINE
  5
9238
  8
0
 10
29
 20
11
 30
0.0
 11
30
 21
11
 31
0.0
  0
LINE
  5
9239
  8
0
 10
30
 20
11
 30
0.0
 11
30
 21
13
 31
0.0
  0
LINE
  5
9240
  8
0
 10
30
 20
13
 30
0.0
 11
29
 21
13
 31
0.0
  0
LINE
  5
9241
  8
0
 10
29
 20
13
 30
0.0
 11
28
 21
13
 31
0.0
  0
LINE
  5
9242
  8
0
 10
28
 20
13
 30
0.0
 11
27
 21
13
 31
0.0
  0
LINE
  5
9243
  8
0
 10
27
 20
13
 30
0.0
 11
26
 21
13
 31
0.0
  0
LINE
  5
9244
  8
0
 10
26
 20
13
 30
0.0
 11
25
 21
13
 31
0.0
  0
LINE
  5
9245
  8
0
 10
25
 20
13
 30
0.0
 11
24
 21
13
 31
0.0
  0
LINE
  5
9246
  8
0
 10
24
 20
13
 30
0.0
 11
23
 21
13
 31
0.0
  0
LINE
  5
9247
  8
0
 10
23
 20
13
 30
0.0
 11
22
 21
14
 31
0.0
  0
LINE
  5
9248
  8
0
 10
22
 20
14
 30
0.0
 11
21
 21
14
 31
0.0
  0
LINE
  5
9249
  8
0
 10
21
 20
14
 30
0.0
 11
20
 21
14
 31
0.0
  0
LINE
  5
9250
  8
0
 10
20
 20
14
 30
0.0
 11
19
 21
14
 31
0.0
  0
LINE
  5
9251
  8
0
 10
19
 20
14
 30
0.0
 11
18
 21
14
 31
0.0
  0
LINE
  5
9252
  8
0
 10
18
 20
14
 30
0.0
 11
17
 21
14
 31
0.0
  0
LINE
  5
9253
  8
0
 10
17
 20
14
 30
0.0
 11
16
 21
14
 31
0.0
  0
LINE
  5
9254
  8
0
 10
16
 20
14
 30
0.0
 11
15
 21
14
 31
0.0
  0
LINE
  5
9255
  8
0
 10
15
 20
14
 30
0.0
 11
14
 21
15
 31
0.0
  0
LINE
  5
9256
  8
0
 10
14
 20
15
 30
0.0
 11
13
 21
15
 31
0.0
  0
LINE
  5
9257
  8
0
 10
13
 20
15
 30
0.0
 11
12
 21
15
 31
0.0
  0
LINE
  5
9258
  8
0
 10
12
 20
15
 30
0.0
 11
11
 21
15
 31
0.0
  0
LINE
  5
9259
  8
0
 10
11
 20
15
 30
0.0
 11
10
 21
15
 31
0.0
  0
LINE
  5
9260
  8
0
 10
10
 20
15
 30
0.0
 11
9
 21
15
 31
0.0
  0
LINE
  5
9261
  8
0
 10
9
 20
15
 30
0.0
 11
8
 21
15
 31
0.0
  0
LINE
  5
9262
  8
0
 10
8
 20
15
 30
0.0
 11
7
 21
15
 31
0.0
  0
LINE
  5
9263
  8
0
 10
7
 20
15
 30
0.0
 11
6
 21
16
 31
0.0
  0
LINE
  5
9264
  8
0
 10
6
 20
16
 30
0.0
 11
5
 21
16
 31
0.0
  0
LINE
  5
9265
  8
0
 10
5
 20
16
 30
0.0
 11
4
 21
16
 31
0.0
  0
LINE
  5
9266
  8
0
 10
4
 20
16
 30
0.0
 11
3
 21
16
 31
0.0
  0
LINE
  5
9267
  8
0
 10
3
 20
16
 30
0.0
 11
1
 21
18
 31
0.0
  0
LINE
  5
9268
  8
0
 10
1
 20
18
 30
0.0
 11
1
 21
19
 31
0.0
  0
LINE
  5
9269
  8
0
 10
1
 20
19
 30
0.0
 11
2
 21
19
 31
0.0
  0
LINE
  5
9270
  8
0
 10
2
 20
19
 30
0.0
 11
3
 21
19
 31
0.0
  0
LINE
  5
9271
  8
0
 10
3
 20
19
 30
0.0
 11
4
 21
18
 31
0.0
  0
LINE
  5
9272
  8
0
 10
4
 20
18
 30
0.0
 11
5
 21
18
 31
0.0
  0
LINE
  5
9273
  8
0
 10
5
 20
18
 30
0.0
 11
6
 21
18
 31
0.0
  0
LINE
  5
9274
  8
0
 10
6
 20
18
 30
0.0
 11
7
 21
18
 31
0.0
  0
LINE
  5
9275
  8
0
 10
7
 20
18
 30
0.0
 11
8
 21
17
 31
0.0
  0
LINE
  5
9276
  8
0
 10
8
 20
17
 30
0.0
 11
9
 21
17
 31
0.0
  0
LINE
  5
9277
  8
0
 10
9
 20
17
 30
0.0
 11
10
 21
17
 31
0.0
  0
LINE
  5
9278
  8
0
 10
10
 20
17
 30
0.0
 11
11
 21
17
 31
0.0
  0
LINE
  5
9279
  8
0
 10
11
 20
17
 30
0.0
 11
12
 21
17
 31
0.0
  0
LINE
  5
9280
  8
0
 10
12
 20
17
 30
0.0
 11
13
 21
17
 31
0.0
  0
LINE
  5
9281
  8
0
 10
13
 20
17
 30
0.0
 11
14
 21
17
 31
0.0
  0
LINE
  5
9282
  8
0
 10
14
 20
17
 30
0.0
 11
15
 21
16
 31
0.0
  0
LINE
  5
9283
  8
0
 10
15
 20
16
 30
0.0
 11
16
 21
16
 31
0.0
  0
LINE
  5
9284
  8
0
 10
16
 20
16
 30
0.0
 11
17
 21
16
 31
0.0
  0
LINE
  5
9285
  8
0
 10
17
 20
16
 30
0.0
 11
18
 21
16
 31
0.0
  0
LINE
  5
9286
  8
0
 10
18
 20
16
 30
0.0
 11
19
 21
16
 31
0.0
  0
LINE
  5
9287
  8
0
 10
19
 20
16
 30
0.0
 11
20
 21
16
 31
0.0
  0
LINE
  5
9288
  8
0
 10
20
 20
16
 30
0.0
 11
21
 21
16
 31
0.0
  0
LINE
  5
9289
  8
0
 10
21
 20
16
 30
0.0
 11
22
 21
16
 31
0.0
  0
LINE
  5
9290
  8
0
 10
22
 20
16
 30
0.0
 11
23
 21
15
 31
0.0
  0
LINE
  5
9291
  8
0
 10
23
 20
15
 30
0.0
 11
24
 21
15
 31
0.0
  0
LINE
  5
9292
  8
0
 10
24
 20
15
 30
0.0
 11
25
 21
15
 31
0.0
  0
LINE
  5
9293
  8
0
 10
25
 20
15
 30
0.0
 11
26
 21
15
 31
0.0
  0
LINE
  5
9294
  8
0
 10
26
 20
15
 30
0.0
 11
27
 21
15
 31
0.0
  0
LINE
  5
9295
  8
0
 10
27
 20
15
 30
0.0
 11
28
 21
15
 31
0.0
  0
LINE
  5
9296
  8
0
 10
28
 20
15
 30
0.0
 11
29
 21
15
 31
0.0
  0
LINE
  5
9297
  8
0
 10
29
 20
15
 30
0.0
 11
30
 21
15
 31
0.0
  0
LINE
  5
9298
  8
0
 10
183
 20
15
 30
0.0
 11
184
 21
13
 31
0.0
  0
LINE
  5
9299
  8
0
 10
184
 20
13
 30
0.0
 11
183
 21
11
 31
0.0
  0
LINE
  5
9300
  8
0
 10
183
 20
11
 30
0.0
 11
184
 21
9
 31
0.0
  0
LINE
  5
9301
  8
0
 10
184
 20
9
 30
0.0
 11
186
 21
9
 31
0.0
  0
LINE
  5
9302
  8
0
 10
186
 20
9
 30
0.0
 11
185
 21
11
 31
0.0
  0
LINE
  5
9303
  8
0
 10
185
 20
11
 30
0.0
 11
186
 21
13
 31
0.0
  0
LINE
  5
9304
  8
0
 10
186
 20
13
 30
0.0
 11
185
 21
15
 31
0.0
  0
LINE
  5
9305
  8
0
 10
185
 20
15
 30
0.0
 11
187
 21
15
 31
0.0
  0
LINE
  5
9306
  8
0
 10
187
 20
15
 30
0.0
 11
188
 21
13
 31
0.0
  0
LINE
  5
9307
  8
0
 10
188
 20
13
 30
0.0
 11
187
 21
11
 31
0.0
  0
LINE
  5
9308
  8
0
 10
187
 20
11
 30
0.0
 11
188
 21
9
 31
0.0
  0
LINE
  5
9309
  8
0
 10
188
 20
9
 30
0.0
 11
190
 21
9
 31
0.0
  0
LINE
  5
9310
  8
0
 10
190
 20
9
 30
0.0
 11
189
 21
11
 31
0.0
  0
LINE
  5
9311
  8
0
 10
189
 20
11
 30
0.0
 11
190
 21
13
 31
0.0
  0
LINE
  5
9312
  8
0
 10
190
 20
13
 30
0.0
 11
189
 21
15
 31
0.0
  0
LINE
  5
9313
  8
0
 10
189
 20
15
 30
0.0
 11
191
 21
15
 31
0.0
  0
LINE
  5
9314
  8
0
 10
191
 20
15
 30
0.0
 11
192
 21
13
 31
0.0
  0
LINE
  5
9315
  8
0
 10
192
 20
13
 30
0.0
 11
191
 21
11
 31
0.0
  0
LINE
  5
9316
  8
0
 10
191
 20
11
 30
0.0
 11
192
 21
9
 31
0.0
  0
LINE
  5
9317
  8
0
 10
192
 20
9
 30
0.0
 11
194
 21
9
 31
0.0
  0
LINE
  5
9318
  8
0
 10
194
 20
9
 30
0.0
 11
193
 21
11
 31
0.0
  0
LINE
  5
9319
  8
0
 10
193
 20
11
 30
0.0
 11
194
 21
13
 31
0.0
  0
LINE
  5
9320
  8
0
 10
194
 20
13
 30
0.0
 11
193
 21
15
 31
0.0
  0
LINE
  5
9321
  8
0
 10
193
 20
15
 30
0.0
 11
195
 21
15
 31
0.0
  0
LINE
  5
9322
  8
0
 10
195
 20
15
 30
0.0
 11
196
 21
13
 31
0.0
  0
LINE
  5
9323
  8
0
 10
196
 20
13
 30
0.0
 11
195
 21
11
 31
0.0
  0
LINE
  5
9324
  8
0
 10
195
 20
11
 30
0.0
 11
196
 21
9
 31
0.0
  0
LINE
  5
9325
  8
0
 10
196
 20
9
 30
0.0
 11
198
 21
9
 31
0.0
  0
LINE
  5
9326
  8
0
 10
198
 20
9
 30
0.0
 11
197
 21
11
 31
0.0
  0
LINE
  5
9327
  8
0
 10
197
 20
11
 30
0.0
 11
198
 21
13
 31
0.0
  0
LINE
  5
9328
  8
0
 10
198
 20
13
 30
0.0
 11
197
 21
15
 31
0.0
  0
LINE
  5
9329
  8
0
 10
197
 20
15
 30
0.0
 11
199
 21
15
 31
0.0
  0
LINE
  5
9330
  8
0
 10
199
 20
15
 30
0.0
 11
200
 21
13
 31
0.0
  0
LINE
  5
9331
  8
0
 10
200
 20
13
 30
0.0
 11
199
 21
11
 31
0.0
  0
LINE
  5
9332
  8
0
 10
199
 20
11
 30
0.0
 11
200
 21
9
 31
0.0
  0
LINE
  5
9333
  8
0
 10
200
 20
9
 30
0.0
 11
202
 21
9
 31
0.0
  0
LINE
  5
9334
  8
0
 10
202
 20
9
 30
0.0
 11
201
 21
11
 31
0.0
  0
LINE
  5
9335
  8
0
 10
201
 20
11
 30
0.0
 11
202
 21
13
 31
0.0
  0
LINE
  5
9336
  8
0
 10
202
 20
13
 30
0.0
 11
201
 21
15
 31
0.0
  0
LINE
  5
9337
  8
0
 10
201
 20
15
 30
0.0
 11
203
 21
15
 31
0.0
  0
LINE
  5
9338
  8
0
 10
203
 20
15
 30
0.0
 11
204
 21
13
 31
0.0
  0
LINE
  5
9339
  8
0
 10
204
 20
13
 30
0.0
 11
203
 21
11
 31
0.0
  0
LINE
  5
9340
  8
0
 10
203
 20
11
 30
0.0
 11
204
 21
9
 31
0.0
  0
LINE
  5
9341
  8
0
 10
204
 20
9
 30
0.0
 11
206
 21
9
 31
0.0
  0
LINE
  5
9342
  8
0
 10
206
 20
9
 30
0.0
 11
205
 21
11
 31
0.0
  0
LINE
  5
9343
  8
0
 10
205
 20
11
 30
0.0
 11
206
 21
13
 31
0.0
  0
LINE
  5
9344
  8
0
 10
206
 20
13
 30
0.0
 11
205
 21
15
 31
0.0
  0
LINE
  5
9345
  8
0
 10
205
 20
15
 30
0.0
 11
207
 21
15
 31
0.0
  0
LINE
  5
9346
  8
0
 10
207
 20
15
 30
0.0
 11
208
 21
13
 31
0.0
  0
LINE
  5
9347
  8
0
 10
208
 20
13
 30
0.0
 11
207
 21
11
 31
0.0
  0
LINE
  5
9348
  8
0
 10
207
 20
11
 30
0.0
 11
208
 21
9
 31
0.0
  0
LINE
  5
9349
  8
0
 10
208
 20
9
 30
0.0
 11
210
 21
9
 31
0.0
  0
LINE
  5
9350
  8
0
 10
210
 20
9
 30
0.0
 11
209
 21
11
 31
0.0
  0
LINE
  5
9351
  8
0
 10
209
 20
11
 30
0.0
 11
210
 21
13
 31
0.0
  0
LINE
  5
9352
  8
0
 10
210
 20
13
 30
0.0
 11
209
 21
15
 31
0.0
  0
LINE
  5
9353
  8
0
 10
209
 20
15
 30
0.0
 11
211
 21
15
 31
0.0
  0
LINE
  5
9354
  8
0
 10
211
 20
15
 30
0.0
 11
212
 21
13
 31
0.0
  0
LINE
  5
9355
  8
0
 10
212
 20
13
 30
0.0
 11
211
 21
11
 31
0.0
  0
LINE
  5
9356
  8
0
 10
211
 20
11
 30
0.0
 11
212
 21
9
 31
0.0
  0
LINE
  5
9357
  8
0
 10
212
 20
9
 30
0.0
 11
214
 21
9
 31
0.0
  0
LINE
  5
9358
  8
0
 10
214
 20
9
 30
0.0
 11
213
 21
11
 31
0.0
  0
LINE
  5
9359
  8
0
 10
213
 20
11
 30
0.0
 11
214
 21
13
 31
0.0
  0
LINE
  5
9360
  8
0
 10
214
 20
13
 30
0.0
 11
213
 21
15
 31
0.0
  0
LINE
  5
9361
  8
0
 10
213
 20
15
 30
0.0
 11
215
 21
15
 31
0.0
  0
LINE
  5
9362
  8
0
 10
215
 20
15
 30
0.0
 11
217
 21
15
 31
0.0
  0
LINE
  5
9363
  8
0
 10
217
 20
15
 30
0.0
 11
216
 21
13
 31
0.0
  0
LINE
  5
9364
  8
0
 10
216
 20
13
 30
0.0
 11
215
 21
11
 31
0.0
  0
LINE
  5
9365
  8
0
 10
215
 20
11
 30
0.0
 11
217
 21
11
 31
0.0
  0
LINE
  5
9366
  8
0
 10
217
 20
11
 30
0.0
 11
216
 21
9
 31
0.0
  0
LINE
  5
9367
  8
0
 10
216
 20
9
 30
0.0
 11
208
 21
17
 31
0.0
  0
LINE
  5
9368
  8
0
 10
208
 20
17
 30
0.0
 11
206
 21
17
 31
0.0
  0
LINE
  5
9369
  8
0
 10
206
 20
17
 30
0.0
 11
204
 21
17
 31
0.0
  0
LINE
  5
9370
  8
0
 10
204
 20
17
 30
0.0
 11
202
 21
17
 31
0.0
  0
LINE
  5
9371
  8
0
 10
202
 20
17
 30
0.0
 11
200
 21
17
 31
0.0
  0
LINE
  5
9372
  8
0
 10
200
 20
17
 30
0.0
 11
198
 21
17
 31
0.0
  0
LINE
  5
9373
  8
0
 10
198
 20
17
 30
0.0
 11
196
 21
17
 31
0.0
  0
LINE
  5
9374
  8
0
 10
196
 20
17
 30
0.0
 11
194
 21
17
 31
0.0
  0
LINE
  5
9375
  8
0
 10
194
 20
17
 30
0.0
 11
192
 21
17
 31
0.0
  0
LINE
  5
9376
  8
0
 10
192
 20
17
 30
0.0
 11
190
 21
17
 31
0.0
  0
LINE
  5
9377
  8
0
 10
190
 20
17
 30
0.0
 11
189
 21
19
 31
0.0
  0
LINE
  5
9378
  8
0
 10
189
 20
19
 30
0.0
 11
188
 21
17
 31
0.0
  0
LINE
  5
9379
  8
0
 10
188
 20
17
 30
0.0
 11
187
 21
19
 31
0.0
  0
LINE
  5
9380
  8
0
 10
187
 20
19
 30
0.0
 11
186
 21
17
 31
0.0
  0
LINE
  5
9381
  8
0
 10
186
 20
17
 30
0.0
 11
185
 21
19
 31
0.0
  0
LINE
  5
9382
  8
0
 10
185
 20
19
 30
0.0
 11
184
 21
17
 31
0.0
  0
LINE
  5
9383
  8
0
 10
184
 20
17
 30
0.0
 11
183
 21
19
 31
0.0
  0
LINE
  5
9384
  8
0
 10
183
 20
19
 30
0.0
 11
182
 21
17
 31
0.0
  0
LINE
  5
9385
  8
0
 10
182
 20
17
 30
0.0
 11
181
 21
19
 31
0.0
  0
LINE
  5
9386
  8
0
 10
181
 20
19
 30
0.0
 11
180
 21
17
 31
0.0
  0
LINE
  5
9387
  8
0
 10
180
 20
17
 30
0.0
 11
179
 21
19
 31
0.0
  0
LINE
  5
9388
  8
0
 10
179
 20
19
 30
0.0
 11
178
 21
17
 31
0.0
  0
LINE
  5
9389
  8
0
 10
178
 20
17
 30
0.0
 11
177
 21
19
 31
0.0
  0
LINE
  5
9390
  8
0
 10
177
 20
19
 30
0.0
 11
176
 21
17
 31
0.0
  0
LINE
  5
9391
  8
0
 10
176
 20
17
 30
0.0
 11
175
 21
19
 31
0.0
  0
LINE
  5
9392
  8
0
 10
175
 20
19
 30
0.0
 11
175
 21
17
 31
0.0
  0
LINE
  5
9393
  8
0
 10
175
 20
17
 30
0.0
 11
181
 21
15
 31
0.0
  0
LINE
  5
9394
  8
0
 10
181
 20
15
 30
0.0
 11
179
 21
15
 31
0.0
  0
LINE
  5
9395
  8
0
 10
179
 20
15
 30
0.0
 11
177
 21
15
 31
0.0
  0
LINE
  5
9396
  8
0
 10
177
 20
15
 30
0.0
 11
175
 21
15
 31
0.0
  0
LINE
  5
9397
  8
0
 10
175
 20
15
 30
0.0
 11
175
 21
13
 31
0.0
  0
LINE
  5
9398
  8
0
 10
175
 20
13
 30
0.0
 11
176
 21
13
 31
0.0
  0
LINE
  5
9399
  8
0
 10
176
 20
13
 30
0.0
 11
178
 21
13
 31
0.0
  0
LINE
  5
9400
  8
0
 10
178
 20
13
 30
0.0
 11
180
 21
13
 31
0.0
  0
LINE
  5
9401
  8
0
 10
180
 20
13
 30
0.0
 11
182
 21
13
 31
0.0
  0
LINE
  5
9402
  8
0
 10
182
 20
13
 30
0.0
 11
181
 21
11
 31
0.0
  0
LINE
  5
9403
  8
0
 10
181
 20
11
 30
0.0
 11
179
 21
11
 31
0.0
  0
LINE
  5
9404
  8
0
 10
179
 20
11
 30
0.0
 11
177
 21
11
 31
0.0
  0
LINE
  5
9405
  8
0
 10
177
 20
11
 30
0.0
 11
175
 21
11
 31
0.0
  0
LINE
  5
9406
  8
0
 10
175
 20
11
 30
0.0
 11
175
 21
9
 31
0.0
  0
LINE
  5
9407
  8
0
 10
175
 20
9
 30
0.0
 11
176
 21
9
 31
0.0
  0
LINE
  5
9408
  8
0
 10
176
 20
9
 30
0.0
 11
178
 21
9
 31
0.0
  0
LINE
  5
9409
  8
0
 10
178
 20
9
 30
0.0
 11
180
 21
9
 31
0.0
  0
LINE
  5
9410
  8
0
 10
180
 20
9
 30
0.0
 11
182
 21
9
 31
0.0
  0
LINE
  5
9411
  8
0
 10
182
 20
9
 30
0.0
 11
181
 21
7
 31
0.0
  0
LINE
  5
9412
  8
0
 10
181
 20
7
 30
0.0
 11
179
 21
7
 31
0.0
  0
LINE
  5
9413
  8
0
 10
179
 20
7
 30
0.0
 11
177
 21
7
 31
0.0
  0
LINE
  5
9414
  8
0
 10
177
 20
7
 30
0.0
 11
175
 21
7
 31
0.0
  0
LINE
  5
9415
  8
0
 10
175
 20
7
 30
0.0
 11
175
 21
5
 31
0.0
  0
LINE
  5
9416
  8
0
 10
175
 20
5
 30
0.0
 11
176
 21
5
 31
0.0
  0
LINE
  5
9417
  8
0
 10
176
 20
5
 30
0.0
 11
178
 21
5
 31
0.0
  0
LINE
  5
9418
  8
0
 10
178
 20
5
 30
0.0
 11
180
 21
5
 31
0.0
  0
LINE
  5
9419
  8
0
 10
180
 20
5
 30
0.0
 11
182
 21
5
 31
0.0
  0
LINE
  5
9420
  8
0
 10
182
 20
5
 30
0.0
 11
181
 21
3
 31
0.0
  0
LINE
  5
9421
  8
0
 10
181
 20
3
 30
0.0
 11
179
 21
3
 31
0.0
  0
LINE
  5
9422
  8
0
 10
179
 20
3
 30
0.0
 11
177
 21
3
 31
0.0
  0
LINE
  5
9423
  8
0
 10
177
 20
3
 30
0.0
 11
175
 21
3
 31
0.0
  0
LINE
  5
9424
  8
0
 10
175
 20
3
 30
0.0
 11
175
 21
1
 31
0.0
  0
LINE
  5
9425
  8
0
 10
175
 20
1
 30
0.0
 11
176
 21
1
 31
0.0
  0
LINE
  5
9426
  8
0
 10
176
 20
1
 30
0.0
 11
178
 21
1
 31
0.0
  0
LINE
  5
9427
  8
0
 10
178
 20
1
 30
0.0
 11
180
 21
1
 31
0.0
  0
LINE
  5
9428
  8
0
 10
180
 20
1
 30
0.0
 11
182
 21
1
 31
0.0
  0
LINE
  5
9429
  8
0
 10
182
 20
1
 30
0.0
 11
183
 21
7
 31
0.0
  0
LINE
  5
9430
  8
0
 10
183
 20
7
 30
0.0
 11
184
 21
5
 31
0.0
  0
LINE
  5
9431
  8
0
 10
184
 20
5
 30
0.0
 11
183
 21
3
 31
0.0
  0
LINE
  5
9432
  8
0
 10
183
 20
3
 30
0.0
 11
184
 21
1
 31
0.0
  0
LINE
  5
9433
  8
0
 10
184
 20
1
 30
0.0
 11
186
 21
1
 31
0.0
  0
LINE
  5
9434
  8
0
 10
186
 20
1
 30
0.0
 11
185
 21
3
 31
0.0
  0
LINE
  5
9435
  8
0
 10
185
 20
3
 30
0.0
 11
186
 21
5
 31
0.0
  0
LINE
  5
9436
  8
0
 10
186
 20
5
 30
0.0
 11
185
 21
7
 31
0.0
  0
LINE
  5
9437
  8
0
 10
185
 20
7
 30
0.0
 11
187
 21
7
 31
0.0
  0
LINE
  5
9438
  8
0
 10
187
 20
7
 30
0.0
 11
188
 21
5
 31
0.0
  0
LINE
  5
9439
  8
0
 10
188
 20
5
 30
0.0
 11
187
 21
3
 31
0.0
  0
LINE
  5
9440
  8
0
 10
187
 20
3
 30
0.0
 11
188
 21
1
 31
0.0
  0
LINE
  5
9441
  8
0
 10
188
 20
1
 30
0.0
 11
190
 21
1
 31
0.0
  0
LINE
  5
9442
  8
0
 10
190
 20
1
 30
0.0
 11
189
 21
3
 31
0.0
  0
LINE
  5
9443
  8
0
 10
189
 20
3
 30
0.0
 11
190
 21
5
 31
0.0
  0
LINE
  5
9444
  8
0
 10
190
 20
5
 30
0.0
 11
189
 21
7
 31
0.0
  0
LINE
  5
9445
  8
0
 10
189
 20
7
 30
0.0
 11
191
 21
7
 31
0.0
  0
LINE
  5
9446
  8
0
 10
191
 20
7
 30
0.0
 11
192
 21
5
 31
0.0
  0
LINE
  5
9447
  8
0
 10
192
 20
5
 30
0.0
 11
191
 21
3
 31
0.0
  0
LINE
  5
9448
  8
0
 10
191
 20
3
 30
0.0
 11
192
 21
1
 31
0.0
  0
LINE
  5
9449
  8
0
 10
192
 20
1
 30
0.0
 11
194
 21
1
 31
0.0
  0
LINE
  5
9450
  8
0
 10
194
 20
1
 30
0.0
 11
193
 21
3
 31
0.0
  0
LINE
  5
9451
  8
0
 10
193
 20
3
 30
0.0
 11
194
 21
5
 31
0.0
  0
LINE
  5
9452
  8
0
 10
194
 20
5
 30
0.0
 11
193
 21
7
 31
0.0
  0
LINE
  5
9453
  8
0
 10
193
 20
7
 30
0.0
 11
195
 21
7
 31
0.0
  0
LINE
  5
9454
  8
0
 10
195
 20
7
 30
0.0
 11
196
 21
5
 31
0.0
  0
LINE
  5
9455
  8
0
 10
196
 20
5
 30
0.0
 11
195
 21
3
 31
0.0
  0
LINE
  5
9456
  8
0
 10
195
 20
3
 30
0.0
 11
196
 21
1
 31
0.0
  0
LINE
  5
9457
  8
0
 10
196
 20
1
 30
0.0
 11
198
 21
1
 31
0.0
  0
LINE
  5
9458
  8
0
 10
198
 20
1
 30
0.0
 11
197
 21
3
 31
0.0
  0
LINE
  5
9459
  8
0
 10
197
 20
3
 30
0.0
 11
198
 21
5
 31
0.0
  0
LINE
  5
9460
  8
0
 10
198
 20
5
 30
0.0
 11
197
 21
7
 31
0.0
  0
LINE
  5
9461
  8
0
 10
197
 20
7
 30
0.0
 11
199
 21
7
 31
0.0
  0
LINE
  5
9462
  8
0
 10
199
 20
7
 30
0.0
 11
201
 21
7
 31
0.0
  0
LINE
  5
9463
  8
0
 10
201
 20
7
 30
0.0
 11
200
 21
5
 31
0.0
  0
LINE
  5
9464
  8
0
 10
200
 20
5
 30
0.0
 11
201
 21
3
 31
0.0
  0
LINE
  5
9465
  8
0
 10
201
 20
3
 30
0.0
 11
199
 21
3
 31
0.0
  0
LINE
  5
9466
  8
0
 10
199
 20
3
 30
0.0
 11
200
 21
1
 31
0.0
  0
LINE
  5
9467
  8
0
 10
200
 20
1
 30
0.0
 11
202
 21
1
 31
0.0
  0
LINE
  5
9468
  8
0
 10
202
 20
1
 30
0.0
 11
203
 21
3
 31
0.0
  0
LINE
  5
9469
  8
0
 10
203
 20
3
 30
0.0
 11
202
 21
5
 31
0.0
  0
LINE
  5
9470
  8
0
 10
202
 20
5
 30
0.0
 11
203
 21
7
 31
0.0
  0
LINE
  5
9471
  8
0
 10
203
 20
7
 30
0.0
 11
205
 21
7
 31
0.0
  0
LINE
  5
9472
  8
0
 10
205
 20
7
 30
0.0
 11
204
 21
5
 31
0.0
  0
LINE
  5
9473
  8
0
 10
204
 20
5
 30
0.0
 11
205
 21
3
 31
0.0
  0
LINE
  5
9474
  8
0
 10
205
 20
3
 30
0.0
 11
204
 21
1
 31
0.0
  0
LINE
  5
9475
  8
0
 10
204
 20
1
 30
0.0
 11
206
 21
1
 31
0.0
  0
LINE
  5
9476
  8
0
 10
206
 20
1
 30
0.0
 11
207
 21
3
 31
0.0
  0
LINE
  5
9477
  8
0
 10
207
 20
3
 30
0.0
 11
206
 21
5
 31
0.0
  0
LINE
  5
9478
  8
0
 10
206
 20
5
 30
0.0
 11
207
 21
7
 31
0.0
  0
LINE
  5
9479
  8
0
 10
207
 20
7
 30
0.0
 11
209
 21
7
 31
0.0
  0
LINE
  5
9480
  8
0
 10
209
 20
7
 30
0.0
 11
208
 21
5
 31
0.0
  0
LINE
  5
9481
  8
0
 10
208
 20
5
 30
0.0
 11
209
 21
3
 31
0.0
  0
LINE
  5
9482
  8
0
 10
209
 20
3
 30
0.0
 11
208
 21
1
 31
0.0
  0
LINE
  5
9483
  8
0
 10
208
 20
1
 30
0.0
 11
210
 21
1
 31
0.0
  0
LINE
  5
9484
  8
0
 10
210
 20
1
 30
0.0
 11
211
 21
3
 31
0.0
  0
LINE
  5
9485
  8
0
 10
211
 20
3
 30
0.0
 11
210
 21
5
 31
0.0
  0
LINE
  5
9486
  8
0
 10
210
 20
5
 30
0.0
 11
211
 21
7
 31
0.0
  0
LINE
  5
9487
  8
0
 10
211
 20
7
 30
0.0
 11
213
 21
7
 31
0.0
  0
LINE
  5
9488
  8
0
 10
213
 20
7
 30
0.0
 11
212
 21
5
 31
0.0
  0
LINE
  5
9489
  8
0
 10
212
 20
5
 30
0.0
 11
213
 21
3
 31
0.0
  0
LINE
  5
9490
  8
0
 10
213
 20
3
 30
0.0
 11
212
 21
1
 31
0.0
  0
LINE
  5
9491
  8
0
 10
212
 20
1
 30
0.0
 11
214
 21
1
 31
0.0
  0
LINE
  5
9492
  8
0
 10
214
 20
1
 30
0.0
 11
215
 21
3
 31
0.0
  0
LINE
  5
9493
  8
0
 10
215
 20
3
 30
0.0
 11
214
 21
5
 31
0.0
  0
LINE
  5
9494
  8
0
 10
214
 20
5
 30
0.0
 11
215
 21
7
 31
0.0
  0
LINE
  5
9495
  8
0
 10
215
 20
7
 30
0.0
 11
217
 21
7
 31
0.0
  0
LINE
  5
9496
  8
0
 10
217
 20
7
 30
0.0
 11
216
 21
5
 31
0.0
  0
LINE
  5
9497
  8
0
 10
216
 20
5
 30
0.0
 11
217
 21
3
 31
0.0
  0
LINE
  5
9498
  8
0
 10
217
 20
3
 30
0.0
 11
216
 21
1
 31
0.0
  0
LINE
  5
9499
  8
0
 10
216
 20
1
 30
0.0
 11
219
 21
1
 31
0.0
  0
LINE
  5
9500
  8
0
 10
219
 20
1
 30
0.0
 11
220
 21
1
 31
0.0
  0
LINE
  5
9501
  8
0
 10
220
 20
1
 30
0.0
 11
221
 21
1
 31
0.0
  0
LINE
  5
9502
  8
0
 10
221
 20
1
 30
0.0
 11
222
 21
1
 31
0.0
  0
LINE
  5
9503
  8
0
 10
222
 20
1
 30
0.0
 11
223
 21
1
 31
0.0
  0
LINE
  5
9504
  8
0
 10
223
 20
1
 30
0.0
 11
224
 21
1
 31
0.0
  0
LINE
  5
9505
  8
0
 10
224
 20
1
 30
0.0
 11
225
 21
1
 31
0.0
  0
LINE
  5
9506
  8
0
 10
225
 20
1
 30
0.0
 11
226
 21
1
 31
0.0
  0
LINE
  5
9507
  8
0
 10
226
 20
1
 30
0.0
 11
227
 21
1
 31
0.0
  0
LINE
  5
9508
  8
0
 10
227
 20
1
 30
0.0
 11
228
 21
1
 31
0.0
  0
LINE
  5
9509
  8
0
 10
228
 20
1
 30
0.0
 11
229
 21
1
 31
0.0
  0
LINE
  5
9510
  8
0
 10
229
 20
1
 30
0.0
 11
230
 21
1
 31
0.0
  0
LINE
  5
9511
  8
0
 10
230
 20
1
 30
0.0
 11
231
 21
0
 31
0.0
  0
LINE
  5
9512
  8
0
 10
231
 20
0
 30
0.0
 11
232
 21
0
 31
0.0
  0
LINE
  5
9513
  8
0
 10
232
 20
0
 30
0.0
 11
233
 21
0
 31
0.0
  0
LINE
  5
9514
  8
0
 10
233
 20
0
 30
0.0
 11
234
 21
0
 31
0.0
  0
LINE
  5
9515
  8
0
 10
234
 20
0
 30
0.0
 11
235
 21
0
 31
0.0
  0
LINE
  5
9516
  8
0
 10
235
 20
0
 30
0.0
 11
236
 21
0
 31
0.0
  0
LINE
  5
9517
  8
0
 10
236
 20
0
 30
0.0
 11
237
 21
0
 31
0.0
  0
LINE
  5
9518
  8
0
 10
237
 20
0
 30
0.0
 11
238
 21
0
 31
0.0
  0
LINE
  5
9519
  8
0
 10
238
 20
0
 30
0.0
 11
239
 21
0
 31
0.0
  0
LINE
  5
9520
  8
0
 10
239
 20
0
 30
0.0
 11
240
 21
0
 31
0.0
  0
LINE
  5
9521
  8
0
 10
240
 20
0
 30
0.0
 11
241
 21
0
 31
0.0
  0
LINE
  5
9522
  8
0
 10
241
 20
0
 30
0.0
 11
242
 21
0
 31
0.0
  0
LINE
  5
9523
  8
0
 10
242
 20
0
 30
0.0
 11
243
 21
0
 31
0.0
  0
LINE
  5
9524
  8
0
 10
243
 20
0
 30
0.0
 11
242
 21
3
 31
0.0
  0
LINE
  5
9525
  8
0
 10
242
 20
3
 30
0.0
 11
241
 21
3
 31
0.0
  0
LINE
  5
9526
  8
0
 10
241
 20
3
 30
0.0
 11
240
 21
3
 31
0.0
  0
LINE
  5
9527
  8
0
 10
240
 20
3
 30
0.0
 11
239
 21
3
 31
0.0
  0
LINE
  5
9528
  8
0
 10
239
 20
3
 30
0.0
 11
238
 21
3
 31
0.0
  0
LINE
  5
9529
  8
0
 10
238
 20
3
 30
0.0
 11
237
 21
3
 31
0.0
  0
LINE
  5
9530
  8
0
 10
237
 20
3
 30
0.0
 11
236
 21
3
 31
0.0
  0
LINE
  5
9531
  8
0
 10
236
 20
3
 30
0.0
 11
235
 21
3
 31
0.0
  0
LINE
  5
9532
  8
0
 10
235
 20
3
 30
0.0
 11
234
 21
3
 31
0.0
  0
LINE
  5
9533
  8
0
 10
234
 20
3
 30
0.0
 11
233
 21
3
 31
0.0
  0
LINE
  5
9534
  8
0
 10
233
 20
3
 30
0.0
 11
232
 21
3
 31
0.0
  0
LINE
  5
9535
  8
0
 10
232
 20
3
 30
0.0
 11
231
 21
3
 31
0.0
  0
LINE
  5
9536
  8
0
 10
231
 20
3
 30
0.0
 11
230
 21
3
 31
0.0
  0
LINE
  5
9537
  8
0
 10
230
 20
3
 30
0.0
 11
229
 21
3
 31
0.0
  0
LINE
  5
9538
  8
0
 10
229
 20
3
 30
0.0
 11
228
 21
3
 31
0.0
  0
LINE
  5
9539
  8
0
 10
228
 20
3
 30
0.0
 11
227
 21
3
 31
0.0
  0
LINE
  5
9540
  8
0
 10
227
 20
3
 30
0.0
 11
226
 21
3
 31
0.0
  0
LINE
  5
9541
  8
0
 10
226
 20
3
 30
0.0
 11
225
 21
3
 31
0.0
  0
LINE
  5
9542
  8
0
 10
225
 20
3
 30
0.0
 11
224
 21
3
 31
0.0
  0
LINE
  5
9543
  8
0
 10
224
 20
3
 30
0.0
 11
223
 21
3
 31
0.0
  0
LINE
  5
9544
  8
0
 10
223
 20
3
 30
0.0
 11
222
 21
3
 31
0.0
  0
LINE
  5
9545
  8
0
 10
222
 20
3
 30
0.0
 11
221
 21
3
 31
0.0
  0
LINE
  5
9546
  8
0
 10
221
 20
3
 30
0.0
 11
220
 21
3
 31
0.0
  0
LINE
  5
9547
  8
0
 10
220
 20
3
 30
0.0
 11
219
 21
3
 31
0.0
  0
LINE
  5
9548
  8
0
 10
219
 20
3
 30
0.0
 11
219
 21
5
 31
0.0
  0
LINE
  5
9549
  8
0
 10
219
 20
5
 30
0.0
 11
220
 21
5
 31
0.0
  0
LINE
  5
9550
  8
0
 10
220
 20
5
 30
0.0
 11
221
 21
5
 31
0.0
  0
LINE
  5
9551
  8
0
 10
221
 20
5
 30
0.0
 11
222
 21
5
 31
0.0
  0
LINE
  5
9552
  8
0
 10
222
 20
5
 30
0.0
 11
223
 21
5
 31
0.0
  0
LINE
  5
9553
  8
0
 10
223
 20
5
 30
0.0
 11
224
 21
5
 31
0.0
  0
LINE
  5
9554
  8
0
 10
224
 20
5
 30
0.0
 11
225
 21
5
 31
0.0
  0
LINE
  5
9555
  8
0
 10
225
 20
5
 30
0.0
 11
226
 21
5
 31
0.0
  0
LINE
  5
9556
  8
0
 10
226
 20
5
 30
0.0
 11
227
 21
5
 31
0.0
  0
LINE
  5
9557
  8
0
 10
227
 20
5
 30
0.0
 11
228
 21
5
 31
0.0
  0
LINE
  5
9558
  8
0
 10
228
 20
5
 30
0.0
 11
229
 21
5
 31
0.0
  0
LINE
  5
9559
  8
0
 10
229
 20
5
 30
0.0
 11
230
 21
5
 31
0.0
  0
LINE
  5
9560
  8
0
 10
230
 20
5
 30
0.0
 11
231
 21
5
 31
0.0
  0
LINE
  5
9561
  8
0
 10
231
 20
5
 30
0.0
 11
232
 21
5
 31
0.0
  0
LINE
  5
9562
  8
0
 10
232
 20
5
 30
0.0
 11
233
 21
5
 31
0.0
  0
LINE
  5
9563
  8
0
 10
233
 20
5
 30
0.0
 11
234
 21
5
 31
0.0
  0
LINE
  5
9564
  8
0
 10
234
 20
5
 30
0.0
 11
235
 21
5
 31
0.0
  0
LINE
  5
9565
  8
0
 10
235
 20
5
 30
0.0
 11
236
 21
5
 31
0.0
  0
LINE
  5
9566
  8
0
 10
236
 20
5
 30
0.0
 11
237
 21
5
 31
0.0
  0
LINE
  5
9567
  8
0
 10
237
 20
5
 30
0.0
 11
238
 21
5
 31
0.0
  0
LINE
  5
9568
  8
0
 10
238
 20
5
 30
0.0
 11
239
 21
5
 31
0.0
  0
LINE
  5
9569
  8
0
 10
239
 20
5
 30
0.0
 11
240
 21
5
 31
0.0
  0
LINE
  5
9570
  8
0
 10
240
 20
5
 30
0.0
 11
241
 21
5
 31
0.0
  0
LINE
  5
9571
  8
0
 10
241
 20
5
 30
0.0
 11
239
 21
8
 31
0.0
  0
LINE
  5
9572
  8
0
 10
239
 20
8
 30
0.0
 11
238
 21
8
 31
0.0
  0
LINE
  5
9573
  8
0
 10
238
 20
8
 30
0.0
 11
237
 21
8
 31
0.0
  0
LINE
  5
9574
  8
0
 10
237
 20
8
 30
0.0
 11
236
 21
8
 31
0.0
  0
LINE
  5
9575
  8
0
 10
236
 20
8
 30
0.0
 11
235
 21
8
 31
0.0
  0
LINE
  5
9576
  8
0
 10
235
 20
8
 30
0.0
 11
234
 21
7
 31
0.0
  0
LINE
  5
9577
  8
0
 10
234
 20
7
 30
0.0
 11
233
 21
7
 31
0.0
  0
LINE
  5
9578
  8
0
 10
233
 20
7
 30
0.0
 11
232
 21
7
 31
0.0
  0
LINE
  5
9579
  8
0
 10
232
 20
7
 30
0.0
 11
231
 21
7
 31
0.0
  0
LINE
  5
9580
  8
0
 10
231
 20
7
 30
0.0
 11
230
 21
7
 31
0.0
  0
LINE
  5
9581
  8
0
 10
230
 20
7
 30
0.0
 11
229
 21
7
 31
0.0
  0
LINE
  5
9582
  8
0
 10
229
 20
7
 30
0.0
 11
228
 21
7
 31
0.0
  0
LINE
  5
9583
  8
0
 10
228
 20
7
 30
0.0
 11
227
 21
7
 31
0.0
  0
LINE
  5
9584
  8
0
 10
227
 20
7
 30
0.0
 11
226
 21
7
 31
0.0
  0
LINE
  5
9585
  8
0
 10
226
 20
7
 30
0.0
 11
225
 21
7
 31
0.0
  0
LINE
  5
9586
  8
0
 10
225
 20
7
 30
0.0
 11
224
 21
7
 31
0.0
  0
LINE
  5
9587
  8
0
 10
224
 20
7
 30
0.0
 11
223
 21
7
 31
0.0
  0
LINE
  5
9588
  8
0
 10
223
 20
7
 30
0.0
 11
222
 21
7
 31
0.0
  0
LINE
  5
9589
  8
0
 10
222
 20
7
 30
0.0
 11
221
 21
7
 31
0.0
  0
LINE
  5
9590
  8
0
 10
221
 20
7
 30
0.0
 11
220
 21
7
 31
0.0
  0
LINE
  5
9591
  8
0
 10
220
 20
7
 30
0.0
 11
219
 21
7
 31
0.0
  0
LINE
  5
9592
  8
0
 10
219
 20
7
 30
0.0
 11
219
 21
9
 31
0.0
  0
LINE
  5
9593
  8
0
 10
219
 20
9
 30
0.0
 11
220
 21
9
 31
0.0
  0
LINE
  5
9594
  8
0
 10
220
 20
9
 30
0.0
 11
221
 21
9
 31
0.0
  0
LINE
  5
9595
  8
0
 10
221
 20
9
 30
0.0
 11
222
 21
9
 31
0.0
  0
LINE
  5
9596
  8
0
 10
222
 20
9
 30
0.0
 11
223
 21
9
 31
0.0
  0
LINE
  5
9597
  8
0
 10
223
 20
9
 30
0.0
 11
224
 21
9
 31
0.0
  0
LINE
  5
9598
  8
0
 10
224
 20
9
 30
0.0
 11
225
 21
9
 31
0.0
  0
LINE
  5
9599
  8
0
 10
225
 20
9
 30
0.0
 11
226
 21
9
 31
0.0
  0
LINE
  5
9600
  8
0
 10
226
 20
9
 30
0.0
 11
227
 21
10
 31
0.0
  0
LINE
  5
9601
  8
0
 10
227
 20
10
 30
0.0
 11
228
 21
10
 31
0.0
  0
LINE
  5
9602
  8
0
 10
228
 20
10
 30
0.0
 11
229
 21
10
 31
0.0
  0
LINE
  5
9603
  8
0
 10
229
 20
10
 30
0.0
 11
230
 21
10
 31
0.0
  0
LINE
  5
9604
  8
0
 10
230
 20
10
 30
0.0
 11
231
 21
10
 31
0.0
  0
LINE
  5
9605
  8
0
 10
231
 20
10
 30
0.0
 11
232
 21
10
 31
0.0
  0
LINE
  5
9606
  8
0
 10
232
 20
10
 30
0.0
 11
233
 21
10
 31
0.0
  0
LINE
  5
9607
  8
0
 10
233
 20
10
 30
0.0
 11
234
 21
10
 31
0.0
  0
LINE
  5
9608
  8
0
 10
234
 20
10
 30
0.0
 11
235
 21
11
 31
0.0
  0
LINE
  5
9609
  8
0
 10
235
 20
11
 30
0.0
 11
236
 21
11
 31
0.0
  0
LINE
  5
9610
  8
0
 10
236
 20
11
 30
0.0
 11
237
 21
11
 31
0.0
  0
LINE
  5
9611
  8
0
 10
237
 20
11
 30
0.0
 11
238
 21
11
 31
0.0
  0
LINE
  5
9612
  8
0
 10
238
 20
11
 30
0.0
 11
239
 21
11
 31
0.0
  0
LINE
  5
9613
  8
0
 10
239
 20
11
 30
0.0
 11
240
 21
11
 31
0.0
  0
LINE
  5
9614
  8
0
 10
240
 20
11
 30
0.0
 11
241
 21
11
 31
0.0
  0
LINE
  5
9615
  8
0
 10
241
 20
11
 30
0.0
 11
242
 21
11
 31
0.0
  0
LINE
  5
9616
  8
0
 10
242
 20
11
 30
0.0
 11
244
 21
14
 31
0.0
  0
LINE
  5
9617
  8
0
 10
244
 20
14
 30
0.0
 11
243
 21
14
 31
0.0
  0
LINE
  5
9618
  8
0
 10
243
 20
14
 30
0.0
 11
242
 21
13
 31
0.0
  0
LINE
  5
9619
  8
0
 10
242
 20
13
 30
0.0
 11
241
 21
13
 31
0.0
  0
LINE
  5
9620
  8
0
 10
241
 20
13
 30
0.0
 11
240
 21
13
 31
0.0
  0
LINE
  5
9621
  8
0
 10
240
 20
13
 30
0.0
 11
239
 21
13
 31
0.0
  0
LINE
  5
9622
  8
0
 10
239
 20
13
 30
0.0
 11
238
 21
13
 31
0.0
  0
LINE
  5
9623
  8
0
 10
238
 20
13
 30
0.0
 11
237
 21
13
 31
0.0
  0
LINE
  5
9624
  8
0
 10
237
 20
13
 30
0.0
 11
236
 21
13
 31
0.0
  0
LINE
  5
9625
  8
0
 10
236
 20
13
 30
0.0
 11
235
 21
13
 31
0.0
  0
LINE
  5
9626
  8
0
 10
235
 20
13
 30
0.0
 11
234
 21
12
 31
0.0
  0
LINE
  5
9627
  8
0
 10
234
 20
12
 30
0.0
 11
233
 21
12
 31
0.0
  0
LINE
  5
9628
  8
0
 10
233
 20
12
 30
0.0
 11
232
 21
12
 31
0.0
  0
LINE
  5
9629
  8
0
 10
232
 20
12
 30
0.0
 11
231
 21
12
 31
0.0
  0
LINE
  5
9630
  8
0
 10
231
 20
12
 30
0.0
 11
230
 21
12
 31
0.0
  0
LINE
  5
9631
  8
0
 10
230
 20
12
 30
0.0
 11
229
 21
12
 31
0.0
  0
LINE
  5
9632
  8
0
 10
229
 20
12
 30
0.0
 11
228
 21
12
 31
0.0
  0
LINE
  5
9633
  8
0
 10
228
 20
12
 30
0.0
 11
227
 21
12
 31
0.0
  0
LINE
  5
9634
  8
0
 10
227
 20
12
 30
0.0
 11
226
 21
11
 31
0.0
  0
LINE
  5
9635
  8
0
 10
226
 20
11
 30
0.0
 11
225
 21
11
 31
0.0
  0
LINE
  5
9636
  8
0
 10
225
 20
11
 30
0.0
 11
224
 21
11
 31
0.0
  0
LINE
  5
9637
  8
0
 10
224
 20
11
 30
0.0
 11
223
 21
11
 31
0.0
  0
LINE
  5
9638
  8
0
 10
223
 20
11
 30
0.0
 11
222
 21
11
 31
0.0
  0
LINE
  5
9639
  8
0
 10
222
 20
11
 30
0.0
 11
221
 21
11
 31
0.0
  0
LINE
  5
9640
  8
0
 10
221
 20
11
 30
0.0
 11
220
 21
11
 31
0.0
  0
LINE
  5
9641
  8
0
 10
220
 20
11
 30
0.0
 11
219
 21
11
 31
0.0
  0
LINE
  5
9642
  8
0
 10
219
 20
11
 30
0.0
 11
219
 21
13
 31
0.0
  0
LINE
  5
9643
  8
0
 10
219
 20
13
 30
0.0
 11
220
 21
13
 31
0.0
  0
LINE
  5
9644
  8
0
 10
220
 20
13
 30
0.0
 11
221
 21
13
 31
0.0
  0
LINE
  5
9645
  8
0
 10
221
 20
13
 30
0.0
 11
222
 21
13
 31
0.0
  0
LINE
  5
9646
  8
0
 10
222
 20
13
 30
0.0
 11
223
 21
13
 31
0.0
  0
LINE
  5
9647
  8
0
 10
223
 20
13
 30
0.0
 11
224
 21
13
 31
0.0
  0
LINE
  5
9648
  8
0
 10
224
 20
13
 30
0.0
 11
225
 21
13
 31
0.0
  0
LINE
  5
9649
  8
0
 10
225
 20
13
 30
0.0
 11
226
 21
13
 31
0.0
  0
LINE
  5
9650
  8
0
 10
226
 20
13
 30
0.0
 11
227
 21
14
 31
0.0
  0
LINE
  5
9651
  8
0
 10
227
 20
14
 30
0.0
 11
228
 21
14
 31
0.0
  0
LINE
  5
9652
  8
0
 10
228
 20
14
 30
0.0
 11
229
 21
14
 31
0.0
  0
LINE
  5
9653
  8
0
 10
229
 20
14
 30
0.0
 11
230
 21
14
 31
0.0
  0
LINE
  5
9654
  8
0
 10
230
 20
14
 30
0.0
 11
231
 21
14
 31
0.0
  0
LINE
  5
9655
  8
0
 10
231
 20
14
 30
0.0
 11
232
 21
14
 31
0.0
  0
LINE
  5
9656
  8
0
 10
232
 20
14
 30
0.0
 11
233
 21
14
 31
0.0
  0
LINE
  5
9657
  8
0
 10
233
 20
14
 30
0.0
 11
234
 21
14
 31
0.0
  0
LINE
  5
9658
  8
0
 10
234
 20
14
 30
0.0
 11
235
 21
15
 31
0.0
  0
LINE
  5
9659
  8
0
 10
235
 20
15
 30
0.0
 11
236
 21
15
 31
0.0
  0
LINE
  5
9660
  8
0
 10
236
 20
15
 30
0.0
 11
237
 21
15
 31
0.0
  0
LINE
  5
9661
  8
0
 10
237
 20
15
 30
0.0
 11
238
 21
15
 31
0.0
  0
LINE
  5
9662
  8
0
 10
238
 20
15
 30
0.0
 11
239
 21
15
 31
0.0
  0
LINE
  5
9663
  8
0
 10
239
 20
15
 30
0.0
 11
240
 21
15
 31
0.0
  0
LINE
  5
9664
  8
0
 10
240
 20
15
 30
0.0
 11
241
 21
15
 31
0.0
  0
LINE
  5
9665
  8
0
 10
241
 20
15
 30
0.0
 11
242
 21
15
 31
0.0
  0
LINE
  5
9666
  8
0
 10
242
 20
15
 30
0.0
 11
243
 21
16
 31
0.0
  0
LINE
  5
9667
  8
0
 10
243
 20
16
 30
0.0
 11
244
 21
16
 31
0.0
  0
LINE
  5
9668
  8
0
 10
244
 20
16
 30
0.0
 11
245
 21
16
 31
0.0
  0
LINE
  5
9669
  8
0
 10
245
 20
16
 30
0.0
 11
246
 21
16
 31
0.0
  0
LINE
  5
9670
  8
0
 10
246
 20
16
 30
0.0
 11
248
 21
18
 31
0.0
  0
LINE
  5
9671
  8
0
 10
248
 20
18
 30
0.0
 11
248
 21
19
 31
0.0
  0
LINE
  5
9672
  8
0
 10
248
 20
19
 30
0.0
 11
247
 21
19
 31
0.0
  0
LINE
  5
9673
  8
0
 10
247
 20
19
 30
0.0
 11
246
 21
19
 31
0.0
  0
LINE
  5
9674
  8
0
 10
246
 20
19
 30
0.0
 11
245
 21
18
 31
0.0
  0
LINE
  5
9675
  8
0
 10
245
 20
18
 30
0.0
 11
244
 21
18
 31
0.0
  0
LINE
  5
9676
  8
0
 10
244
 20
18
 30
0.0
 11
243
 21
18
 31
0.0
  0
LINE
  5
9677
  8
0
 10
243
 20
18
 30
0.0
 11
242
 21
18
 31
0.0
  0
LINE
  5
9678
  8
0
 10
242
 20
18
 30
0.0
 11
241
 21
17
 31
0.0
  0
LINE
  5
9679
  8
0
 10
241
 20
17
 30
0.0
 11
240
 21
17
 31
0.0
  0
LINE
  5
9680
  8
0
 10
240
 20
17
 30
0.0
 11
239
 21
17
 31
0.0
  0
LINE
  5
9681
  8
0
 10
239
 20
17
 30
0.0
 11
238
 21
17
 31
0.0
  0
LINE
  5
9682
  8
0
 10
238
 20
17
 30
0.0
 11
237
 21
17
 31
0.0
  0
LINE
  5
9683
  8
0
 10
237
 20
17
 30
0.0
 11
236
 21
17
 31
0.0
  0
LINE
  5
9684
  8
0
 10
236
 20
17
 30
0.0
 11
235
 21
17
 31
0.0
  0
LINE
  5
9685
  8
0
 10
235
 20
17
 30
0.0
 11
234
 21
16
 31
0.0
  0
LINE
  5
9686
  8
0
 10
234
 20
16
 30
0.0
 11
233
 21
16
 31
0.0
  0
LINE
  5
9687
  8
0
 10
233
 20
16
 30
0.0
 11
232
 21
16
 31
0.0
  0
LINE
  5
9688
  8
0
 10
232
 20
16
 30
0.0
 11
231
 21
16
 31
0.0
  0
LINE
  5
9689
  8
0
 10
231
 20
16
 30
0.0
 11
230
 21
16
 31
0.0
  0
LINE
  5
9690
  8
0
 10
230
 20
16
 30
0.0
 11
229
 21
16
 31
0.0
  0
LINE
  5
9691
  8
0
 10
229
 20
16
 30
0.0
 11
228
 21
16
 31
0.0
  0
LINE
  5
9692
  8
0
 10
228
 20
16
 30
0.0
 11
227
 21
16
 31
0.0
  0
LINE
  5
9693
  8
0
 10
227
 20
16
 30
0.0
 11
226
 21
15
 31
0.0
  0
LINE
  5
9694
  8
0
 10
226
 20
15
 30
0.0
 11
225
 21
15
 31
0.0
  0
LINE
  5
9695
  8
0
 10
225
 20
15
 30
0.0
 11
224
 21
15
 31
0.0
  0
LINE
  5
9696
  8
0
 10
224
 20
15
 30
0.0
 11
223
 21
15
 31
0.0
  0
LINE
  5
9697
  8
0
 10
223
 20
15
 30
0.0
 11
222
 21
15
 31
0.0
  0
LINE
  5
9698
  8
0
 10
222
 20
15
 30
0.0
 11
221
 21
15
 31
0.0
  0
LINE
  5
9699
  8
0
 10
221
 20
15
 30
0.0
 11
220
 21
15
 31
0.0
  0
LINE
  5
9700
  8
0
 10
220
 20
15
 30
0.0
 11
219
 21
15
 31
0.0
  0
TEXT
  5
9701
  8
0
 62
     1
 10
136.5
 20
18.5
 30
0.0
 40
1.0
  1
p1
  0
LINE
  5
9702
  8
0
 62
     1
 10
136.5
 20
18.5
 30
0.0
 11
138
 21
18
 31
0.0
  0
TEXT
  5
9703
  8
0
 62
     1
 10
137.5
 20
16.5
 30
0.0
 40
1.0
  1
p2
  0
LINE
  5
9704
  8
0
 62
     1
 10
137.5
 20
16.5
 30
0.0
 11
139
 21
16
 31
0.0
  0
TEXT
  5
9705
  8
0
 62
     1
 10
64.5
 20
15.5
 30
0.0
 40
1.0
  1
p3
  0
LINE
  5
9706
  8
0
 62
     1
 10
64.5
 20
15.5
 30
0.0
 11
66
 21
15
 31
0.0
  0
TEXT
  5
9707
  8
0
 62
     1
 10
181.5
 20
15.5
 30
0.0
 40
1.0
  1
p4
  0
LINE
  5
9708
  8
0
 62
     1
 10
181.5
 20
15.5
 30
0.0
 11
183
 21
15
 31
0.0
  0
ENDSEC
  0
EOF
