  0
SECTION
  2
HEADER
  9
$ACADVER
  1
AC1009
  9
$INSBASE
 10
0.0
 20
0.0
 30
0.0
  9
$EXTMIN
 10
1.0
 20
1.0
 30
0.0
  9
$EXTMAX
 10
3.0
 20
3.0
 30
0.0
  9
$LIMMIN
 10
0.0
 20
0.0
  9
$LIMMAX
 10
420.0
 20
297.0
  9
$ORTHOMODE
 70
     0
  9
$REGENMODE
 70
     1
  9
$FILLMODE
 70
     1
  9
$QTEXTMODE
 70
     0
  9
$MIRRTEXT
 70
     0
  9
$DRAGMODE
 70
     2
  9
$LTSCALE
 40
1.0
  9
$OSMODE
 70
    37
  9
$ATTMODE
 70
     1
  9
$TEXTSIZE
 40
2.5
  9
$TRACEWID
 40
1.0
  9
$TEXTSTYLE
  7
STANDARD
  9
$CLAYER
  8
0
  9
$CELTYPE
  6
BYLAYER
  9
$CECOLOR
 62
   256
  9
$DIMSCALE
 40
1.0
  9
$DIMASZ
 40
2.5
  9
$DIMEXO
 40
0.625
  9
$DIMDLI
 40
3.75
  9
$DIMRND
 40
0.0
  9
$DIMDLE
 40
0.0
  9
$DIMEXE
 40
1.25
  9
$DIMTP
 40
0.0
  9
$DIMTM
 40
0.0
  9
$DIMTXT
 40
2.5
  9
$DIMCEN
 40
2.5
  9
$DIMTSZ
 40
0.0
  9
$DIMTOL
 70
     0
  9
$DIMLIM
 70
     0
  9
$DIMTIH
 70
     0
  9
$DIMTOH
 70
     0
  9
$DIMSE1
 70
     0
  9
$DIMSE2
 70
     0
  9
$DIMTAD
 70
     1
  9
$DIMZIN
 70
     8
  9
$DIMBLK
  1

  9
$DIMASO
 70
     1
  9
$DIMSHO
 70
     1
  9
$DIMPOST
  1

  9
$DIMAPOST
  1

  9
$DIMALT
 70
     0
  9
$DIMALTD
 70
     3
  9
$DIMALTF
 40
0.03937007874016
  9
$DIMLFAC
 40
1.0
  9
$DIMTOFL
 70
     1
  9
$DIMTVP
 40
0.0
  9
$DIMTIX
 70
     0
  9
$DIMSOXD
 70
     0
  9
$DIMSAH
 70
     0
  9
$DIMBLK1
  1

  9
$DIMBLK2
  1

  9
$DIMSTYLE
  2
ISO-25
  9
$DIMCLRD
 70
     0
  9
$DIMCLRE
 70
     0
  9
$DIMCLRT
 70
     0
  9
$DIMTFAC
 40
1.0
  9
$DIMGAP
 40
0.625
  9
$LUNITS
 70
     2
  9
$LUPREC
 70
     4
  9
$SKETCHINC
 40
1.0
  9
$FILLETRAD
 40
0.0
  9
$AUNITS
 70
     0
  9
$AUPREC
 70
     0
  9
$MENU
  1
.
  9
$ELEVATION
 40
0.0
  9
$PELEVATION
 40
0.0
  9
$THICKNESS
 40
0.0
  9
$LIMCHECK
 70
     0
  9
$BLIPMODE
 70
     0
  9
$CHAMFERA
 40
0.0
  9
$CHAMFERB
 40
0.0
  9
$SKPOLY
 70
     0
  9
$TDCREATE
 40
2454485.694817882
  9
$TDUPDATE
 40
2454485.6966635878
  9
$TDINDWG
 40
0.0018473264
  9
$TDUSRTIMER
 40
0.0018471528
  9
$USRTIMER
 70
     1
  9
$ANGBASE
 50
0.0
  9
$ANGDIR
 70
     0
  9
$PDMODE
 70
     0
  9
$PDSIZE
 40
0.0
  9
$PLINEWID
 40
0.0
  9
$COORDS
 70
     1
  9
$SPLFRAME
 70
     0
  9
$SPLINETYPE
 70
     6
  9
$SPLINESEGS
 70
     8
  9
$ATTDIA
 70
     0
  9
$ATTREQ
 70
     1
  9
$HANDLING
 70
     1
  9
$HANDSEED
  5
96
  9
$SURFTAB1
 70
     6
  9
$SURFTAB2
 70
     6
  9
$SURFTYPE
 70
     6
  9
$SURFU
 70
     6
  9
$SURFV
 70
     6
  9
$UCSNAME
  2

  9
$UCSORG
 10
0.0
 20
0.0
 30
0.0
  9
$UCSXDIR
 10
1.0
 20
0.0
 30
0.0
  9
$UCSYDIR
 10
0.0
 20
1.0
 30
0.0
  9
$PUCSNAME
  2

  9
$PUCSORG
 10
0.0
 20
0.0
 30
0.0
  9
$PUCSXDIR
 10
1.0
 20
0.0
 30
0.0
  9
$PUCSYDIR
 10
0.0
 20
1.0
 30
0.0
  9
$USERI1
 70
     0
  9
$USERI2
 70
     0
  9
$USERI3
 70
     0
  9
$USERI4
 70
     0
  9
$USERI5
 70
     0
  9
$USERR1
 40
0.0
  9
$USERR2
 40
0.0
  9
$USERR3
 40
0.0
  9
$USERR4
 40
0.0
  9
$USERR5
 40
0.0
  9
$WORLDVIEW
 70
     1
  9
$SHADEDGE
 70
     3
  9
$SHADEDIF
 70
    70
  9
$TILEMODE
 70
     1
  9
$MAXACTVP
 70
    64
  9
$PLIMCHECK
 70
     0
  9
$PEXTMIN
 10
0.0
 20
0.0
 30
0.0
  9
$PEXTMAX
 10
0.0
 20
0.0
 30
0.0
  9
$PLIMMIN
 10
0.0
 20
0.0
  9
$PLIMMAX
 10
12.0
 20
9.0
  9
$UNITMODE
 70
     0
  9
$VISRETAIN
 70
     1
  9
$PLINEGEN
 70
     0
  9
$PSLTSCALE
 70
     1
  0
ENDSEC
  0
SECTION
  2
TABLES
  0
TABLE
  2
VPORT
 70
     2
  0
VPORT
  2
*ACTIVE
 70
     0
 10
0.0
 20
0.0
 11
1.0
 21
1.0
 12
20.032850739476999
 22
12.30443880503212
 13
0.0
 23
0.0
 14
10.0
 24
10.0
 15
10.0
 25
10.0
 16
0.0
 26
0.0
 36
1.0
 17
0.0
 27
0.0
 37
0.0
 40
53.54964874631797
 41
1.88508064516129
 42
50.0
 43
0.0
 44
0.0
 50
0.0
 51
0.0
 71
     0
 72
  1000
 73
     1
 74
     3
 75
     0
 76
     0
 77
     0
 78
     0
  0
ENDTAB
  0
TABLE
  2
LTYPE
 70
     1
  0
LTYPE
  2
CONTINUOUS
 70
     0
  3
Solid line
 72
    65
 73
     0
 40
0.0
  0
ENDTAB
  0
TABLE
  2
LAYER
 70
     1
  0
LAYER
  2
0
 70
     0
 62
     7
  6
CONTINUOUS
  0
ENDTAB
  0
TABLE
  2
STYLE
 70
     1
  0
STYLE
  2
STANDARD
 70
     0
 40
0.0
 41
1.0
 50
0.0
 71
     0
 42
2.5
  3
txt
  4

  0
ENDTAB
  0
TABLE
  2
VIEW
 70
     0
  0
ENDTAB
  0
TABLE
  2
UCS
 70
     0
  0
ENDTAB
  0
TABLE
  2
APPID
 70
     1
  0
APPID
  2
ACAD
 70
     0
  0
ENDTAB
  0
TABLE
  2
DIMSTYLE
 70
     1
  0
DIMSTYLE
  2
ISO-25
 70
     0
  3

  4

  5

  6

  7

 40
1.0
 41
2.5
 42
0.625
 43
3.75
 44
1.25
 45
0.0
 46
0.0
 47
0.0
 48
0.0
140
2.5
141
2.5
142
0.0
143
0.03937007874016
144
1.0
145
0.0
146
1.0
147
0.625
 71
     0
 72
     0
 73
     0
 74
     0
 75
     0
 76
     0
 77
     1
 78
     8
170
     0
171
     3
172
     1
173
     0
174
     0
175
     0
176
     0
177
     0
178
     0
  0
ENDTAB
  0
ENDSEC
  0
SECTION
  2
BLOCKS
  0
BLOCK
  8
0
  2
$MODEL_SPACE
 70
     0
 10
0.0
 20
0.0
 30
0.0
  3
$MODEL_SPACE
  1

  0
ENDBLK
  5
21
  8
0
  0
BLOCK
 67
     1
  8
0
  2
$PAPER_SPACE
 70
     0
 10
0.0
 20
0.0
 30
0.0
  3
$PAPER_SPACE
  1

  0
ENDBLK
  5
53
 67
     1
  8
0
  0
ENDSEC
  0
SECTION
  2
ENTITIES
  0
CIRCLE
  5
208
  8
0
 10
19
 20
0
 30
0.0
 40
0.5
  0
CIRCLE
  5
216
  8
0
 10
19
 20
1
 30
0.0
 40
0.5
  0
CIRCLE
  5
224
  8
0
 10
19
 20
2
 30
0.0
 40
0.5
  0
CIRCLE
  5
232
  8
0
 10
19
 20
3
 30
0.0
 40
0.5
  0
CIRCLE
  5
240
  8
0
 10
19
 20
4
 30
0.0
 40
0.5
  0
CIRCLE
  5
248
  8
0
 10
19
 20
5
 30
0.0
 40
0.5
  0
CIRCLE
  5
256
  8
0
 10
19
 20
6
 30
0.0
 40
0.5
  0
CIRCLE
  5
264
  8
0
 10
19
 20
7
 30
0.0
 40
0.5
  0
CIRCLE
  5
272
  8
0
 10
19
 20
8
 30
0.0
 40
0.5
  0
CIRCLE
  5
280
  8
0
 10
19
 20
9
 30
0.0
 40
0.5
  0
CIRCLE
  5
288
  8
0
 10
19
 20
10
 30
0.0
 40
0.5
  0
CIRCLE
  5
296
  8
0
 10
19
 20
11
 30
0.0
 40
0.5
  0
CIRCLE
  5
304
  8
0
 10
19
 20
12
 30
0.0
 40
0.5
  0
CIRCLE
  5
312
  8
0
 10
19
 20
13
 30
0.0
 40
0.5
  0
CIRCLE
  5
320
  8
0
 10
19
 20
14
 30
0.0
 40
0.5
  0
CIRCLE
  5
328
  8
0
 10
19
 20
15
 30
0.0
 40
0.5
  0
CIRCLE
  5
336
  8
0
 10
19
 20
16
 30
0.0
 40
0.5
  0
CIRCLE
  5
344
  8
0
 10
19
 20
17
 30
0.0
 40
0.5
  0
CIRCLE
  5
352
  8
0
 10
19
 20
18
 30
0.0
 40
0.5
  0
CIRCLE
  5
360
  8
0
 10
19
 20
19
 30
0.0
 40
0.5
  0
CIRCLE
  5
368
  8
0
 10
19
 20
20
 30
0.0
 40
0.5
  0
CIRCLE
  5
376
  8
0
 10
19
 20
21
 30
0.0
 40
0.5
  0
CIRCLE
  5
384
  8
0
 10
19
 20
22
 30
0.0
 40
0.5
  0
CIRCLE
  5
392
  8
0
 10
19
 20
23
 30
0.0
 40
0.5
  0
CIRCLE
  5
400
  8
0
 10
19
 20
24
 30
0.0
 40
0.5
  0
CIRCLE
  5
408
  8
0
 10
19
 20
25
 30
0.0
 40
0.5
  0
CIRCLE
  5
416
  8
0
 10
19
 20
26
 30
0.0
 40
0.5
  0
CIRCLE
  5
424
  8
0
 10
19
 20
27
 30
0.0
 40
0.5
  0
CIRCLE
  5
432
  8
0
 10
19
 20
28
 30
0.0
 40
0.5
  0
CIRCLE
  5
440
  8
0
 10
19
 20
29
 30
0.0
 40
0.5
  0
CIRCLE
  5
448
  8
0
 10
19
 20
30
 30
0.0
 40
0.5
  0
CIRCLE
  5
456
  8
0
 10
19
 20
31
 30
0.0
 40
0.5
  0
CIRCLE
  5
464
  8
0
 10
19
 20
32
 30
0.0
 40
0.5
  0
CIRCLE
  5
472
  8
0
 10
19
 20
33
 30
0.0
 40
0.5
  0
CIRCLE
  5
480
  8
0
 10
19
 20
34
 30
0.0
 40
0.5
  0
CIRCLE
  5
488
  8
0
 10
19
 20
35
 30
0.0
 40
0.5
  0
CIRCLE
  5
496
  8
0
 10
18
 20
0
 30
0.0
 40
0.5
  0
CIRCLE
  5
504
  8
0
 10
17
 20
0
 30
0.0
 40
0.5
  0
CIRCLE
  5
512
  8
0
 10
17
 20
1
 30
0.0
 40
0.5
  0
CIRCLE
  5
520
  8
0
 10
17
 20
2
 30
0.0
 40
0.5
  0
CIRCLE
  5
528
  8
0
 10
17
 20
3
 30
0.0
 40
0.5
  0
CIRCLE
  5
536
  8
0
 10
17
 20
4
 30
0.0
 40
0.5
  0
CIRCLE
  5
544
  8
0
 10
17
 20
5
 30
0.0
 40
0.5
  0
CIRCLE
  5
552
  8
0
 10
17
 20
6
 30
0.0
 40
0.5
  0
CIRCLE
  5
560
  8
0
 10
17
 20
7
 30
0.0
 40
0.5
  0
CIRCLE
  5
568
  8
0
 10
17
 20
8
 30
0.0
 40
0.5
  0
CIRCLE
  5
576
  8
0
 10
17
 20
9
 30
0.0
 40
0.5
  0
CIRCLE
  5
584
  8
0
 10
17
 20
10
 30
0.0
 40
0.5
  0
CIRCLE
  5
592
  8
0
 10
17
 20
11
 30
0.0
 40
0.5
  0
CIRCLE
  5
600
  8
0
 10
17
 20
12
 30
0.0
 40
0.5
  0
CIRCLE
  5
608
  8
0
 10
17
 20
13
 30
0.0
 40
0.5
  0
CIRCLE
  5
616
  8
0
 10
17
 20
14
 30
0.0
 40
0.5
  0
CIRCLE
  5
624
  8
0
 10
17
 20
15
 30
0.0
 40
0.5
  0
CIRCLE
  5
632
  8
0
 10
17
 20
16
 30
0.0
 40
0.5
  0
CIRCLE
  5
640
  8
0
 10
17
 20
17
 30
0.0
 40
0.5
  0
CIRCLE
  5
648
  8
0
 10
17
 20
18
 30
0.0
 40
0.5
  0
CIRCLE
  5
656
  8
0
 10
17
 20
19
 30
0.0
 40
0.5
  0
CIRCLE
  5
664
  8
0
 10
17
 20
20
 30
0.0
 40
0.5
  0
CIRCLE
  5
672
  8
0
 10
17
 20
21
 30
0.0
 40
0.5
  0
CIRCLE
  5
680
  8
0
 10
17
 20
22
 30
0.0
 40
0.5
  0
CIRCLE
  5
688
  8
0
 10
17
 20
23
 30
0.0
 40
0.5
  0
CIRCLE
  5
696
  8
0
 10
17
 20
24
 30
0.0
 40
0.5
  0
CIRCLE
  5
704
  8
0
 10
17
 20
25
 30
0.0
 40
0.5
  0
CIRCLE
  5
712
  8
0
 10
17
 20
26
 30
0.0
 40
0.5
  0
CIRCLE
  5
720
  8
0
 10
17
 20
27
 30
0.0
 40
0.5
  0
CIRCLE
  5
728
  8
0
 10
17
 20
28
 30
0.0
 40
0.5
  0
CIRCLE
  5
736
  8
0
 10
17
 20
29
 30
0.0
 40
0.5
  0
CIRCLE
  5
744
  8
0
 10
17
 20
30
 30
0.0
 40
0.5
  0
CIRCLE
  5
752
  8
0
 10
17
 20
31
 30
0.0
 40
0.5
  0
CIRCLE
  5
760
  8
0
 10
17
 20
32
 30
0.0
 40
0.5
  0
CIRCLE
  5
768
  8
0
 10
17
 20
33
 30
0.0
 40
0.5
  0
CIRCLE
  5
776
  8
0
 10
17
 20
34
 30
0.0
 40
0.5
  0
CIRCLE
  5
784
  8
0
 10
17
 20
35
 30
0.0
 40
0.5
  0
CIRCLE
  5
792
  8
0
 10
16
 20
0
 30
0.0
 40
0.5
  0
CIRCLE
  5
800
  8
0
 10
15
 20
0
 30
0.0
 40
0.5
  0
CIRCLE
  5
808
  8
0
 10
15
 20
1
 30
0.0
 40
0.5
  0
CIRCLE
  5
816
  8
0
 10
15
 20
2
 30
0.0
 40
0.5
  0
CIRCLE
  5
824
  8
0
 10
15
 20
3
 30
0.0
 40
0.5
  0
CIRCLE
  5
832
  8
0
 10
15
 20
4
 30
0.0
 40
0.5
  0
CIRCLE
  5
840
  8
0
 10
15
 20
5
 30
0.0
 40
0.5
  0
CIRCLE
  5
848
  8
0
 10
15
 20
6
 30
0.0
 40
0.5
  0
CIRCLE
  5
856
  8
0
 10
15
 20
7
 30
0.0
 40
0.5
  0
CIRCLE
  5
864
  8
0
 10
15
 20
8
 30
0.0
 40
0.5
  0
CIRCLE
  5
872
  8
0
 10
15
 20
9
 30
0.0
 40
0.5
  0
CIRCLE
  5
880
  8
0
 10
15
 20
10
 30
0.0
 40
0.5
  0
CIRCLE
  5
888
  8
0
 10
15
 20
11
 30
0.0
 40
0.5
  0
CIRCLE
  5
896
  8
0
 10
15
 20
12
 30
0.0
 40
0.5
  0
CIRCLE
  5
904
  8
0
 10
15
 20
13
 30
0.0
 40
0.5
  0
CIRCLE
  5
912
  8
0
 10
15
 20
14
 30
0.0
 40
0.5
  0
CIRCLE
  5
920
  8
0
 10
15
 20
15
 30
0.0
 40
0.5
  0
CIRCLE
  5
928
  8
0
 10
15
 20
16
 30
0.0
 40
0.5
  0
CIRCLE
  5
936
  8
0
 10
15
 20
17
 30
0.0
 40
0.5
  0
CIRCLE
  5
944
  8
0
 10
15
 20
18
 30
0.0
 40
0.5
  0
CIRCLE
  5
952
  8
0
 10
15
 20
19
 30
0.0
 40
0.5
  0
CIRCLE
  5
960
  8
0
 10
15
 20
20
 30
0.0
 40
0.5
  0
CIRCLE
  5
968
  8
0
 10
15
 20
21
 30
0.0
 40
0.5
  0
CIRCLE
  5
976
  8
0
 10
15
 20
22
 30
0.0
 40
0.5
  0
CIRCLE
  5
984
  8
0
 10
15
 20
23
 30
0.0
 40
0.5
  0
CIRCLE
  5
992
  8
0
 10
15
 20
24
 30
0.0
 40
0.5
  0
CIRCLE
  5
1000
  8
0
 10
15
 20
25
 30
0.0
 40
0.5
  0
CIRCLE
  5
1008
  8
0
 10
15
 20
26
 30
0.0
 40
0.5
  0
CIRCLE
  5
1016
  8
0
 10
15
 20
27
 30
0.0
 40
0.5
  0
CIRCLE
  5
1024
  8
0
 10
15
 20
28
 30
0.0
 40
0.5
  0
CIRCLE
  5
1032
  8
0
 10
15
 20
29
 30
0.0
 40
0.5
  0
CIRCLE
  5
1040
  8
0
 10
15
 20
30
 30
0.0
 40
0.5
  0
CIRCLE
  5
1048
  8
0
 10
15
 20
31
 30
0.0
 40
0.5
  0
CIRCLE
  5
1056
  8
0
 10
15
 20
32
 30
0.0
 40
0.5
  0
CIRCLE
  5
1064
  8
0
 10
15
 20
33
 30
0.0
 40
0.5
  0
CIRCLE
  5
1072
  8
0
 10
15
 20
34
 30
0.0
 40
0.5
  0
CIRCLE
  5
1080
  8
0
 10
15
 20
35
 30
0.0
 40
0.5
  0
CIRCLE
  5
1088
  8
0
 10
15
 20
36
 30
0.0
 40
0.5
  0
CIRCLE
  5
1096
  8
0
 10
15
 20
37
 30
0.0
 40
0.5
  0
CIRCLE
  5
1104
  8
0
 10
15
 20
38
 30
0.0
 40
0.5
  0
CIRCLE
  5
1112
  8
0
 10
15
 20
39
 30
0.0
 40
0.5
  0
CIRCLE
  5
1120
  8
0
 10
15
 20
40
 30
0.0
 40
0.5
  0
CIRCLE
  5
1128
  8
0
 10
15
 20
41
 30
0.0
 40
0.5
  0
CIRCLE
  5
1136
  8
0
 10
15
 20
42
 30
0.0
 40
0.5
  0
CIRCLE
  5
1144
  8
0
 10
15
 20
43
 30
0.0
 40
0.5
  0
CIRCLE
  5
1152
  8
0
 10
15
 20
44
 30
0.0
 40
0.5
  0
CIRCLE
  5
1160
  8
0
 10
14
 20
0
 30
0.0
 40
0.5
  0
CIRCLE
  5
1168
  8
0
 10
13
 20
0
 30
0.0
 40
0.5
  0
CIRCLE
  5
1176
  8
0
 10
13
 20
1
 30
0.0
 40
0.5
  0
CIRCLE
  5
1184
  8
0
 10
13
 20
2
 30
0.0
 40
0.5
  0
CIRCLE
  5
1192
  8
0
 10
13
 20
3
 30
0.0
 40
0.5
  0
CIRCLE
  5
1200
  8
0
 10
13
 20
4
 30
0.0
 40
0.5
  0
CIRCLE
  5
1208
  8
0
 10
13
 20
5
 30
0.0
 40
0.5
  0
CIRCLE
  5
1216
  8
0
 10
13
 20
6
 30
0.0
 40
0.5
  0
CIRCLE
  5
1224
  8
0
 10
13
 20
7
 30
0.0
 40
0.5
  0
CIRCLE
  5
1232
  8
0
 10
13
 20
8
 30
0.0
 40
0.5
  0
CIRCLE
  5
1240
  8
0
 10
13
 20
9
 30
0.0
 40
0.5
  0
CIRCLE
  5
1248
  8
0
 10
13
 20
10
 30
0.0
 40
0.5
  0
CIRCLE
  5
1256
  8
0
 10
13
 20
11
 30
0.0
 40
0.5
  0
CIRCLE
  5
1264
  8
0
 10
13
 20
12
 30
0.0
 40
0.5
  0
CIRCLE
  5
1272
  8
0
 10
13
 20
13
 30
0.0
 40
0.5
  0
CIRCLE
  5
1280
  8
0
 10
13
 20
14
 30
0.0
 40
0.5
  0
CIRCLE
  5
1288
  8
0
 10
13
 20
15
 30
0.0
 40
0.5
  0
CIRCLE
  5
1296
  8
0
 10
13
 20
16
 30
0.0
 40
0.5
  0
CIRCLE
  5
1304
  8
0
 10
13
 20
17
 30
0.0
 40
0.5
  0
CIRCLE
  5
1312
  8
0
 10
13
 20
18
 30
0.0
 40
0.5
  0
CIRCLE
  5
1320
  8
0
 10
13
 20
19
 30
0.0
 40
0.5
  0
CIRCLE
  5
1328
  8
0
 10
13
 20
20
 30
0.0
 40
0.5
  0
CIRCLE
  5
1336
  8
0
 10
13
 20
21
 30
0.0
 40
0.5
  0
CIRCLE
  5
1344
  8
0
 10
13
 20
22
 30
0.0
 40
0.5
  0
CIRCLE
  5
1352
  8
0
 10
13
 20
23
 30
0.0
 40
0.5
  0
CIRCLE
  5
1360
  8
0
 10
13
 20
24
 30
0.0
 40
0.5
  0
CIRCLE
  5
1368
  8
0
 10
13
 20
25
 30
0.0
 40
0.5
  0
CIRCLE
  5
1376
  8
0
 10
13
 20
26
 30
0.0
 40
0.5
  0
CIRCLE
  5
1384
  8
0
 10
13
 20
27
 30
0.0
 40
0.5
  0
CIRCLE
  5
1392
  8
0
 10
13
 20
28
 30
0.0
 40
0.5
  0
CIRCLE
  5
1400
  8
0
 10
13
 20
29
 30
0.0
 40
0.5
  0
CIRCLE
  5
1408
  8
0
 10
13
 20
30
 30
0.0
 40
0.5
  0
CIRCLE
  5
1416
  8
0
 10
13
 20
31
 30
0.0
 40
0.5
  0
CIRCLE
  5
1424
  8
0
 10
13
 20
32
 30
0.0
 40
0.5
  0
CIRCLE
  5
1432
  8
0
 10
13
 20
33
 30
0.0
 40
0.5
  0
CIRCLE
  5
1440
  8
0
 10
13
 20
34
 30
0.0
 40
0.5
  0
CIRCLE
  5
1448
  8
0
 10
13
 20
35
 30
0.0
 40
0.5
  0
CIRCLE
  5
1456
  8
0
 10
13
 20
36
 30
0.0
 40
0.5
  0
CIRCLE
  5
1464
  8
0
 10
13
 20
37
 30
0.0
 40
0.5
  0
CIRCLE
  5
1472
  8
0
 10
13
 20
38
 30
0.0
 40
0.5
  0
CIRCLE
  5
1480
  8
0
 10
13
 20
39
 30
0.0
 40
0.5
  0
CIRCLE
  5
1488
  8
0
 10
13
 20
40
 30
0.0
 40
0.5
  0
CIRCLE
  5
1496
  8
0
 10
13
 20
41
 30
0.0
 40
0.5
  0
CIRCLE
  5
1504
  8
0
 10
13
 20
42
 30
0.0
 40
0.5
  0
CIRCLE
  5
1512
  8
0
 10
13
 20
43
 30
0.0
 40
0.5
  0
CIRCLE
  5
1520
  8
0
 10
13
 20
44
 30
0.0
 40
0.5
  0
CIRCLE
  5
1528
  8
0
 10
12
 20
0
 30
0.0
 40
0.5
  0
CIRCLE
  5
1536
  8
0
 10
11
 20
0
 30
0.0
 40
0.5
  0
CIRCLE
  5
1544
  8
0
 10
11
 20
1
 30
0.0
 40
0.5
  0
CIRCLE
  5
1552
  8
0
 10
11
 20
2
 30
0.0
 40
0.5
  0
CIRCLE
  5
1560
  8
0
 10
11
 20
3
 30
0.0
 40
0.5
  0
CIRCLE
  5
1568
  8
0
 10
11
 20
4
 30
0.0
 40
0.5
  0
CIRCLE
  5
1576
  8
0
 10
11
 20
5
 30
0.0
 40
0.5
  0
CIRCLE
  5
1584
  8
0
 10
11
 20
6
 30
0.0
 40
0.5
  0
CIRCLE
  5
1592
  8
0
 10
11
 20
7
 30
0.0
 40
0.5
  0
CIRCLE
  5
1600
  8
0
 10
11
 20
8
 30
0.0
 40
0.5
  0
CIRCLE
  5
1608
  8
0
 10
11
 20
9
 30
0.0
 40
0.5
  0
CIRCLE
  5
1616
  8
0
 10
11
 20
10
 30
0.0
 40
0.5
  0
CIRCLE
  5
1624
  8
0
 10
11
 20
11
 30
0.0
 40
0.5
  0
CIRCLE
  5
1632
  8
0
 10
11
 20
12
 30
0.0
 40
0.5
  0
CIRCLE
  5
1640
  8
0
 10
11
 20
13
 30
0.0
 40
0.5
  0
CIRCLE
  5
1648
  8
0
 10
11
 20
14
 30
0.0
 40
0.5
  0
CIRCLE
  5
1656
  8
0
 10
11
 20
15
 30
0.0
 40
0.5
  0
CIRCLE
  5
1664
  8
0
 10
11
 20
16
 30
0.0
 40
0.5
  0
CIRCLE
  5
1672
  8
0
 10
11
 20
17
 30
0.0
 40
0.5
  0
CIRCLE
  5
1680
  8
0
 10
11
 20
18
 30
0.0
 40
0.5
  0
CIRCLE
  5
1688
  8
0
 10
11
 20
19
 30
0.0
 40
0.5
  0
CIRCLE
  5
1696
  8
0
 10
11
 20
20
 30
0.0
 40
0.5
  0
CIRCLE
  5
1704
  8
0
 10
11
 20
21
 30
0.0
 40
0.5
  0
CIRCLE
  5
1712
  8
0
 10
11
 20
22
 30
0.0
 40
0.5
  0
CIRCLE
  5
1720
  8
0
 10
11
 20
23
 30
0.0
 40
0.5
  0
CIRCLE
  5
1728
  8
0
 10
11
 20
24
 30
0.0
 40
0.5
  0
CIRCLE
  5
1736
  8
0
 10
11
 20
25
 30
0.0
 40
0.5
  0
CIRCLE
  5
1744
  8
0
 10
11
 20
26
 30
0.0
 40
0.5
  0
CIRCLE
  5
1752
  8
0
 10
11
 20
27
 30
0.0
 40
0.5
  0
CIRCLE
  5
1760
  8
0
 10
11
 20
28
 30
0.0
 40
0.5
  0
CIRCLE
  5
1768
  8
0
 10
11
 20
29
 30
0.0
 40
0.5
  0
CIRCLE
  5
1776
  8
0
 10
11
 20
30
 30
0.0
 40
0.5
  0
CIRCLE
  5
1784
  8
0
 10
11
 20
31
 30
0.0
 40
0.5
  0
CIRCLE
  5
1792
  8
0
 10
11
 20
32
 30
0.0
 40
0.5
  0
CIRCLE
  5
1800
  8
0
 10
11
 20
33
 30
0.0
 40
0.5
  0
CIRCLE
  5
1808
  8
0
 10
11
 20
34
 30
0.0
 40
0.5
  0
CIRCLE
  5
1816
  8
0
 10
11
 20
35
 30
0.0
 40
0.5
  0
CIRCLE
  5
1824
  8
0
 10
11
 20
36
 30
0.0
 40
0.5
  0
CIRCLE
  5
1832
  8
0
 10
11
 20
37
 30
0.0
 40
0.5
  0
CIRCLE
  5
1840
  8
0
 10
11
 20
38
 30
0.0
 40
0.5
  0
CIRCLE
  5
1848
  8
0
 10
11
 20
39
 30
0.0
 40
0.5
  0
CIRCLE
  5
1856
  8
0
 10
11
 20
40
 30
0.0
 40
0.5
  0
CIRCLE
  5
1864
  8
0
 10
11
 20
41
 30
0.0
 40
0.5
  0
CIRCLE
  5
1872
  8
0
 10
11
 20
42
 30
0.0
 40
0.5
  0
CIRCLE
  5
1880
  8
0
 10
11
 20
43
 30
0.0
 40
0.5
  0
CIRCLE
  5
1888
  8
0
 10
11
 20
44
 30
0.0
 40
0.5
  0
CIRCLE
  5
1896
  8
0
 10
10
 20
0
 30
0.0
 40
0.5
  0
CIRCLE
  5
1904
  8
0
 10
9
 20
0
 30
0.0
 40
0.5
  0
CIRCLE
  5
1912
  8
0
 10
9
 20
1
 30
0.0
 40
0.5
  0
CIRCLE
  5
1920
  8
0
 10
9
 20
2
 30
0.0
 40
0.5
  0
CIRCLE
  5
1928
  8
0
 10
9
 20
3
 30
0.0
 40
0.5
  0
CIRCLE
  5
1936
  8
0
 10
9
 20
4
 30
0.0
 40
0.5
  0
CIRCLE
  5
1944
  8
0
 10
9
 20
5
 30
0.0
 40
0.5
  0
CIRCLE
  5
1952
  8
0
 10
9
 20
6
 30
0.0
 40
0.5
  0
CIRCLE
  5
1960
  8
0
 10
9
 20
7
 30
0.0
 40
0.5
  0
CIRCLE
  5
1968
  8
0
 10
9
 20
8
 30
0.0
 40
0.5
  0
CIRCLE
  5
1976
  8
0
 10
9
 20
9
 30
0.0
 40
0.5
  0
CIRCLE
  5
1984
  8
0
 10
9
 20
10
 30
0.0
 40
0.5
  0
CIRCLE
  5
1992
  8
0
 10
9
 20
11
 30
0.0
 40
0.5
  0
CIRCLE
  5
2000
  8
0
 10
9
 20
12
 30
0.0
 40
0.5
  0
CIRCLE
  5
2008
  8
0
 10
9
 20
13
 30
0.0
 40
0.5
  0
CIRCLE
  5
2016
  8
0
 10
9
 20
14
 30
0.0
 40
0.5
  0
CIRCLE
  5
2024
  8
0
 10
9
 20
15
 30
0.0
 40
0.5
  0
CIRCLE
  5
2032
  8
0
 10
9
 20
16
 30
0.0
 40
0.5
  0
CIRCLE
  5
2040
  8
0
 10
9
 20
17
 30
0.0
 40
0.5
  0
CIRCLE
  5
2048
  8
0
 10
9
 20
18
 30
0.0
 40
0.5
  0
CIRCLE
  5
2056
  8
0
 10
9
 20
19
 30
0.0
 40
0.5
  0
CIRCLE
  5
2064
  8
0
 10
9
 20
20
 30
0.0
 40
0.5
  0
CIRCLE
  5
2072
  8
0
 10
9
 20
21
 30
0.0
 40
0.5
  0
CIRCLE
  5
2080
  8
0
 10
9
 20
22
 30
0.0
 40
0.5
  0
CIRCLE
  5
2088
  8
0
 10
9
 20
23
 30
0.0
 40
0.5
  0
CIRCLE
  5
2096
  8
0
 10
9
 20
24
 30
0.0
 40
0.5
  0
CIRCLE
  5
2104
  8
0
 10
9
 20
25
 30
0.0
 40
0.5
  0
CIRCLE
  5
2112
  8
0
 10
9
 20
26
 30
0.0
 40
0.5
  0
CIRCLE
  5
2120
  8
0
 10
9
 20
27
 30
0.0
 40
0.5
  0
CIRCLE
  5
2128
  8
0
 10
9
 20
28
 30
0.0
 40
0.5
  0
CIRCLE
  5
2136
  8
0
 10
9
 20
29
 30
0.0
 40
0.5
  0
CIRCLE
  5
2144
  8
0
 10
9
 20
30
 30
0.0
 40
0.5
  0
CIRCLE
  5
2152
  8
0
 10
9
 20
31
 30
0.0
 40
0.5
  0
CIRCLE
  5
2160
  8
0
 10
9
 20
32
 30
0.0
 40
0.5
  0
CIRCLE
  5
2168
  8
0
 10
9
 20
33
 30
0.0
 40
0.5
  0
CIRCLE
  5
2176
  8
0
 10
9
 20
34
 30
0.0
 40
0.5
  0
CIRCLE
  5
2184
  8
0
 10
9
 20
35
 30
0.0
 40
0.5
  0
CIRCLE
  5
2192
  8
0
 10
9
 20
36
 30
0.0
 40
0.5
  0
CIRCLE
  5
2200
  8
0
 10
9
 20
37
 30
0.0
 40
0.5
  0
CIRCLE
  5
2208
  8
0
 10
9
 20
38
 30
0.0
 40
0.5
  0
CIRCLE
  5
2216
  8
0
 10
9
 20
39
 30
0.0
 40
0.5
  0
CIRCLE
  5
2224
  8
0
 10
9
 20
40
 30
0.0
 40
0.5
  0
CIRCLE
  5
2232
  8
0
 10
9
 20
41
 30
0.0
 40
0.5
  0
CIRCLE
  5
2240
  8
0
 10
9
 20
42
 30
0.0
 40
0.5
  0
CIRCLE
  5
2248
  8
0
 10
9
 20
43
 30
0.0
 40
0.5
  0
CIRCLE
  5
2256
  8
0
 10
9
 20
44
 30
0.0
 40
0.5
  0
CIRCLE
  5
2264
  8
0
 10
8
 20
0
 30
0.0
 40
0.5
  0
CIRCLE
  5
2272
  8
0
 10
7
 20
0
 30
0.0
 40
0.5
  0
CIRCLE
  5
2280
  8
0
 10
7
 20
1
 30
0.0
 40
0.5
  0
CIRCLE
  5
2288
  8
0
 10
7
 20
2
 30
0.0
 40
0.5
  0
CIRCLE
  5
2296
  8
0
 10
7
 20
3
 30
0.0
 40
0.5
  0
CIRCLE
  5
2304
  8
0
 10
7
 20
4
 30
0.0
 40
0.5
  0
CIRCLE
  5
2312
  8
0
 10
7
 20
5
 30
0.0
 40
0.5
  0
CIRCLE
  5
2320
  8
0
 10
7
 20
6
 30
0.0
 40
0.5
  0
CIRCLE
  5
2328
  8
0
 10
7
 20
7
 30
0.0
 40
0.5
  0
CIRCLE
  5
2336
  8
0
 10
7
 20
8
 30
0.0
 40
0.5
  0
CIRCLE
  5
2344
  8
0
 10
7
 20
9
 30
0.0
 40
0.5
  0
CIRCLE
  5
2352
  8
0
 10
7
 20
10
 30
0.0
 40
0.5
  0
CIRCLE
  5
2360
  8
0
 10
7
 20
11
 30
0.0
 40
0.5
  0
CIRCLE
  5
2368
  8
0
 10
7
 20
12
 30
0.0
 40
0.5
  0
CIRCLE
  5
2376
  8
0
 10
7
 20
13
 30
0.0
 40
0.5
  0
CIRCLE
  5
2384
  8
0
 10
7
 20
14
 30
0.0
 40
0.5
  0
CIRCLE
  5
2392
  8
0
 10
7
 20
15
 30
0.0
 40
0.5
  0
CIRCLE
  5
2400
  8
0
 10
7
 20
16
 30
0.0
 40
0.5
  0
CIRCLE
  5
2408
  8
0
 10
7
 20
17
 30
0.0
 40
0.5
  0
CIRCLE
  5
2416
  8
0
 10
7
 20
18
 30
0.0
 40
0.5
  0
CIRCLE
  5
2424
  8
0
 10
7
 20
19
 30
0.0
 40
0.5
  0
CIRCLE
  5
2432
  8
0
 10
7
 20
20
 30
0.0
 40
0.5
  0
CIRCLE
  5
2440
  8
0
 10
7
 20
21
 30
0.0
 40
0.5
  0
CIRCLE
  5
2448
  8
0
 10
7
 20
22
 30
0.0
 40
0.5
  0
CIRCLE
  5
2456
  8
0
 10
7
 20
23
 30
0.0
 40
0.5
  0
CIRCLE
  5
2464
  8
0
 10
7
 20
24
 30
0.0
 40
0.5
  0
CIRCLE
  5
2472
  8
0
 10
7
 20
25
 30
0.0
 40
0.5
  0
CIRCLE
  5
2480
  8
0
 10
7
 20
26
 30
0.0
 40
0.5
  0
CIRCLE
  5
2488
  8
0
 10
7
 20
27
 30
0.0
 40
0.5
  0
CIRCLE
  5
2496
  8
0
 10
7
 20
28
 30
0.0
 40
0.5
  0
CIRCLE
  5
2504
  8
0
 10
7
 20
29
 30
0.0
 40
0.5
  0
CIRCLE
  5
2512
  8
0
 10
7
 20
30
 30
0.0
 40
0.5
  0
CIRCLE
  5
2520
  8
0
 10
7
 20
31
 30
0.0
 40
0.5
  0
CIRCLE
  5
2528
  8
0
 10
7
 20
32
 30
0.0
 40
0.5
  0
CIRCLE
  5
2536
  8
0
 10
7
 20
33
 30
0.0
 40
0.5
  0
CIRCLE
  5
2544
  8
0
 10
7
 20
34
 30
0.0
 40
0.5
  0
CIRCLE
  5
2552
  8
0
 10
7
 20
35
 30
0.0
 40
0.5
  0
CIRCLE
  5
2560
  8
0
 10
7
 20
36
 30
0.0
 40
0.5
  0
CIRCLE
  5
2568
  8
0
 10
7
 20
37
 30
0.0
 40
0.5
  0
CIRCLE
  5
2576
  8
0
 10
7
 20
38
 30
0.0
 40
0.5
  0
CIRCLE
  5
2584
  8
0
 10
7
 20
39
 30
0.0
 40
0.5
  0
CIRCLE
  5
2592
  8
0
 10
7
 20
40
 30
0.0
 40
0.5
  0
CIRCLE
  5
2600
  8
0
 10
7
 20
41
 30
0.0
 40
0.5
  0
CIRCLE
  5
2608
  8
0
 10
7
 20
42
 30
0.0
 40
0.5
  0
CIRCLE
  5
2616
  8
0
 10
7
 20
43
 30
0.0
 40
0.5
  0
CIRCLE
  5
2624
  8
0
 10
7
 20
44
 30
0.0
 40
0.5
  0
CIRCLE
  5
2632
  8
0
 10
6
 20
0
 30
0.0
 40
0.5
  0
CIRCLE
  5
2640
  8
0
 10
5
 20
0
 30
0.0
 40
0.5
  0
CIRCLE
  5
2648
  8
0
 10
5
 20
1
 30
0.0
 40
0.5
  0
CIRCLE
  5
2656
  8
0
 10
5
 20
2
 30
0.0
 40
0.5
  0
CIRCLE
  5
2664
  8
0
 10
5
 20
3
 30
0.0
 40
0.5
  0
CIRCLE
  5
2672
  8
0
 10
5
 20
4
 30
0.0
 40
0.5
  0
CIRCLE
  5
2680
  8
0
 10
5
 20
5
 30
0.0
 40
0.5
  0
CIRCLE
  5
2688
  8
0
 10
5
 20
6
 30
0.0
 40
0.5
  0
CIRCLE
  5
2696
  8
0
 10
5
 20
7
 30
0.0
 40
0.5
  0
CIRCLE
  5
2704
  8
0
 10
5
 20
8
 30
0.0
 40
0.5
  0
CIRCLE
  5
2712
  8
0
 10
5
 20
9
 30
0.0
 40
0.5
  0
CIRCLE
  5
2720
  8
0
 10
5
 20
10
 30
0.0
 40
0.5
  0
CIRCLE
  5
2728
  8
0
 10
5
 20
11
 30
0.0
 40
0.5
  0
CIRCLE
  5
2736
  8
0
 10
5
 20
12
 30
0.0
 40
0.5
  0
CIRCLE
  5
2744
  8
0
 10
5
 20
13
 30
0.0
 40
0.5
  0
CIRCLE
  5
2752
  8
0
 10
5
 20
14
 30
0.0
 40
0.5
  0
CIRCLE
  5
2760
  8
0
 10
5
 20
15
 30
0.0
 40
0.5
  0
CIRCLE
  5
2768
  8
0
 10
5
 20
16
 30
0.0
 40
0.5
  0
CIRCLE
  5
2776
  8
0
 10
5
 20
17
 30
0.0
 40
0.5
  0
CIRCLE
  5
2784
  8
0
 10
5
 20
18
 30
0.0
 40
0.5
  0
CIRCLE
  5
2792
  8
0
 10
5
 20
19
 30
0.0
 40
0.5
  0
CIRCLE
  5
2800
  8
0
 10
5
 20
20
 30
0.0
 40
0.5
  0
CIRCLE
  5
2808
  8
0
 10
5
 20
21
 30
0.0
 40
0.5
  0
CIRCLE
  5
2816
  8
0
 10
5
 20
22
 30
0.0
 40
0.5
  0
CIRCLE
  5
2824
  8
0
 10
5
 20
23
 30
0.0
 40
0.5
  0
CIRCLE
  5
2832
  8
0
 10
5
 20
24
 30
0.0
 40
0.5
  0
CIRCLE
  5
2840
  8
0
 10
5
 20
25
 30
0.0
 40
0.5
  0
CIRCLE
  5
2848
  8
0
 10
5
 20
26
 30
0.0
 40
0.5
  0
CIRCLE
  5
2856
  8
0
 10
5
 20
27
 30
0.0
 40
0.5
  0
CIRCLE
  5
2864
  8
0
 10
5
 20
28
 30
0.0
 40
0.5
  0
CIRCLE
  5
2872
  8
0
 10
5
 20
29
 30
0.0
 40
0.5
  0
CIRCLE
  5
2880
  8
0
 10
5
 20
30
 30
0.0
 40
0.5
  0
CIRCLE
  5
2888
  8
0
 10
5
 20
31
 30
0.0
 40
0.5
  0
CIRCLE
  5
2896
  8
0
 10
5
 20
32
 30
0.0
 40
0.5
  0
CIRCLE
  5
2904
  8
0
 10
5
 20
33
 30
0.0
 40
0.5
  0
CIRCLE
  5
2912
  8
0
 10
5
 20
34
 30
0.0
 40
0.5
  0
CIRCLE
  5
2920
  8
0
 10
5
 20
35
 30
0.0
 40
0.5
  0
CIRCLE
  5
2928
  8
0
 10
5
 20
36
 30
0.0
 40
0.5
  0
CIRCLE
  5
2936
  8
0
 10
5
 20
37
 30
0.0
 40
0.5
  0
CIRCLE
  5
2944
  8
0
 10
5
 20
38
 30
0.0
 40
0.5
  0
CIRCLE
  5
2952
  8
0
 10
5
 20
39
 30
0.0
 40
0.5
  0
CIRCLE
  5
2960
  8
0
 10
5
 20
40
 30
0.0
 40
0.5
  0
CIRCLE
  5
2968
  8
0
 10
5
 20
41
 30
0.0
 40
0.5
  0
CIRCLE
  5
2976
  8
0
 10
5
 20
42
 30
0.0
 40
0.5
  0
CIRCLE
  5
2984
  8
0
 10
5
 20
43
 30
0.0
 40
0.5
  0
CIRCLE
  5
2992
  8
0
 10
5
 20
44
 30
0.0
 40
0.5
  0
CIRCLE
  5
3000
  8
0
 10
4
 20
0
 30
0.0
 40
0.5
  0
CIRCLE
  5
3008
  8
0
 10
3
 20
0
 30
0.0
 40
0.5
  0
CIRCLE
  5
3016
  8
0
 10
3
 20
1
 30
0.0
 40
0.5
  0
CIRCLE
  5
3024
  8
0
 10
3
 20
2
 30
0.0
 40
0.5
  0
CIRCLE
  5
3032
  8
0
 10
3
 20
3
 30
0.0
 40
0.5
  0
CIRCLE
  5
3040
  8
0
 10
3
 20
4
 30
0.0
 40
0.5
  0
CIRCLE
  5
3048
  8
0
 10
3
 20
5
 30
0.0
 40
0.5
  0
CIRCLE
  5
3056
  8
0
 10
3
 20
6
 30
0.0
 40
0.5
  0
CIRCLE
  5
3064
  8
0
 10
3
 20
7
 30
0.0
 40
0.5
  0
CIRCLE
  5
3072
  8
0
 10
3
 20
8
 30
0.0
 40
0.5
  0
CIRCLE
  5
3080
  8
0
 10
3
 20
9
 30
0.0
 40
0.5
  0
CIRCLE
  5
3088
  8
0
 10
3
 20
10
 30
0.0
 40
0.5
  0
CIRCLE
  5
3096
  8
0
 10
3
 20
11
 30
0.0
 40
0.5
  0
CIRCLE
  5
3104
  8
0
 10
3
 20
12
 30
0.0
 40
0.5
  0
CIRCLE
  5
3112
  8
0
 10
3
 20
13
 30
0.0
 40
0.5
  0
CIRCLE
  5
3120
  8
0
 10
3
 20
14
 30
0.0
 40
0.5
  0
CIRCLE
  5
3128
  8
0
 10
3
 20
15
 30
0.0
 40
0.5
  0
CIRCLE
  5
3136
  8
0
 10
3
 20
16
 30
0.0
 40
0.5
  0
CIRCLE
  5
3144
  8
0
 10
3
 20
17
 30
0.0
 40
0.5
  0
CIRCLE
  5
3152
  8
0
 10
3
 20
18
 30
0.0
 40
0.5
  0
CIRCLE
  5
3160
  8
0
 10
3
 20
19
 30
0.0
 40
0.5
  0
CIRCLE
  5
3168
  8
0
 10
3
 20
20
 30
0.0
 40
0.5
  0
CIRCLE
  5
3176
  8
0
 10
3
 20
21
 30
0.0
 40
0.5
  0
CIRCLE
  5
3184
  8
0
 10
3
 20
22
 30
0.0
 40
0.5
  0
CIRCLE
  5
3192
  8
0
 10
3
 20
23
 30
0.0
 40
0.5
  0
CIRCLE
  5
3200
  8
0
 10
3
 20
24
 30
0.0
 40
0.5
  0
CIRCLE
  5
3208
  8
0
 10
3
 20
25
 30
0.0
 40
0.5
  0
CIRCLE
  5
3216
  8
0
 10
3
 20
26
 30
0.0
 40
0.5
  0
CIRCLE
  5
3224
  8
0
 10
3
 20
27
 30
0.0
 40
0.5
  0
CIRCLE
  5
3232
  8
0
 10
3
 20
28
 30
0.0
 40
0.5
  0
CIRCLE
  5
3240
  8
0
 10
3
 20
29
 30
0.0
 40
0.5
  0
CIRCLE
  5
3248
  8
0
 10
3
 20
30
 30
0.0
 40
0.5
  0
CIRCLE
  5
3256
  8
0
 10
3
 20
31
 30
0.0
 40
0.5
  0
CIRCLE
  5
3264
  8
0
 10
3
 20
32
 30
0.0
 40
0.5
  0
CIRCLE
  5
3272
  8
0
 10
3
 20
33
 30
0.0
 40
0.5
  0
CIRCLE
  5
3280
  8
0
 10
3
 20
34
 30
0.0
 40
0.5
  0
CIRCLE
  5
3288
  8
0
 10
3
 20
35
 30
0.0
 40
0.5
  0
CIRCLE
  5
3296
  8
0
 10
3
 20
36
 30
0.0
 40
0.5
  0
CIRCLE
  5
3304
  8
0
 10
3
 20
37
 30
0.0
 40
0.5
  0
CIRCLE
  5
3312
  8
0
 10
3
 20
38
 30
0.0
 40
0.5
  0
CIRCLE
  5
3320
  8
0
 10
3
 20
39
 30
0.0
 40
0.5
  0
CIRCLE
  5
3328
  8
0
 10
3
 20
40
 30
0.0
 40
0.5
  0
CIRCLE
  5
3336
  8
0
 10
3
 20
41
 30
0.0
 40
0.5
  0
CIRCLE
  5
3344
  8
0
 10
3
 20
42
 30
0.0
 40
0.5
  0
CIRCLE
  5
3352
  8
0
 10
3
 20
43
 30
0.0
 40
0.5
  0
CIRCLE
  5
3360
  8
0
 10
3
 20
44
 30
0.0
 40
0.5
  0
CIRCLE
  5
3368
  8
0
 10
2
 20
0
 30
0.0
 40
0.5
  0
CIRCLE
  5
3376
  8
0
 10
1
 20
0
 30
0.0
 40
0.5
  0
CIRCLE
  5
3384
  8
0
 10
1
 20
1
 30
0.0
 40
0.5
  0
CIRCLE
  5
3392
  8
0
 10
1
 20
2
 30
0.0
 40
0.5
  0
CIRCLE
  5
3400
  8
0
 10
1
 20
3
 30
0.0
 40
0.5
  0
CIRCLE
  5
3408
  8
0
 10
1
 20
4
 30
0.0
 40
0.5
  0
CIRCLE
  5
3416
  8
0
 10
1
 20
5
 30
0.0
 40
0.5
  0
CIRCLE
  5
3424
  8
0
 10
1
 20
6
 30
0.0
 40
0.5
  0
CIRCLE
  5
3432
  8
0
 10
1
 20
7
 30
0.0
 40
0.5
  0
CIRCLE
  5
3440
  8
0
 10
1
 20
8
 30
0.0
 40
0.5
  0
CIRCLE
  5
3448
  8
0
 10
1
 20
9
 30
0.0
 40
0.5
  0
CIRCLE
  5
3456
  8
0
 10
1
 20
10
 30
0.0
 40
0.5
  0
CIRCLE
  5
3464
  8
0
 10
1
 20
11
 30
0.0
 40
0.5
  0
CIRCLE
  5
3472
  8
0
 10
1
 20
12
 30
0.0
 40
0.5
  0
CIRCLE
  5
3480
  8
0
 10
1
 20
13
 30
0.0
 40
0.5
  0
CIRCLE
  5
3488
  8
0
 10
1
 20
14
 30
0.0
 40
0.5
  0
CIRCLE
  5
3496
  8
0
 10
1
 20
15
 30
0.0
 40
0.5
  0
CIRCLE
  5
3504
  8
0
 10
1
 20
16
 30
0.0
 40
0.5
  0
CIRCLE
  5
3512
  8
0
 10
1
 20
17
 30
0.0
 40
0.5
  0
CIRCLE
  5
3520
  8
0
 10
1
 20
18
 30
0.0
 40
0.5
  0
CIRCLE
  5
3528
  8
0
 10
1
 20
19
 30
0.0
 40
0.5
  0
CIRCLE
  5
3536
  8
0
 10
1
 20
20
 30
0.0
 40
0.5
  0
CIRCLE
  5
3544
  8
0
 10
1
 20
21
 30
0.0
 40
0.5
  0
CIRCLE
  5
3552
  8
0
 10
1
 20
22
 30
0.0
 40
0.5
  0
CIRCLE
  5
3560
  8
0
 10
1
 20
23
 30
0.0
 40
0.5
  0
CIRCLE
  5
3568
  8
0
 10
1
 20
24
 30
0.0
 40
0.5
  0
CIRCLE
  5
3576
  8
0
 10
1
 20
25
 30
0.0
 40
0.5
  0
CIRCLE
  5
3584
  8
0
 10
1
 20
26
 30
0.0
 40
0.5
  0
CIRCLE
  5
3592
  8
0
 10
1
 20
27
 30
0.0
 40
0.5
  0
CIRCLE
  5
3600
  8
0
 10
1
 20
28
 30
0.0
 40
0.5
  0
CIRCLE
  5
3608
  8
0
 10
1
 20
29
 30
0.0
 40
0.5
  0
CIRCLE
  5
3616
  8
0
 10
1
 20
30
 30
0.0
 40
0.5
  0
CIRCLE
  5
3624
  8
0
 10
1
 20
31
 30
0.0
 40
0.5
  0
CIRCLE
  5
3632
  8
0
 10
1
 20
32
 30
0.0
 40
0.5
  0
CIRCLE
  5
3640
  8
0
 10
1
 20
33
 30
0.0
 40
0.5
  0
CIRCLE
  5
3648
  8
0
 10
1
 20
34
 30
0.0
 40
0.5
  0
CIRCLE
  5
3656
  8
0
 10
1
 20
35
 30
0.0
 40
0.5
  0
CIRCLE
  5
3664
  8
0
 10
1
 20
36
 30
0.0
 40
0.5
  0
CIRCLE
  5
3672
  8
0
 10
1
 20
37
 30
0.0
 40
0.5
  0
CIRCLE
  5
3680
  8
0
 10
1
 20
38
 30
0.0
 40
0.5
  0
CIRCLE
  5
3688
  8
0
 10
1
 20
39
 30
0.0
 40
0.5
  0
CIRCLE
  5
3696
  8
0
 10
1
 20
40
 30
0.0
 40
0.5
  0
CIRCLE
  5
3704
  8
0
 10
1
 20
41
 30
0.0
 40
0.5
  0
CIRCLE
  5
3712
  8
0
 10
1
 20
42
 30
0.0
 40
0.5
  0
CIRCLE
  5
3720
  8
0
 10
1
 20
43
 30
0.0
 40
0.5
  0
CIRCLE
  5
3728
  8
0
 10
1
 20
44
 30
0.0
 40
0.5
  0
LINE
  5
3729
  8
0
 10
19
 20
0
 30
0.0
 11
19
 21
1
 31
0.0
  0
LINE
  5
3730
  8
0
 10
19
 20
1
 30
0.0
 11
19
 21
2
 31
0.0
  0
LINE
  5
3731
  8
0
 10
19
 20
2
 30
0.0
 11
19
 21
3
 31
0.0
  0
LINE
  5
3732
  8
0
 10
19
 20
3
 30
0.0
 11
19
 21
4
 31
0.0
  0
LINE
  5
3733
  8
0
 10
19
 20
4
 30
0.0
 11
19
 21
5
 31
0.0
  0
LINE
  5
3734
  8
0
 10
19
 20
5
 30
0.0
 11
19
 21
6
 31
0.0
  0
LINE
  5
3735
  8
0
 10
19
 20
6
 30
0.0
 11
19
 21
7
 31
0.0
  0
LINE
  5
3736
  8
0
 10
19
 20
7
 30
0.0
 11
19
 21
8
 31
0.0
  0
LINE
  5
3737
  8
0
 10
19
 20
8
 30
0.0
 11
19
 21
9
 31
0.0
  0
LINE
  5
3738
  8
0
 10
19
 20
9
 30
0.0
 11
19
 21
10
 31
0.0
  0
LINE
  5
3739
  8
0
 10
19
 20
10
 30
0.0
 11
19
 21
11
 31
0.0
  0
LINE
  5
3740
  8
0
 10
19
 20
11
 30
0.0
 11
19
 21
12
 31
0.0
  0
LINE
  5
3741
  8
0
 10
19
 20
12
 30
0.0
 11
19
 21
13
 31
0.0
  0
LINE
  5
3742
  8
0
 10
19
 20
13
 30
0.0
 11
19
 21
14
 31
0.0
  0
LINE
  5
3743
  8
0
 10
19
 20
14
 30
0.0
 11
19
 21
15
 31
0.0
  0
LINE
  5
3744
  8
0
 10
19
 20
15
 30
0.0
 11
19
 21
16
 31
0.0
  0
LINE
  5
3745
  8
0
 10
19
 20
16
 30
0.0
 11
19
 21
17
 31
0.0
  0
LINE
  5
3746
  8
0
 10
19
 20
17
 30
0.0
 11
19
 21
18
 31
0.0
  0
LINE
  5
3747
  8
0
 10
19
 20
18
 30
0.0
 11
19
 21
19
 31
0.0
  0
LINE
  5
3748
  8
0
 10
19
 20
19
 30
0.0
 11
19
 21
20
 31
0.0
  0
LINE
  5
3749
  8
0
 10
19
 20
20
 30
0.0
 11
19
 21
21
 31
0.0
  0
LINE
  5
3750
  8
0
 10
19
 20
21
 30
0.0
 11
19
 21
22
 31
0.0
  0
LINE
  5
3751
  8
0
 10
19
 20
22
 30
0.0
 11
19
 21
23
 31
0.0
  0
LINE
  5
3752
  8
0
 10
19
 20
23
 30
0.0
 11
19
 21
24
 31
0.0
  0
LINE
  5
3753
  8
0
 10
19
 20
24
 30
0.0
 11
19
 21
25
 31
0.0
  0
LINE
  5
3754
  8
0
 10
19
 20
25
 30
0.0
 11
19
 21
26
 31
0.0
  0
LINE
  5
3755
  8
0
 10
19
 20
26
 30
0.0
 11
19
 21
27
 31
0.0
  0
LINE
  5
3756
  8
0
 10
19
 20
27
 30
0.0
 11
19
 21
28
 31
0.0
  0
LINE
  5
3757
  8
0
 10
19
 20
28
 30
0.0
 11
19
 21
29
 31
0.0
  0
LINE
  5
3758
  8
0
 10
19
 20
29
 30
0.0
 11
19
 21
30
 31
0.0
  0
LINE
  5
3759
  8
0
 10
19
 20
30
 30
0.0
 11
19
 21
31
 31
0.0
  0
LINE
  5
3760
  8
0
 10
19
 20
31
 30
0.0
 11
19
 21
32
 31
0.0
  0
LINE
  5
3761
  8
0
 10
19
 20
32
 30
0.0
 11
19
 21
33
 31
0.0
  0
LINE
  5
3762
  8
0
 10
19
 20
33
 30
0.0
 11
19
 21
34
 31
0.0
  0
LINE
  5
3763
  8
0
 10
19
 20
34
 30
0.0
 11
19
 21
35
 31
0.0
  0
LINE
  5
3764
  8
0
 10
19
 20
35
 30
0.0
 11
18
 21
0
 31
0.0
  0
LINE
  5
3765
  8
0
 10
18
 20
0
 30
0.0
 11
17
 21
0
 31
0.0
  0
LINE
  5
3766
  8
0
 10
17
 20
0
 30
0.0
 11
17
 21
1
 31
0.0
  0
LINE
  5
3767
  8
0
 10
17
 20
1
 30
0.0
 11
17
 21
2
 31
0.0
  0
LINE
  5
3768
  8
0
 10
17
 20
2
 30
0.0
 11
17
 21
3
 31
0.0
  0
LINE
  5
3769
  8
0
 10
17
 20
3
 30
0.0
 11
17
 21
4
 31
0.0
  0
LINE
  5
3770
  8
0
 10
17
 20
4
 30
0.0
 11
17
 21
5
 31
0.0
  0
LINE
  5
3771
  8
0
 10
17
 20
5
 30
0.0
 11
17
 21
6
 31
0.0
  0
LINE
  5
3772
  8
0
 10
17
 20
6
 30
0.0
 11
17
 21
7
 31
0.0
  0
LINE
  5
3773
  8
0
 10
17
 20
7
 30
0.0
 11
17
 21
8
 31
0.0
  0
LINE
  5
3774
  8
0
 10
17
 20
8
 30
0.0
 11
17
 21
9
 31
0.0
  0
LINE
  5
3775
  8
0
 10
17
 20
9
 30
0.0
 11
17
 21
10
 31
0.0
  0
LINE
  5
3776
  8
0
 10
17
 20
10
 30
0.0
 11
17
 21
11
 31
0.0
  0
LINE
  5
3777
  8
0
 10
17
 20
11
 30
0.0
 11
17
 21
12
 31
0.0
  0
LINE
  5
3778
  8
0
 10
17
 20
12
 30
0.0
 11
17
 21
13
 31
0.0
  0
LINE
  5
3779
  8
0
 10
17
 20
13
 30
0.0
 11
17
 21
14
 31
0.0
  0
LINE
  5
3780
  8
0
 10
17
 20
14
 30
0.0
 11
17
 21
15
 31
0.0
  0
LINE
  5
3781
  8
0
 10
17
 20
15
 30
0.0
 11
17
 21
16
 31
0.0
  0
LINE
  5
3782
  8
0
 10
17
 20
16
 30
0.0
 11
17
 21
17
 31
0.0
  0
LINE
  5
3783
  8
0
 10
17
 20
17
 30
0.0
 11
17
 21
18
 31
0.0
  0
LINE
  5
3784
  8
0
 10
17
 20
18
 30
0.0
 11
17
 21
19
 31
0.0
  0
LINE
  5
3785
  8
0
 10
17
 20
19
 30
0.0
 11
17
 21
20
 31
0.0
  0
LINE
  5
3786
  8
0
 10
17
 20
20
 30
0.0
 11
17
 21
21
 31
0.0
  0
LINE
  5
3787
  8
0
 10
17
 20
21
 30
0.0
 11
17
 21
22
 31
0.0
  0
LINE
  5
3788
  8
0
 10
17
 20
22
 30
0.0
 11
17
 21
23
 31
0.0
  0
LINE
  5
3789
  8
0
 10
17
 20
23
 30
0.0
 11
17
 21
24
 31
0.0
  0
LINE
  5
3790
  8
0
 10
17
 20
24
 30
0.0
 11
17
 21
25
 31
0.0
  0
LINE
  5
3791
  8
0
 10
17
 20
25
 30
0.0
 11
17
 21
26
 31
0.0
  0
LINE
  5
3792
  8
0
 10
17
 20
26
 30
0.0
 11
17
 21
27
 31
0.0
  0
LINE
  5
3793
  8
0
 10
17
 20
27
 30
0.0
 11
17
 21
28
 31
0.0
  0
LINE
  5
3794
  8
0
 10
17
 20
28
 30
0.0
 11
17
 21
29
 31
0.0
  0
LINE
  5
3795
  8
0
 10
17
 20
29
 30
0.0
 11
17
 21
30
 31
0.0
  0
LINE
  5
3796
  8
0
 10
17
 20
30
 30
0.0
 11
17
 21
31
 31
0.0
  0
LINE
  5
3797
  8
0
 10
17
 20
31
 30
0.0
 11
17
 21
32
 31
0.0
  0
LINE
  5
3798
  8
0
 10
17
 20
32
 30
0.0
 11
17
 21
33
 31
0.0
  0
LINE
  5
3799
  8
0
 10
17
 20
33
 30
0.0
 11
17
 21
34
 31
0.0
  0
LINE
  5
3800
  8
0
 10
17
 20
34
 30
0.0
 11
17
 21
35
 31
0.0
  0
LINE
  5
3801
  8
0
 10
17
 20
35
 30
0.0
 11
16
 21
0
 31
0.0
  0
LINE
  5
3802
  8
0
 10
16
 20
0
 30
0.0
 11
15
 21
0
 31
0.0
  0
LINE
  5
3803
  8
0
 10
15
 20
0
 30
0.0
 11
15
 21
1
 31
0.0
  0
LINE
  5
3804
  8
0
 10
15
 20
1
 30
0.0
 11
15
 21
2
 31
0.0
  0
LINE
  5
3805
  8
0
 10
15
 20
2
 30
0.0
 11
15
 21
3
 31
0.0
  0
LINE
  5
3806
  8
0
 10
15
 20
3
 30
0.0
 11
15
 21
4
 31
0.0
  0
LINE
  5
3807
  8
0
 10
15
 20
4
 30
0.0
 11
15
 21
5
 31
0.0
  0
LINE
  5
3808
  8
0
 10
15
 20
5
 30
0.0
 11
15
 21
6
 31
0.0
  0
LINE
  5
3809
  8
0
 10
15
 20
6
 30
0.0
 11
15
 21
7
 31
0.0
  0
LINE
  5
3810
  8
0
 10
15
 20
7
 30
0.0
 11
15
 21
8
 31
0.0
  0
LINE
  5
3811
  8
0
 10
15
 20
8
 30
0.0
 11
15
 21
9
 31
0.0
  0
LINE
  5
3812
  8
0
 10
15
 20
9
 30
0.0
 11
15
 21
10
 31
0.0
  0
LINE
  5
3813
  8
0
 10
15
 20
10
 30
0.0
 11
15
 21
11
 31
0.0
  0
LINE
  5
3814
  8
0
 10
15
 20
11
 30
0.0
 11
15
 21
12
 31
0.0
  0
LINE
  5
3815
  8
0
 10
15
 20
12
 30
0.0
 11
15
 21
13
 31
0.0
  0
LINE
  5
3816
  8
0
 10
15
 20
13
 30
0.0
 11
15
 21
14
 31
0.0
  0
LINE
  5
3817
  8
0
 10
15
 20
14
 30
0.0
 11
15
 21
15
 31
0.0
  0
LINE
  5
3818
  8
0
 10
15
 20
15
 30
0.0
 11
15
 21
16
 31
0.0
  0
LINE
  5
3819
  8
0
 10
15
 20
16
 30
0.0
 11
15
 21
17
 31
0.0
  0
LINE
  5
3820
  8
0
 10
15
 20
17
 30
0.0
 11
15
 21
18
 31
0.0
  0
LINE
  5
3821
  8
0
 10
15
 20
18
 30
0.0
 11
15
 21
19
 31
0.0
  0
LINE
  5
3822
  8
0
 10
15
 20
19
 30
0.0
 11
15
 21
20
 31
0.0
  0
LINE
  5
3823
  8
0
 10
15
 20
20
 30
0.0
 11
15
 21
21
 31
0.0
  0
LINE
  5
3824
  8
0
 10
15
 20
21
 30
0.0
 11
15
 21
22
 31
0.0
  0
LINE
  5
3825
  8
0
 10
15
 20
22
 30
0.0
 11
15
 21
23
 31
0.0
  0
LINE
  5
3826
  8
0
 10
15
 20
23
 30
0.0
 11
15
 21
24
 31
0.0
  0
LINE
  5
3827
  8
0
 10
15
 20
24
 30
0.0
 11
15
 21
25
 31
0.0
  0
LINE
  5
3828
  8
0
 10
15
 20
25
 30
0.0
 11
15
 21
26
 31
0.0
  0
LINE
  5
3829
  8
0
 10
15
 20
26
 30
0.0
 11
15
 21
27
 31
0.0
  0
LINE
  5
3830
  8
0
 10
15
 20
27
 30
0.0
 11
15
 21
28
 31
0.0
  0
LINE
  5
3831
  8
0
 10
15
 20
28
 30
0.0
 11
15
 21
29
 31
0.0
  0
LINE
  5
3832
  8
0
 10
15
 20
29
 30
0.0
 11
15
 21
30
 31
0.0
  0
LINE
  5
3833
  8
0
 10
15
 20
30
 30
0.0
 11
15
 21
31
 31
0.0
  0
LINE
  5
3834
  8
0
 10
15
 20
31
 30
0.0
 11
15
 21
32
 31
0.0
  0
LINE
  5
3835
  8
0
 10
15
 20
32
 30
0.0
 11
15
 21
33
 31
0.0
  0
LINE
  5
3836
  8
0
 10
15
 20
33
 30
0.0
 11
15
 21
34
 31
0.0
  0
LINE
  5
3837
  8
0
 10
15
 20
34
 30
0.0
 11
15
 21
35
 31
0.0
  0
LINE
  5
3838
  8
0
 10
15
 20
35
 30
0.0
 11
15
 21
36
 31
0.0
  0
LINE
  5
3839
  8
0
 10
15
 20
36
 30
0.0
 11
15
 21
37
 31
0.0
  0
LINE
  5
3840
  8
0
 10
15
 20
37
 30
0.0
 11
15
 21
38
 31
0.0
  0
LINE
  5
3841
  8
0
 10
15
 20
38
 30
0.0
 11
15
 21
39
 31
0.0
  0
LINE
  5
3842
  8
0
 10
15
 20
39
 30
0.0
 11
15
 21
40
 31
0.0
  0
LINE
  5
3843
  8
0
 10
15
 20
40
 30
0.0
 11
15
 21
41
 31
0.0
  0
LINE
  5
3844
  8
0
 10
15
 20
41
 30
0.0
 11
15
 21
42
 31
0.0
  0
LINE
  5
3845
  8
0
 10
15
 20
42
 30
0.0
 11
15
 21
43
 31
0.0
  0
LINE
  5
3846
  8
0
 10
15
 20
43
 30
0.0
 11
15
 21
44
 31
0.0
  0
LINE
  5
3847
  8
0
 10
15
 20
44
 30
0.0
 11
14
 21
0
 31
0.0
  0
LINE
  5
3848
  8
0
 10
14
 20
0
 30
0.0
 11
13
 21
0
 31
0.0
  0
LINE
  5
3849
  8
0
 10
13
 20
0
 30
0.0
 11
13
 21
1
 31
0.0
  0
LINE
  5
3850
  8
0
 10
13
 20
1
 30
0.0
 11
13
 21
2
 31
0.0
  0
LINE
  5
3851
  8
0
 10
13
 20
2
 30
0.0
 11
13
 21
3
 31
0.0
  0
LINE
  5
3852
  8
0
 10
13
 20
3
 30
0.0
 11
13
 21
4
 31
0.0
  0
LINE
  5
3853
  8
0
 10
13
 20
4
 30
0.0
 11
13
 21
5
 31
0.0
  0
LINE
  5
3854
  8
0
 10
13
 20
5
 30
0.0
 11
13
 21
6
 31
0.0
  0
LINE
  5
3855
  8
0
 10
13
 20
6
 30
0.0
 11
13
 21
7
 31
0.0
  0
LINE
  5
3856
  8
0
 10
13
 20
7
 30
0.0
 11
13
 21
8
 31
0.0
  0
LINE
  5
3857
  8
0
 10
13
 20
8
 30
0.0
 11
13
 21
9
 31
0.0
  0
LINE
  5
3858
  8
0
 10
13
 20
9
 30
0.0
 11
13
 21
10
 31
0.0
  0
LINE
  5
3859
  8
0
 10
13
 20
10
 30
0.0
 11
13
 21
11
 31
0.0
  0
LINE
  5
3860
  8
0
 10
13
 20
11
 30
0.0
 11
13
 21
12
 31
0.0
  0
LINE
  5
3861
  8
0
 10
13
 20
12
 30
0.0
 11
13
 21
13
 31
0.0
  0
LINE
  5
3862
  8
0
 10
13
 20
13
 30
0.0
 11
13
 21
14
 31
0.0
  0
LINE
  5
3863
  8
0
 10
13
 20
14
 30
0.0
 11
13
 21
15
 31
0.0
  0
LINE
  5
3864
  8
0
 10
13
 20
15
 30
0.0
 11
13
 21
16
 31
0.0
  0
LINE
  5
3865
  8
0
 10
13
 20
16
 30
0.0
 11
13
 21
17
 31
0.0
  0
LINE
  5
3866
  8
0
 10
13
 20
17
 30
0.0
 11
13
 21
18
 31
0.0
  0
LINE
  5
3867
  8
0
 10
13
 20
18
 30
0.0
 11
13
 21
19
 31
0.0
  0
LINE
  5
3868
  8
0
 10
13
 20
19
 30
0.0
 11
13
 21
20
 31
0.0
  0
LINE
  5
3869
  8
0
 10
13
 20
20
 30
0.0
 11
13
 21
21
 31
0.0
  0
LINE
  5
3870
  8
0
 10
13
 20
21
 30
0.0
 11
13
 21
22
 31
0.0
  0
LINE
  5
3871
  8
0
 10
13
 20
22
 30
0.0
 11
13
 21
23
 31
0.0
  0
LINE
  5
3872
  8
0
 10
13
 20
23
 30
0.0
 11
13
 21
24
 31
0.0
  0
LINE
  5
3873
  8
0
 10
13
 20
24
 30
0.0
 11
13
 21
25
 31
0.0
  0
LINE
  5
3874
  8
0
 10
13
 20
25
 30
0.0
 11
13
 21
26
 31
0.0
  0
LINE
  5
3875
  8
0
 10
13
 20
26
 30
0.0
 11
13
 21
27
 31
0.0
  0
LINE
  5
3876
  8
0
 10
13
 20
27
 30
0.0
 11
13
 21
28
 31
0.0
  0
LINE
  5
3877
  8
0
 10
13
 20
28
 30
0.0
 11
13
 21
29
 31
0.0
  0
LINE
  5
3878
  8
0
 10
13
 20
29
 30
0.0
 11
13
 21
30
 31
0.0
  0
LINE
  5
3879
  8
0
 10
13
 20
30
 30
0.0
 11
13
 21
31
 31
0.0
  0
LINE
  5
3880
  8
0
 10
13
 20
31
 30
0.0
 11
13
 21
32
 31
0.0
  0
LINE
  5
3881
  8
0
 10
13
 20
32
 30
0.0
 11
13
 21
33
 31
0.0
  0
LINE
  5
3882
  8
0
 10
13
 20
33
 30
0.0
 11
13
 21
34
 31
0.0
  0
LINE
  5
3883
  8
0
 10
13
 20
34
 30
0.0
 11
13
 21
35
 31
0.0
  0
LINE
  5
3884
  8
0
 10
13
 20
35
 30
0.0
 11
13
 21
36
 31
0.0
  0
LINE
  5
3885
  8
0
 10
13
 20
36
 30
0.0
 11
13
 21
37
 31
0.0
  0
LINE
  5
3886
  8
0
 10
13
 20
37
 30
0.0
 11
13
 21
38
 31
0.0
  0
LINE
  5
3887
  8
0
 10
13
 20
38
 30
0.0
 11
13
 21
39
 31
0.0
  0
LINE
  5
3888
  8
0
 10
13
 20
39
 30
0.0
 11
13
 21
40
 31
0.0
  0
LINE
  5
3889
  8
0
 10
13
 20
40
 30
0.0
 11
13
 21
41
 31
0.0
  0
LINE
  5
3890
  8
0
 10
13
 20
41
 30
0.0
 11
13
 21
42
 31
0.0
  0
LINE
  5
3891
  8
0
 10
13
 20
42
 30
0.0
 11
13
 21
43
 31
0.0
  0
LINE
  5
3892
  8
0
 10
13
 20
43
 30
0.0
 11
13
 21
44
 31
0.0
  0
LINE
  5
3893
  8
0
 10
13
 20
44
 30
0.0
 11
12
 21
0
 31
0.0
  0
LINE
  5
3894
  8
0
 10
12
 20
0
 30
0.0
 11
11
 21
0
 31
0.0
  0
LINE
  5
3895
  8
0
 10
11
 20
0
 30
0.0
 11
11
 21
1
 31
0.0
  0
LINE
  5
3896
  8
0
 10
11
 20
1
 30
0.0
 11
11
 21
2
 31
0.0
  0
LINE
  5
3897
  8
0
 10
11
 20
2
 30
0.0
 11
11
 21
3
 31
0.0
  0
LINE
  5
3898
  8
0
 10
11
 20
3
 30
0.0
 11
11
 21
4
 31
0.0
  0
LINE
  5
3899
  8
0
 10
11
 20
4
 30
0.0
 11
11
 21
5
 31
0.0
  0
LINE
  5
3900
  8
0
 10
11
 20
5
 30
0.0
 11
11
 21
6
 31
0.0
  0
LINE
  5
3901
  8
0
 10
11
 20
6
 30
0.0
 11
11
 21
7
 31
0.0
  0
LINE
  5
3902
  8
0
 10
11
 20
7
 30
0.0
 11
11
 21
8
 31
0.0
  0
LINE
  5
3903
  8
0
 10
11
 20
8
 30
0.0
 11
11
 21
9
 31
0.0
  0
LINE
  5
3904
  8
0
 10
11
 20
9
 30
0.0
 11
11
 21
10
 31
0.0
  0
LINE
  5
3905
  8
0
 10
11
 20
10
 30
0.0
 11
11
 21
11
 31
0.0
  0
LINE
  5
3906
  8
0
 10
11
 20
11
 30
0.0
 11
11
 21
12
 31
0.0
  0
LINE
  5
3907
  8
0
 10
11
 20
12
 30
0.0
 11
11
 21
13
 31
0.0
  0
LINE
  5
3908
  8
0
 10
11
 20
13
 30
0.0
 11
11
 21
14
 31
0.0
  0
LINE
  5
3909
  8
0
 10
11
 20
14
 30
0.0
 11
11
 21
15
 31
0.0
  0
LINE
  5
3910
  8
0
 10
11
 20
15
 30
0.0
 11
11
 21
16
 31
0.0
  0
LINE
  5
3911
  8
0
 10
11
 20
16
 30
0.0
 11
11
 21
17
 31
0.0
  0
LINE
  5
3912
  8
0
 10
11
 20
17
 30
0.0
 11
11
 21
18
 31
0.0
  0
LINE
  5
3913
  8
0
 10
11
 20
18
 30
0.0
 11
11
 21
19
 31
0.0
  0
LINE
  5
3914
  8
0
 10
11
 20
19
 30
0.0
 11
11
 21
20
 31
0.0
  0
LINE
  5
3915
  8
0
 10
11
 20
20
 30
0.0
 11
11
 21
21
 31
0.0
  0
LINE
  5
3916
  8
0
 10
11
 20
21
 30
0.0
 11
11
 21
22
 31
0.0
  0
LINE
  5
3917
  8
0
 10
11
 20
22
 30
0.0
 11
11
 21
23
 31
0.0
  0
LINE
  5
3918
  8
0
 10
11
 20
23
 30
0.0
 11
11
 21
24
 31
0.0
  0
LINE
  5
3919
  8
0
 10
11
 20
24
 30
0.0
 11
11
 21
25
 31
0.0
  0
LINE
  5
3920
  8
0
 10
11
 20
25
 30
0.0
 11
11
 21
26
 31
0.0
  0
LINE
  5
3921
  8
0
 10
11
 20
26
 30
0.0
 11
11
 21
27
 31
0.0
  0
LINE
  5
3922
  8
0
 10
11
 20
27
 30
0.0
 11
11
 21
28
 31
0.0
  0
LINE
  5
3923
  8
0
 10
11
 20
28
 30
0.0
 11
11
 21
29
 31
0.0
  0
LINE
  5
3924
  8
0
 10
11
 20
29
 30
0.0
 11
11
 21
30
 31
0.0
  0
LINE
  5
3925
  8
0
 10
11
 20
30
 30
0.0
 11
11
 21
31
 31
0.0
  0
LINE
  5
3926
  8
0
 10
11
 20
31
 30
0.0
 11
11
 21
32
 31
0.0
  0
LINE
  5
3927
  8
0
 10
11
 20
32
 30
0.0
 11
11
 21
33
 31
0.0
  0
LINE
  5
3928
  8
0
 10
11
 20
33
 30
0.0
 11
11
 21
34
 31
0.0
  0
LINE
  5
3929
  8
0
 10
11
 20
34
 30
0.0
 11
11
 21
35
 31
0.0
  0
LINE
  5
3930
  8
0
 10
11
 20
35
 30
0.0
 11
11
 21
36
 31
0.0
  0
LINE
  5
3931
  8
0
 10
11
 20
36
 30
0.0
 11
11
 21
37
 31
0.0
  0
LINE
  5
3932
  8
0
 10
11
 20
37
 30
0.0
 11
11
 21
38
 31
0.0
  0
LINE
  5
3933
  8
0
 10
11
 20
38
 30
0.0
 11
11
 21
39
 31
0.0
  0
LINE
  5
3934
  8
0
 10
11
 20
39
 30
0.0
 11
11
 21
40
 31
0.0
  0
LINE
  5
3935
  8
0
 10
11
 20
40
 30
0.0
 11
11
 21
41
 31
0.0
  0
LINE
  5
3936
  8
0
 10
11
 20
41
 30
0.0
 11
11
 21
42
 31
0.0
  0
LINE
  5
3937
  8
0
 10
11
 20
42
 30
0.0
 11
11
 21
43
 31
0.0
  0
LINE
  5
3938
  8
0
 10
11
 20
43
 30
0.0
 11
11
 21
44
 31
0.0
  0
LINE
  5
3939
  8
0
 10
11
 20
44
 30
0.0
 11
10
 21
0
 31
0.0
  0
LINE
  5
3940
  8
0
 10
10
 20
0
 30
0.0
 11
9
 21
0
 31
0.0
  0
LINE
  5
3941
  8
0
 10
9
 20
0
 30
0.0
 11
9
 21
1
 31
0.0
  0
LINE
  5
3942
  8
0
 10
9
 20
1
 30
0.0
 11
9
 21
2
 31
0.0
  0
LINE
  5
3943
  8
0
 10
9
 20
2
 30
0.0
 11
9
 21
3
 31
0.0
  0
LINE
  5
3944
  8
0
 10
9
 20
3
 30
0.0
 11
9
 21
4
 31
0.0
  0
LINE
  5
3945
  8
0
 10
9
 20
4
 30
0.0
 11
9
 21
5
 31
0.0
  0
LINE
  5
3946
  8
0
 10
9
 20
5
 30
0.0
 11
9
 21
6
 31
0.0
  0
LINE
  5
3947
  8
0
 10
9
 20
6
 30
0.0
 11
9
 21
7
 31
0.0
  0
LINE
  5
3948
  8
0
 10
9
 20
7
 30
0.0
 11
9
 21
8
 31
0.0
  0
LINE
  5
3949
  8
0
 10
9
 20
8
 30
0.0
 11
9
 21
9
 31
0.0
  0
LINE
  5
3950
  8
0
 10
9
 20
9
 30
0.0
 11
9
 21
10
 31
0.0
  0
LINE
  5
3951
  8
0
 10
9
 20
10
 30
0.0
 11
9
 21
11
 31
0.0
  0
LINE
  5
3952
  8
0
 10
9
 20
11
 30
0.0
 11
9
 21
12
 31
0.0
  0
LINE
  5
3953
  8
0
 10
9
 20
12
 30
0.0
 11
9
 21
13
 31
0.0
  0
LINE
  5
3954
  8
0
 10
9
 20
13
 30
0.0
 11
9
 21
14
 31
0.0
  0
LINE
  5
3955
  8
0
 10
9
 20
14
 30
0.0
 11
9
 21
15
 31
0.0
  0
LINE
  5
3956
  8
0
 10
9
 20
15
 30
0.0
 11
9
 21
16
 31
0.0
  0
LINE
  5
3957
  8
0
 10
9
 20
16
 30
0.0
 11
9
 21
17
 31
0.0
  0
LINE
  5
3958
  8
0
 10
9
 20
17
 30
0.0
 11
9
 21
18
 31
0.0
  0
LINE
  5
3959
  8
0
 10
9
 20
18
 30
0.0
 11
9
 21
19
 31
0.0
  0
LINE
  5
3960
  8
0
 10
9
 20
19
 30
0.0
 11
9
 21
20
 31
0.0
  0
LINE
  5
3961
  8
0
 10
9
 20
20
 30
0.0
 11
9
 21
21
 31
0.0
  0
LINE
  5
3962
  8
0
 10
9
 20
21
 30
0.0
 11
9
 21
22
 31
0.0
  0
LINE
  5
3963
  8
0
 10
9
 20
22
 30
0.0
 11
9
 21
23
 31
0.0
  0
LINE
  5
3964
  8
0
 10
9
 20
23
 30
0.0
 11
9
 21
24
 31
0.0
  0
LINE
  5
3965
  8
0
 10
9
 20
24
 30
0.0
 11
9
 21
25
 31
0.0
  0
LINE
  5
3966
  8
0
 10
9
 20
25
 30
0.0
 11
9
 21
26
 31
0.0
  0
LINE
  5
3967
  8
0
 10
9
 20
26
 30
0.0
 11
9
 21
27
 31
0.0
  0
LINE
  5
3968
  8
0
 10
9
 20
27
 30
0.0
 11
9
 21
28
 31
0.0
  0
LINE
  5
3969
  8
0
 10
9
 20
28
 30
0.0
 11
9
 21
29
 31
0.0
  0
LINE
  5
3970
  8
0
 10
9
 20
29
 30
0.0
 11
9
 21
30
 31
0.0
  0
LINE
  5
3971
  8
0
 10
9
 20
30
 30
0.0
 11
9
 21
31
 31
0.0
  0
LINE
  5
3972
  8
0
 10
9
 20
31
 30
0.0
 11
9
 21
32
 31
0.0
  0
LINE
  5
3973
  8
0
 10
9
 20
32
 30
0.0
 11
9
 21
33
 31
0.0
  0
LINE
  5
3974
  8
0
 10
9
 20
33
 30
0.0
 11
9
 21
34
 31
0.0
  0
LINE
  5
3975
  8
0
 10
9
 20
34
 30
0.0
 11
9
 21
35
 31
0.0
  0
LINE
  5
3976
  8
0
 10
9
 20
35
 30
0.0
 11
9
 21
36
 31
0.0
  0
LINE
  5
3977
  8
0
 10
9
 20
36
 30
0.0
 11
9
 21
37
 31
0.0
  0
LINE
  5
3978
  8
0
 10
9
 20
37
 30
0.0
 11
9
 21
38
 31
0.0
  0
LINE
  5
3979
  8
0
 10
9
 20
38
 30
0.0
 11
9
 21
39
 31
0.0
  0
LINE
  5
3980
  8
0
 10
9
 20
39
 30
0.0
 11
9
 21
40
 31
0.0
  0
LINE
  5
3981
  8
0
 10
9
 20
40
 30
0.0
 11
9
 21
41
 31
0.0
  0
LINE
  5
3982
  8
0
 10
9
 20
41
 30
0.0
 11
9
 21
42
 31
0.0
  0
LINE
  5
3983
  8
0
 10
9
 20
42
 30
0.0
 11
9
 21
43
 31
0.0
  0
LINE
  5
3984
  8
0
 10
9
 20
43
 30
0.0
 11
9
 21
44
 31
0.0
  0
LINE
  5
3985
  8
0
 10
9
 20
44
 30
0.0
 11
8
 21
0
 31
0.0
  0
LINE
  5
3986
  8
0
 10
8
 20
0
 30
0.0
 11
7
 21
0
 31
0.0
  0
LINE
  5
3987
  8
0
 10
7
 20
0
 30
0.0
 11
7
 21
1
 31
0.0
  0
LINE
  5
3988
  8
0
 10
7
 20
1
 30
0.0
 11
7
 21
2
 31
0.0
  0
LINE
  5
3989
  8
0
 10
7
 20
2
 30
0.0
 11
7
 21
3
 31
0.0
  0
LINE
  5
3990
  8
0
 10
7
 20
3
 30
0.0
 11
7
 21
4
 31
0.0
  0
LINE
  5
3991
  8
0
 10
7
 20
4
 30
0.0
 11
7
 21
5
 31
0.0
  0
LINE
  5
3992
  8
0
 10
7
 20
5
 30
0.0
 11
7
 21
6
 31
0.0
  0
LINE
  5
3993
  8
0
 10
7
 20
6
 30
0.0
 11
7
 21
7
 31
0.0
  0
LINE
  5
3994
  8
0
 10
7
 20
7
 30
0.0
 11
7
 21
8
 31
0.0
  0
LINE
  5
3995
  8
0
 10
7
 20
8
 30
0.0
 11
7
 21
9
 31
0.0
  0
LINE
  5
3996
  8
0
 10
7
 20
9
 30
0.0
 11
7
 21
10
 31
0.0
  0
LINE
  5
3997
  8
0
 10
7
 20
10
 30
0.0
 11
7
 21
11
 31
0.0
  0
LINE
  5
3998
  8
0
 10
7
 20
11
 30
0.0
 11
7
 21
12
 31
0.0
  0
LINE
  5
3999
  8
0
 10
7
 20
12
 30
0.0
 11
7
 21
13
 31
0.0
  0
LINE
  5
4000
  8
0
 10
7
 20
13
 30
0.0
 11
7
 21
14
 31
0.0
  0
LINE
  5
4001
  8
0
 10
7
 20
14
 30
0.0
 11
7
 21
15
 31
0.0
  0
LINE
  5
4002
  8
0
 10
7
 20
15
 30
0.0
 11
7
 21
16
 31
0.0
  0
LINE
  5
4003
  8
0
 10
7
 20
16
 30
0.0
 11
7
 21
17
 31
0.0
  0
LINE
  5
4004
  8
0
 10
7
 20
17
 30
0.0
 11
7
 21
18
 31
0.0
  0
LINE
  5
4005
  8
0
 10
7
 20
18
 30
0.0
 11
7
 21
19
 31
0.0
  0
LINE
  5
4006
  8
0
 10
7
 20
19
 30
0.0
 11
7
 21
20
 31
0.0
  0
LINE
  5
4007
  8
0
 10
7
 20
20
 30
0.0
 11
7
 21
21
 31
0.0
  0
LINE
  5
4008
  8
0
 10
7
 20
21
 30
0.0
 11
7
 21
22
 31
0.0
  0
LINE
  5
4009
  8
0
 10
7
 20
22
 30
0.0
 11
7
 21
23
 31
0.0
  0
LINE
  5
4010
  8
0
 10
7
 20
23
 30
0.0
 11
7
 21
24
 31
0.0
  0
LINE
  5
4011
  8
0
 10
7
 20
24
 30
0.0
 11
7
 21
25
 31
0.0
  0
LINE
  5
4012
  8
0
 10
7
 20
25
 30
0.0
 11
7
 21
26
 31
0.0
  0
LINE
  5
4013
  8
0
 10
7
 20
26
 30
0.0
 11
7
 21
27
 31
0.0
  0
LINE
  5
4014
  8
0
 10
7
 20
27
 30
0.0
 11
7
 21
28
 31
0.0
  0
LINE
  5
4015
  8
0
 10
7
 20
28
 30
0.0
 11
7
 21
29
 31
0.0
  0
LINE
  5
4016
  8
0
 10
7
 20
29
 30
0.0
 11
7
 21
30
 31
0.0
  0
LINE
  5
4017
  8
0
 10
7
 20
30
 30
0.0
 11
7
 21
31
 31
0.0
  0
LINE
  5
4018
  8
0
 10
7
 20
31
 30
0.0
 11
7
 21
32
 31
0.0
  0
LINE
  5
4019
  8
0
 10
7
 20
32
 30
0.0
 11
7
 21
33
 31
0.0
  0
LINE
  5
4020
  8
0
 10
7
 20
33
 30
0.0
 11
7
 21
34
 31
0.0
  0
LINE
  5
4021
  8
0
 10
7
 20
34
 30
0.0
 11
7
 21
35
 31
0.0
  0
LINE
  5
4022
  8
0
 10
7
 20
35
 30
0.0
 11
7
 21
36
 31
0.0
  0
LINE
  5
4023
  8
0
 10
7
 20
36
 30
0.0
 11
7
 21
37
 31
0.0
  0
LINE
  5
4024
  8
0
 10
7
 20
37
 30
0.0
 11
7
 21
38
 31
0.0
  0
LINE
  5
4025
  8
0
 10
7
 20
38
 30
0.0
 11
7
 21
39
 31
0.0
  0
LINE
  5
4026
  8
0
 10
7
 20
39
 30
0.0
 11
7
 21
40
 31
0.0
  0
LINE
  5
4027
  8
0
 10
7
 20
40
 30
0.0
 11
7
 21
41
 31
0.0
  0
LINE
  5
4028
  8
0
 10
7
 20
41
 30
0.0
 11
7
 21
42
 31
0.0
  0
LINE
  5
4029
  8
0
 10
7
 20
42
 30
0.0
 11
7
 21
43
 31
0.0
  0
LINE
  5
4030
  8
0
 10
7
 20
43
 30
0.0
 11
7
 21
44
 31
0.0
  0
LINE
  5
4031
  8
0
 10
7
 20
44
 30
0.0
 11
6
 21
0
 31
0.0
  0
LINE
  5
4032
  8
0
 10
6
 20
0
 30
0.0
 11
5
 21
0
 31
0.0
  0
LINE
  5
4033
  8
0
 10
5
 20
0
 30
0.0
 11
5
 21
1
 31
0.0
  0
LINE
  5
4034
  8
0
 10
5
 20
1
 30
0.0
 11
5
 21
2
 31
0.0
  0
LINE
  5
4035
  8
0
 10
5
 20
2
 30
0.0
 11
5
 21
3
 31
0.0
  0
LINE
  5
4036
  8
0
 10
5
 20
3
 30
0.0
 11
5
 21
4
 31
0.0
  0
LINE
  5
4037
  8
0
 10
5
 20
4
 30
0.0
 11
5
 21
5
 31
0.0
  0
LINE
  5
4038
  8
0
 10
5
 20
5
 30
0.0
 11
5
 21
6
 31
0.0
  0
LINE
  5
4039
  8
0
 10
5
 20
6
 30
0.0
 11
5
 21
7
 31
0.0
  0
LINE
  5
4040
  8
0
 10
5
 20
7
 30
0.0
 11
5
 21
8
 31
0.0
  0
LINE
  5
4041
  8
0
 10
5
 20
8
 30
0.0
 11
5
 21
9
 31
0.0
  0
LINE
  5
4042
  8
0
 10
5
 20
9
 30
0.0
 11
5
 21
10
 31
0.0
  0
LINE
  5
4043
  8
0
 10
5
 20
10
 30
0.0
 11
5
 21
11
 31
0.0
  0
LINE
  5
4044
  8
0
 10
5
 20
11
 30
0.0
 11
5
 21
12
 31
0.0
  0
LINE
  5
4045
  8
0
 10
5
 20
12
 30
0.0
 11
5
 21
13
 31
0.0
  0
LINE
  5
4046
  8
0
 10
5
 20
13
 30
0.0
 11
5
 21
14
 31
0.0
  0
LINE
  5
4047
  8
0
 10
5
 20
14
 30
0.0
 11
5
 21
15
 31
0.0
  0
LINE
  5
4048
  8
0
 10
5
 20
15
 30
0.0
 11
5
 21
16
 31
0.0
  0
LINE
  5
4049
  8
0
 10
5
 20
16
 30
0.0
 11
5
 21
17
 31
0.0
  0
LINE
  5
4050
  8
0
 10
5
 20
17
 30
0.0
 11
5
 21
18
 31
0.0
  0
LINE
  5
4051
  8
0
 10
5
 20
18
 30
0.0
 11
5
 21
19
 31
0.0
  0
LINE
  5
4052
  8
0
 10
5
 20
19
 30
0.0
 11
5
 21
20
 31
0.0
  0
LINE
  5
4053
  8
0
 10
5
 20
20
 30
0.0
 11
5
 21
21
 31
0.0
  0
LINE
  5
4054
  8
0
 10
5
 20
21
 30
0.0
 11
5
 21
22
 31
0.0
  0
LINE
  5
4055
  8
0
 10
5
 20
22
 30
0.0
 11
5
 21
23
 31
0.0
  0
LINE
  5
4056
  8
0
 10
5
 20
23
 30
0.0
 11
5
 21
24
 31
0.0
  0
LINE
  5
4057
  8
0
 10
5
 20
24
 30
0.0
 11
5
 21
25
 31
0.0
  0
LINE
  5
4058
  8
0
 10
5
 20
25
 30
0.0
 11
5
 21
26
 31
0.0
  0
LINE
  5
4059
  8
0
 10
5
 20
26
 30
0.0
 11
5
 21
27
 31
0.0
  0
LINE
  5
4060
  8
0
 10
5
 20
27
 30
0.0
 11
5
 21
28
 31
0.0
  0
LINE
  5
4061
  8
0
 10
5
 20
28
 30
0.0
 11
5
 21
29
 31
0.0
  0
LINE
  5
4062
  8
0
 10
5
 20
29
 30
0.0
 11
5
 21
30
 31
0.0
  0
LINE
  5
4063
  8
0
 10
5
 20
30
 30
0.0
 11
5
 21
31
 31
0.0
  0
LINE
  5
4064
  8
0
 10
5
 20
31
 30
0.0
 11
5
 21
32
 31
0.0
  0
LINE
  5
4065
  8
0
 10
5
 20
32
 30
0.0
 11
5
 21
33
 31
0.0
  0
LINE
  5
4066
  8
0
 10
5
 20
33
 30
0.0
 11
5
 21
34
 31
0.0
  0
LINE
  5
4067
  8
0
 10
5
 20
34
 30
0.0
 11
5
 21
35
 31
0.0
  0
LINE
  5
4068
  8
0
 10
5
 20
35
 30
0.0
 11
5
 21
36
 31
0.0
  0
LINE
  5
4069
  8
0
 10
5
 20
36
 30
0.0
 11
5
 21
37
 31
0.0
  0
LINE
  5
4070
  8
0
 10
5
 20
37
 30
0.0
 11
5
 21
38
 31
0.0
  0
LINE
  5
4071
  8
0
 10
5
 20
38
 30
0.0
 11
5
 21
39
 31
0.0
  0
LINE
  5
4072
  8
0
 10
5
 20
39
 30
0.0
 11
5
 21
40
 31
0.0
  0
LINE
  5
4073
  8
0
 10
5
 20
40
 30
0.0
 11
5
 21
41
 31
0.0
  0
LINE
  5
4074
  8
0
 10
5
 20
41
 30
0.0
 11
5
 21
42
 31
0.0
  0
LINE
  5
4075
  8
0
 10
5
 20
42
 30
0.0
 11
5
 21
43
 31
0.0
  0
LINE
  5
4076
  8
0
 10
5
 20
43
 30
0.0
 11
5
 21
44
 31
0.0
  0
LINE
  5
4077
  8
0
 10
5
 20
44
 30
0.0
 11
4
 21
0
 31
0.0
  0
LINE
  5
4078
  8
0
 10
4
 20
0
 30
0.0
 11
3
 21
0
 31
0.0
  0
LINE
  5
4079
  8
0
 10
3
 20
0
 30
0.0
 11
3
 21
1
 31
0.0
  0
LINE
  5
4080
  8
0
 10
3
 20
1
 30
0.0
 11
3
 21
2
 31
0.0
  0
LINE
  5
4081
  8
0
 10
3
 20
2
 30
0.0
 11
3
 21
3
 31
0.0
  0
LINE
  5
4082
  8
0
 10
3
 20
3
 30
0.0
 11
3
 21
4
 31
0.0
  0
LINE
  5
4083
  8
0
 10
3
 20
4
 30
0.0
 11
3
 21
5
 31
0.0
  0
LINE
  5
4084
  8
0
 10
3
 20
5
 30
0.0
 11
3
 21
6
 31
0.0
  0
LINE
  5
4085
  8
0
 10
3
 20
6
 30
0.0
 11
3
 21
7
 31
0.0
  0
LINE
  5
4086
  8
0
 10
3
 20
7
 30
0.0
 11
3
 21
8
 31
0.0
  0
LINE
  5
4087
  8
0
 10
3
 20
8
 30
0.0
 11
3
 21
9
 31
0.0
  0
LINE
  5
4088
  8
0
 10
3
 20
9
 30
0.0
 11
3
 21
10
 31
0.0
  0
LINE
  5
4089
  8
0
 10
3
 20
10
 30
0.0
 11
3
 21
11
 31
0.0
  0
LINE
  5
4090
  8
0
 10
3
 20
11
 30
0.0
 11
3
 21
12
 31
0.0
  0
LINE
  5
4091
  8
0
 10
3
 20
12
 30
0.0
 11
3
 21
13
 31
0.0
  0
LINE
  5
4092
  8
0
 10
3
 20
13
 30
0.0
 11
3
 21
14
 31
0.0
  0
LINE
  5
4093
  8
0
 10
3
 20
14
 30
0.0
 11
3
 21
15
 31
0.0
  0
LINE
  5
4094
  8
0
 10
3
 20
15
 30
0.0
 11
3
 21
16
 31
0.0
  0
LINE
  5
4095
  8
0
 10
3
 20
16
 30
0.0
 11
3
 21
17
 31
0.0
  0
LINE
  5
4096
  8
0
 10
3
 20
17
 30
0.0
 11
3
 21
18
 31
0.0
  0
LINE
  5
4097
  8
0
 10
3
 20
18
 30
0.0
 11
3
 21
19
 31
0.0
  0
LINE
  5
4098
  8
0
 10
3
 20
19
 30
0.0
 11
3
 21
20
 31
0.0
  0
LINE
  5
4099
  8
0
 10
3
 20
20
 30
0.0
 11
3
 21
21
 31
0.0
  0
LINE
  5
4100
  8
0
 10
3
 20
21
 30
0.0
 11
3
 21
22
 31
0.0
  0
LINE
  5
4101
  8
0
 10
3
 20
22
 30
0.0
 11
3
 21
23
 31
0.0
  0
LINE
  5
4102
  8
0
 10
3
 20
23
 30
0.0
 11
3
 21
24
 31
0.0
  0
LINE
  5
4103
  8
0
 10
3
 20
24
 30
0.0
 11
3
 21
25
 31
0.0
  0
LINE
  5
4104
  8
0
 10
3
 20
25
 30
0.0
 11
3
 21
26
 31
0.0
  0
LINE
  5
4105
  8
0
 10
3
 20
26
 30
0.0
 11
3
 21
27
 31
0.0
  0
LINE
  5
4106
  8
0
 10
3
 20
27
 30
0.0
 11
3
 21
28
 31
0.0
  0
LINE
  5
4107
  8
0
 10
3
 20
28
 30
0.0
 11
3
 21
29
 31
0.0
  0
LINE
  5
4108
  8
0
 10
3
 20
29
 30
0.0
 11
3
 21
30
 31
0.0
  0
LINE
  5
4109
  8
0
 10
3
 20
30
 30
0.0
 11
3
 21
31
 31
0.0
  0
LINE
  5
4110
  8
0
 10
3
 20
31
 30
0.0
 11
3
 21
32
 31
0.0
  0
LINE
  5
4111
  8
0
 10
3
 20
32
 30
0.0
 11
3
 21
33
 31
0.0
  0
LINE
  5
4112
  8
0
 10
3
 20
33
 30
0.0
 11
3
 21
34
 31
0.0
  0
LINE
  5
4113
  8
0
 10
3
 20
34
 30
0.0
 11
3
 21
35
 31
0.0
  0
LINE
  5
4114
  8
0
 10
3
 20
35
 30
0.0
 11
3
 21
36
 31
0.0
  0
LINE
  5
4115
  8
0
 10
3
 20
36
 30
0.0
 11
3
 21
37
 31
0.0
  0
LINE
  5
4116
  8
0
 10
3
 20
37
 30
0.0
 11
3
 21
38
 31
0.0
  0
LINE
  5
4117
  8
0
 10
3
 20
38
 30
0.0
 11
3
 21
39
 31
0.0
  0
LINE
  5
4118
  8
0
 10
3
 20
39
 30
0.0
 11
3
 21
40
 31
0.0
  0
LINE
  5
4119
  8
0
 10
3
 20
40
 30
0.0
 11
3
 21
41
 31
0.0
  0
LINE
  5
4120
  8
0
 10
3
 20
41
 30
0.0
 11
3
 21
42
 31
0.0
  0
LINE
  5
4121
  8
0
 10
3
 20
42
 30
0.0
 11
3
 21
43
 31
0.0
  0
LINE
  5
4122
  8
0
 10
3
 20
43
 30
0.0
 11
3
 21
44
 31
0.0
  0
LINE
  5
4123
  8
0
 10
3
 20
44
 30
0.0
 11
2
 21
0
 31
0.0
  0
LINE
  5
4124
  8
0
 10
2
 20
0
 30
0.0
 11
1
 21
0
 31
0.0
  0
LINE
  5
4125
  8
0
 10
1
 20
0
 30
0.0
 11
1
 21
1
 31
0.0
  0
LINE
  5
4126
  8
0
 10
1
 20
1
 30
0.0
 11
1
 21
2
 31
0.0
  0
LINE
  5
4127
  8
0
 10
1
 20
2
 30
0.0
 11
1
 21
3
 31
0.0
  0
LINE
  5
4128
  8
0
 10
1
 20
3
 30
0.0
 11
1
 21
4
 31
0.0
  0
LINE
  5
4129
  8
0
 10
1
 20
4
 30
0.0
 11
1
 21
5
 31
0.0
  0
LINE
  5
4130
  8
0
 10
1
 20
5
 30
0.0
 11
1
 21
6
 31
0.0
  0
LINE
  5
4131
  8
0
 10
1
 20
6
 30
0.0
 11
1
 21
7
 31
0.0
  0
LINE
  5
4132
  8
0
 10
1
 20
7
 30
0.0
 11
1
 21
8
 31
0.0
  0
LINE
  5
4133
  8
0
 10
1
 20
8
 30
0.0
 11
1
 21
9
 31
0.0
  0
LINE
  5
4134
  8
0
 10
1
 20
9
 30
0.0
 11
1
 21
10
 31
0.0
  0
LINE
  5
4135
  8
0
 10
1
 20
10
 30
0.0
 11
1
 21
11
 31
0.0
  0
LINE
  5
4136
  8
0
 10
1
 20
11
 30
0.0
 11
1
 21
12
 31
0.0
  0
LINE
  5
4137
  8
0
 10
1
 20
12
 30
0.0
 11
1
 21
13
 31
0.0
  0
LINE
  5
4138
  8
0
 10
1
 20
13
 30
0.0
 11
1
 21
14
 31
0.0
  0
LINE
  5
4139
  8
0
 10
1
 20
14
 30
0.0
 11
1
 21
15
 31
0.0
  0
LINE
  5
4140
  8
0
 10
1
 20
15
 30
0.0
 11
1
 21
16
 31
0.0
  0
LINE
  5
4141
  8
0
 10
1
 20
16
 30
0.0
 11
1
 21
17
 31
0.0
  0
LINE
  5
4142
  8
0
 10
1
 20
17
 30
0.0
 11
1
 21
18
 31
0.0
  0
LINE
  5
4143
  8
0
 10
1
 20
18
 30
0.0
 11
1
 21
19
 31
0.0
  0
LINE
  5
4144
  8
0
 10
1
 20
19
 30
0.0
 11
1
 21
20
 31
0.0
  0
LINE
  5
4145
  8
0
 10
1
 20
20
 30
0.0
 11
1
 21
21
 31
0.0
  0
LINE
  5
4146
  8
0
 10
1
 20
21
 30
0.0
 11
1
 21
22
 31
0.0
  0
LINE
  5
4147
  8
0
 10
1
 20
22
 30
0.0
 11
1
 21
23
 31
0.0
  0
LINE
  5
4148
  8
0
 10
1
 20
23
 30
0.0
 11
1
 21
24
 31
0.0
  0
LINE
  5
4149
  8
0
 10
1
 20
24
 30
0.0
 11
1
 21
25
 31
0.0
  0
LINE
  5
4150
  8
0
 10
1
 20
25
 30
0.0
 11
1
 21
26
 31
0.0
  0
LINE
  5
4151
  8
0
 10
1
 20
26
 30
0.0
 11
1
 21
27
 31
0.0
  0
LINE
  5
4152
  8
0
 10
1
 20
27
 30
0.0
 11
1
 21
28
 31
0.0
  0
LINE
  5
4153
  8
0
 10
1
 20
28
 30
0.0
 11
1
 21
29
 31
0.0
  0
LINE
  5
4154
  8
0
 10
1
 20
29
 30
0.0
 11
1
 21
30
 31
0.0
  0
LINE
  5
4155
  8
0
 10
1
 20
30
 30
0.0
 11
1
 21
31
 31
0.0
  0
LINE
  5
4156
  8
0
 10
1
 20
31
 30
0.0
 11
1
 21
32
 31
0.0
  0
LINE
  5
4157
  8
0
 10
1
 20
32
 30
0.0
 11
1
 21
33
 31
0.0
  0
LINE
  5
4158
  8
0
 10
1
 20
33
 30
0.0
 11
1
 21
34
 31
0.0
  0
LINE
  5
4159
  8
0
 10
1
 20
34
 30
0.0
 11
1
 21
35
 31
0.0
  0
LINE
  5
4160
  8
0
 10
1
 20
35
 30
0.0
 11
1
 21
36
 31
0.0
  0
LINE
  5
4161
  8
0
 10
1
 20
36
 30
0.0
 11
1
 21
37
 31
0.0
  0
LINE
  5
4162
  8
0
 10
1
 20
37
 30
0.0
 11
1
 21
38
 31
0.0
  0
LINE
  5
4163
  8
0
 10
1
 20
38
 30
0.0
 11
1
 21
39
 31
0.0
  0
LINE
  5
4164
  8
0
 10
1
 20
39
 30
0.0
 11
1
 21
40
 31
0.0
  0
LINE
  5
4165
  8
0
 10
1
 20
40
 30
0.0
 11
1
 21
41
 31
0.0
  0
LINE
  5
4166
  8
0
 10
1
 20
41
 30
0.0
 11
1
 21
42
 31
0.0
  0
LINE
  5
4167
  8
0
 10
1
 20
42
 30
0.0
 11
1
 21
43
 31
0.0
  0
LINE
  5
4168
  8
0
 10
1
 20
43
 30
0.0
 11
1
 21
44
 31
0.0
  0
TEXT
  5
4169
  8
0
 62
     1
 10
17.5
 20
0.5
 30
0.0
 40
1.0
  1
p1
  0
LINE
  5
4170
  8
0
 62
     1
 10
17.5
 20
0.5
 30
0.0
 11
19
 21
0
 31
0.0
  0
ENDSEC
  0
EOF
